<svg width="60" height="60" viewBox="0 0 60 60" fill="none" xmlns="http://www.w3.org/2000/svg">
<path d="M55.1429 17.0003C55.1449 16.6602 55.0797 16.3231 54.9511 16.0083C54.8225 15.6935 54.633 15.4072 54.3935 15.1657L43.4369 4.20983C43.1954 3.97035 42.909 3.78088 42.5942 3.65229C42.2794 3.52371 41.9422 3.45853 41.6021 3.46049C41.2621 3.45853 40.9249 3.52371 40.6101 3.65229C40.2952 3.78088 40.0089 3.97035 39.7674 4.20983L32.4543 11.5224L4.20989 39.7648C3.97039 40.0062 3.78091 40.2925 3.65231 40.6074C3.52371 40.9222 3.45853 41.2593 3.46049 41.5994V52.5552C3.46049 53.2405 3.73275 53.8978 4.21736 54.3824C4.70198 54.8669 5.35926 55.1392 6.04461 55.1392H17.0013C17.3629 55.1588 17.7246 55.1023 18.0629 54.9732C18.4012 54.8441 18.7087 54.6454 18.9652 54.3898L47.0546 26.1474L54.3935 18.9641C54.6294 18.7137 54.8216 18.4254 54.9621 18.1114C54.9869 17.9054 54.9869 17.6972 54.9621 17.4913C54.9741 17.371 54.9741 17.2498 54.9621 17.1295L55.1429 17.0003ZM15.9418 49.9713H8.62874V42.6588L34.2891 17.0003L41.6021 24.3128L15.9418 49.9713ZM45.2458 20.6695L37.9327 13.357L41.6021 9.71361L48.8894 17.0003L45.2458 20.6695Z" fill="#7C00DE" fill-opacity="0.8"/>
<path d="M55.1429 17.0003C55.1449 16.6602 55.0797 16.3231 54.9511 16.0083C54.8225 15.6935 54.633 15.4072 54.3935 15.1657L43.4369 4.20983C43.1954 3.97035 42.909 3.78088 42.5942 3.65229C42.2794 3.52371 41.9422 3.45853 41.6021 3.46049C41.2621 3.45853 40.9249 3.52371 40.6101 3.65229C40.2952 3.78088 40.0089 3.97035 39.7674 4.20983L32.4543 11.5224L4.20989 39.7648C3.97039 40.0062 3.78091 40.2925 3.65231 40.6074C3.52371 40.9222 3.45853 41.2593 3.46049 41.5994V52.5552C3.46049 53.2405 3.73275 53.8978 4.21736 54.3824C4.70198 54.8669 5.35926 55.1392 6.04461 55.1392H17.0013C17.3629 55.1588 17.7246 55.1023 18.0629 54.9732C18.4012 54.8441 18.7087 54.6454 18.9652 54.3898L47.0546 26.1474L54.3935 18.9641C54.6294 18.7137 54.8216 18.4254 54.9621 18.1114C54.9869 17.9054 54.9869 17.6972 54.9621 17.4913C54.9741 17.371 54.9741 17.2498 54.9621 17.1295L55.1429 17.0003ZM15.9418 49.9713H8.62874V42.6588L34.2891 17.0003L41.6021 24.3128L15.9418 49.9713ZM45.2458 20.6695L37.9327 13.357L41.6021 9.71361L48.8894 17.0003L45.2458 20.6695Z" fill="#7C00DE" fill-opacity="0.8"/>
</svg>
