<svg width="222" height="79" viewBox="0 0 222 79" fill="none" xmlns="http://www.w3.org/2000/svg">
<rect x="39" y="20" width="183" height="59" rx="6" fill="#ECECEC"/>
<path d="M69.188 31.268H70.516V41.924H69.188V31.268ZM70.1 35.668H72.66V36.772H70.1V35.668ZM61.508 44.34H71.172V45.428H61.508V44.34ZM61.508 40.836H62.836V44.772H61.508V40.836ZM63.332 32.292C65.492 32.292 67.108 33.78 67.108 35.86C67.108 37.956 65.492 39.428 63.332 39.428C61.172 39.428 59.556 37.956 59.556 35.86C59.556 33.78 61.172 32.292 63.332 32.292ZM63.332 33.46C61.924 33.46 60.852 34.452 60.852 35.86C60.852 37.284 61.924 38.26 63.332 38.26C64.74 38.26 65.812 37.284 65.812 35.86C65.812 34.452 64.74 33.46 63.332 33.46ZM74.8828 32.148H76.1948V38.388H74.8828V32.148ZM74.8828 38.068H75.9708C78.5148 38.068 80.2748 37.988 82.2748 37.572L82.4508 38.644C80.3708 39.076 78.5788 39.172 75.9708 39.172H74.8828V38.068ZM84.5788 31.284H85.9068V40.148H84.5788V31.284ZM80.5308 32.98H84.9468V34.02H80.5308V32.98ZM80.5308 35.524H84.9468V36.58H80.5308V35.524ZM81.1548 40.276C84.1308 40.276 85.9708 41.284 85.9708 43.012C85.9708 44.74 84.1308 45.732 81.1548 45.732C78.1628 45.732 76.3228 44.74 76.3228 43.012C76.3228 41.284 78.1628 40.276 81.1548 40.276ZM81.1548 41.332C78.9788 41.332 77.6508 41.956 77.6508 43.012C77.6508 44.068 78.9788 44.676 81.1548 44.676C83.3308 44.676 84.6588 44.068 84.6588 43.012C84.6588 41.956 83.3308 41.332 81.1548 41.332ZM98.5295 31.284H99.8575V45.748H98.5295V31.284ZM99.5375 37.22H102.226V38.34H99.5375V37.22ZM88.6575 33.588H97.1855V34.676H88.6575V33.588ZM92.9775 35.876C95.0255 35.876 96.4975 37.252 96.4975 39.204C96.4975 41.156 95.0255 42.532 92.9775 42.532C90.9455 42.532 89.4575 41.156 89.4575 39.204C89.4575 37.252 90.9455 35.876 92.9775 35.876ZM92.9775 36.98C91.6655 36.98 90.7215 37.892 90.7215 39.204C90.7215 40.5 91.6655 41.428 92.9775 41.428C94.2895 41.428 95.2335 40.5 95.2335 39.204C95.2335 37.892 94.2895 36.98 92.9775 36.98ZM92.2895 31.46H93.6175V34.084H92.2895V31.46ZM109.152 36.452H111.92V37.556H109.152V36.452ZM106.448 32.644H107.488V35.396C107.488 38.42 106.224 41.348 104.112 42.644L103.28 41.636C105.264 40.468 106.448 37.876 106.448 35.396V32.644ZM106.704 32.644H107.728V35.348C107.728 37.668 108.816 40.132 110.72 41.284L109.952 42.324C107.872 41.044 106.704 38.164 106.704 35.348V32.644ZM114.464 31.284H115.744V45.748H114.464V31.284ZM111.536 31.588H112.784V45.028H111.536V31.588ZM121.375 38.724H122.687V43.06H121.375V38.724ZM126.719 38.724H128.047V43.06H126.719V38.724ZM118.175 42.804H131.279V43.908H118.175V42.804ZM124.703 32.196C127.759 32.196 129.951 33.652 129.951 35.924C129.951 38.18 127.759 39.636 124.703 39.636C121.631 39.636 119.439 38.18 119.439 35.924C119.439 33.652 121.631 32.196 124.703 32.196ZM124.703 33.252C122.383 33.252 120.719 34.308 120.719 35.924C120.719 37.524 122.383 38.58 124.703 38.58C127.023 38.58 128.671 37.524 128.671 35.924C128.671 34.308 127.023 33.252 124.703 33.252ZM133.182 43.556C133.182 43.14 133.288 42.8467 133.502 42.676C133.715 42.5053 133.971 42.42 134.27 42.42C134.579 42.42 134.84 42.5053 135.054 42.676C135.267 42.8467 135.374 43.14 135.374 43.556C135.374 43.972 135.267 44.2707 135.054 44.452C134.84 44.6333 134.579 44.724 134.27 44.724C133.971 44.724 133.715 44.6333 133.502 44.452C133.288 44.2707 133.182 43.972 133.182 43.556ZM59.284 61.684H72.404V62.772H59.284V61.684ZM65.14 62.34H66.452V67.748H65.14V62.34ZM60.948 54.084H70.708V59.732H60.948V54.084ZM69.412 55.156H62.26V58.66H69.412V55.156ZM84.5788 53.284H85.9068V63.204H84.5788V53.284ZM81.1228 57.236H84.9468V58.324H81.1228V57.236ZM77.9548 54.26C80.0828 54.26 81.6828 55.7 81.6828 57.764C81.6828 59.812 80.0828 61.268 77.9548 61.268C75.8108 61.268 74.2268 59.812 74.2268 57.764C74.2268 55.7 75.8108 54.26 77.9548 54.26ZM77.9548 55.396C76.5468 55.396 75.5068 56.372 75.5068 57.764C75.5068 59.14 76.5468 60.132 77.9548 60.132C79.3628 60.132 80.4028 59.14 80.4028 57.764C80.4028 56.372 79.3628 55.396 77.9548 55.396ZM80.5788 62.068H81.7148V62.628C81.7148 65.236 79.1868 67.156 76.2428 67.684L75.7308 66.628C78.2908 66.196 80.5788 64.596 80.5788 62.628V62.068ZM80.8028 62.068H81.9388V62.628C81.9388 64.644 84.2108 66.196 86.8028 66.628L86.2748 67.684C83.3468 67.14 80.8028 65.3 80.8028 62.628V62.068ZM95.2655 53.524C98.4495 53.524 100.354 54.42 100.354 56.036C100.354 57.652 98.4495 58.548 95.2655 58.548C92.0655 58.548 90.1775 57.652 90.1775 56.036C90.1775 54.42 92.0655 53.524 95.2655 53.524ZM95.2655 54.532C92.8975 54.532 91.5375 55.076 91.5375 56.036C91.5375 56.996 92.8975 57.54 95.2655 57.54C97.6175 57.54 98.9775 56.996 98.9775 56.036C98.9775 55.076 97.6175 54.532 95.2655 54.532ZM88.7215 59.508H101.794V60.58H88.7215V59.508ZM90.3055 61.812H100.13V65.076H91.6495V66.836H90.3375V64.116H98.8175V62.836H90.3055V61.812ZM90.3375 66.548H100.562V67.588H90.3375V66.548ZM109.261 60.036H119.197V61.124H109.261V60.036ZM107.613 64.82H120.717V65.94H107.613V64.82ZM113.469 60.5H114.797V65.268H113.469V60.5ZM109.261 54.436H119.053V55.524H110.589V60.516H109.261V54.436ZM125.979 60.58H127.307V64.036H125.979V60.58ZM126.635 54.212C128.859 54.212 130.459 55.604 130.459 57.62C130.459 59.636 128.859 61.028 126.635 61.028C124.411 61.028 122.811 59.636 122.811 57.62C122.811 55.604 124.411 54.212 126.635 54.212ZM126.635 55.348C125.163 55.348 124.107 56.276 124.107 57.62C124.107 58.964 125.163 59.892 126.635 59.892C128.107 59.892 129.163 58.964 129.163 57.62C129.163 56.276 128.107 55.348 126.635 55.348ZM132.107 53.284H133.435V67.748H132.107V53.284ZM133.051 59.236H135.723V60.356H133.051V59.236ZM122.347 64.628L122.155 63.524C124.763 63.508 128.251 63.492 131.195 63.092L131.307 64.084C128.251 64.596 124.875 64.628 122.347 64.628ZM138.698 60.212H148.634V61.3H138.698V60.212ZM137.05 64.692H150.154V65.796H137.05V64.692ZM138.698 54.612H148.49V55.716H140.026V60.692H138.698V54.612ZM152.489 59.284H153.657C156.473 59.284 158.313 59.22 160.553 58.868L160.681 59.908C158.393 60.276 156.521 60.34 153.657 60.34H152.489V59.284ZM152.457 53.972H159.065V57.556H153.785V59.796H152.489V56.58H157.769V54.996H152.457V53.972ZM154.265 61.54H163.625V64.964H155.625V67.012H154.297V63.988H162.281V62.58H154.265V61.54ZM154.297 66.548H164.105V67.588H154.297V66.548ZM162.281 53.284H163.625V60.884H162.281V53.284ZM176.52 53.284H177.832V67.748H176.52V53.284ZM177.416 59.236H179.992V60.356H177.416V59.236ZM169.592 54.836H170.808C170.808 58.324 170.072 61.7 167.48 64.5L166.408 63.748C168.792 61.268 169.592 58.26 169.592 54.98V54.836ZM166.872 54.836H170.088V55.94H166.872V54.836ZM173.528 54.836H174.76C174.76 58.34 174.264 62.308 171.608 65.46L170.536 64.724C172.984 61.892 173.528 58.308 173.528 54.964V54.836ZM171.272 54.836H174.072V55.94H171.272V54.836ZM184.406 60.724H185.718V65.06H184.406V60.724ZM189.75 60.724H191.078V65.06H189.75V60.724ZM181.206 64.804H194.31V65.908H181.206V64.804ZM187.734 54.196C190.79 54.196 192.982 55.652 192.982 57.924C192.982 60.18 190.79 61.636 187.734 61.636C184.662 61.636 182.47 60.18 182.47 57.924C182.47 55.652 184.662 54.196 187.734 54.196ZM187.734 55.252C185.414 55.252 183.75 56.308 183.75 57.924C183.75 59.524 185.414 60.58 187.734 60.58C190.054 60.58 191.702 59.524 191.702 57.924C191.702 56.308 190.054 55.252 187.734 55.252ZM197.349 62.644C197.349 62.2493 197.386 61.908 197.461 61.62C197.546 61.332 197.69 61.06 197.893 60.804C198.106 60.5373 198.384 60.2653 198.725 59.988C199.12 59.668 199.424 59.4013 199.637 59.188C199.861 58.964 200.016 58.7507 200.101 58.548C200.197 58.3347 200.245 58.0787 200.245 57.78C200.245 57.3213 200.09 56.9693 199.781 56.724C199.482 56.4787 199.045 56.356 198.469 56.356C197.968 56.356 197.509 56.4253 197.093 56.564C196.677 56.692 196.272 56.852 195.877 57.044L195.269 55.764C195.728 55.5187 196.229 55.316 196.773 55.156C197.317 54.996 197.92 54.916 198.581 54.916C199.626 54.916 200.432 55.172 200.997 55.684C201.573 56.196 201.861 56.8787 201.861 57.732C201.861 58.1907 201.786 58.5907 201.637 58.932C201.488 59.2627 201.269 59.5667 200.981 59.844C200.704 60.1213 200.373 60.42 199.989 60.74C199.648 61.0173 199.386 61.2573 199.205 61.46C199.024 61.6627 198.901 61.8653 198.837 62.068C198.773 62.26 198.741 62.5 198.741 62.788V63.108H197.349V62.644ZM197.013 65.556C197.013 65.14 197.114 64.8467 197.317 64.676C197.53 64.5053 197.797 64.42 198.117 64.42C198.416 64.42 198.672 64.5053 198.885 64.676C199.098 64.8467 199.205 65.14 199.205 65.556C199.205 65.972 199.098 66.2707 198.885 66.452C198.672 66.6333 198.416 66.724 198.117 66.724C197.797 66.724 197.53 66.6333 197.317 66.452C197.114 66.2707 197.013 65.972 197.013 65.556Z" fill="black"/>
<path d="M49.15 9.988C49.15 10.7627 49.052 11.4673 48.856 12.102C48.6693 12.7273 48.38 13.2687 47.988 13.726C47.6053 14.1833 47.12 14.5333 46.532 14.776C45.9533 15.0187 45.2767 15.14 44.502 15.14C43.7087 15.14 43.018 15.0187 42.43 14.776C41.8513 14.524 41.366 14.174 40.974 13.726C40.5913 13.2687 40.3067 12.7227 40.12 12.088C39.9333 11.4533 39.84 10.7487 39.84 9.974C39.84 8.94733 40.008 8.05133 40.344 7.286C40.68 6.52067 41.1933 5.92333 41.884 5.494C42.584 5.06467 43.4613 4.85 44.516 4.85C45.5427 4.85 46.3967 5.06467 47.078 5.494C47.7687 5.914 48.2867 6.51133 48.632 7.286C48.9773 8.05133 49.15 8.952 49.15 9.988ZM41.436 9.988C41.436 10.7907 41.5433 11.4813 41.758 12.06C41.9727 12.6293 42.3087 13.0727 42.766 13.39C43.2233 13.698 43.802 13.852 44.502 13.852C45.2113 13.852 45.79 13.698 46.238 13.39C46.686 13.0727 47.0173 12.6293 47.232 12.06C47.4467 11.4813 47.554 10.7907 47.554 9.988C47.554 8.784 47.3113 7.846 46.826 7.174C46.35 6.49267 45.58 6.152 44.516 6.152C43.8067 6.152 43.2233 6.306 42.766 6.614C42.3087 6.922 41.9727 7.36067 41.758 7.93C41.5433 8.49933 41.436 9.18533 41.436 9.988ZM52.6382 7.202C52.6382 7.43533 52.6289 7.66867 52.6102 7.902C52.5915 8.13533 52.5729 8.32667 52.5542 8.476H52.6522C52.8109 8.21467 53.0069 8 53.2402 7.832C53.4829 7.664 53.7489 7.538 54.0382 7.454C54.3369 7.37 54.6402 7.328 54.9482 7.328C55.5455 7.328 56.0449 7.426 56.4462 7.622C56.8569 7.80867 57.1649 8.10733 57.3702 8.518C57.5849 8.91933 57.6922 9.442 57.6922 10.086V15H56.2222V10.296C56.2222 9.708 56.0962 9.26933 55.8442 8.98C55.6015 8.68133 55.2095 8.532 54.6682 8.532C54.1549 8.532 53.7489 8.63467 53.4502 8.84C53.1609 9.04533 52.9509 9.34867 52.8202 9.75C52.6989 10.142 52.6382 10.6273 52.6382 11.206V15H51.1542V4.36H52.6382V7.202ZM63.7385 7.314C64.6439 7.314 65.3719 7.64067 65.9225 8.294C66.4825 8.94733 66.7625 9.92267 66.7625 11.22C66.7625 12.0693 66.6365 12.788 66.3845 13.376C66.1325 13.964 65.7779 14.4073 65.3205 14.706C64.8632 14.9953 64.3312 15.14 63.7245 15.14C63.3419 15.14 63.0059 15.0933 62.7165 15C62.4272 14.8973 62.1799 14.7667 61.9745 14.608C61.7785 14.44 61.6059 14.2627 61.4565 14.076H61.3585C61.3865 14.244 61.4099 14.4447 61.4285 14.678C61.4472 14.902 61.4565 15.1027 61.4565 15.28V18.36H59.9725V7.454H61.1765L61.3865 8.462H61.4565C61.6059 8.25667 61.7832 8.06533 61.9885 7.888C62.1939 7.71067 62.4412 7.57067 62.7305 7.468C63.0199 7.36533 63.3559 7.314 63.7385 7.314ZM63.3885 8.532C62.9219 8.532 62.5485 8.62533 62.2685 8.812C61.9885 8.98933 61.7832 9.26 61.6525 9.624C61.5312 9.97867 61.4659 10.4313 61.4565 10.982V11.206C61.4565 11.7847 61.5172 12.2793 61.6385 12.69C61.7599 13.0913 61.9605 13.3993 62.2405 13.614C62.5299 13.8193 62.9219 13.922 63.4165 13.922C63.8365 13.922 64.1772 13.81 64.4385 13.586C64.7092 13.3527 64.9099 13.0307 65.0405 12.62C65.1712 12.2093 65.2365 11.7333 65.2365 11.192C65.2365 10.3707 65.0872 9.722 64.7885 9.246C64.4899 8.77 64.0232 8.532 63.3885 8.532ZM70.1382 7.454V15H68.6542V7.454H70.1382ZM69.4102 4.584C69.6342 4.584 69.8302 4.64933 69.9982 4.78C70.1662 4.91067 70.2502 5.13 70.2502 5.438C70.2502 5.73667 70.1662 5.956 69.9982 6.096C69.8302 6.22667 69.6342 6.292 69.4102 6.292C69.1675 6.292 68.9622 6.22667 68.7942 6.096C68.6355 5.956 68.5562 5.73667 68.5562 5.438C68.5562 5.13 68.6355 4.91067 68.7942 4.78C68.9622 4.64933 69.1675 4.584 69.4102 4.584ZM75.5066 15.14C74.816 15.14 74.2093 15.0047 73.6866 14.734C73.164 14.4633 72.758 14.0433 72.4686 13.474C72.1793 12.8953 72.0346 12.1627 72.0346 11.276C72.0346 10.3427 72.1886 9.58667 72.4966 9.008C72.814 8.42933 73.2386 8.00467 73.7706 7.734C74.312 7.454 74.928 7.314 75.6186 7.314C76.0386 7.314 76.4306 7.36067 76.7946 7.454C77.168 7.538 77.476 7.636 77.7186 7.748L77.2706 8.952C77.0093 8.84933 76.7293 8.76067 76.4306 8.686C76.1413 8.61133 75.866 8.574 75.6046 8.574C75.138 8.574 74.7506 8.67667 74.4426 8.882C74.144 9.078 73.92 9.37667 73.7706 9.778C73.6306 10.17 73.5606 10.6647 73.5606 11.262C73.5606 11.8313 73.6353 12.312 73.7846 12.704C73.934 13.096 74.1533 13.3947 74.4426 13.6C74.7413 13.796 75.11 13.894 75.5486 13.894C75.9686 13.894 76.3373 13.8473 76.6546 13.754C76.972 13.6607 77.2706 13.5393 77.5506 13.39V14.678C77.28 14.8367 76.986 14.9533 76.6686 15.028C76.3513 15.1027 75.964 15.14 75.5066 15.14ZM80.8019 9.68C80.8019 9.876 80.7926 10.1 80.7739 10.352C80.7646 10.604 80.7506 10.8373 80.7319 11.052H80.7739C80.8486 10.9587 80.9373 10.8467 81.0399 10.716C81.1519 10.576 81.2639 10.436 81.3759 10.296C81.4879 10.156 81.5906 10.0347 81.6839 9.932L83.9939 7.454H85.7159L82.6779 10.688L85.9119 15H84.1619L81.6699 11.626L80.8019 12.354V15H79.3319V4.36H80.8019V9.68Z" fill="#6C6C6C"/>
<rect y="20.1763" width="32.3563" height="32.3563" rx="7" fill="#7C00DE"/>
<g clip-path="url(#clip0_580_29670)">
<path d="M15.8188 24.8501C9.67196 24.8501 4.67383 29.8482 4.67383 35.995C4.67383 42.1418 9.67196 47.14 15.8188 47.14C21.9656 47.14 26.9637 42.1418 26.9637 35.995C26.9637 29.8482 21.9656 24.8501 15.8188 24.8501ZM15.8188 42.3538C12.3112 42.3538 9.46 39.5026 9.46 35.995C9.46 32.4875 12.3112 29.6363 15.8188 29.6363C19.3263 29.6363 22.1775 32.4875 22.1775 35.995C22.1775 39.5026 19.3263 42.3538 15.8188 42.3538Z" fill="white"/>
<path d="M17.6204 36.7029C17.7298 36.4602 17.7914 36.1901 17.7914 35.9064C17.7914 35.0585 17.2546 34.3372 16.5059 34.0603V31.4176C16.5059 31.0416 16.1983 30.7339 15.8222 30.7339C15.4461 30.7339 15.1385 31.0416 15.1385 31.4176V34.0603C14.3863 34.3372 13.853 35.0585 13.853 35.9064C13.853 36.9935 14.7351 37.8755 15.8222 37.8755C16.1265 37.8755 16.4102 37.8037 16.6666 37.6841L17.7093 38.6311C17.8392 38.7507 18.0033 38.8088 18.1674 38.8088C18.352 38.8088 18.5401 38.7336 18.6734 38.5832C18.9264 38.3029 18.9059 37.8721 18.6255 37.6157L17.617 36.7029H17.6204Z" fill="white"/>
</g>
<defs>
<clipPath id="clip0_580_29670">
<rect width="22.2899" height="22.2899" fill="white" transform="translate(4.67383 24.8501)"/>
</clipPath>
</defs>
</svg>
