<svg width="60" height="60" viewBox="0 0 60 60" fill="none" xmlns="http://www.w3.org/2000/svg">
<path d="M16.15 42.8V50.5203L19.2557 48.6568L29.0179 42.8H38.7C40.9611 42.8 42.8 40.9611 42.8 38.7V22.3C42.8 20.0388 40.9611 18.2 38.7 18.2H14.1C11.8388 18.2 10 20.0388 10 22.3V38.7C10 40.9611 11.8388 42.8 14.1 42.8H16.15ZM14.1 22.3H38.7V38.7H27.8821L20.25 43.2797V38.7H14.1V22.3Z" fill="#1E1E1E"/>
<path d="M46.9 10H22.3C20.0388 10 18.2 11.8388 18.2 14.1H42.7999C45.0611 14.1 46.9 15.9388 46.9 18.2V34.6C49.1611 34.6 51 32.7612 51 30.5V14.1C51 11.8388 49.1611 10 46.9 10Z" fill="#1E1E1E"/>
</svg>
