<svg width="60" height="60" viewBox="0 0 60 60" fill="none" xmlns="http://www.w3.org/2000/svg">
<path d="M46.3636 44.1991V25.8009C46.3636 25.4648 46.2866 25.1334 46.1387 24.8329C45.9907 24.5323 45.776 24.2709 45.5113 24.0693L30.5966 12.7056C30.2278 12.4246 29.7792 12.2727 29.3182 12.2727C28.8571 12.2727 28.4086 12.4246 28.0397 12.7056L13.125 24.0693C12.8604 24.2709 12.6456 24.5323 12.4976 24.8329C12.3497 25.1334 12.2727 25.4648 12.2727 25.8009V44.1991C12.2727 44.7732 12.4972 45.3238 12.8968 45.7297C13.2963 46.1356 13.8383 46.3636 14.4034 46.3636H22.9261C23.4912 46.3636 24.0332 46.1356 24.4327 45.7297C24.8323 45.3238 25.0568 44.7732 25.0568 44.1991V37.7056C25.0568 37.1316 25.2813 36.581 25.6809 36.1751C26.0804 35.7692 26.6224 35.5411 27.1875 35.5411H31.4488C32.0139 35.5411 32.5559 35.7692 32.9555 36.1751C33.355 36.581 33.5795 37.1316 33.5795 37.7056V44.1991C33.5795 44.7732 33.804 45.3238 34.2036 45.7297C34.6032 46.1356 35.1451 46.3636 35.7102 46.3636H44.2329C44.798 46.3636 45.34 46.1356 45.7396 45.7297C46.1391 45.3238 46.3636 44.7732 46.3636 44.1991Z" stroke="#1E1E1E" stroke-width="4" stroke-linecap="round" stroke-linejoin="round"/>
</svg>
