<svg width="430" height="321" viewBox="0 0 430 321" fill="none" xmlns="http://www.w3.org/2000/svg">
<g clip-path="url(#clip0_1200_8304)">
<path d="M430 282.096H0V282.311H430V282.096Z" fill="#EBEBEB"/>
<path d="M382.923 291.959H339.149V292.174H382.923V291.959Z" fill="#EBEBEB"/>
<path d="M85.7163 289.408H45.1157V289.624H85.7163V289.408Z" fill="#EBEBEB"/>
<path d="M342.28 287.961H325.776V288.176H342.28V287.961Z" fill="#EBEBEB"/>
<path d="M284.849 293.674H272.74V293.889H284.849V293.674Z" fill="#EBEBEB"/>
<path d="M265.078 293.674H234.6V293.889H265.078V293.674Z" fill="#EBEBEB"/>
<path d="M216.901 290.029H167.889V290.245H216.901V290.029Z" fill="#EBEBEB"/>
<path d="M203.829 243.673H37.7627C35.0536 243.673 32.8521 241.467 32.8521 238.754V4.91911C32.8521 2.20542 35.0536 0 37.7627 0H203.829C206.538 0 208.739 2.20542 208.739 4.91911V238.754C208.739 241.467 206.538 243.673 203.829 243.673ZM37.7627 0.215373C35.1741 0.215373 33.0671 2.32602 33.0671 4.91911V238.754C33.0671 241.347 35.1741 243.457 37.7627 243.457H203.829C206.417 243.457 208.524 241.347 208.524 238.754V4.91911C208.524 2.32602 206.417 0.215373 203.829 0.215373H37.7627Z" fill="#EBEBEB"/>
<path d="M389.847 243.673H223.781C221.072 243.673 218.87 241.467 218.87 238.754V4.91911C218.87 2.20542 221.072 0 223.781 0H389.847C392.556 0 394.757 2.20542 394.757 4.91911V238.754C394.757 241.467 392.556 243.673 389.847 243.673ZM223.781 0.215373C221.192 0.215373 219.085 2.32602 219.085 4.91911V238.754C219.085 241.347 221.192 243.457 223.781 243.457H389.847C392.435 243.457 394.542 241.347 394.542 238.754V4.91911C394.542 2.32602 392.435 0.215373 389.847 0.215373H223.781Z" fill="#EBEBEB"/>
<path d="M283.069 207.154H308.852V131.851H283.069V207.154Z" fill="#E6E6E6"/>
<path d="M362.318 131.859H308.852V207.162H362.318V131.859Z" fill="#F5F5F5"/>
<path d="M346.838 188.529H362.318V178.295H346.838V188.529Z" fill="#F0F0F0"/>
<path d="M346.838 201.605H362.318V191.371H346.838V201.605Z" fill="#F0F0F0"/>
<path d="M281.925 131.859H308.456V128.043H281.925V131.859Z" fill="#E0E0E0"/>
<path d="M363.453 128.035H308.456V131.852H363.453V128.035Z" fill="#F0F0F0"/>
<path d="M263.641 282.096H299.495V212.47H263.641V282.096Z" fill="#E6E6E6"/>
<path d="M373.833 212.461H299.495V282.087H373.833V212.461Z" fill="#F5F5F5"/>
<path d="M305.54 243.113H331.229V220.439H305.54V243.113Z" fill="#F0F0F0"/>
<path d="M305.54 272.068H331.229V249.394H305.54V272.068Z" fill="#F0F0F0"/>
<path d="M262.05 212.469H298.936V207.162H262.05V212.469Z" fill="#E0E0E0"/>
<path d="M375.407 207.154H298.936V212.461H375.407V207.154Z" fill="#F0F0F0"/>
<path d="M223.566 20.9258H154.611V282.095H223.566V20.9258Z" fill="#EBEBEB"/>
<path d="M218.904 276.815L218.904 26.207L159.263 26.207V276.815H218.904Z" fill="#FAFAFA"/>
<path d="M152.547 20.9258H83.5918V282.095H152.547V20.9258Z" fill="#EBEBEB"/>
<path d="M152.538 281.061H154.61L154.61 21.95H152.538L152.538 281.061Z" fill="#E0E0E0"/>
<path d="M147.885 276.815L147.885 26.207L88.2443 26.207L88.2443 276.815H147.885Z" fill="#FAFAFA"/>
<path d="M254.921 16.6182H52.219C51.6491 16.6182 51.187 17.081 51.187 17.652V17.9276C51.187 18.4986 51.6491 18.9614 52.219 18.9614H254.921C255.491 18.9614 255.953 18.4986 255.953 17.9276V17.652C255.953 17.081 255.491 16.6182 254.921 16.6182Z" fill="#E0E0E0"/>
<path d="M218.904 31.1941V26.2061L159.263 26.2061V31.1941L218.904 31.1941Z" fill="#E0E0E0"/>
<path d="M218.913 76.3877V26.1973L159.272 26.1973V76.3877H218.913Z" fill="#E0E0E0"/>
<path d="M147.885 135.934V26.2061L88.2443 26.2061V135.934H147.885Z" fill="#E0E0E0"/>
<g opacity="0.5">
<path d="M231.787 11.1475H212.076V278.882H231.787V11.1475Z" fill="#F5F5F5"/>
<path d="M226.584 11.1475H217.279V278.882H226.584V11.1475Z" fill="#F0F0F0"/>
<path d="M242.356 11.1475H222.645V278.882H242.356V11.1475Z" fill="#F5F5F5"/>
<path d="M237.153 11.1475H227.848V278.882H237.153V11.1475Z" fill="#F0F0F0"/>
<path d="M252.212 11.1475H232.5V278.882H252.212V11.1475Z" fill="#F5F5F5"/>
</g>
<g opacity="0.5">
<path d="M113.236 11.1475H54.3345V278.882H113.236V11.1475Z" fill="#F5F5F5"/>
<path d="M97.6871 11.1475H69.8833V278.882H97.6871V11.1475Z" fill="#F0F0F0"/>
<path d="M144.832 11.1475H85.9307V278.882H144.832V11.1475Z" fill="#F5F5F5"/>
<path d="M129.283 11.1475H101.479V278.882H129.283V11.1475Z" fill="#F0F0F0"/>
<path d="M174.287 11.1475H115.386V278.882H174.287V11.1475Z" fill="#F5F5F5"/>
</g>
<path d="M289.011 98.5117L364.623 98.5117V21.9769L289.011 21.9769V98.5117Z" fill="#FAFAFA"/>
<path d="M341.179 79.2998H312.447C309.987 79.2998 307.992 77.3011 307.992 74.8373V45.6586C307.992 43.1947 309.987 41.1961 312.447 41.1961L341.188 41.1961C343.647 41.1961 345.643 43.1947 345.643 45.6586V74.8373C345.643 77.3011 343.647 79.2998 341.188 79.2998H341.179Z" fill="#F0F0F0"/>
<path d="M329.612 60.7002H349.702C351.421 60.7002 352.815 59.304 352.815 57.5816V37.1815C352.815 35.4592 351.421 34.0629 349.702 34.0629H329.612C327.893 34.0629 326.499 35.4592 326.499 37.1815V57.5816C326.499 59.304 327.893 60.7002 329.612 60.7002Z" fill="white"/>
<path d="M312.936 89.3105H326.877C328.069 89.3105 329.036 88.3424 329.036 87.1482V72.9939C329.036 71.7997 328.069 70.8316 326.877 70.8316H312.936C311.744 70.8316 310.778 71.7997 310.778 72.9939V87.1482C310.778 88.3424 311.744 89.3105 312.936 89.3105Z" fill="#F0F0F0"/>
<path d="M289.003 21.9766H284.78V98.5114H289.003V21.9766Z" fill="#F0F0F0"/>
<path d="M215 321C307.091 321 381.745 316.634 381.745 311.248C381.745 305.862 307.091 301.496 215 301.496C122.909 301.496 48.2544 305.862 48.2544 311.248C48.2544 316.634 122.909 321 215 321Z" fill="#F5F5F5"/>
<path d="M330.042 51.8441L329.165 51.7924C329.38 48.355 328.219 45.0986 325.914 42.6434C323.609 40.1881 320.453 38.8356 317.022 38.8356H301.464V37.9482H317.022C320.694 37.9482 324.082 39.3955 326.559 42.0317C329.036 44.6765 330.274 48.1569 330.051 51.8441H330.042Z" fill="#407BFF"/>
<path d="M328.752 57.9162L328.257 66.1025L329.141 66.1562L329.637 57.9699L328.752 57.9162Z" fill="#407BFF"/>
<path d="M303.374 262.599H199.787C193.956 262.599 189.484 257.827 189.845 251.986L202.186 51.6546C202.547 45.8137 207.604 41.041 213.435 41.041H317.022C322.853 41.041 327.325 45.8137 326.964 51.6546L314.623 251.986C314.261 257.827 309.205 262.599 303.374 262.599Z" fill="#407BFF"/>
<path opacity="0.2" d="M241.462 86.6738H218.861C215.516 86.6738 212.953 83.9343 213.16 80.5831L214.321 61.7509C214.527 58.3997 217.434 55.6602 220.771 55.6602H243.371C246.717 55.6602 249.28 58.3997 249.073 61.7509L247.912 80.5831C247.706 83.9343 244.799 86.6738 241.462 86.6738Z" fill="black"/>
<path opacity="0.2" d="M248.024 244.955C249.899 244.955 251.515 243.431 251.627 241.553L254.018 202.725C254.13 200.847 252.711 199.322 250.828 199.322H193.087L190.275 244.955H248.015H248.024Z" fill="black"/>
<path d="M187.609 181.773H169.945C168.646 181.773 167.519 182.833 167.442 184.134L166.212 204.103C166.135 205.404 167.124 206.464 168.422 206.464H186.087C187.385 206.464 188.512 205.404 188.589 204.103L189.819 184.134C189.897 182.833 188.908 181.773 187.609 181.773Z" fill="#407BFF"/>
<path opacity="0.4" d="M187.609 181.773H169.945C168.646 181.773 167.519 182.833 167.442 184.134L166.212 204.103C166.135 205.404 167.124 206.464 168.422 206.464H186.087C187.385 206.464 188.512 205.404 188.589 204.103L189.819 184.134C189.897 182.833 188.908 181.773 187.609 181.773Z" fill="white"/>
<path d="M316.798 45.4606C318.432 45.4606 319.937 46.0981 321.021 47.2525C322.105 48.4069 322.646 49.9576 322.552 51.603L318.011 125.329C317.925 126.742 316.704 127.888 315.302 127.888H204.362C203.708 127.888 203.106 127.638 202.676 127.173C202.246 126.716 202.031 126.096 202.066 125.433L206.607 51.7064C206.822 48.2604 209.789 45.4606 213.22 45.4606H316.807M316.807 44.5732H213.22C209.316 44.5732 205.962 47.7435 205.721 51.6461L201.18 125.372C201.068 127.242 202.487 128.767 204.353 128.767H315.293C317.16 128.767 318.768 127.25 318.888 125.372L323.429 51.6461C323.67 47.7349 320.703 44.5732 316.798 44.5732H316.807Z" fill="white"/>
<path d="M261.303 137.434H204.895C202.436 137.434 200.311 139.432 200.165 141.896L197.835 179.69C197.68 182.154 199.555 184.152 202.014 184.152H258.422C260.881 184.152 263.005 182.154 263.152 179.69L265.482 141.896C265.637 139.432 263.762 137.434 261.303 137.434Z" fill="white"/>
<path d="M244.395 192.258H187.987C185.528 192.258 183.404 194.256 183.257 196.72L180.927 234.514C180.772 236.978 182.647 238.976 185.107 238.976H241.514C243.973 238.976 246.098 236.978 246.244 234.514L248.575 196.72C248.729 194.256 246.854 192.258 244.395 192.258Z" fill="white"/>
<path opacity="0.2" d="M289.39 165.439C287.257 165.439 285.417 167.171 285.279 169.316L283.258 202.105C283.129 204.241 284.755 205.981 286.887 205.981H317.452L319.946 165.448H289.381L289.39 165.439Z" fill="black"/>
<path d="M331.565 158.264H282.003C279.836 158.264 277.978 160.021 277.84 162.192L275.794 195.394C275.656 197.565 277.307 199.322 279.466 199.322H329.028C331.195 199.322 333.052 197.565 333.19 195.394L335.237 162.192C335.374 160.021 333.723 158.264 331.565 158.264Z" fill="#407BFF"/>
<path opacity="0.7" d="M331.565 158.264H282.003C279.836 158.264 277.978 160.021 277.84 162.192L275.794 195.394C275.656 197.565 277.307 199.322 279.466 199.322H329.028C331.195 199.322 333.052 197.565 333.19 195.394L335.237 162.192C335.374 160.021 333.723 158.264 331.565 158.264Z" fill="white"/>
<path d="M368.596 104.619H339.227C337.06 104.619 335.202 106.377 335.065 108.548L333.018 141.749C332.88 143.92 334.531 145.678 336.69 145.678H366.059C368.226 145.678 370.084 143.92 370.221 141.749L372.268 108.548C372.406 106.377 370.755 104.619 368.596 104.619Z" fill="#407BFF"/>
<path opacity="0.7" d="M368.596 104.619H339.227C337.06 104.619 335.202 106.377 335.065 108.548L333.018 141.749C332.88 143.92 334.531 145.678 336.69 145.678H366.059C368.226 145.678 370.084 143.92 370.221 141.749L372.268 108.548C372.406 106.377 370.755 104.619 368.596 104.619Z" fill="white"/>
<path d="M341.884 207.076H329.664C328.761 207.076 327.987 207.808 327.935 208.713L327.084 222.531C327.032 223.436 327.712 224.168 328.615 224.168H340.835C341.738 224.168 342.512 223.436 342.564 222.531L343.415 208.713C343.467 207.808 342.787 207.076 341.884 207.076Z" fill="#407BFF"/>
<path opacity="0.4" d="M341.884 207.076H329.664C328.761 207.076 327.987 207.808 327.935 208.713L327.084 222.531C327.032 223.436 327.712 224.168 328.615 224.168H340.835C341.738 224.168 342.512 223.436 342.564 222.531L343.415 208.713C343.467 207.808 342.787 207.076 341.884 207.076Z" fill="white"/>
<path d="M281.596 146.757C294.631 134.094 295.564 113.877 283.681 101.602C271.797 89.3259 251.596 89.6397 238.561 102.302C225.526 114.965 224.592 135.182 236.476 147.458C248.359 159.733 268.56 159.419 281.596 146.757Z" fill="#407BFF"/>
<path d="M279.644 144.739C291.496 133.226 292.344 114.843 281.539 103.681C270.733 92.519 252.365 92.8037 240.513 104.317C228.661 115.831 227.813 134.213 238.618 145.375C249.424 156.537 267.792 156.252 279.644 144.739Z" fill="white"/>
<path d="M271.244 116.749C270.883 122.658 265.809 127.448 259.91 127.448C254.01 127.448 249.529 122.658 249.891 116.749C250.252 110.839 255.326 106.049 261.225 106.049C267.125 106.049 271.605 110.839 271.244 116.749Z" fill="#407BFF"/>
<path d="M259.634 131.824C251.309 131.824 243.853 135.072 239.759 139.879C243.552 146.134 250.415 150.252 258.499 150.252C266.583 150.252 273.944 146.142 278.511 139.879C275.019 135.072 267.959 131.824 259.634 131.824Z" fill="#407BFF"/>
<path d="M237.317 82.5303H214.716C211.371 82.5303 208.808 79.7907 209.015 76.4395L210.176 57.6073C210.382 54.2561 213.289 51.5166 216.626 51.5166H239.226C242.572 51.5166 245.135 54.2561 244.928 57.6073L243.767 76.4395C243.561 79.7907 240.654 82.5303 237.317 82.5303Z" fill="white"/>
<path d="M233.267 67.0238L221.88 59.4082L220.943 74.6394L233.267 67.0238Z" fill="#407BFF"/>
<path d="M310.598 68.2899H256.658C255.239 68.2899 254.147 67.1269 254.233 65.7054L254.44 62.4145C254.526 60.9931 255.764 59.8301 257.183 59.8301H311.122C312.541 59.8301 313.633 60.9931 313.547 62.4145L313.341 65.7054C313.255 67.1269 312.017 68.2899 310.598 68.2899Z" fill="white"/>
<path d="M309.721 82.5048H255.782C254.363 82.5048 253.27 81.3417 253.356 79.9203L253.563 76.6294C253.649 75.2079 254.887 74.0449 256.306 74.0449H310.245C311.664 74.0449 312.757 75.2079 312.671 76.6294L312.464 79.9203C312.378 81.3417 311.14 82.5048 309.721 82.5048Z" fill="white"/>
<path d="M327.592 171.264H284.377C283.431 171.264 282.717 170.497 282.777 169.55L282.854 168.318C282.915 167.37 283.723 166.604 284.669 166.604H327.884C328.83 166.604 329.544 167.37 329.484 168.318L329.406 169.55C329.346 170.497 328.538 171.264 327.592 171.264Z" fill="white"/>
<path d="M326.99 181.12H283.775C282.829 181.12 282.115 180.353 282.175 179.405L282.252 178.173C282.313 177.226 283.121 176.459 284.067 176.459H327.282C328.228 176.459 328.942 177.226 328.882 178.173L328.804 179.405C328.744 180.353 327.936 181.12 326.99 181.12Z" fill="white"/>
<path d="M326.379 190.965H283.164C282.218 190.965 281.504 190.199 281.564 189.251L281.641 188.019C281.702 187.071 282.51 186.305 283.456 186.305H326.671C327.617 186.305 328.331 187.071 328.271 188.019L328.193 189.251C328.133 190.199 327.325 190.965 326.379 190.965Z" fill="white"/>
<path d="M302.78 250.65C302.643 252.942 300.673 254.803 298.377 254.803C296.081 254.803 294.344 252.942 294.49 250.65C294.628 248.359 296.597 246.498 298.893 246.498C301.189 246.498 302.927 248.359 302.78 250.65Z" fill="white"/>
<path d="M303.692 235.938C303.554 238.229 301.585 240.09 299.289 240.09C296.993 240.09 295.255 238.229 295.402 235.938C295.539 233.646 297.509 231.785 299.805 231.785C302.101 231.785 303.838 233.646 303.692 235.938Z" fill="white"/>
<path d="M304.595 221.223C304.457 223.514 302.488 225.375 300.192 225.375C297.895 225.375 296.158 223.514 296.304 221.223C296.442 218.931 298.42 217.07 300.708 217.07C302.995 217.07 304.741 218.931 304.595 221.223Z" fill="white"/>
<path d="M290.267 250.65C290.13 252.942 288.16 254.803 285.864 254.803C283.568 254.803 281.831 252.942 281.977 250.65C282.114 248.359 284.084 246.498 286.38 246.498C288.676 246.498 290.413 248.359 290.267 250.65Z" fill="white"/>
<path d="M291.179 235.938C291.041 238.229 289.072 240.09 286.776 240.09C284.479 240.09 282.742 238.229 282.888 235.938C283.026 233.646 284.995 231.785 287.292 231.785C289.588 231.785 291.325 233.646 291.179 235.938Z" fill="white"/>
<path d="M292.082 221.223C291.944 223.514 289.975 225.375 287.679 225.375C285.382 225.375 283.645 223.514 283.791 221.223C283.929 218.931 285.898 217.07 288.195 217.07C290.491 217.07 292.228 218.931 292.082 221.223Z" fill="white"/>
<path d="M117.984 126.553L122.843 130.343L116.427 133.729C116.427 133.729 113.426 130.498 114.948 127.742L117.984 126.553Z" fill="#7F3E3B"/>
<path d="M123.058 136.917L120.108 137.813C119.171 138.097 118.164 137.641 117.769 136.745L116.427 133.729L122.843 130.344L124.322 134.393C124.709 135.444 124.124 136.607 123.058 136.926V136.917Z" fill="#7F3E3B"/>
<path d="M138.383 91.8344L135.786 93.4454C134.9 93.9968 134.023 94.574 133.154 95.1512C131.408 96.3142 129.68 97.4858 127.994 98.7005C124.631 101.13 121.381 103.697 118.62 106.471L118.104 106.988L117.975 107.117C117.915 107.178 117.975 107.117 117.966 107.117C117.975 107.091 117.975 107.083 117.975 107.066C117.966 107.023 117.88 107.135 117.794 107.324C117.605 107.729 117.433 108.478 117.356 109.305C117.21 110.994 117.278 113.001 117.502 115.017C117.906 119.066 118.74 123.339 119.575 127.492L114.664 129.352C113.555 127.285 112.643 125.243 111.792 123.107C110.94 120.979 110.201 118.79 109.581 116.508C108.997 114.207 108.481 111.847 108.395 109.142C108.36 107.781 108.395 106.325 108.842 104.619C109.074 103.766 109.401 102.853 109.994 101.888C110.14 101.647 110.295 101.414 110.484 101.173L110.734 100.854L110.88 100.682L111.465 99.9841C112.239 99.0279 113.047 98.1664 113.864 97.2791C114.698 96.4434 115.533 95.5905 116.393 94.798C118.095 93.1698 119.884 91.7052 121.69 90.2665C123.505 88.8365 125.362 87.5011 127.263 86.2261C128.218 85.5886 129.172 84.9684 130.153 84.3653C131.133 83.745 132.079 83.1937 133.188 82.582L138.4 91.8172L138.383 91.8344Z" fill="#407BFF"/>
<path d="M119.17 126.476C117.923 127.122 115.163 127.923 113.959 128.285C113.666 128.371 113.477 128.664 113.52 128.974C113.632 129.818 113.804 130.421 114.268 130.473C114.827 130.542 119.876 128.742 120.237 128.087C120.435 127.716 120.228 127.165 120.005 126.743C119.841 126.441 119.48 126.312 119.179 126.476H119.17Z" fill="#263238"/>
<path d="M143.465 122.77L133.171 97.3733C132.414 95.5039 130.247 94.5046 128.329 95.1507L98.9948 105.015C97.077 105.661 96.1396 107.694 96.8964 109.572L107.191 134.969C107.947 136.838 110.115 137.838 112.032 137.191L141.367 127.327C143.285 126.681 144.222 124.648 143.465 122.77Z" fill="#407BFF"/>
<path opacity="0.7" d="M143.465 122.77L133.171 97.3733C132.414 95.5039 130.247 94.5046 128.329 95.1507L98.9948 105.015C97.077 105.661 96.1396 107.694 96.8964 109.572L107.191 134.969C107.947 136.838 110.115 137.838 112.032 137.191L141.367 127.327C143.285 126.681 144.222 124.648 143.465 122.77Z" fill="white"/>
<path d="M165.705 64.4738C165.576 64.9821 165.748 65.4646 166.083 65.5421C166.419 65.6282 166.789 65.275 166.909 64.7667C167.038 64.2585 166.866 63.776 166.531 63.6985C166.195 63.6123 165.825 63.9656 165.705 64.4738Z" fill="#263238"/>
<path d="M165.705 65.4473C165.705 65.4473 166.135 68.6692 167.055 70.4008C165.946 71.0211 164.518 70.2544 164.518 70.2544L165.705 65.4473Z" fill="#630F0F"/>
<path d="M164.604 61.2083C164.664 61.2256 164.733 61.2169 164.793 61.1911C166.066 60.6828 166.995 61.3203 167.012 61.3289C167.15 61.4237 167.339 61.3892 167.442 61.2514C167.537 61.1136 167.502 60.924 167.365 60.8206C167.313 60.7862 166.144 59.985 164.57 60.6225C164.415 60.6828 164.338 60.8637 164.398 61.0188C164.432 61.1136 164.518 61.1825 164.613 61.1997L164.604 61.2083Z" fill="#263238"/>
<path d="M147.869 66.2822C147.636 71.1238 146.45 79.799 142.468 82.082C142.468 82.082 142.571 87.07 151.137 89.1893C160.545 91.5153 156.787 85.6227 156.787 85.6227C151.954 83.1244 153.029 79.3424 154.8 75.974L147.86 66.2822H147.869Z" fill="#7F3E3B"/>
<path d="M140.842 83.3829C140.533 81.7375 140.206 79.8508 141.874 79.7044C143.706 79.5407 153.106 81.2292 156.03 83.1159C158.954 85.0025 157.303 87.7851 157.303 87.7851L140.842 83.3829Z" fill="#263238"/>
<path d="M96.217 292.484C96.7244 292.914 97.2834 293.25 97.679 293.164C97.851 293.13 98.066 293.001 98.1434 292.604C98.1864 292.398 98.1434 292.199 98.0058 292.019C97.4296 291.235 95.271 291.011 95.1764 291.002C95.1162 291.002 95.056 291.028 95.0302 291.079C94.9958 291.131 95.0044 291.2 95.0388 291.243C95.2366 291.519 95.701 292.044 96.2084 292.484H96.217ZM97.636 292.062C97.6876 292.105 97.7306 292.148 97.765 292.199C97.8424 292.311 97.8682 292.423 97.851 292.544C97.7908 292.828 97.6618 292.854 97.6188 292.863C97.1716 292.958 96.1568 292.105 95.5204 291.355C96.1654 291.459 97.1802 291.683 97.636 292.062Z" fill="#407BFF"/>
<path d="M95.0645 291.269C95.0645 291.269 95.1075 291.294 95.1333 291.303C95.8815 291.458 97.7907 291.217 98.1519 290.571C98.2207 290.45 98.2895 290.218 98.0401 289.942C97.8767 289.761 97.6703 289.675 97.4123 289.666C96.4405 289.649 95.1075 290.976 95.0559 291.036C95.0129 291.079 95.0043 291.131 95.0215 291.191C95.0301 291.217 95.0473 291.243 95.0731 291.26L95.0645 291.269ZM97.7649 290.106C97.7649 290.106 97.7993 290.14 97.8165 290.157C97.9541 290.304 97.9025 290.39 97.8853 290.424C97.6703 290.803 96.3459 291.088 95.5117 291.045C95.9245 290.674 96.7845 289.976 97.4123 289.985C97.5585 289.985 97.6703 290.028 97.7649 290.114V290.106Z" fill="#407BFF"/>
<path d="M144.798 304.941C145.633 304.941 146.424 304.829 146.656 304.45C146.733 304.321 146.785 304.097 146.57 303.778C146.45 303.597 146.278 303.477 146.045 303.416C144.936 303.123 142.803 304.416 142.709 304.467C142.657 304.502 142.631 304.562 142.648 304.622C142.666 304.683 142.717 304.734 142.786 304.752C143.207 304.838 144.016 304.932 144.798 304.932V304.941ZM145.693 303.683C145.805 303.683 145.899 303.692 145.994 303.718C146.14 303.752 146.243 303.83 146.321 303.933C146.45 304.123 146.415 304.217 146.389 304.269C146.131 304.691 144.489 304.7 143.268 304.528C143.835 304.217 144.945 303.675 145.701 303.675L145.693 303.683Z" fill="#407BFF"/>
<path d="M142.82 304.761C142.82 304.761 142.863 304.761 142.881 304.744C143.629 304.391 145.031 302.986 144.841 302.254C144.798 302.082 144.652 301.866 144.222 301.823C143.904 301.789 143.629 301.884 143.397 302.09C142.64 302.771 142.648 304.52 142.648 304.597C142.648 304.649 142.674 304.709 142.726 304.735C142.752 304.752 142.786 304.761 142.82 304.761ZM144.128 302.125C144.128 302.125 144.188 302.125 144.222 302.125C144.497 302.151 144.532 302.263 144.54 302.297C144.661 302.737 143.715 303.839 142.967 304.322C143.001 303.813 143.121 302.762 143.612 302.314C143.758 302.177 143.93 302.116 144.128 302.116V302.125Z" fill="#407BFF"/>
<path d="M135.751 304.615H142.236L142.889 289.564H136.396L135.751 304.615Z" fill="#7F3E3B"/>
<path d="M88.52 289.375L94.798 291.02L101.747 277.288L95.4688 275.643L88.52 289.375Z" fill="#7F3E3B"/>
<path d="M95.2796 290.27L89.724 285.549C89.5176 285.377 89.2252 285.368 89.0188 285.532L84.3146 289.107C83.8244 289.477 83.8158 290.218 84.2888 290.606C86.2582 292.225 87.2988 292.906 89.7412 294.982C91.2462 296.257 94.454 299.919 96.389 301.822C98.2896 303.692 100.474 302.064 99.8462 301.107C97.0512 296.817 96.1138 293.397 95.8214 291.261C95.7698 290.873 95.572 290.528 95.2796 290.27Z" fill="#263238"/>
<path d="M142.038 303.855H134.952C134.685 303.855 134.479 304.036 134.444 304.295L133.756 310.067C133.687 310.661 134.195 311.23 134.805 311.221C137.36 311.178 141.032 311.032 144.24 311.032C147.998 311.032 148.626 311.238 153.029 311.238C155.695 311.238 156.151 308.542 155.015 308.301C149.83 307.189 148.299 307.069 143.638 304.364C143.13 304.071 142.58 303.855 142.021 303.855H142.038Z" fill="#263238"/>
<path d="M166.264 94.0311C165.765 100.587 163.305 114.517 153.94 142.809L119.85 136.382C120.495 131.816 126.626 112.57 128.028 90.8867C128.415 84.8563 133.833 80.3679 139.81 81.1863C139.87 81.1863 139.922 81.2035 139.982 81.2122C144.377 81.8238 150.706 82.8748 154.473 83.9431C156.847 84.615 159.607 85.735 161.843 86.7085C164.724 87.9662 166.505 90.9039 166.272 94.0398L166.264 94.0311Z" fill="#407BFF"/>
<path opacity="0.2" d="M159.788 98.0028C159.556 101.69 160.932 109.521 162.136 115.465C163.237 111.201 164.071 107.591 164.681 104.541L159.788 97.9941V98.0028Z" fill="black"/>
<path d="M166.144 92.0239C166.961 94.057 167.846 96.271 168.758 98.3731C169.687 100.492 170.607 102.603 171.605 104.671C173.565 108.797 175.672 112.881 178.089 116.378C178.691 117.24 179.31 118.084 179.947 118.816L180.067 118.963C180.067 118.963 180.041 118.945 180.024 118.937C179.99 118.92 179.981 118.911 179.964 118.911C179.947 118.911 179.938 118.937 179.99 118.971C180.067 119.049 180.308 119.169 180.609 119.281C181.228 119.505 182.14 119.661 183.111 119.729C184.083 119.798 185.141 119.833 186.216 119.79C190.55 119.652 195.246 118.92 199.778 118.179L201.464 123.158C199.168 124.287 196.914 125.2 194.532 126.027C192.167 126.845 189.733 127.535 187.145 128.017C185.855 128.25 184.522 128.456 183.103 128.525C181.684 128.594 180.196 128.586 178.485 128.267C177.633 128.103 176.722 127.862 175.733 127.388C175.242 127.164 174.735 126.863 174.236 126.509C173.987 126.32 173.737 126.13 173.488 125.906L173.127 125.562L172.946 125.372C171.94 124.373 171.063 123.339 170.22 122.297C166.909 118.127 164.424 113.759 162.127 109.331C161.009 107.109 159.934 104.877 158.963 102.603C157.982 100.311 157.053 98.0974 156.193 95.6508L166.144 91.998V92.0239Z" fill="#407BFF"/>
<path opacity="0.2" d="M227.574 113.562L215.336 111.115C214.433 110.934 213.513 111.511 213.272 112.407L209.66 126.097C209.428 126.992 209.961 127.863 210.864 128.043L223.102 130.49C224.005 130.671 224.925 130.094 225.166 129.198L228.778 115.509C229.01 114.613 228.477 113.743 227.565 113.562H227.574Z" fill="black"/>
<path d="M223.316 107.273L211.13 104.559C210.227 104.361 209.298 104.912 209.04 105.808L205.127 119.411C204.869 120.298 205.394 121.186 206.288 121.384L218.474 124.097C219.377 124.296 220.306 123.744 220.564 122.848L224.477 109.245C224.735 108.358 224.211 107.471 223.316 107.273Z" fill="white"/>
<path d="M198.652 119.153L202.505 113.484L208.619 119.084C208.619 119.084 205.446 123.417 200.724 123.159L198.652 119.144V119.153Z" fill="#7F3E3B"/>
<path d="M197.405 118.902C198.084 120.134 198.944 122.874 199.34 124.08C199.434 124.373 199.727 124.554 200.036 124.502C200.87 124.364 201.472 124.183 201.515 123.718C201.567 123.158 199.649 118.144 198.987 117.8C198.617 117.61 198.067 117.834 197.654 118.067C197.362 118.239 197.241 118.601 197.405 118.902Z" fill="#263238"/>
<path d="M209.995 112.621L210.752 114.095C211.371 115.292 211.113 116.757 210.133 117.678L208.619 119.091L202.504 113.492L205.721 111.458C207.209 110.519 209.187 111.054 209.995 112.621Z" fill="#7F3E3B"/>
<path opacity="0.2" d="M142.881 289.572L142.52 298.032H136.035L136.396 289.572H142.881Z" fill="black"/>
<path opacity="0.2" d="M95.469 275.643L101.747 277.288L97.8942 284.886L91.8828 282.724L95.469 275.643Z" fill="black"/>
<path d="M149.03 59.2102C147.877 65.5508 146.871 69.2035 149.236 73.1922C152.788 79.1882 161.19 78.2319 164.217 72.3652C166.943 67.0842 168.371 57.5992 162.884 53.6019C157.475 49.6649 150.191 52.8696 149.038 59.2188L149.03 59.2102Z" fill="#7F3E3B"/>
<path d="M159.883 65.4211C163.116 66.6703 165.043 62.0269 164.209 60.3556C165.275 59.7095 169.532 58.7187 169.042 55.4451C168.552 52.1714 165.327 51.2238 162.97 46.9163C162.17 47.3385 162.385 49.966 162.385 49.966C162.385 49.966 160.45 46.5373 155.428 46.5803C150.414 46.6148 148.514 44.5645 148.514 44.5645C148.514 44.5645 148.892 47.8381 150.758 48.6393C147.946 49.4405 147.946 53.8513 143.956 54.351C144.867 56.0654 147.095 56.0223 147.095 56.0223C147.095 56.0223 144.79 58.0209 145.254 60.5193C145.71 63.0262 148.367 69.0394 145.177 71.1328C152.091 73.6484 161.25 70.8571 159.883 65.4298V65.4211Z" fill="#263238"/>
<path d="M158.378 64.3875C157.982 66.0244 158.257 67.7732 158.859 69.0396C159.754 70.9435 161.448 70.4524 162.248 68.7122C162.962 67.1443 163.366 64.2583 161.964 62.9316C160.588 61.6222 158.842 62.5095 158.386 64.3875H158.378Z" fill="#7F3E3B"/>
<path d="M141.848 140.526C141.848 140.526 133.042 189.002 129 207.602C124.571 227.968 102.056 282.465 102.056 282.465L90.7559 278.813C90.7559 278.813 104.894 226.917 111.267 206.456C112.6 184.617 115.309 150.072 119.85 136.365L141.848 140.518V140.526Z" fill="#407BFF"/>
<path opacity="0.5" d="M141.848 140.526C141.848 140.526 133.042 189.002 129 207.602C124.571 227.968 102.056 282.465 102.056 282.465L90.7559 278.813C90.7559 278.813 104.894 226.917 111.267 206.456C112.6 184.617 115.309 150.072 119.85 136.365L141.848 140.518V140.526Z" fill="black"/>
<path d="M104.456 280.079C104.508 280.096 101.867 284.033 101.867 284.033L89.1738 279.846L90.6788 276.047L104.456 280.079Z" fill="#407BFF"/>
<path opacity="0.3" d="M137.849 157.471C129.593 158.798 130.195 183.351 131.167 197.057C133.567 185.074 136.534 169.308 138.727 157.471C138.314 157.454 137.996 157.446 137.849 157.471Z" fill="black"/>
<path d="M153.94 142.808C153.94 142.808 155.772 187.933 155.067 207.739C154.336 228.345 144.971 295.817 144.971 295.817H133.98C133.98 295.817 133.748 230.956 136.276 209.418C135.743 187.356 131.529 138.578 131.529 138.578L153.94 142.808Z" fill="#407BFF"/>
<path opacity="0.5" d="M153.94 142.808C153.94 142.808 155.772 187.933 155.067 207.739C154.336 228.345 144.971 295.817 144.971 295.817H133.98C133.98 295.817 133.748 230.956 136.276 209.418C135.743 187.356 131.529 138.578 131.529 138.578L153.94 142.808Z" fill="black"/>
<path d="M147.086 291.441C147.138 291.441 146.467 296.007 146.467 296.007H133.102L132.741 291.932L147.086 291.441Z" fill="#407BFF"/>
<path d="M119.85 135.134C118.723 135.082 118.646 137.787 119.016 138.58C119.386 139.372 124.313 139.855 137.454 142.809C150.595 145.764 153.846 145.919 154.25 145.738C154.654 145.558 155.497 141.905 154.689 141.793C153.88 141.681 140.387 139.51 134.659 138.183C128.94 136.857 121.441 135.211 119.841 135.134H119.85Z" fill="#263238"/>
</g>
<defs>
<clipPath id="clip0_1200_8304">
<rect width="430" height="321" fill="white"/>
</clipPath>
</defs>
</svg>
