<svg width="202" height="271" viewBox="0 0 202 271" fill="none" xmlns="http://www.w3.org/2000/svg">
<path d="M100.814 0C51.8303 0 12 39.8575 12 88.8145C12 137.771 51.8303 177.629 100.814 177.629C149.799 177.629 189.629 137.799 189.629 88.8145C189.629 39.8303 149.799 0 100.814 0ZM100.814 139.488C72.8624 139.488 50.1412 116.766 50.1412 88.8145C50.1412 60.8624 72.8624 38.1412 100.814 38.1412C128.766 38.1412 151.488 60.8624 151.488 88.8145C151.488 116.766 128.766 139.488 100.814 139.488Z" fill="white"/>
<path d="M115.172 94.4816C116.044 92.5473 116.535 90.395 116.535 88.1338C116.535 81.3773 112.257 75.6289 106.291 73.4222V52.3628C106.291 49.366 103.839 46.9141 100.842 46.9141C97.8455 46.9141 95.3935 49.366 95.3935 52.3628V73.4222C89.3999 75.6289 85.1499 81.3773 85.1499 88.1338C85.1499 96.7973 92.1788 103.826 100.842 103.826C103.267 103.826 105.528 103.254 107.571 102.3L115.881 109.847C116.916 110.801 118.224 111.264 119.531 111.264C121.003 111.264 122.501 110.664 123.564 109.466C125.58 107.232 125.416 103.799 123.182 101.756L115.145 94.4816H115.172Z" fill="white"/>
<path d="M23.7458 222.371C10.6492 222.371 0 233.028 0 246.117C0 259.206 10.6492 269.863 23.7458 269.863C36.8424 269.863 47.4916 259.214 47.4916 246.117C47.4916 233.02 36.8424 222.371 23.7458 222.371ZM23.7458 259.665C16.2724 259.665 10.1976 253.59 10.1976 246.117C10.1976 238.644 16.2724 232.569 23.7458 232.569C31.2192 232.569 37.294 238.644 37.294 246.117C37.294 253.59 31.2192 259.665 23.7458 259.665Z" fill="white"/>
<path d="M78.5653 222.371C75.7464 222.371 73.4665 224.651 73.4665 227.47V240.552H60.8944V227.47C60.8944 224.651 58.6145 222.371 55.7956 222.371C52.9767 222.371 50.6968 224.651 50.6968 227.47V264.385C50.6968 267.204 52.9767 269.484 55.7956 269.484C58.6145 269.484 60.8944 267.204 60.8944 264.385V250.742H73.4665V264.385C73.4665 267.204 75.7464 269.484 78.5653 269.484C81.3842 269.484 83.6641 267.204 83.6641 264.385V227.47C83.6641 224.651 81.3842 222.371 78.5653 222.371Z" fill="white"/>
<path d="M103.389 222.371H93.7008C90.8819 222.371 88.6021 224.651 88.6021 227.47V264.764C88.6021 267.583 90.8819 269.863 93.7008 269.863C96.5197 269.863 98.7996 267.583 98.7996 264.764V251.711H103.389C111.481 251.711 118.058 245.126 118.058 237.041C118.058 228.956 111.474 222.371 103.389 222.371ZM103.389 241.513H98.7996V232.569H103.389C105.858 232.569 107.861 234.572 107.861 237.041C107.861 239.51 105.858 241.513 103.389 241.513Z" fill="white"/>
<path d="M128.708 241.514C125.889 241.514 123.609 243.794 123.609 246.612V264.764C123.609 267.583 125.889 269.863 128.708 269.863C131.527 269.863 133.807 267.583 133.807 264.764V246.612C133.807 243.794 131.527 241.514 128.708 241.514Z" fill="white"/>
<path d="M162.892 231.964C165.711 231.964 167.991 229.684 167.991 226.865C167.991 224.046 165.711 221.767 162.892 221.767C149.569 221.767 138.724 232.605 138.724 245.935C138.724 259.265 149.562 270.103 162.892 270.103C165.711 270.103 167.991 267.823 167.991 265.004C167.991 262.185 165.711 259.906 162.892 259.906C155.193 259.906 148.921 253.641 148.921 245.935C148.921 238.228 155.185 231.964 162.892 231.964Z" fill="white"/>
<path d="M200.382 260.67L184.168 245.476L200.346 230.624C202.422 228.716 202.56 225.496 200.652 223.42C198.743 221.344 195.524 221.206 193.448 223.114L181.772 233.836V226.865C181.772 224.046 179.492 221.767 176.673 221.767C173.854 221.767 171.574 224.046 171.574 226.865V264.771C171.574 267.59 173.854 269.87 176.673 269.87C179.492 269.87 181.772 267.59 181.772 264.771V257.203L193.412 268.115C194.395 269.04 195.648 269.491 196.901 269.491C198.263 269.491 199.618 268.952 200.623 267.882C202.546 265.827 202.444 262.601 200.39 260.678L200.382 260.67Z" fill="white"/>
<path d="M27.5846 247.632C27.8177 247.115 27.9488 246.539 27.9488 245.935C27.9488 244.128 26.8052 242.591 25.21 242.001V236.371C25.21 235.57 24.5544 234.914 23.7532 234.914C22.952 234.914 22.2964 235.57 22.2964 236.371V242.001C20.6939 242.591 19.5576 244.128 19.5576 245.935C19.5576 248.251 21.4369 250.13 23.7532 250.13C24.4015 250.13 25.006 249.977 25.5523 249.722L27.774 251.74C28.0507 251.995 28.4004 252.119 28.75 252.119C29.1433 252.119 29.544 251.959 29.828 251.638C30.3671 251.041 30.3234 250.123 29.7261 249.577L27.5773 247.632H27.5846Z" fill="white"/>
<path d="M128.708 237.726C128.708 237.726 128.737 237.726 128.752 237.726C129.356 237.711 129.925 237.449 130.333 236.998L145.913 219.64C146.692 218.773 146.656 217.447 145.826 216.632C145.002 215.816 143.677 215.787 142.817 216.566L128.468 229.626L121.723 225.365C120.783 224.768 119.552 224.979 118.853 225.838C118.154 226.698 118.212 227.951 118.991 228.737L127.149 237.063C127.557 237.486 128.125 237.719 128.708 237.719V237.726Z" fill="white"/>
</svg>
