<svg width="430" height="321" viewBox="0 0 430 321" fill="none" xmlns="http://www.w3.org/2000/svg">
<g clip-path="url(#clip0_1200_3645)">
<path d="M430 282.095H0V282.31H430V282.095Z" fill="#EBEBEB"/>
<path d="M386.914 295.956H358.431V296.171H386.914V295.956Z" fill="#EBEBEB"/>
<path d="M284.849 298.3H277.376V298.515H284.849V298.3Z" fill="#EBEBEB"/>
<path d="M357.571 287.962H341.067V288.177H357.571V287.962Z" fill="#EBEBEB"/>
<path d="M82.2591 289.409H45.1157V289.625H82.2591V289.409Z" fill="#EBEBEB"/>
<path d="M95.3652 289.409H89.9214V289.625H95.3652V289.409Z" fill="#EBEBEB"/>
<path d="M193.629 293.045H113.064V293.26H193.629V293.045Z" fill="#EBEBEB"/>
<path d="M203.829 243.673H37.7627C35.0536 243.673 32.8521 241.467 32.8521 238.754V4.91911C32.8521 2.20542 35.0536 0 37.7627 0H203.829C206.538 0 208.739 2.20542 208.739 4.91911V238.754C208.739 241.467 206.538 243.673 203.829 243.673ZM37.7627 0.215373C35.1741 0.215373 33.0671 2.32602 33.0671 4.91911V238.754C33.0671 241.347 35.1741 243.457 37.7627 243.457H203.829C206.417 243.457 208.524 241.347 208.524 238.754V4.91911C208.524 2.32602 206.417 0.215373 203.829 0.215373H37.7627Z" fill="#EBEBEB"/>
<path d="M389.847 243.673H223.781C221.072 243.673 218.87 241.467 218.87 238.754V4.91911C218.87 2.20542 221.072 0 223.781 0H389.847C392.556 0 394.757 2.20542 394.757 4.91911V238.754C394.757 241.467 392.556 243.673 389.847 243.673ZM223.781 0.215373C221.192 0.215373 219.085 2.32602 219.085 4.91911V238.754C219.085 241.347 221.192 243.457 223.781 243.457H389.847C392.435 243.457 394.542 241.347 394.542 238.754V4.91911C394.542 2.32602 392.435 0.215373 389.847 0.215373H223.781Z" fill="#EBEBEB"/>
<path d="M173.428 59.5381H66.2544V166.897H173.428V59.5381Z" fill="#E6E6E6"/>
<path d="M169.42 63.7939H70.52V162.865H169.42V63.7939Z" fill="#F0F0F0"/>
<path d="M95.5546 63.7939L70.52 157.714V106.868L81.9752 63.7939H95.5546Z" fill="#FAFAFA"/>
<path d="M106.743 63.7939L80.3412 162.865H75.3618L101.764 63.7939H106.743Z" fill="#FAFAFA"/>
<path d="M169.42 90.8105V141.664L163.813 162.866H150.233L169.42 90.8105Z" fill="#FAFAFA"/>
<path d="M121.561 59.5381H118.121V166.897H121.561V59.5381Z" fill="#E6E6E6"/>
<path d="M338.341 252.822C338.341 252.822 344.946 239.865 337.395 227.098C329.844 214.322 327.651 211.315 332.467 208.696C337.283 206.077 339.485 218.914 339.485 218.914C339.485 218.914 343.544 210.083 340.19 200.848C336.836 191.604 334.738 176.554 339.313 174.943C343.888 173.332 340.19 193.715 344.155 200.667C344.155 200.667 347.492 192.931 348.042 185.505C348.592 178.088 347.732 166.233 351.344 163.192C354.956 160.151 357.27 162.253 353.718 178.63C350.166 195.007 350.192 208.326 350.192 208.326C350.192 208.326 358.035 186.84 363.298 186.211C368.562 185.583 368.553 192.543 364.047 198.574C359.54 204.613 350.854 215.416 349.427 220.981C349.427 220.981 358.035 204.811 365.775 209.765C373.515 214.718 359.033 224.487 352.583 228.011C346.124 231.543 341.644 253.658 341.644 253.658L338.315 252.805L338.341 252.822Z" fill="#E0E0E0"/>
<path d="M343.553 258.137C343.553 258.137 337.12 245.094 344.834 232.422C352.557 219.749 354.784 216.777 350.003 214.089C345.221 211.41 342.847 224.212 342.847 224.212C342.847 224.212 338.909 215.33 342.383 206.138C345.857 196.946 348.162 181.921 343.604 180.25C339.055 178.579 342.478 199.013 338.418 205.905C338.418 205.905 335.185 198.126 334.738 190.7C334.29 183.274 335.305 171.437 331.728 168.344C328.15 165.251 325.811 167.327 329.148 183.756C332.476 200.185 332.278 213.495 332.278 213.495C332.278 213.495 324.727 191.906 319.473 191.208C314.218 190.51 314.132 197.471 318.552 203.562C322.973 209.653 331.521 220.585 332.871 226.167C332.871 226.167 324.478 209.885 316.669 214.735C308.86 219.586 323.214 229.544 329.621 233.163C336.028 236.781 340.216 258.956 340.216 258.956L343.553 258.146V258.137Z" fill="#E6E6E6"/>
<path d="M313.874 248.833H367.039L362.731 283.017H318.174L313.874 248.833Z" fill="#F0F0F0"/>
<path opacity="0.3" d="M361.019 36.9062H138.451C136.765 36.9062 135.398 38.2755 135.398 39.9645V197.988C135.398 199.677 136.765 201.046 138.451 201.046H361.019C362.706 201.046 364.072 199.677 364.072 197.988V39.9645C364.072 38.2755 362.706 36.9062 361.019 36.9062Z" fill="white"/>
<path d="M215 321C307.091 321 381.745 316.634 381.745 311.248C381.745 305.862 307.091 301.496 215 301.496C122.909 301.496 48.2544 305.862 48.2544 311.248C48.2544 316.634 122.909 321 215 321Z" fill="#F5F5F5"/>
<path d="M161.714 234.368L161.405 247.782L159.994 308.456H155.342L153.94 247.782L153.63 234.368H161.714Z" fill="#407BFF"/>
<path opacity="0.4" d="M161.714 234.368L161.405 247.782L159.994 308.456H155.342L153.94 247.782L153.63 234.368H161.714Z" fill="white"/>
<path opacity="0.2" d="M161.714 234.368L161.405 248.152H153.94L153.63 234.368H161.714Z" fill="black"/>
<path d="M186.981 308.241L182.681 235.315H175.655L181.675 308.241H186.981Z" fill="#407BFF"/>
<path opacity="0.5" d="M181.658 308.241H186.973L183.068 241.863L182.681 235.229H175.655L176.197 241.863L181.658 308.241Z" fill="white"/>
<path opacity="0.2" d="M175.655 235.229L176.197 242.121H183.068L182.681 235.229H175.655Z" fill="black"/>
<path d="M133.67 308.241L139.681 235.315H132.655L128.364 308.241H133.67Z" fill="#407BFF"/>
<path opacity="0.5" d="M133.679 308.241L139.14 241.863L139.682 235.229H132.655L132.268 241.863L128.373 308.241H133.679Z" fill="white"/>
<path opacity="0.2" d="M139.681 235.229L139.139 242.121H132.268L132.655 235.229H139.681Z" fill="black"/>
<path d="M133.197 227.761H182.148C184.522 227.761 186.448 229.69 186.448 232.068V237.832H128.897V232.068C128.897 229.69 130.823 227.761 133.197 227.761Z" fill="#407BFF"/>
<path d="M187.471 232.801H127.865C126.91 232.801 126.136 233.576 126.136 234.532V236.1C126.136 237.057 126.91 237.832 127.865 237.832H187.471C188.426 237.832 189.2 237.057 189.2 236.1V234.532C189.2 233.576 188.426 232.801 187.471 232.801Z" fill="#407BFF"/>
<path opacity="0.6" d="M187.471 232.801H127.865C126.91 232.801 126.136 233.576 126.136 234.532V236.1C126.136 237.057 126.91 237.832 127.865 237.832H187.471C188.426 237.832 189.2 237.057 189.2 236.1V234.532C189.2 233.576 188.426 232.801 187.471 232.801Z" fill="white"/>
<path d="M207.905 117.206H259.367C260.279 117.206 261.027 118.412 261.027 119.894V167.922C261.027 169.412 260.287 170.61 259.367 170.61H207.948C207.561 170.61 207.26 170.067 207.303 169.446C208.137 158.092 218.784 136.744 218.784 136.744L208.025 124.554C207.544 124.011 207.26 123.124 207.26 122.168V118.239C207.26 117.662 207.552 117.188 207.905 117.188V117.206Z" fill="#407BFF"/>
<path opacity="0.8" d="M207.905 117.206H259.367C260.279 117.206 261.027 118.412 261.027 119.894V167.922C261.027 169.412 260.287 170.61 259.367 170.61H207.948C207.561 170.61 207.26 170.067 207.303 169.446C208.137 158.092 218.784 136.744 218.784 136.744L208.025 124.554C207.544 124.011 207.26 123.124 207.26 122.168V118.239C207.26 117.662 207.552 117.188 207.905 117.188V117.206Z" fill="white"/>
<path opacity="0.2" d="M207.475 117.206L265.74 154.939V117.206H207.475Z" fill="black"/>
<path d="M239.742 117.206H273.996C274.908 117.206 275.656 118.412 275.656 119.894V167.922C275.656 169.412 274.916 170.61 273.996 170.61H239.785C239.398 170.61 239.097 170.067 239.14 169.446C239.974 158.092 250.621 136.744 250.621 136.744L239.863 124.554C239.381 124.011 239.097 123.124 239.097 122.168V118.239C239.097 117.662 239.39 117.188 239.742 117.188V117.206Z" fill="#407BFF"/>
<path opacity="0.7" d="M239.742 117.206H273.996C274.908 117.206 275.656 118.412 275.656 119.894V167.922C275.656 169.412 274.916 170.61 273.996 170.61H239.785C239.398 170.61 239.097 170.067 239.14 169.446C239.974 158.092 250.621 136.744 250.621 136.744L239.863 124.554C239.381 124.011 239.097 123.124 239.097 122.168V118.239C239.097 117.662 239.39 117.188 239.742 117.188V117.206Z" fill="white"/>
<path d="M230.05 141.759H239.192L236.612 147.574H227.47L230.05 141.759Z" fill="#407BFF"/>
<path d="M224.03 141.759H190.92L194.36 147.574H227.47L224.03 141.759Z" fill="#407BFF"/>
<path d="M181.314 135.814C181.314 135.814 200.595 133.195 211.775 134.031C222.955 134.866 223.445 149.942 223.445 149.942L213.925 150.916C213.925 150.916 212.42 145.635 209.195 143.912C205.97 142.189 179.361 150.692 179.361 150.692L181.314 135.814Z" fill="#407BFF"/>
<path opacity="0.4" d="M223.445 149.943L213.925 150.916C213.925 150.916 212.42 145.635 209.195 143.912C206.899 142.689 192.752 146.643 184.797 149.021C181.572 149.986 179.361 150.692 179.361 150.692L180.66 140.802L181.314 135.814C181.314 135.814 200.595 133.204 211.775 134.031C222.955 134.867 223.445 149.943 223.445 149.943Z" fill="black"/>
<path d="M236.603 147.573H194.36V170.489H236.603V147.573Z" fill="#407BFF"/>
<path opacity="0.2" d="M204.25 147.573H194.36V170.489H204.25V147.573Z" fill="black"/>
<path d="M242.631 144.343H210.27L204.25 147.573H236.611L242.631 144.343Z" fill="#407BFF"/>
<path d="M190.06 144.343H199.95L204.25 147.573H194.36L190.06 144.343Z" fill="#407BFF"/>
<path opacity="0.2" d="M242.631 144.343H210.27L204.25 147.573H236.611L242.631 144.343Z" fill="black"/>
<path opacity="0.3" d="M190.06 144.343H199.95L204.25 147.573H194.36L190.06 144.343Z" fill="black"/>
<path opacity="0.2" d="M184.797 149.02C181.572 149.985 179.361 150.692 179.361 150.692L180.66 140.802C182.07 142.602 183.868 145.428 184.797 149.02Z" fill="black"/>
<path d="M237.652 277.796L231.993 279.157L229.129 271.343L226.532 264.227L232.974 261.471L235.45 270.103L237.652 277.796Z" fill="#E4897B"/>
<path d="M230.618 278.778C230.48 278.149 238.263 276.788 238.263 276.788C238.263 276.788 244.128 280.449 248.97 280.432C253.803 280.406 251.911 283.775 246.794 285.007C241.677 286.239 237.773 287.186 234.135 288.056C230.497 288.935 232.028 285.282 230.618 278.77V278.778Z" fill="#2E353A"/>
<path d="M239.398 277.374C239.398 277.374 239.716 274.298 241.307 274.634C243.13 275.013 239.398 277.374 239.398 277.374ZM239.398 277.374C239.398 277.374 242.606 275.547 243.199 276.667C244.094 278.364 239.398 277.374 239.398 277.374Z" stroke="#577AFA" stroke-width="0.48" stroke-linecap="round" stroke-linejoin="round"/>
<path opacity="0.2" d="M235.45 270.103L229.129 271.343L226.532 264.227L232.974 261.471L235.45 270.103Z" fill="black"/>
<path d="M189.767 300.152L184.134 298.705L185.218 290.607L186.224 283.181L193.19 283.81L191.384 292.459L189.767 300.152Z" fill="#E4897B"/>
<path d="M182.612 298.429C182.638 297.783 190.507 298.386 190.507 298.386C190.507 298.386 195.297 303.382 199.993 304.545C204.688 305.708 202.022 308.508 196.759 308.448C191.496 308.387 187.48 308.336 183.739 308.293C179.998 308.25 182.371 305.088 182.612 298.429Z" fill="#2E353A"/>
<path d="M191.47 299.23C191.47 299.23 192.537 296.327 193.99 297.042C195.667 297.86 191.47 299.23 191.47 299.23ZM191.47 299.23C191.47 299.23 195.031 298.257 195.332 299.489C195.779 301.349 191.47 299.23 191.47 299.23Z" stroke="#577AFA" stroke-width="0.48" stroke-linecap="round" stroke-linejoin="round"/>
<path opacity="0.2" d="M191.341 292.631L185.184 290.761L186.207 283.258L193.182 283.844L191.341 292.631Z" fill="black"/>
<path d="M234.883 265.976L227.04 268.896C227.04 268.896 206.116 216.492 201.816 216.311C197.516 216.13 153.733 236.289 142.76 225.107C131.786 213.933 147.653 186.995 147.653 186.995C147.653 186.995 174.047 183.221 176.033 189.191C176.42 190.346 176.842 192.611 177.151 194.55C177.452 196.376 177.659 197.91 177.659 197.91C177.659 197.91 177.659 197.91 177.676 197.901C178.493 197.694 204.989 190.845 215.43 197.91C226.034 205.094 234.883 265.976 234.883 265.976Z" fill="#2E353A"/>
<path d="M148.29 182.886L147.653 187.004L176.033 189.192L176.79 184.324L148.29 182.886Z" fill="#2E353A"/>
<path opacity="0.2" d="M148.29 182.886L147.653 187.004L176.033 189.192L176.79 184.324L148.29 182.886Z" fill="black"/>
<path d="M157.974 182.612L156.571 182.468L155.836 189.624L157.239 189.768L157.974 182.612Z" fill="#2E353A"/>
<path d="M170.129 184.33L163.916 183.93L163.612 188.65L169.826 189.05L170.129 184.33Z" fill="white"/>
<path d="M175.416 183.377L174.013 183.232L173.279 190.388L174.682 190.533L175.416 183.377Z" fill="#2E353A"/>
<path d="M223.797 265.994L235.227 262.1L235.708 266.795L227.048 269.862L223.797 265.994Z" fill="#407BFF"/>
<path d="M161.714 227.795C161.714 227.795 163.503 227.838 191.187 226.546C191.187 226.546 187.05 261.221 184.788 287.169L193.07 288.582C193.07 288.582 212.85 233.007 212.635 224.176C212.42 215.346 202.315 212.762 202.315 212.762C202.315 212.762 182.595 224.176 161.714 227.795Z" fill="#2E353A"/>
<path opacity="0.3" d="M161.714 227.795C161.714 227.795 163.503 227.838 191.187 226.546C191.187 226.546 187.05 261.221 184.788 287.169L193.07 288.582C193.07 288.582 212.85 233.007 212.635 224.176C212.42 215.346 202.315 212.762 202.315 212.762C202.315 212.762 182.595 224.176 161.714 227.795Z" fill="black"/>
<path d="M183.584 284.662L194.962 285.954L192.76 290.425L183.55 289.237L183.584 284.662Z" fill="#407BFF"/>
<path opacity="0.3" d="M177.659 197.91L162.222 201.132C162.222 201.132 170.753 196.411 177.151 194.55C177.452 196.376 177.659 197.91 177.659 197.91Z" fill="black"/>
<path d="M148.29 182.885C148.29 182.885 147.051 158.565 141.891 145.85C141.891 145.85 153.862 137.192 181.314 135.813C181.314 135.813 184.582 164.441 176.781 184.324C176.781 184.324 166.289 184.815 148.29 182.885Z" fill="#407BFF"/>
<path opacity="0.3" d="M148.29 182.885C148.29 182.885 147.051 158.565 141.891 145.85C141.891 145.85 153.862 137.192 181.314 135.813C181.314 135.813 184.582 164.441 176.781 184.324C176.781 184.324 166.289 184.815 148.29 182.885Z" fill="black"/>
<g opacity="0.7">
<path d="M181.589 138.94C170.443 142.895 153.363 146.427 142.82 148.4C143 148.942 143.172 149.502 143.344 150.071C153.793 148.124 170.434 144.687 181.709 140.732C181.666 140.078 181.632 139.483 181.589 138.94Z" fill="white"/>
<path d="M181.959 146.616C170.202 151.277 153.441 153.965 144.669 155.136C144.798 155.696 144.918 156.265 145.039 156.842C153.768 155.688 170.082 153.086 181.984 148.468C181.984 147.831 181.967 147.219 181.95 146.625L181.959 146.616Z" fill="white"/>
<path d="M181.881 155.938C170.176 159.263 154.232 161.141 145.984 161.951C146.079 162.528 146.174 163.096 146.26 163.665C154.464 162.873 169.996 161.046 181.795 157.764C181.829 157.152 181.855 156.541 181.881 155.938Z" fill="white"/>
<path d="M181.115 165.793C171.853 167.86 155.384 168.825 147.034 169.196C147.102 169.781 147.171 170.35 147.24 170.919C155.487 170.557 171.337 169.626 180.883 167.602C180.969 166.999 181.047 166.387 181.115 165.784V165.793Z" fill="white"/>
<path d="M178.897 177.759C179.052 177.164 179.198 176.579 179.344 175.976C168.895 177.018 154.886 176.544 147.782 176.2C147.834 176.811 147.894 177.397 147.937 177.94C151.816 178.138 157.603 178.353 163.761 178.353C168.844 178.353 174.184 178.198 178.897 177.75V177.759Z" fill="white"/>
</g>
<path d="M156.907 140.569C156.004 143.541 163.064 147.358 167.158 147.564C171.251 147.78 172.008 141.68 170.004 140.078C167.063 137.726 157.603 138.303 156.907 140.561V140.569Z" fill="#407BFF"/>
<path opacity="0.4" d="M156.907 140.569C156.004 143.541 163.064 147.358 167.158 147.564C171.251 147.78 172.008 141.68 170.004 140.078C167.063 137.726 157.603 138.303 156.907 140.561V140.569Z" fill="black"/>
<path d="M178.209 119.592C178.209 119.592 182.406 103.611 165.214 104.395C148.032 105.179 151.902 131.885 162.54 130.274C173.178 128.663 178.209 119.592 178.209 119.592Z" fill="#2E353A"/>
<path d="M167.081 145.962C161.757 146.617 158.687 140.724 158.687 140.724C163.718 137.261 161.181 129.508 161.181 129.508L169.265 132.351C168.835 133.695 168.56 134.832 168.396 135.814C167.554 140.862 169.833 141.267 169.833 141.267C170.873 144.231 168.439 145.799 167.089 145.962H167.081Z" fill="#E4897B"/>
<path opacity="0.2" d="M169.256 132.36C168.826 133.703 168.551 134.841 168.388 135.823C164.518 134.272 161.172 129.517 161.172 129.517L169.256 132.36Z" fill="black"/>
<path d="M168.999 108.246C176.3 108.875 178.321 112.992 178.209 120.582C178.072 130.059 175.406 136.58 166.453 133.78C154.284 129.981 156.873 107.203 169.007 108.246H168.999Z" fill="#E4897B"/>
<path d="M173.522 119.764C173.522 119.764 174.373 121.762 175.388 122.977C175.388 122.977 174.674 123.916 173.393 123.64L173.522 119.764Z" fill="#DE5753"/>
<path d="M169.102 118.783C169.067 119.386 168.706 119.851 168.311 119.825C167.906 119.799 167.614 119.291 167.657 118.688C167.691 118.085 168.053 117.62 168.448 117.646C168.852 117.671 169.145 118.18 169.102 118.783Z" fill="#2E353A"/>
<path d="M168.276 117.671L169.618 117.24C169.618 117.24 168.896 118.3 168.276 117.671Z" fill="#2E353A"/>
<path d="M176.584 119.126C176.549 119.73 176.188 120.195 175.793 120.169C175.388 120.143 175.096 119.635 175.139 119.032C175.173 118.429 175.535 117.963 175.93 117.989C176.334 118.015 176.627 118.523 176.584 119.126Z" fill="#2E353A"/>
<path d="M175.758 118.007L177.1 117.576C177.1 117.576 176.378 118.636 175.758 118.007Z" fill="#2E353A"/>
<path d="M169.463 113.725C169.463 113.725 167.433 113.277 166.204 114.561" stroke="#2E353A" stroke-width="0.72" stroke-linecap="round" stroke-linejoin="round"/>
<path d="M174.795 113.871C174.795 113.871 176.128 113.501 177.65 114.724" stroke="#2E353A" stroke-width="0.72" stroke-linecap="round" stroke-linejoin="round"/>
<path d="M172.077 126.432C171.578 127.276 171.011 128.895 171.011 128.895C170.856 128.87 170.701 128.844 170.546 128.809C168.439 128.413 167.596 127.526 167.295 126.673C167.132 126.199 167.141 125.734 167.192 125.363C167.252 124.933 167.39 124.64 167.39 124.64C168.379 125.518 170.314 126.044 171.363 126.276C171.802 126.38 172.077 126.423 172.077 126.423V126.432Z" fill="#2E353A"/>
<path d="M171.363 126.285L171.028 127.009C169.041 126.63 167.7 126.096 167.192 125.372C167.253 124.941 167.39 124.648 167.39 124.648C168.379 125.527 170.314 126.053 171.363 126.285Z" fill="white"/>
<path d="M170.538 128.818C168.431 128.422 167.588 127.535 167.287 126.682C168.001 126.845 168.844 127.121 169.54 127.586C170.074 127.939 170.366 128.387 170.538 128.818Z" fill="#DE5753"/>
<path d="M159.96 119.893C159.96 119.893 163.89 114.173 163.77 109.486C163.77 109.486 178.751 104.809 178.201 119.592C178.201 119.592 180.738 106.644 168.207 105.274C155.694 103.904 154.155 122.305 160.166 128.344C160.166 128.344 157.526 123.468 159.96 119.893Z" fill="#2E353A"/>
<path d="M161.018 121.539C161.069 120.359 160.029 118.257 157.819 118.309C155.531 118.36 154.052 122.926 159.59 124.529C160.381 124.761 160.906 124.003 161.018 121.539Z" fill="#E4897B"/>
<path d="M162.755 105.196C162.755 105.196 162.428 98.2873 155.342 96.6763C148.255 95.0653 144.11 99.6915 145.477 105.937C146.845 112.183 149.296 114.88 144.686 117.361C140.077 119.833 141.582 124.571 146.312 124.244C146.312 124.244 144.136 123.365 144.686 121.436C145.237 119.506 149.709 120.324 151.36 117.352C152.323 115.621 151.506 112.192 152.323 110.305C153.243 108.169 156.245 108.014 157.268 108.66L162.755 105.205V105.196Z" fill="#2E353A"/>
<path d="M168.8 108.788C168.8 108.788 164.827 120.574 157.268 119.772C149.708 118.971 162.703 104.731 162.703 104.731C162.703 104.731 175.457 101.13 180.987 108.22C186.516 115.31 178.209 119.6 178.209 119.6C178.209 119.6 179.473 110.313 168.809 108.797L168.8 108.788Z" fill="#2E353A"/>
<path d="M168.801 107.928C168.801 107.928 168.99 116.224 162.755 118.593" stroke="#2E353A" stroke-width="0.5" stroke-linecap="round" stroke-linejoin="round"/>
<path opacity="0.2" d="M158.678 178.208C155.737 178.113 150.637 174.779 147.223 170.799C146.698 166.225 145.924 160.918 144.841 155.938C148.436 159.763 164.492 178.389 158.678 178.208Z" fill="black"/>
<path d="M192.709 166.336L198.505 163.063C198.505 163.063 199.262 160.668 200.286 160.151C201.3 159.625 208.06 158.471 208.748 159.117C209.427 159.772 209.591 165.096 208.335 165.845C207.08 166.595 201.094 166.75 200.526 166.543L194.567 170.403L192.726 166.336H192.709Z" fill="#E4897B"/>
<path d="M197.37 171.264C197.37 171.264 197.361 171.264 197.353 171.273C196.691 171.514 175.268 179.224 164.475 179.44C153.51 179.664 143.242 164.639 140.61 156.843C138.985 152.036 139.449 149.236 140.249 147.668C140.877 146.419 141.711 145.954 141.874 145.876C141.891 145.876 141.9 145.859 141.9 145.859C147.705 145.204 157.896 167.68 163.477 168.68C169.059 169.688 192.468 163.545 192.468 163.545L197.37 171.264Z" fill="#407BFF"/>
<path opacity="0.4" d="M197.37 171.264C197.37 171.264 197.361 171.264 197.353 171.273C196.691 171.514 175.268 179.224 164.475 179.44C153.51 179.664 143.242 164.639 140.61 156.843C138.985 152.036 139.449 149.236 140.249 147.668C141.04 146.582 141.737 145.988 141.874 145.876C141.891 145.876 141.9 145.859 141.9 145.859C147.705 145.204 157.896 167.68 163.477 168.68C169.059 169.688 192.468 163.545 192.468 163.545L197.37 171.264Z" fill="black"/>
<path d="M191.135 163.545L196.837 172.659L198.66 171.048L193.285 162.477L191.135 163.545Z" fill="#407BFF"/>
<path opacity="0.6" d="M191.135 163.545L196.837 172.659L198.66 171.048L193.285 162.477L191.135 163.545Z" fill="white"/>
<path d="M223.893 308.456H218.621L217.761 176.433H224.753L223.893 308.456Z" fill="#407BFF"/>
<path opacity="0.4" d="M224.753 176.648L224.615 197.944L223.893 308.456H218.621L217.898 197.944L217.761 176.648H224.753Z" fill="white"/>
<path opacity="0.2" d="M224.753 176.648L224.615 198.186H217.898L217.761 176.648H224.753Z" fill="black"/>
<path d="M279.827 308.456H274.555L265.086 176.433H272.078L279.827 308.456Z" fill="#407BFF"/>
<path opacity="0.5" d="M279.827 308.456H274.555L265.551 182.989L265.086 176.648H272.078L272.457 182.989L279.827 308.456Z" fill="white"/>
<path opacity="0.2" d="M272.457 182.679H265.551L265.086 176.648H272.078L272.457 182.679Z" fill="black"/>
<path d="M167.949 308.456H162.686L170.426 176.433H177.418L167.949 308.456Z" fill="#407BFF"/>
<path opacity="0.5" d="M177.418 176.648L176.953 182.989L167.949 308.456H162.686L170.048 182.989L170.426 176.648H177.418Z" fill="white"/>
<path opacity="0.2" d="M170.426 176.648H177.418L176.954 182.679H170.048L170.426 176.648Z" fill="black"/>
<path d="M164.888 173.125H277.616V177.872C277.616 178.897 276.782 179.733 275.759 179.733H166.745C165.722 179.733 164.888 178.897 164.888 177.872V173.125Z" fill="#407BFF"/>
<path opacity="0.6" d="M164.888 173.125H277.616V177.872C277.616 178.897 276.782 179.733 275.759 179.733H166.745C165.722 179.733 164.888 178.897 164.888 177.872V173.125Z" fill="white"/>
<path opacity="0.2" d="M277.616 173.125H164.888V176.433H277.616V173.125Z" fill="black"/>
<path d="M280.885 173.986H161.62C160.596 173.986 159.762 173.151 159.762 172.125C159.762 171.1 160.596 170.265 161.62 170.265H280.885C281.908 170.265 282.742 171.1 282.742 172.125C282.742 173.151 281.908 173.986 280.885 173.986Z" fill="#407BFF"/>
<path opacity="0.6" d="M280.885 173.986H161.62C160.596 173.986 159.762 173.151 159.762 172.125C159.762 171.1 160.596 170.265 161.62 170.265H280.885C281.908 170.265 282.742 171.1 282.742 172.125C282.742 173.151 281.908 173.986 280.885 173.986Z" fill="white"/>
<path d="M116.1 151.373H113.52V308.449H116.1V151.373Z" fill="#2E353A"/>
<path opacity="0.3" d="M116.1 216.277H113.52V232.646H116.1V216.277Z" fill="black"/>
<path opacity="0.3" d="M116.1 152.958H113.52V213.409H116.1V152.958Z" fill="black"/>
<path d="M84.5123 308.457L110.88 223.738L111 223.342L113.271 215.985L113.314 215.847L114.028 213.4H111.026L110.312 215.838L107.999 223.402L81.5195 308.457H84.5123Z" fill="#2E353A"/>
<path opacity="0.3" d="M113.271 216.277L111 223.634L110.88 224.031H107.999L110.312 216.277H113.271Z" fill="black"/>
<path d="M116.367 215.985L118.637 223.342L118.757 223.738L145.125 308.457H148.118L121.638 223.402L119.325 215.838L118.611 213.4H115.61L116.324 215.847L116.367 215.985Z" fill="#2E353A"/>
<path opacity="0.3" d="M116.367 216.277L118.637 223.634L118.757 224.031H121.639L119.325 216.277H116.367Z" fill="black"/>
<path d="M110.889 151.02H118.732V152.295C118.732 153.01 118.156 153.587 117.442 153.587H112.179C111.465 153.587 110.889 153.01 110.889 152.295V151.02Z" fill="#2E353A"/>
<path d="M119.876 211.677H109.246C108.79 211.677 108.42 212.047 108.42 212.504V216.019C108.42 216.475 108.79 216.846 109.246 216.846H119.876C120.332 216.846 120.701 216.475 120.701 216.019V212.504C120.701 212.047 120.332 211.677 119.876 211.677Z" fill="#2E353A"/>
<path d="M127.28 148.142H114.81V142.327H127.28C127.28 142.327 128.14 142.689 128.14 145.239C128.14 147.608 127.28 148.151 127.28 148.151V148.142Z" fill="#407BFF"/>
<path opacity="0.2" d="M127.28 148.142H114.81V142.327H127.28C127.28 142.327 128.14 142.689 128.14 145.239C128.14 147.608 127.28 148.151 127.28 148.151V148.142Z" fill="black"/>
<path d="M122.576 139.604H106.184C105.486 139.604 104.92 140.171 104.92 140.871V150.399C104.92 151.098 105.486 151.665 106.184 151.665H122.576C123.274 151.665 123.84 151.098 123.84 150.399V140.871C123.84 140.171 123.274 139.604 122.576 139.604Z" fill="#407BFF"/>
<path opacity="0.2" d="M119.136 139.604H106.184C105.486 139.604 104.92 140.171 104.92 140.871V150.399C104.92 151.098 105.486 151.665 106.184 151.665H119.136C119.834 151.665 120.4 151.098 120.4 150.399V140.871C120.4 140.171 119.834 139.604 119.136 139.604Z" fill="white"/>
<path opacity="0.6" d="M118.035 141.37H106.855V149.434H118.035V141.37Z" fill="white"/>
<path d="M361.019 199.978H138.451C136.413 199.978 134.753 198.315 134.753 196.273V38.2415C134.753 36.1998 136.413 34.5371 138.451 34.5371H361.019C363.058 34.5371 364.717 36.1998 364.717 38.2415V196.265C364.717 198.306 363.058 199.969 361.019 199.969V199.978ZM138.451 35.8293C137.118 35.8293 136.043 36.9148 136.043 38.2415V196.265C136.043 197.6 137.127 198.677 138.451 198.677H361.019C362.352 198.677 363.427 197.591 363.427 196.265V38.2415C363.427 36.9148 362.344 35.8293 361.019 35.8293H138.451Z" fill="#407BFF"/>
<g opacity="0.6">
<path d="M361.019 199.978H138.451C136.413 199.978 134.753 198.315 134.753 196.273V38.2415C134.753 36.1998 136.413 34.5371 138.451 34.5371H361.019C363.058 34.5371 364.717 36.1998 364.717 38.2415V196.265C364.717 198.306 363.058 199.969 361.019 199.969V199.978ZM138.451 35.8293C137.118 35.8293 136.043 36.9148 136.043 38.2415V196.265C136.043 197.6 137.127 198.677 138.451 198.677H361.019C362.352 198.677 363.427 197.591 363.427 196.265V38.2415C363.427 36.9148 362.344 35.8293 361.019 35.8293H138.451Z" fill="white"/>
</g>
<path d="M183.516 141.026H182.226V131.895H191.342V133.187H183.516V141.026Z" fill="#407BFF"/>
<path d="M252.221 141.026H250.931V133.187H243.114V131.895H252.221V141.026Z" fill="#407BFF"/>
<path d="M252.221 186.496H243.114V185.204H250.931V177.373H252.221V186.496Z" fill="#407BFF"/>
<path d="M191.342 186.496H182.226V177.373H183.516V185.204H191.342V186.496Z" fill="#407BFF"/>
<g opacity="0.6">
<path d="M183.516 141.026H182.226V131.895H191.342V133.187H183.516V141.026Z" fill="white"/>
<path d="M252.221 141.026H250.931V133.187H243.114V131.895H252.221V141.026Z" fill="white"/>
<path d="M252.221 186.496H243.114V185.204H250.931V177.373H252.221V186.496Z" fill="white"/>
<path d="M191.342 186.496H182.226V177.373H183.516V185.204H191.342V186.496Z" fill="white"/>
</g>
<path d="M290.75 192.119C290.108 192.119 289.561 191.945 289.109 191.595C288.658 191.243 288.313 190.733 288.074 190.065C287.835 189.395 287.716 188.585 287.716 187.636C287.716 186.693 287.835 185.888 288.074 185.22C288.315 184.55 288.662 184.038 289.114 183.686C289.568 183.331 290.114 183.153 290.75 183.153C291.386 183.153 291.93 183.331 292.382 183.686C292.837 184.038 293.183 184.55 293.422 185.22C293.663 185.888 293.784 186.693 293.784 187.636C293.784 188.585 293.665 189.395 293.426 190.065C293.188 190.733 292.842 191.243 292.391 191.595C291.939 191.945 291.392 192.119 290.75 192.119ZM290.75 191.182C291.386 191.182 291.881 190.875 292.233 190.261C292.585 189.648 292.761 188.773 292.761 187.636C292.761 186.881 292.68 186.237 292.518 185.706C292.359 185.175 292.129 184.77 291.828 184.491C291.53 184.213 291.17 184.074 290.75 184.074C290.119 184.074 289.626 184.385 289.271 185.007C288.916 185.626 288.739 186.503 288.739 187.636C288.739 188.392 288.818 189.034 288.977 189.562C289.136 190.091 289.365 190.493 289.663 190.768C289.964 191.044 290.327 191.182 290.75 191.182ZM298.25 192.119C297.608 192.119 297.061 191.945 296.609 191.595C296.158 191.243 295.813 190.733 295.574 190.065C295.335 189.395 295.216 188.585 295.216 187.636C295.216 186.693 295.335 185.888 295.574 185.22C295.815 184.55 296.162 184.038 296.614 183.686C297.068 183.331 297.614 183.153 298.25 183.153C298.886 183.153 299.43 183.331 299.882 183.686C300.337 184.038 300.683 184.55 300.922 185.22C301.163 185.888 301.284 186.693 301.284 187.636C301.284 188.585 301.165 189.395 300.926 190.065C300.688 190.733 300.342 191.243 299.891 191.595C299.439 191.945 298.892 192.119 298.25 192.119ZM298.25 191.182C298.886 191.182 299.381 190.875 299.733 190.261C300.085 189.648 300.261 188.773 300.261 187.636C300.261 186.881 300.18 186.237 300.018 185.706C299.859 185.175 299.629 184.77 299.328 184.491C299.03 184.213 298.67 184.074 298.25 184.074C297.619 184.074 297.126 184.385 296.771 185.007C296.416 185.626 296.239 186.503 296.239 187.636C296.239 188.392 296.318 189.034 296.477 189.562C296.636 190.091 296.865 190.493 297.163 190.768C297.464 191.044 297.827 191.182 298.25 191.182ZM303.349 192.068C303.138 192.068 302.958 191.993 302.808 191.842C302.657 191.692 302.582 191.511 302.582 191.301C302.582 191.091 302.657 190.911 302.808 190.76C302.958 190.609 303.138 190.534 303.349 190.534C303.559 190.534 303.739 190.609 303.89 190.76C304.04 190.911 304.116 191.091 304.116 191.301C304.116 191.44 304.08 191.568 304.009 191.685C303.941 191.801 303.849 191.895 303.732 191.966C303.619 192.034 303.491 192.068 303.349 192.068ZM308.445 192.119C307.803 192.119 307.256 191.945 306.805 191.595C306.353 191.243 306.008 190.733 305.769 190.065C305.531 189.395 305.411 188.585 305.411 187.636C305.411 186.693 305.531 185.888 305.769 185.22C306.011 184.55 306.357 184.038 306.809 183.686C307.263 183.331 307.809 183.153 308.445 183.153C309.082 183.153 309.626 183.331 310.077 183.686C310.532 184.038 310.879 184.55 311.117 185.22C311.359 185.888 311.479 186.693 311.479 187.636C311.479 188.585 311.36 189.395 311.121 190.065C310.883 190.733 310.538 191.243 310.086 191.595C309.634 191.945 309.087 192.119 308.445 192.119ZM308.445 191.182C309.082 191.182 309.576 190.875 309.928 190.261C310.281 189.648 310.457 188.773 310.457 187.636C310.457 186.881 310.376 186.237 310.214 185.706C310.055 185.175 309.825 184.77 309.523 184.491C309.225 184.213 308.866 184.074 308.445 184.074C307.815 184.074 307.322 184.385 306.967 185.007C306.612 185.626 306.434 186.503 306.434 187.636C306.434 188.392 306.513 189.034 306.673 189.562C306.832 190.091 307.06 190.493 307.359 190.768C307.66 191.044 308.022 191.182 308.445 191.182ZM315.945 192.119C315.303 192.119 314.756 191.945 314.305 191.595C313.853 191.243 313.508 190.733 313.269 190.065C313.031 189.395 312.911 188.585 312.911 187.636C312.911 186.693 313.031 185.888 313.269 185.22C313.511 184.55 313.857 184.038 314.309 183.686C314.763 183.331 315.309 183.153 315.945 183.153C316.582 183.153 317.126 183.331 317.577 183.686C318.032 184.038 318.379 184.55 318.617 185.22C318.859 185.888 318.979 186.693 318.979 187.636C318.979 188.585 318.86 189.395 318.621 190.065C318.383 190.733 318.038 191.243 317.586 191.595C317.134 191.945 316.587 192.119 315.945 192.119ZM315.945 191.182C316.582 191.182 317.076 190.875 317.428 190.261C317.781 189.648 317.957 188.773 317.957 187.636C317.957 186.881 317.876 186.237 317.714 185.706C317.555 185.175 317.325 184.77 317.023 184.491C316.725 184.213 316.366 184.074 315.945 184.074C315.315 184.074 314.822 184.385 314.467 185.007C314.112 185.626 313.934 186.503 313.934 187.636C313.934 188.392 314.013 189.034 314.173 189.562C314.332 190.091 314.56 190.493 314.859 190.768C315.16 191.044 315.522 191.182 315.945 191.182ZM321.044 192.068C320.834 192.068 320.653 191.993 320.503 191.842C320.352 191.692 320.277 191.511 320.277 191.301C320.277 191.091 320.352 190.911 320.503 190.76C320.653 190.609 320.834 190.534 321.044 190.534C321.254 190.534 321.435 190.609 321.585 190.76C321.736 190.911 321.811 191.091 321.811 191.301C321.811 191.44 321.776 191.568 321.705 191.685C321.636 191.801 321.544 191.895 321.428 191.966C321.314 192.034 321.186 192.068 321.044 192.068ZM326.141 192.119C325.499 192.119 324.952 191.945 324.5 191.595C324.048 191.243 323.703 190.733 323.464 190.065C323.226 189.395 323.107 188.585 323.107 187.636C323.107 186.693 323.226 185.888 323.464 185.22C323.706 184.55 324.053 184.038 324.504 183.686C324.959 183.331 325.504 183.153 326.141 183.153C326.777 183.153 327.321 183.331 327.773 183.686C328.227 184.038 328.574 184.55 328.812 185.22C329.054 185.888 329.175 186.693 329.175 187.636C329.175 188.585 329.055 189.395 328.817 190.065C328.578 190.733 328.233 191.243 327.781 191.595C327.33 191.945 326.783 192.119 326.141 192.119ZM326.141 191.182C326.777 191.182 327.271 190.875 327.624 190.261C327.976 189.648 328.152 188.773 328.152 187.636C328.152 186.881 328.071 186.237 327.909 185.706C327.75 185.175 327.52 184.77 327.219 184.491C326.92 184.213 326.561 184.074 326.141 184.074C325.51 184.074 325.017 184.385 324.662 185.007C324.307 185.626 324.129 186.503 324.129 187.636C324.129 188.392 324.209 189.034 324.368 189.562C324.527 190.091 324.756 190.493 325.054 190.768C325.355 191.044 325.717 191.182 326.141 191.182ZM333.641 192.119C332.999 192.119 332.452 191.945 332 191.595C331.548 191.243 331.203 190.733 330.964 190.065C330.726 189.395 330.607 188.585 330.607 187.636C330.607 186.693 330.726 185.888 330.964 185.22C331.206 184.55 331.553 184.038 332.004 183.686C332.459 183.331 333.004 183.153 333.641 183.153C334.277 183.153 334.821 183.331 335.273 183.686C335.727 184.038 336.074 184.55 336.312 185.22C336.554 185.888 336.675 186.693 336.675 187.636C336.675 188.585 336.555 189.395 336.317 190.065C336.078 190.733 335.733 191.243 335.281 191.595C334.83 191.945 334.283 192.119 333.641 192.119ZM333.641 191.182C334.277 191.182 334.771 190.875 335.124 190.261C335.476 189.648 335.652 188.773 335.652 187.636C335.652 186.881 335.571 186.237 335.409 185.706C335.25 185.175 335.02 184.77 334.719 184.491C334.42 184.213 334.061 184.074 333.641 184.074C333.01 184.074 332.517 184.385 332.162 185.007C331.807 185.626 331.629 186.503 331.629 187.636C331.629 188.392 331.709 189.034 331.868 189.562C332.027 190.091 332.256 190.493 332.554 190.768C332.855 191.044 333.217 191.182 333.641 191.182ZM338.739 192.068C338.529 192.068 338.349 191.993 338.198 191.842C338.048 191.692 337.972 191.511 337.972 191.301C337.972 191.091 338.048 190.911 338.198 190.76C338.349 190.609 338.529 190.534 338.739 190.534C338.95 190.534 339.13 190.609 339.281 190.76C339.431 190.911 339.506 191.091 339.506 191.301C339.506 191.44 339.471 191.568 339.4 191.685C339.332 191.801 339.239 191.895 339.123 191.966C339.009 192.034 338.881 192.068 338.739 192.068ZM343.836 192.119C343.194 192.119 342.647 191.945 342.195 191.595C341.744 191.243 341.398 190.733 341.16 190.065C340.921 189.395 340.802 188.585 340.802 187.636C340.802 186.693 340.921 185.888 341.16 185.22C341.401 184.55 341.748 184.038 342.2 183.686C342.654 183.331 343.2 183.153 343.836 183.153C344.472 183.153 345.016 183.331 345.468 183.686C345.923 184.038 346.269 184.55 346.508 185.22C346.749 185.888 346.87 186.693 346.87 187.636C346.87 188.585 346.751 189.395 346.512 190.065C346.273 190.733 345.928 191.243 345.477 191.595C345.025 191.945 344.478 192.119 343.836 192.119ZM343.836 191.182C344.472 191.182 344.967 190.875 345.319 190.261C345.671 189.648 345.847 188.773 345.847 187.636C345.847 186.881 345.766 186.237 345.604 185.706C345.445 185.175 345.215 184.77 344.914 184.491C344.616 184.213 344.256 184.074 343.836 184.074C343.205 184.074 342.712 184.385 342.357 185.007C342.002 185.626 341.825 186.503 341.825 187.636C341.825 188.392 341.904 189.034 342.063 189.562C342.222 190.091 342.451 190.493 342.749 190.768C343.05 191.044 343.413 191.182 343.836 191.182ZM351.336 192.119C350.694 192.119 350.147 191.945 349.695 191.595C349.244 191.243 348.898 190.733 348.66 190.065C348.421 189.395 348.302 188.585 348.302 187.636C348.302 186.693 348.421 185.888 348.66 185.22C348.901 184.55 349.248 184.038 349.7 183.686C350.154 183.331 350.7 183.153 351.336 183.153C351.972 183.153 352.516 183.331 352.968 183.686C353.423 184.038 353.769 184.55 354.008 185.22C354.249 185.888 354.37 186.693 354.37 187.636C354.37 188.585 354.251 189.395 354.012 190.065C353.773 190.733 353.428 191.243 352.977 191.595C352.525 191.945 351.978 192.119 351.336 192.119ZM351.336 191.182C351.972 191.182 352.467 190.875 352.819 190.261C353.171 189.648 353.347 188.773 353.347 187.636C353.347 186.881 353.266 186.237 353.104 185.706C352.945 185.175 352.715 184.77 352.414 184.491C352.116 184.213 351.756 184.074 351.336 184.074C350.705 184.074 350.212 184.385 349.857 185.007C349.502 185.626 349.325 186.503 349.325 187.636C349.325 188.392 349.404 189.034 349.563 189.562C349.722 190.091 349.951 190.493 350.249 190.768C350.55 191.044 350.913 191.182 351.336 191.182Z" fill="#407BFF"/>
<path d="M162.333 46.4512H163.581C164.011 46.4512 164.363 46.8044 164.363 47.2351V50.4313C164.363 50.862 164.011 51.2152 163.581 51.2152H162.333V46.4512Z" fill="#407BFF"/>
<path d="M160.201 45.3057H146.802C146.351 45.3057 145.985 45.6721 145.985 46.1241V51.5342C145.985 51.9862 146.351 52.3527 146.802 52.3527H160.201C160.652 52.3527 161.018 51.9862 161.018 51.5342V46.1241C161.018 45.6721 160.652 45.3057 160.201 45.3057Z" fill="#407BFF"/>
<path d="M329.057 54V45.2727H332.006C332.688 45.2727 333.247 45.3892 333.685 45.6222C334.122 45.8523 334.446 46.169 334.656 46.5724C334.866 46.9759 334.972 47.4347 334.972 47.9489C334.972 48.4631 334.866 48.919 334.656 49.3168C334.446 49.7145 334.124 50.027 333.689 50.2543C333.254 50.4787 332.699 50.5909 332.023 50.5909H329.636V49.6364H331.989C332.455 49.6364 332.83 49.5682 333.114 49.4318C333.401 49.2955 333.608 49.1023 333.736 48.8523C333.866 48.5994 333.932 48.2983 333.932 47.9489C333.932 47.5994 333.866 47.294 333.736 47.0327C333.605 46.7713 333.396 46.5696 333.109 46.4276C332.822 46.2827 332.443 46.2102 331.972 46.2102H330.114V54H329.057ZM333.165 50.0795L335.312 54H334.085L331.972 50.0795H333.165ZM336.733 54V45.2727H342V46.2102H337.789V49.1591H341.727V50.0966H337.789V53.0625H342.068V54H336.733ZM350.927 48H349.87C349.808 47.696 349.699 47.429 349.542 47.1989C349.389 46.9688 349.201 46.7756 348.98 46.6193C348.761 46.4602 348.518 46.3409 348.251 46.2614C347.984 46.1818 347.706 46.142 347.416 46.142C346.887 46.142 346.409 46.2756 345.98 46.5426C345.554 46.8097 345.214 47.2031 344.961 47.723C344.711 48.2429 344.586 48.8807 344.586 49.6364C344.586 50.392 344.711 51.0298 344.961 51.5497C345.214 52.0696 345.554 52.4631 345.98 52.7301C346.409 52.9972 346.887 53.1307 347.416 53.1307C347.706 53.1307 347.984 53.0909 348.251 53.0114C348.518 52.9318 348.761 52.8139 348.98 52.6577C349.201 52.4986 349.389 52.304 349.542 52.0739C349.699 51.8409 349.808 51.5739 349.87 51.2727H350.927C350.848 51.7187 350.703 52.1179 350.493 52.4702C350.282 52.8224 350.021 53.1222 349.708 53.3693C349.396 53.6136 349.045 53.7997 348.656 53.9276C348.27 54.0554 347.856 54.1193 347.416 54.1193C346.672 54.1193 346.01 53.9375 345.43 53.5739C344.85 53.2102 344.395 52.6932 344.062 52.0227C343.73 51.3523 343.564 50.5568 343.564 49.6364C343.564 48.7159 343.73 47.9205 344.062 47.25C344.395 46.5795 344.85 46.0625 345.43 45.6989C346.01 45.3352 346.672 45.1534 347.416 45.1534C347.856 45.1534 348.27 45.2173 348.656 45.3452C349.045 45.473 349.396 45.6605 349.708 45.9077C350.021 46.152 350.282 46.4503 350.493 46.8026C350.703 47.152 350.848 47.5511 350.927 48Z" fill="#407BFF"/>
<path d="M324.905 48.8293C324.905 50.9313 323.202 52.6371 321.103 52.6371C319.005 52.6371 317.302 50.9313 317.302 48.8293C317.302 46.7272 319.005 45.0215 321.103 45.0215C323.202 45.0215 324.905 46.7272 324.905 48.8293Z" fill="#407BFF"/>
</g>
<defs>
<clipPath id="clip0_1200_3645">
<rect width="430" height="321" fill="white"/>
</clipPath>
</defs>
</svg>
