<svg width="430" height="321" viewBox="0 0 430 321" fill="none" xmlns="http://www.w3.org/2000/svg">
<g clip-path="url(#clip0_1200_6016)">
<path d="M430 282.095H0V282.31H430V282.095Z" fill="#EBEBEB"/>
<path d="M381.745 290.297H353.262V290.512H381.745V290.297Z" fill="#EBEBEB"/>
<path d="M155.944 293.208H113.064V293.423H155.944V293.208Z" fill="#EBEBEB"/>
<path d="M352.402 298.3H327.006V298.515H352.402V298.3Z" fill="#EBEBEB"/>
<path d="M63.6917 296.853H45.1157V297.068H63.6917V296.853Z" fill="#EBEBEB"/>
<path d="M104.344 296.853H71.3457V297.068H104.344V296.853Z" fill="#EBEBEB"/>
<path d="M284.849 287.962H204.284V288.177H284.849V287.962Z" fill="#EBEBEB"/>
<path d="M203.829 243.673H37.7627C35.0536 243.673 32.8521 241.467 32.8521 238.754V4.91911C32.8521 2.20542 35.0536 0 37.7627 0H203.829C206.538 0 208.739 2.20542 208.739 4.91911V238.754C208.739 241.467 206.538 243.673 203.829 243.673ZM37.7627 0.215373C35.1741 0.215373 33.0671 2.32602 33.0671 4.91911V238.754C33.0671 241.347 35.1741 243.457 37.7627 243.457H203.829C206.417 243.457 208.524 241.347 208.524 238.754V4.91911C208.524 2.32602 206.417 0.215373 203.829 0.215373H37.7627Z" fill="#EBEBEB"/>
<path d="M389.847 243.673H223.781C221.072 243.673 218.87 241.467 218.87 238.754V4.91911C218.87 2.20542 221.072 0 223.781 0H389.847C392.556 0 394.757 2.20542 394.757 4.91911V238.754C394.757 241.467 392.556 243.673 389.847 243.673ZM223.781 0.215373C221.192 0.215373 219.085 2.32602 219.085 4.91911V238.754C219.085 241.347 221.192 243.457 223.781 243.457H389.847C392.435 243.457 394.542 241.347 394.542 238.754V4.91911C394.542 2.32602 392.435 0.215373 389.847 0.215373H223.781Z" fill="#EBEBEB"/>
<path d="M161.56 157.834H255.566L255.566 23.7171H161.56V157.834Z" fill="#E6E6E6"/>
<path d="M157.965 157.834H251.972L251.972 23.7171H157.965V157.834Z" fill="#F5F5F5"/>
<path d="M245.513 151.795V29.7559L164.423 29.7559V151.795H245.513Z" fill="white"/>
<path d="M167.149 151.795V29.7559H164.432V151.795H167.149Z" fill="#E6E6E6"/>
<path d="M160.64 123.667L249.306 123.667V115.56L160.64 115.56V123.667Z" fill="#F5F5F5"/>
<path d="M160.64 48.5107L249.306 48.5107V40.4041L160.64 40.4041V48.5107Z" fill="#F5F5F5"/>
<path d="M47.0593 157.834H141.066L141.066 23.7171H47.0593L47.0593 157.834Z" fill="#E6E6E6"/>
<path d="M43.4646 157.834H137.471L137.471 23.7171H43.4646L43.4646 157.834Z" fill="#F5F5F5"/>
<path d="M131.012 151.795V29.7559L49.9228 29.7559L49.9228 151.795H131.012Z" fill="white"/>
<path d="M52.6406 151.795L52.6406 29.7559H49.923L49.923 151.795H52.6406Z" fill="#E6E6E6"/>
<path d="M46.1304 123.667L134.796 123.667V115.56L46.1304 115.56V123.667Z" fill="#F5F5F5"/>
<path d="M46.1304 48.5107L134.796 48.5107V40.4041L46.1304 40.4041V48.5107Z" fill="#F5F5F5"/>
<path d="M129.645 282.086V170.42H60.1995V282.086H129.645Z" fill="#F0F0F0"/>
<path d="M125.835 206.094V173.22H64.0182V206.094H125.835Z" fill="#E6E6E6"/>
<path d="M125.835 241.915V209.04H64.0181V241.915H125.835Z" fill="#E6E6E6"/>
<path d="M125.835 277.745V244.87H64.0182V277.745H125.835Z" fill="#E6E6E6"/>
<path d="M88.3218 206.103V173.229H64.0096V206.103H88.3218Z" fill="#E0E0E0"/>
<path d="M88.3218 241.923V209.049H64.0096V241.923H88.3218Z" fill="#E0E0E0"/>
<path d="M99.2092 241.924H116.057V228.795H99.2092V241.924Z" fill="#F0F0F0"/>
<path d="M123.169 228.786H116.057V241.915H123.169V228.786Z" fill="#E0E0E0"/>
<path d="M71.9988 241.924H88.8462V228.795H71.9988V241.924Z" fill="#F0F0F0"/>
<path d="M95.9584 228.786H88.8462V241.915H95.9584V228.786Z" fill="#E0E0E0"/>
<path d="M88.3218 277.745V244.87H64.0096V277.745H88.3218Z" fill="#E0E0E0"/>
<path d="M148.496 282.095V170.429H129.636V282.095H148.496Z" fill="#F5F5F5"/>
<path d="M80.4267 277.735H118.404V249.599H80.4267V277.735Z" fill="#F0F0F0"/>
<path d="M125.835 249.608H118.404V277.745H125.835V249.608Z" fill="#E0E0E0"/>
<path d="M68.1978 206.094H118.396V177.957H68.1978V206.094Z" fill="#FAFAFA"/>
<path d="M125.835 177.967H118.404V206.103H125.835V177.967Z" fill="#F0F0F0"/>
<path d="M204.241 282.086V170.42H134.796V282.086H204.241Z" fill="#F0F0F0"/>
<path d="M200.431 206.103V173.229H138.614V206.103H200.431Z" fill="#E6E6E6"/>
<path d="M200.431 241.923V209.049H138.614V241.923H200.431Z" fill="#E6E6E6"/>
<path d="M200.431 277.745V244.87H138.614V277.745H200.431Z" fill="#E6E6E6"/>
<path d="M162.918 206.094V173.22H138.606V206.094H162.918Z" fill="#E0E0E0"/>
<path d="M162.926 241.915V209.041H138.614V241.915H162.926Z" fill="#E0E0E0"/>
<path d="M147.876 206.095H164.724V192.966H147.876V206.095Z" fill="#F0F0F0"/>
<path d="M171.836 192.966H164.724V206.095H171.836V192.966Z" fill="#E0E0E0"/>
<path d="M168.284 206.095H189.913V189.227H168.284V206.095Z" fill="#F0F0F0"/>
<path d="M199.046 189.235H189.913V206.103H199.046V189.235Z" fill="#E0E0E0"/>
<path d="M162.927 277.745V244.87H138.615V277.745H162.927Z" fill="#E0E0E0"/>
<path d="M223.101 282.086V170.42H204.241V282.086H223.101Z" fill="#F5F5F5"/>
<path d="M145.537 277.735H191.453V270.542H145.537V277.735Z" fill="#F0F0F0"/>
<path d="M200.431 270.551H191.453V277.744H200.431V270.551Z" fill="#E0E0E0"/>
<path d="M153.596 241.915H194.394V219.051H153.596V241.915Z" fill="#FAFAFA"/>
<path d="M200.431 219.051H194.394V241.915H200.431V219.051Z" fill="#F0F0F0"/>
<path d="M215 321C307.091 321 381.745 316.634 381.745 311.248C381.745 305.862 307.091 301.496 215 301.496C122.909 301.496 48.2544 305.862 48.2544 311.248C48.2544 316.634 122.909 321 215 321Z" fill="#F5F5F5"/>
<path d="M250.393 2.58784H249.298L246.419 1.89855L244.77 2.58784L243.81 0.254859L242.851 -0.43443L241.202 0.390361L240.378 0.525862L239.347 0.178272L237.157 1.07376L232.146 1.48615L231.458 2.58195H230.498L228.302 1.62165L227.754 2.58195V4.50253L227.206 5.59832H226.518L224.321 4.63803L223.362 5.59832V11.2246L221.442 12.0729L220.206 13.422L217.185 17.5401L216.225 20.7568L217.185 22.754L219.517 24.2798V25.6348H215.266V26.7306L213.894 27.143L212.11 28.1033V28.7926L209.643 29.476H208V30.3008L210.061 31.2611L214.724 32.2214L216.643 31.2611L217.468 30.4363L218.84 31.1197L221.719 33.1817L224.598 34.142L226.518 33.1817L229.509 32.9048H232.005L233.1 35.1022L232.276 36.6104L231.593 37.1878L230.904 35.9211L229.191 35.3732H227.477L226.93 36.0625L227.065 37.1878L228.437 38.3955L229.191 39.6975L228.437 39.9921H226.241L225.004 39.6975H222.537C222.537 39.6975 220.889 39.5267 220.889 39.9921C220.889 40.4575 221.165 41.9657 221.165 41.9657L224.321 44.1632L227.889 44.9879L230.498 44.7111L231.187 42.6491L232.011 41.2352L233.383 42.2367L234.802 43.0615V43.8863L232.971 45.8069L232.694 47.044L235.714 48.187L236.539 47.5978L237.157 46.3606V45.4003C237.157 45.4003 237.222 44.9879 237.911 44.9879C238.6 44.9879 239.559 45.4003 239.559 45.4003L240.384 44.4401L240.519 43.3443L242.091 43.2088L242.992 43.6212L242.857 45.5417L242.992 46.231L243.54 47.1913C243.54 47.1913 243.952 48.0986 243.404 48.1928C242.857 48.2871 242.091 48.1928 242.091 48.1928H238.323L237.911 49.3534L239.147 50.6201C239.147 50.6201 238.058 51.7159 237.163 51.7159C236.268 51.7159 235.856 50.3432 235.72 51.7159C235.585 53.0886 235.585 52.1283 235.585 53.0886C235.585 54.0489 236.545 54.8736 236.545 54.8736L237.781 55.0091H238.605C238.605 55.0091 239.842 53.3183 240.666 53.2712C241.491 53.2241 240.802 53.3655 241.491 53.2241L242.179 53.0886L243.139 51.5804L243.963 51.0325C243.963 51.0325 244.788 50.6201 245.2 50.6201L247.667 51.7159L248.491 51.439C248.491 51.439 249.728 50.0015 249.863 49.3476C249.999 48.6936 249.586 45.259 249.586 45.259L249.31 43.3384L250.405 43.0615L251.229 43.3384V40.8345L250.405 39.9921L248.621 39.6975L247.932 37.1878L249.168 36.4749C249.168 36.4749 249.716 37.2172 250.54 37.1878C251.365 37.1583 255.345 38.2541 255.345 38.2541L257.676 40.8286L258.913 42.0953L260.974 46.2133C260.974 46.2133 261.25 47.4505 261.933 47.3091C262.616 47.1736 263.305 47.0323 263.305 47.0323V42.9142H265.914L268.08 45.3827L268.799 48.1693L269.623 49.9131V51.2858L270.312 52.1106C271.548 52.1106 272.231 51.5627 272.231 51.5627L272.508 50.0545V48.1752L275.529 47.4446H277.725L278.549 46.8967L279.786 45.5241L280.61 44.8348H282.942L285.002 46.6199L286.922 48.1693L288.429 50.461L289.801 51.1503H291.72L294.123 48.1693H294.747L295.424 46.8909V43.1852L299.281 40.8169L302.56 39.0671L302.972 36.5987L304.209 33.9888L307.088 32.2037L308.048 30.2831L309.007 27.4022L312.299 24.2621L317.851 22.1884H327.808L330.004 23.1487L332.2 22.8718L333.436 22.1825L338.924 20.7332L344.135 21.3577L344.824 22.5949L346.884 22.4594L349.081 22.1825L354.845 22.4594L359.279 19.5785L362.664 17.5165L364.86 14.6357L365.408 10.2407L366.232 6.429L368.475 5.06221L368.152 4.06657L367.604 -0.0514913L365.808 -1H246.719L250.393 2.55838V2.58784Z" fill="#E6E6E6"/>
<path d="M297.444 272.247L293.905 271.416L280.687 274.639L276.983 275.316H274.239L267.721 279.799L266.25 286.663L268.616 289.273H271.36H273.509H278.767L285.079 288.719L288.188 287.211L291.939 285.838L294.406 285.426L296.396 285.013L299.257 282.816L301.041 279.523V277.466V275.316L299.257 273.348L297.444 272.247Z" fill="#E6E6E6"/>
<path d="M266.62 201.918L267.715 200.545L268.063 199.308V197.865L269.123 197.282L269.017 196.321H268.811H268.063L264.73 198.589L264.183 200.098L264.972 201.812L266.62 201.918Z" fill="#E6E6E6"/>
<path d="M271.248 201.776L272.243 201.499L272.379 200.197C272.379 200.197 272.308 199.372 272.137 199.272C271.967 199.172 271.248 199.119 271.248 199.119L269.806 199.308L270.389 201.128L271.248 201.782V201.776Z" fill="#E6E6E6"/>
<path d="M275.046 213.631L275.593 214.226L276.688 214.685L277.148 214.55L277.466 213.407L276.688 212.217C276.688 212.217 277.148 212.169 277.236 211.598C277.33 211.027 277.189 210.249 277.189 210.249L276.688 209.56L275.452 210.932V211.209L274.398 211.439L273.162 212.399L273.344 213.195L275.034 213.636L275.046 213.631Z" fill="#E6E6E6"/>
<path d="M265.944 211.161L266.65 209.329C266.65 209.329 266.444 208.964 266.214 208.828C265.985 208.693 264.613 208.599 264.613 208.599L264.177 209.099L261.869 209.559L261.274 210.749L262.146 212.122L264.525 212.351L265.944 211.161Z" fill="#E6E6E6"/>
<path d="M267.45 214.685C267.45 214.685 268.504 213.542 268.64 213.336C268.775 213.13 269.122 212.352 269.122 212.352L268.869 211.574H268.063L266.65 212.352L266.214 213.194L265.39 213.725L265.113 214.685L266.644 215.097C266.644 215.097 267.35 214.867 267.444 214.685H267.45Z" fill="#E6E6E6"/>
<path d="M259.313 215.097L259.266 216.423C259.266 216.423 259.767 217.065 259.996 217.153C260.226 217.247 261.869 216.558 261.869 216.558L261.963 215.916L261.091 214.679L259.307 215.091L259.313 215.097Z" fill="#E6E6E6"/>
<path d="M258.171 218.113L258.077 216.882L256.799 217.165L256.246 218.39L257.347 219.604H257.894L258.171 218.113Z" fill="#E6E6E6"/>
<path d="M259.726 219.073L258.948 219.603L258.171 220.405L257.618 221.224L258.395 222.19L260.615 222.372L261.28 221.182L260.615 219.073H259.726Z" fill="#E6E6E6"/>
<path d="M268.881 225.801L269.535 225.182V223.91L269.123 223.462H268.299C268.299 223.462 267.28 223.668 267.121 223.839C266.962 224.01 266.856 225.041 266.856 225.041L267.851 225.659L268.881 225.795V225.801Z" fill="#E6E6E6"/>
<path d="M264.489 226.421L264.872 227.175L265.555 227.21L265.832 226.491L265.52 225.561H264.489V226.421Z" fill="#E6E6E6"/>
<path d="M265.831 228.581H264.495C264.495 228.581 263.429 229.854 263.4 230.024C263.364 230.195 263.5 230.508 263.606 230.643C263.706 230.779 264.66 231.126 265.125 230.885C265.59 230.643 265.625 230.885 265.831 230.024C266.038 229.164 265.831 228.581 265.831 228.581Z" fill="#E6E6E6"/>
<path d="M267.121 219.073V217.459L266.102 217.158H265.92C265.825 217.323 265.384 218.077 265.384 218.077L266.656 219.597L267.127 219.073H267.121Z" fill="#E6E6E6"/>
<path d="M276.053 230.197C275.776 229.991 274.816 229.508 274.816 229.508L273.927 228.583L273.173 227.929H272.384V228.583L273.173 229.773V231.499L271.801 231.841L270.153 232.235L269.122 233.696L268.063 235.016L266.249 236.047L265.825 237.131V237.82L267.115 238.162L267.809 239.594L269.111 240.153C269.111 240.153 270.176 239.794 271.083 239.594C271.99 239.399 273.362 239.052 273.638 238.781C273.915 238.504 274.463 237.543 274.804 237.543H276.247L277.46 236.925L278.031 235.623V233.361L277.754 231.575C277.754 231.575 276.312 230.409 276.041 230.203L276.053 230.197Z" fill="#E6E6E6"/>
<path d="M293.381 238.979L292.787 238.661L292.239 238.82L290.685 239.804L290.59 241.725L291.05 242.638L292.787 243.139C292.787 243.139 293.063 243.639 293.152 243.781C293.246 243.916 294.523 244.052 294.706 244.258C294.889 244.464 295.577 244.258 295.577 244.258L295.713 243.504L294.341 240.664L293.381 238.973V238.979Z" fill="#E6E6E6"/>
<path d="M300.199 238.662L299.923 237.743L299.252 236.877L297.544 236.6L296.266 237.743L296.219 239.345L296.996 239.587H299.558L300.199 238.662Z" fill="#E6E6E6"/>
<path d="M301.524 243.052L301.247 241.508L299.693 240.901L298.821 241.508L297.355 241.909C297.355 241.909 297.308 242.639 297.449 242.822C297.585 243.005 299.251 243.694 299.251 243.694L300.652 243.924L301.524 243.052Z" fill="#E6E6E6"/>
<path d="M302.483 238.296C302.207 238.296 301.064 238.891 301.064 238.891L301.524 240.152C301.524 240.152 302.578 240.446 302.76 240.493C302.943 240.54 303.172 240.541 303.172 240.541L303.402 239.398C303.402 239.398 302.76 238.302 302.489 238.302L302.483 238.296Z" fill="#E6E6E6"/>
<path d="M287.299 248.589L286.887 249.779C286.887 249.779 287.252 250.097 287.57 250.144C287.888 250.191 288.806 250.238 288.806 250.238L288.989 248.96L287.982 248.088L287.293 248.589H287.299Z" fill="#E6E6E6"/>
<path d="M290.596 250.239L290.001 251.281V253.167L290.296 253.856C290.296 253.856 291.279 254.133 291.373 253.856C291.468 253.579 291.786 252.577 291.786 251.658C291.786 250.739 291.603 250.009 291.603 250.009L290.596 250.239Z" fill="#E6E6E6"/>
<path d="M287.799 251.281H286.156L284.284 251.747L284.189 252.984L285.426 253.485L287.481 253.302L288.764 252.489L288.717 251.747L287.799 251.281Z" fill="#E6E6E6"/>
<path d="M301.065 249.16L299.834 250.009L300.199 251.699L301.341 252.383L302.531 251.994L302.849 250.922L302.23 249.366L301.065 249.16Z" fill="#E6E6E6"/>
<path d="M316.067 234.037L312.04 234.815L311.586 236.046L313.783 237.56L316.067 237.148L316.98 236.046L317.439 235.015L317.304 234.037H316.067Z" fill="#E6E6E6"/>
<path d="M308.701 236.047C308.654 236.147 308.472 237.567 308.472 237.567L309.343 238.097L309.891 237.567V236.607L309.161 236.047H308.701Z" fill="#E6E6E6"/>
<path d="M343.14 224.635L342.563 223.881L341.22 224.635L340.467 226.385L342.11 227.928H342.563L343.211 225.801L343.14 224.635Z" fill="#E6E6E6"/>
<path d="M340.055 230.673C340.055 230.673 339.778 231.563 339.778 231.91C339.778 232.258 340.055 233.283 340.055 233.283C340.055 233.283 341.22 234.108 341.426 234.037C341.633 233.967 342.563 233.554 342.563 233.554V231.427L341.833 230.055L340.049 230.673H340.055Z" fill="#E6E6E6"/>
<path d="M329.009 234.426V234.037L329.08 233.213L327.708 231.292H326.613L326.954 233.354L327.985 234.043V235.015L328.397 237.071L329.633 237.566C329.633 237.566 330.387 237.384 330.252 236.606C330.116 235.828 329.015 234.432 329.015 234.432L329.009 234.426Z" fill="#E6E6E6"/>
<path d="M340.496 218.549C340.46 218.078 340.496 217.005 340.502 216.958V216.887L341.279 215.521V215.15L338.994 214.985L337.399 215.155L336.398 215.957L334.225 214.82L333.324 213.252L332.771 210.654V209.235C332.688 209.146 332.594 209.011 332.594 208.834C332.588 208.598 332.724 208.392 332.994 208.209L333.713 207.732L333.878 207.85C334.113 208.015 334.89 208.592 335.002 209.028C335.038 209.176 335.091 209.258 335.173 209.388C335.249 209.511 335.35 209.665 335.444 209.906L335.556 210.189L336.733 210.266L337.84 209.582L339.695 208.233L339.612 207.349L339.777 206.578L341.65 207.031V204.074L340.802 202.725L339.801 201.576L338.087 199.237L338.023 197.552L336.209 196.15L335.149 194.954L334.519 192.91V190.871L333.095 189.516L332.959 188.544C332.765 188.473 332.618 188.409 332.57 188.379L332.553 188.373L330.993 187.148C330.622 187.018 328.855 186.388 328.319 186.034C327.954 185.787 327.053 185.469 326.571 185.31L326.011 185.94C325.758 186.777 325.287 188.132 324.893 188.373C324.692 188.497 324.598 188.821 324.575 188.939L324.498 189.387L324.115 189.139C323.827 188.951 322.961 188.456 322.431 188.42C321.731 188.367 321.018 188.42 321.012 188.42H318.993L317.368 187.478L316.926 187.554L315.431 187.755L314.636 187.224L313.034 187.731L311.286 188.456L311.162 188.397C309.078 187.36 309.078 187.295 309.078 187.083C309.078 187.042 309.078 186.959 309.443 185.404V184.75L308.53 183.925L308.554 182.753L308.883 182.017L308.548 180.349L308.035 179.689L306.74 179.613L306.175 180.108L305.816 181.645L304.874 182.694L304.144 182.841L300.263 178.311L298.627 178.075L297.732 179.2H296.725L295.512 179.619V182.134L294.699 183.637L293.628 184.791L292.768 185.31L291.838 186.647L289.883 187.431L289.759 187.36C289.724 187.342 288.923 186.895 288.552 186.653C288.393 186.547 288.111 186.612 287.969 186.653L287.292 187.395H285.826L285.131 186.512L285.037 184.968L284.766 184.285H283.506V182.612L283.259 181.174H282.912L282.476 180.803L281.652 182.682L282.346 183.902V185.104H281.086L280.48 185.781L279.308 189.004L278.873 191.207L279.238 193.393L279.073 195.036L280.804 195.708L281.787 197.923L282.17 199.832L281.363 202.1L280.474 203.22L279.455 202.648L277.807 200.074L277.901 198.671L277.548 197.823H276.741L274.757 197.741L274.415 198.766L275.216 200.103L275.146 200.786L276.358 200.798L277.43 201.093L279.214 202.683L279.226 202.795C279.226 202.831 279.326 203.62 279.014 204.245C278.719 204.834 277.895 205.659 277.86 205.694C277.289 206.248 276.629 206.943 276.553 207.09C276.482 207.273 276.482 207.32 276.482 207.673C276.482 207.868 276.712 208.015 276.912 208.015C277.041 208.015 277.471 207.744 277.813 207.45C277.813 207.45 278.26 207.061 278.519 206.772C278.808 206.448 280.08 205.6 280.221 205.505L280.339 205.429L281.375 205.723L281.098 207.143L280.25 208.392L280.509 210.289L280.698 213.306L279.426 215.332L279.55 216.027C280.05 216.122 280.545 216.133 280.662 216.039C281.033 215.762 281.864 215.208 281.864 215.208L281.964 215.144L283.306 215.391L283.394 216.139C283.718 216.169 284.019 216.169 284.101 216.139C284.266 216.063 284.549 215.856 284.702 215.739L285.22 214.354L286.162 211.049L288.081 210.024V214.024L289.565 214.985C290.013 214.513 290.189 214.525 290.336 214.578C290.442 214.619 290.56 214.731 290.56 214.92C290.56 215.208 290.166 216.428 289.995 216.935L289.942 217.094L287.716 217.624L286.686 216.84L286.303 217.117L285.714 218.784H284.313L280.839 218.343L280.545 218.59L280.786 219.356L282.146 219.38C284.713 220.469 285.031 220.752 285.067 220.947C285.332 221.365 287.551 223.886 288.929 225.424L289.194 225.719L287.858 226.384H282.918L281.793 223.303L280.951 222.938L280.392 223.262C280.374 223.498 280.374 223.892 280.474 224.14C280.604 224.47 281.281 225.43 281.581 225.842C282.117 226.113 282.865 226.702 282.576 227.386C282.252 228.14 281.599 228.37 281.569 228.376L281.457 228.411L279.609 227.533L277.813 226.237L277.613 224.735L277.065 223.085L276.882 220.599C276.788 220.028 276.47 219.179 276.141 219.138C275.711 219.091 274.639 219.497 273.938 219.821L274.274 222.973C274.41 223.221 274.922 224.169 274.922 224.882C274.922 225.129 274.904 225.424 274.881 225.719C274.851 226.166 274.804 226.773 274.892 226.944C274.992 227.127 275.87 227.792 276.617 228.293L279.108 229.63L280.604 229.878L281.993 229.159L284.813 228.859L284.878 229.112C284.878 229.112 284.978 229.519 284.978 230.19C284.978 230.932 284.077 231.857 283.977 231.958L282.788 233.318C282.788 233.489 282.812 233.819 282.87 234.049C282.929 234.226 283.53 234.821 284.054 235.263L284.16 235.351L284.142 237.148L283.289 239.552L284.443 240.777C284.702 241.007 285.349 241.631 285.349 242.079C285.349 242.409 285.279 243.375 285.131 243.964C285.261 243.929 285.426 243.876 285.573 243.817L287.616 243.192L288.811 241.743L289.895 239.039L290.854 236.547L292.644 235.775H293.351L294.281 234.903L294.476 233.177L294.782 232.458L295.27 232.117V229.56L295.989 228.228L297.107 227.61L297.773 228.405L298.161 230.349L297.814 234.809L299.416 235.157L301.176 236.341C301.541 236.158 302.23 235.822 302.483 235.787C302.607 235.769 303.125 235.522 303.567 235.286L304.397 233.201L305.674 231.645L306.246 231.15V228.611L308.512 225.966L312.381 222.785L315.325 221.63L317.668 218.72H318.969L320.041 219.321L322.526 218.849L323.026 222.361V223.215L321.136 224.564L319.635 224.098L319.281 222.178L318.628 222.166C318.628 222.166 318.369 222.148 318.051 222.579C317.48 223.35 317.362 223.651 317.362 223.774C317.386 223.916 317.745 224.57 318.063 225.076L318.11 225.147V228.8L315.866 229.035L315.284 227.633L315.654 226.437H315.649C315.301 226.437 314.995 226.473 314.918 226.526C314.765 226.761 313.641 228.193 313.411 228.482L312.763 230.997L313.658 231.345C314.094 231.374 315.125 231.433 315.331 231.433C315.454 231.433 315.743 231.298 315.908 231.203L315.99 231.156L317.556 231.262L320.801 234.126L321.319 235.563L322.231 234.78L323.786 233.943L325.546 232.594V232.093L324.139 231.262L321.419 229.901L321.431 229.701C321.46 229.265 321.548 228.217 321.754 227.91C321.955 227.61 322.608 227.109 322.738 227.015L322.826 226.944L325.305 227.144L326.924 228.228L327.625 228.158L328.143 227.639L328.467 226.838C328.467 226.113 328.349 225.253 328.19 225.094C327.954 224.858 327.795 224.658 327.572 224.387C327.442 224.228 327.283 224.034 327.077 223.792C326.559 223.185 325.128 222.137 325.116 222.125L325.04 222.066L325.01 221.972C324.734 221.117 324.551 220.475 324.551 220.475L324.539 220.393V219.751L323.356 218.39L324.369 217.076L324.445 216.198L324.039 214.278L324.245 214.172C324.245 214.172 324.681 213.959 325.293 213.959C325.605 213.959 326.053 214.036 326.482 214.113C326.836 214.172 327.201 214.236 327.395 214.236C327.507 214.236 327.595 214.236 327.672 214.242C327.901 214.254 327.972 214.26 328.249 214.095C328.596 213.883 329.827 212.94 330.427 212.469L330.704 212.257L331.617 213.865L331.44 214.03C331.14 214.307 330.839 214.743 330.892 214.896C331.016 215.238 331.593 216.228 331.834 216.634L333.336 217.954L333.56 219.079L333.507 219.173C332.565 220.864 332.264 221.206 332.105 221.288C332.052 221.383 331.97 221.63 331.911 221.877L332.671 224.299L334.696 225.188L335.414 224.794V220.01L337.151 219.291L339.13 221.1H340.172C340.454 220.187 340.525 219.014 340.49 218.584L340.496 218.549Z" fill="#E6E6E6"/>
<path d="M280.851 123.661L280.162 121.199C280.162 121.199 280.233 120.58 280.298 120.168C280.368 119.755 280.433 119.208 280.433 119.208L280.156 118.454L279.815 116.945L278.031 117.906V120.58L278.443 123.661L278.72 125.317L279.473 126.207L281.599 126.825C281.876 126.071 281.187 124.439 281.187 124.439L280.845 123.656L280.851 123.661Z" fill="#E6E6E6"/>
<path d="M282.223 128.747V130.19L282.77 130.585L283.665 130.12L283.801 129.43V128.747L283.012 128.405L282.223 128.747Z" fill="#E6E6E6"/>
<path d="M278.036 131.345V132.523L279.549 132.246L279.856 131.08V130.585H278.654L278.036 131.345Z" fill="#E6E6E6"/>
<path d="M265.966 135.68L265.212 137.671H266.855L267.615 136.675L267.409 135.332L265.966 135.68Z" fill="#E6E6E6"/>
<path d="M336.192 147.899L335.991 146.414L334.154 142.915V139.692L333.513 137.972H332.994L331.952 137.3L329.838 136.729L330.339 130.449L331.587 129.194H332.235L331.87 127.833V127.35L330.374 126.248L329.491 124.764V124.275L328.967 124.681L328.101 125.553L326.736 125.783L325.758 124.581L325.505 123.338L324.221 122.949L323.827 120.64L323.373 119.096L321.772 118.454L321.389 117.111L320.371 116.091L320.053 114.401L320.965 113.287L321.46 112.456L321.754 110.689L322.484 109.222L323.032 108.232H326.524L326.382 107.148L326.135 105.734L323.998 104.356L321.743 102.099L321.43 100.815L321.395 100.839L316.396 97.7398L314.165 97.0859L313.335 97.1978L312.528 98.4586L311.503 98.8121L310.385 99.5131L308.636 98.9122L308.33 99.6251L306.198 100.403L304.138 101.269C303.478 101.392 302.795 101.599 302.683 101.717C302.607 101.846 302.518 102.394 302.471 102.877L303.219 103.584L302.801 105.717L301.865 106.518L301.194 108.309L299.94 107.254V105.151C299.94 104.709 299.357 102.459 298.962 101.051L298.915 100.88L299.957 99.8784L299.633 99.3011L298.95 98.6707V97.4983L297.626 97.0388H296.96L296.366 97.516L295.306 96.3495L295 96.2258L293.545 96.5321L293.186 98.4409L291.82 98.8887L290.619 97.4983L290.525 96.0255L288.529 93.4156L287.386 92.9561C287.333 93.0032 287.28 93.0739 287.28 93.1681C287.28 93.4391 287.41 94.0695 287.457 94.2934L288.075 95.7014L288.446 96.6264C288.676 97.4217 288.941 98.2995 288.994 98.4232C289.088 98.6294 289.029 99.0536 288.823 99.6722L288.664 100.149L286.774 98.0933C286.556 98.3054 286.321 98.5587 286.232 98.7001C286.144 98.8474 286.044 99.4719 286.003 99.9668V101.663L285.184 102.677L284.949 102.447C284.707 102.211 284.39 101.934 284.272 101.852C284.236 101.846 284.201 101.834 284.172 101.817C284.066 101.758 283.954 101.693 283.765 100.638V100.591L283.948 99.2598C283.948 99.248 283.96 98.9652 284.254 98.4056C284.401 98.1228 284.49 97.8636 284.543 97.6986L284.172 97.4512L283.153 96.538L282.941 95.5659L283.024 94.4407L282.152 93.9281C281.569 93.8928 280.975 93.9105 280.851 93.9753C280.692 94.0813 280.244 94.5526 279.968 94.8649L279.726 96.4968L280.256 97.3275C280.686 97.5042 281.587 97.8695 281.787 97.9343C282.211 98.058 282.335 98.706 282.364 98.9004V98.9594L281.669 101.834L281.463 101.864C280.721 101.964 279.82 102.129 279.667 102.217C279.603 102.259 279.544 102.282 279.497 102.294C279.491 102.306 279.485 102.312 279.473 102.323C279.143 102.783 279.073 103.873 279.073 104.256V104.332L278.148 106L277.13 105.351L276.912 104.156L277.406 102.017C277.536 101.746 277.742 101.228 277.742 100.986C277.742 100.856 277.718 100.721 277.683 100.55C277.63 100.273 277.56 99.8902 277.56 99.3128C277.56 98.5823 277.501 97.5454 277.477 97.1802L276.953 96.7737L276.682 96.9975L276.423 99.1656L276.317 101.304L276.023 101.292C275.222 101.263 274.409 101.292 274.398 101.292H274.215L273.62 100.25L272.99 100.538L272.684 101.581L273.326 104.374L272.767 105.882H270.647L269.263 106.966C269.263 106.966 269.01 107.254 269.01 107.826C269.01 108.268 269.157 108.827 269.263 109.169C269.452 109.034 269.581 108.816 269.628 108.715L269.941 107.885L270.959 107.372C271.342 107.254 272.154 107.06 272.531 107.278C272.649 107.343 272.726 107.443 272.755 107.567C272.773 107.643 272.82 107.72 272.873 107.814C273.008 108.038 273.185 108.338 273.02 108.833C272.973 108.981 272.943 109.081 272.92 109.151C272.849 109.393 272.826 109.452 272.608 109.741C272.396 110.023 272.084 110.135 271.807 110.235C271.636 110.294 271.477 110.353 271.36 110.442C271.171 110.583 271.036 110.795 270.965 110.925L271.471 111.867L272.996 112.291C272.996 112.291 273.261 112.315 273.585 111.856C274.015 111.255 274.28 110.559 274.28 110.554L274.427 110.165L275.787 111.255L275.699 112.398L276.835 112.916L277.065 113.941L276.782 115.555L276.576 116.115L277.477 116.722C277.565 116.798 277.63 116.834 277.666 116.834C277.666 116.834 277.689 116.822 277.713 116.792C277.936 116.492 278.278 116.015 278.396 115.85L278.56 114.548L278.16 113.67L277.377 112.887C277.271 112.78 276.741 112.227 276.741 111.761C276.741 111.378 276.994 110.029 277.018 109.876L277.035 109.794L277.989 108.733L278.92 108.615L280.262 109.287V111.85C280.233 112.085 280.168 112.645 280.168 112.857C280.197 112.898 280.421 113.063 280.657 113.187C280.969 113.152 281.44 113.081 281.605 113.028L281.811 112.957L282.258 112.509L282.6 111.478C282.635 111.243 282.882 109.811 283.071 109.428C283.265 109.039 283.783 108.427 283.842 108.362L283.977 108.203L285.555 108.81V110.883C286.103 111.325 286.38 111.685 286.38 111.944V113.411L286.468 114.854L286.774 116.056L285.697 117.246L284.99 117.446C284.99 117.446 284.749 117.482 284.631 117.965C284.519 118.419 284.519 118.996 284.531 119.332H284.972L285.661 120.569L285.632 120.681C285.549 121.022 285.461 121.14 285.261 121.37C285.196 121.441 285.126 121.529 285.025 121.647C284.772 121.965 284.666 122.401 284.643 122.548L284.878 123.532L285.632 124.18H286.456C286.727 124.045 287.74 123.538 288.075 123.414C288.511 123.261 289.094 123.391 289.159 123.403L289.388 123.456V124.604L287.952 125.942L287.875 125.959C287.386 126.071 286.88 126.254 286.792 126.354C286.762 126.466 286.65 126.631 286.527 126.802C286.444 126.92 286.285 127.144 286.28 127.226V128.935H287.746C288.011 128.829 288.352 128.746 288.57 128.887C288.682 128.964 288.752 129.088 288.752 129.235C288.752 129.306 288.77 129.394 288.782 129.482C288.829 129.765 288.894 130.119 288.699 130.407C288.658 130.472 288.629 130.537 288.599 130.602C288.499 130.826 288.346 131.167 287.863 131.262C287.575 131.321 287.186 131.486 286.98 131.574L286.768 132.888L288.47 133.606L288.452 135.651L287.987 136.923L287.716 136.841C287.716 136.841 287.675 136.911 287.646 137.094C287.598 137.389 288.034 137.889 288.358 138.149L288.458 138.225L288.576 139.392L287.969 140.11L286.444 140.505L285.72 141.683L285.667 142.202L287.086 142.22L289.076 142.985L290.354 143.899C290.401 143.928 291.749 144.806 291.85 146.037C291.932 146.992 292.15 148.311 292.203 148.606L292.727 149.431L293.946 149.513L296.101 149.26L296.89 147.486L297.867 146.874L299.215 146.491L300.723 146.591L301.506 146.19L302.047 145.489L302.153 144.211L302.942 142.196L303.761 141.277L305.898 141.177L307.376 141.283L309.113 141.831L310.32 142.332L311.651 144.423L312.222 145.236L313.994 145.719L315.684 144.558L317.274 144.458L318.922 144.871L319.358 144.069L320.176 142.944L321.801 142.538L324.628 142.944L324.669 143.15C324.704 143.31 325.499 147.127 325.499 148.246C325.499 148.682 325.611 148.783 325.629 148.794C325.67 148.824 325.735 148.8 325.735 148.8L325.841 148.783L326.488 148.8L328.637 149.566L328.943 150.462L329.379 151.08L331.163 150.379C331.222 150.138 331.299 149.743 331.299 149.525C331.299 149.148 331.387 148.335 331.393 148.299L331.411 148.152L332.088 147.746L334.354 148.052L336.345 148.759L337.363 148.288L336.174 147.899H336.192Z" fill="#E6E6E6"/>
<path d="M420.13 158.939L420.319 154.538L421.932 151.569L422.368 149.43L421.932 146.98L421.402 146.143L420.831 146.078L419.983 146.656L419.406 147.887L417.198 150.073L415.579 150.461L414.419 148.564L414.272 146.508L415.573 144.729L415.991 144.005L415.62 142.968L414.607 142.461L413.918 140.24L413.5 131.291L414.831 128.41L414.784 123.349L416.003 121.588L415.714 120.074L414.784 118.489L414.548 116.58L415.538 114.082L416.839 111.967L416.344 104.745L414.195 99.4011L413.73 94.8353L414.472 93.168L414.554 90.676L412.788 89.2031L410.815 90.729L410.274 92.2254L408.49 93.9103H406.812L405.269 92.8499L403.014 91.5479L401.683 91.8601L400.93 92.9029L398.828 92.8793L396.755 91.978L395.142 91.6539C394.924 91.9426 394.435 92.5553 393.97 92.8558C393.37 93.2446 392.298 93.5215 392.251 93.5333L392.098 93.5745L391.279 92.8558C391.061 92.7497 390.196 92.3255 389.907 91.8425C389.796 91.6539 389.436 91.7364 389.307 91.7718L388.777 92.2254L388.312 93.7159L388.212 93.7748C388.212 93.7748 387.764 94.0458 387.493 94.2226C387.446 94.252 387.393 94.2756 387.34 94.2874C387.323 94.2874 387.305 94.2874 387.287 94.2933C387.258 94.2933 387.234 94.305 387.205 94.305C387.199 94.305 387.187 94.305 387.181 94.305C387.099 94.305 387.011 94.2874 386.916 94.2579C386.899 94.252 386.875 94.2461 386.857 94.2344C386.775 94.2049 386.693 94.1695 386.61 94.1283C386.598 94.1224 386.587 94.1165 386.569 94.1106C386.481 94.0635 386.392 94.0105 386.31 93.9516C386.292 93.9398 386.275 93.928 386.257 93.9162C386.18 93.8632 386.104 93.8102 386.039 93.7571C386.039 93.7571 384.991 93.062 384.12 92.5376L383.996 92.9206L380.569 94.2933L378.19 95.7543L376.813 97.563L374.34 98.7707L372.938 100.585V102.924L373.663 104.479L372.838 105.799L368.434 107.413H367.681L365.914 104.845L365.302 103.289H363.453L363.365 103.142C363.259 102.971 363.094 102.789 363.011 102.759C363.011 102.777 362.964 102.853 362.917 103.054C362.664 104.161 362.917 105.234 362.917 105.239L362.988 105.54L361.528 105.846H358.26V106.877L356.311 107.402H355.516V109.139L356.476 110.235V111.643L355.216 112.156H353.208L352.095 111.461L351.224 111.355L350.547 112.126C350.023 112.386 349.251 112.763 348.757 112.998L349.463 113.47L349.934 117.24H348.062L346.855 116.427L346.307 116.527L345.059 117.67L347.126 118.619L348.963 121.417L348.356 123.556V124.345C348.474 124.528 348.71 124.958 348.627 125.382C348.58 125.629 348.439 125.83 348.215 125.977C347.862 126.201 347.532 126.766 347.344 127.167C347.685 127.273 348.156 127.479 348.339 127.845C348.415 127.998 348.474 128.239 348.327 128.54C348.021 129.152 347.503 129.518 347.226 129.677L347.208 130.678L346.496 132.835L347.09 133.801H348.18L348.268 133.889C348.768 134.396 349.404 134.985 349.563 135.056C350.582 135.421 351.094 135.751 351.342 136.028L352.607 134.955L354.309 136.269C354.545 136.416 354.963 136.941 354.686 137.771C354.415 138.585 353.361 138.979 352.967 139.097L352.378 140.281L352.513 141.518L351.247 144.382L350.847 145.719L350.405 147.911L348.433 148.476L348.345 149.189L347.191 150.98L348.409 152.806L348.321 152.965C348.227 153.124 347.426 154.544 347.238 154.798C347.226 154.815 347.208 154.839 347.179 154.874C347.132 154.933 347.073 155.015 346.99 155.127L348.215 155.451L348.274 155.51C349.764 157.036 349.764 157.242 349.764 157.366V158.45L351.954 159.116L354.368 159.676H357.341L358.937 161.307L359.502 162.745C359.82 162.998 360.586 163.64 360.727 164.071C360.862 164.471 361.198 165.331 361.392 165.697C361.616 166.121 361.763 166.892 361.763 166.928L361.787 167.057L360.538 168.748L361.263 169.608H367.516L368.275 172.006L368.97 172.36L370.371 171.941L371.443 171.287L374.917 170.592L375.659 167.865H377.284V171.441L379.197 173.049L383.024 173.067L386.086 174.121H388.706L389.837 173.556L390.667 172.006L391.815 170.863L393.063 170.445L394.865 170.946L395.931 171.918H397.609L398.451 171.117L399.458 170.751L400.476 170.28L400.741 168.407L401.283 167.935L402.413 167.205L403.073 166.633L404.833 166.215L406.982 166.233L409.296 167.128L410.168 169.261L410.515 170.209L411.122 170.751L412.399 170.033L413.742 168.972L415.32 169.196L416.327 169.626H416.344L416.35 169.638L417.657 170.339L418.205 164.966L418.252 164.901C419.006 163.864 419.824 162.651 419.901 162.421C419.977 162.191 420.071 160.471 420.113 158.939H420.13Z" fill="#E6E6E6"/>
<path d="M373.951 98.2822L376.418 97.0745L377.831 95.2599L380.298 93.7517L383.507 92.4615L383.584 92.2259C383.395 92.1198 383.278 92.0609 383.201 92.0315C383.154 92.0138 383.113 91.9961 383.089 91.9902C382.842 91.9902 381.046 91.7546 379.815 91.5955C379.256 91.5189 378.815 91.46 378.685 91.4423L378.561 91.3952L377.649 90.8002C377.578 90.7589 375.729 89.6572 375.452 89.4687C375.37 89.4157 375.182 89.4393 375.052 89.4805L374.375 90.158H372.891L371.443 89.3273L371.148 88.4377L370.624 87.6836H369.288C368.94 87.8427 368.234 88.1432 367.945 88.1432C367.686 88.1432 367.186 87.8074 366.462 87.1475L366.232 86.9413L366.856 86.2933L367.769 85.6747L368.917 85.0561V83.9191C368.24 84.196 367.015 84.6319 366.403 84.4787C366.226 84.4375 366.091 84.4198 365.985 84.408C365.478 84.355 365.325 84.1901 365.178 83.5302C365.09 83.1296 364.089 82.7879 363.4 82.6642C363.206 82.7408 362.687 82.9411 362.405 83.0825C362.022 83.271 360.067 83.6775 359.679 83.76H359.62L357.742 83.7659L357.123 84.4434L356.211 84.9913L354.568 85.6865V84.2372L353.879 82.4285L353.19 81.7393H352.272L350.14 84.4728V86.7175L349.281 87.2359H346.36L343.416 86.853H342.427L341.597 85.6688L341.45 86.04L341.073 87.283L339.701 88.2374L338.629 87.2477L338.253 86.9885L337.952 87.5422L337.534 89.781L335.485 91.8842L333.048 93.3217L332.3 93.1214C331.558 92.6677 330.704 92.1729 330.557 92.1257C330.457 92.1493 329.821 92.4733 329.285 92.7914L328.908 94.117L328.496 95.1068L326.288 95.7666L326.241 96.1966V96.7799C326.241 97.3337 326.194 97.6283 325.935 97.7048L325.729 97.7696L324.286 98.4766L322.467 99.1836V100.173L321.984 100.48L322.302 101.799L324.416 103.914L326.695 105.381L326.989 107.072L327.219 108.845H323.397L323.026 109.517L322.32 110.931L322.014 112.734L321.466 113.647L320.707 114.578L320.936 115.815L321.931 116.816L322.279 118.03L323.88 118.672L324.422 120.528L324.763 122.507L326.035 122.896L326.33 124.346L326.995 125.164L327.825 125.023L328.579 124.263L330.098 123.079V124.628L330.863 125.919L332.477 127.067V127.821L333.03 129.825H331.847L330.928 130.749L330.486 136.311L332.253 136.8L333.183 137.401H333.943L334.767 139.669V142.797L336.592 146.309L336.751 147.475L338.258 147.97L339.901 147.876L343.204 148.806H345.919L346.272 149.614L346.837 150.462L347.773 149.007L347.891 148.041L349.893 147.469L350.27 145.607L350.688 144.205L351.901 141.454L351.765 140.199L352.548 138.614L352.684 138.579C353.019 138.491 353.938 138.149 354.121 137.607C354.144 137.536 354.162 137.466 354.168 137.407C354.168 137.377 354.168 137.348 354.174 137.318C354.174 137.289 354.174 137.259 354.174 137.236C354.174 137.201 354.168 137.171 354.162 137.142C354.162 137.13 354.162 137.112 354.162 137.1C354.156 137.065 354.144 137.036 354.132 137.006C354.132 137.006 354.132 136.994 354.132 136.988C354.073 136.859 353.991 136.794 353.973 136.782L352.637 135.751L350.694 137.401L350.947 136.511C350.894 136.423 350.629 136.093 349.369 135.645C349.075 135.539 348.327 134.815 347.938 134.426H346.767L345.848 132.941L346.631 130.561V129.324L346.808 129.241C346.808 129.241 347.473 128.935 347.791 128.293C347.838 128.199 347.815 128.157 347.809 128.14C347.709 127.933 347.19 127.751 346.878 127.692L346.519 127.627L346.649 127.291C346.702 127.156 347.185 125.948 347.897 125.5C348.003 125.43 348.032 125.359 348.038 125.306C348.05 125.253 348.044 125.188 348.032 125.123C348.027 125.088 348.015 125.053 348.003 125.023C347.991 124.994 347.985 124.964 347.974 124.935C347.962 124.911 347.95 124.888 347.938 124.864C347.921 124.829 347.903 124.787 347.885 124.758C347.862 124.717 347.838 124.681 347.82 124.658C347.82 124.658 347.82 124.646 347.815 124.646L347.756 124.564V124.511V123.497L348.315 121.541L346.725 119.12L343.993 117.871L346.036 115.998L346.996 115.821L348.256 116.663H349.263L348.91 113.841L347.555 112.94L348.032 112.71C348.032 112.71 349.404 112.056 350.235 111.644L350.988 110.742L352.372 110.943L353.396 111.585H355.169L355.893 111.279V110.489L354.933 109.393V106.825H356.293L357.683 106.442V105.263H361.516L362.299 105.093C362.228 104.657 362.152 103.82 362.358 102.93C362.464 102.471 362.658 102.218 362.947 102.17C363.317 102.112 363.641 102.459 363.806 102.695H365.732L366.479 104.598L368.016 106.819H368.399L372.456 105.316L372.997 104.45L372.355 103.001V100.385L373.969 98.2999L373.951 98.2822Z" fill="#E6E6E6"/>
<path d="M346.348 154.962C346.348 154.962 346.372 154.933 346.378 154.921C346.507 154.744 346.613 154.609 346.678 154.52C346.701 154.491 346.725 154.461 346.731 154.444C346.819 154.326 347.114 153.825 347.402 153.319C347.496 153.148 347.596 152.983 347.685 152.83L345.718 149.872L345.5 149.383L343.051 149.371L339.807 148.452L338.264 148.541L336.374 149.407L334.184 148.629L332.217 148.37L331.976 148.511C331.952 148.759 331.899 149.265 331.899 149.519C331.899 149.913 331.728 150.591 331.705 150.667L331.67 150.815L329.155 151.805L328.39 150.691L328.16 150.025L326.335 149.377H325.882C325.764 149.407 325.523 149.442 325.293 149.289C325.028 149.112 324.898 148.759 324.898 148.24C324.898 147.327 324.292 144.293 324.121 143.474L321.825 143.144L320.524 143.468L319.858 144.387L319.222 145.566L317.215 145.065L315.878 145.147L314.094 146.367L311.845 145.754L311.144 144.753L309.908 142.808L308.901 142.384L307.223 141.854L305.886 141.766L304.032 141.854L303.419 142.543L302.724 144.37L302.63 145.695L301.835 146.673L300.876 147.168C300.781 148.022 300.346 149.136 300.328 149.189L300.252 149.377H298.238L298.226 149.324C297.838 149.872 297.107 150.75 297.072 150.791L296.943 150.944L296.748 150.88C296.354 150.756 295.947 150.732 295.871 150.797C295.588 151.103 293.922 151.422 292.55 151.634L291.437 152.27L291.225 153.324L292.715 154.373L293.675 155.263L295.624 155.345L297.955 154.715L298.815 154.314C298.85 154.308 299.174 154.273 299.392 154.503C299.492 154.609 299.598 154.809 299.533 155.151C299.51 155.263 299.521 155.28 299.563 155.333C299.745 155.587 299.728 155.822 299.492 156.199C299.074 156.865 297.508 157.578 297.331 157.655L297.208 157.678H295.806L295.547 158.038L295.977 158.827L296.943 159.616L297.737 160.347L298.173 161.513L297.39 163.081H294.599L293.822 163.97L293.192 164.453H291.42L289.954 165.143L285.773 168.389L284.366 169.973L284.743 171.499L286.362 171.9H291.537L293.416 175.388H290.378L288.929 176.701L286.28 177.078L284.766 177.503L282.841 179.871L282.711 180.165L283.118 180.513H283.754L284.095 182.498V183.624H285.167L285.626 184.82L285.714 186.222L286.115 186.728H287.027L287.675 186.057C287.746 186.027 288.387 185.762 288.876 186.08C289.147 186.257 289.677 186.564 289.924 186.699L291.443 186.086L292.397 184.761L293.274 184.236L294.228 183.2L294.905 181.927V179.135L296.666 178.545H297.437L298.367 177.379L300.57 177.691L304.373 182.127L304.562 182.092L305.268 181.308L305.639 179.735L306.534 178.952L308.347 179.058L309.113 180.048L309.513 182.039L309.136 182.893V183.612L310.049 184.437V185.462C309.908 186.022 309.772 186.628 309.713 186.911C309.99 187.076 310.673 187.435 311.315 187.754L312.834 187.129L314.73 186.528L315.578 187.094L317.48 186.817L319.152 187.783H320.989C320.989 187.783 321.012 187.783 321.042 187.783C321.048 187.783 321.054 187.783 321.065 187.783C321.095 187.783 321.136 187.783 321.189 187.777C321.201 187.777 321.207 187.777 321.218 187.777C321.348 187.777 321.525 187.765 321.731 187.765C321.731 187.765 321.743 187.765 321.748 187.765C321.754 187.765 321.766 187.765 321.772 187.765C321.86 187.765 321.954 187.765 322.049 187.765C322.072 187.765 322.102 187.765 322.125 187.765C322.237 187.765 322.355 187.777 322.473 187.783C323.014 187.824 323.709 188.166 324.109 188.402C324.198 188.201 324.345 187.972 324.58 187.83C324.751 187.689 325.175 186.599 325.458 185.674L325.523 185.562L326.382 184.596L326.565 184.655C326.624 184.672 328.078 185.132 328.655 185.515C329.079 185.798 330.663 186.381 331.24 186.581L331.328 186.628L332.877 187.854C332.877 187.854 333.071 187.942 333.324 188.013C333.483 188.06 333.666 188.095 333.836 188.089C333.842 188.089 333.848 188.089 333.854 188.089C333.931 188.089 333.995 188.072 334.06 188.048C334.072 188.048 334.089 188.048 334.101 188.036C334.172 188.007 334.237 187.966 334.29 187.901L334.79 187.276C334.873 186.888 335.244 185.108 335.326 184.773L335.838 183.376L337.069 181.815L336.427 180.896C336.398 180.79 336.144 179.836 336.144 179.441C336.144 179.046 336.315 178.198 336.333 178.104L336.486 177.567L335.756 176.436L334.419 175.24L334.213 173.278L334.884 172.088L335.138 171.252V169.102L335.526 167.122L336.168 166.48L336.827 163.581L337.993 161.726L339.789 160.318L340.566 159.169L342.391 158.126L344.664 157.136L345.936 155.469L345.989 155.398L346.33 154.95L346.348 154.962Z" fill="#E6E6E6"/>
<path d="M332.2 23.2022L329.921 23.485L327.707 22.5188H317.869L315.054 23.5734L314.736 26.1067H316.956L317.78 27.391L318.116 29.724C318.24 30.101 318.452 30.7785 318.516 31.1202C318.652 31.1556 318.923 31.1791 319.193 31.185L321.113 30.154H323.038L322.862 31.5444L323.115 33.082L323.692 33.8951L324.669 34.113L325.541 33.3707L329.715 33.7478L329.645 38.0367L329.998 39.4388L333.254 39.7216L334.202 40.7055L334.885 41.9191L336.61 42.2078L336.775 43.4567C336.716 45.1888 336.622 47.2331 336.557 47.4334C336.528 47.5218 336.463 47.7221 334.225 49.5779L333.236 50.8445L333.566 52.3468L333.195 53.3896C333.071 53.7961 332.895 54.45 332.871 54.7033C332.959 54.7858 333.224 54.9154 333.542 55.0391C333.713 55.1039 333.902 55.1687 334.09 55.2218L334.196 55.2512L334.95 56.3411L334.508 58.3442L334.337 59.4577L334.738 59.658L336.74 59.3104L338.894 60.577L339.866 62.3326L343.522 62.0027L346.755 63.4756L347.238 66.0737L345.801 66.6981L344.17 67.6231L344.117 68.4597L345.142 69.7322V69.8441C345.112 70.716 345.059 72.2124 344.989 72.4304C344.936 72.5954 344.476 74.1625 344.306 74.7516L342.045 84.4135L341.821 84.9908L342.704 86.2457H343.416H343.434L346.36 86.6286H349.075L349.499 86.3694V84.2603L351.936 81.1379H353.396L354.374 82.1571L355.128 84.1837V84.7846L355.899 84.4606L356.735 83.9539L357.436 83.1645H359.555C360.427 82.9818 361.863 82.6637 362.105 82.5459C362.482 82.3574 363.2 82.0864 363.229 82.0746L363.306 82.0451L363.382 82.0569C363.736 82.1099 365.514 82.434 365.732 83.4001C365.802 83.7065 365.844 83.7713 365.855 83.789C365.867 83.789 365.95 83.8008 366.02 83.8125C366.15 83.8243 366.309 83.842 366.521 83.895C366.974 84.007 368.328 83.5239 369.07 83.1939L369.494 83.0054V85.4209L368.057 86.1926L367.198 86.7818L367.068 86.9173C367.433 87.2295 367.816 87.5241 367.946 87.5535C368.052 87.5477 368.623 87.3238 369.076 87.1176L369.2 87.0881H370.913L371.684 88.2075L371.92 88.9203L373.033 89.5566H374.11L374.764 88.938C374.823 88.9145 375.376 88.7024 375.771 88.9675C375.983 89.1089 377.29 89.8924 377.955 90.2871L378.821 90.8527C379.986 91.0118 381.67 91.2356 382.548 91.3358C382.842 91.3711 383.042 91.3888 383.101 91.3888C383.195 91.3888 383.331 91.4124 383.761 91.648L384.084 91.8307L384.296 91.9544C384.879 92.2961 385.574 92.7438 386.21 93.168C386.304 93.2328 386.375 93.2741 386.375 93.2799C386.693 93.5274 387.052 93.7395 387.181 93.7218C387.352 93.604 387.635 93.4272 387.782 93.333L388.229 91.8955L389.024 91.2356C389.383 91.1001 390.072 91.0177 390.396 91.5479C390.561 91.8248 391.185 92.1842 391.544 92.3432L391.615 92.3904L392.227 92.9265C392.534 92.8381 393.222 92.626 393.617 92.3668C394.123 92.0369 394.736 91.1767 394.742 91.1649L394.853 91.0059L396.938 91.4301L398.987 92.3197H400.6L401.307 91.3476L403.085 90.9293L405.564 92.3609L406.971 93.3271H408.219L409.726 91.9014L410.28 90.3755L412.441 88.7083L410.315 84.7139L410.774 80.7726L410.209 79.5531L408.354 78.3454L407.701 75.6648L404.563 71.0342L403.603 68.6128L401.271 66.0147L401.365 62.4446C399.387 60.5829 398.351 59.5284 398.274 59.2986C398.186 59.0394 397.373 55.9405 397.197 55.2571L394.123 52.8063L390.096 47.9577L388.33 44.9885L387.217 42.5789L379.88 31.5444L378.885 27.5501L370.212 10.8363L368.917 7.60781L368.252 5.55762L366.444 6.6593L365.649 10.3473L365.096 14.7953L362.77 17.8175L359.384 19.8795L354.88 22.8134L349.022 22.5365L346.879 22.8075L344.612 22.9607L343.905 21.694L338.9 21.0931L333.507 22.5188L332.194 23.2199L332.2 23.2022Z" fill="#E6E6E6"/>
<path d="M346.237 63.8826L343.434 62.6042L339.548 62.9577L338.464 61.0076L336.639 59.9354L334.661 60.2771L333.689 59.794L333.931 58.2269L334.319 56.4595L333.837 55.7643C332.282 55.3048 332.282 54.8865 332.282 54.751C332.282 54.3799 332.577 53.396 332.635 53.2016L332.953 52.3061L332.6 50.6978L333.831 49.1366C334.773 48.353 335.815 47.4516 336.003 47.2278C336.045 46.9273 336.109 45.4957 336.162 44.2762C336.174 43.9934 336.186 43.7283 336.192 43.4867L336.086 42.7268L334.514 42.4675L333.707 41.0418L332.989 40.3054L329.527 40.0049L329.056 38.1138L329.12 34.3021L325.752 33.9958L324.846 34.7675L323.35 34.4376L322.555 33.3241L322.261 31.5626L322.361 30.7555H321.266L320.306 31.2681L319.346 31.7806H319.27C318.098 31.7806 317.939 31.5273 317.939 31.274C317.939 31.2445 317.921 31.1738 317.898 31.0795C317.827 30.8026 317.674 30.2901 317.533 29.8541L317.197 27.5388L316.638 26.6964H314.053L314.418 23.8037L312.434 24.546L309.243 27.5919L308.307 30.402L307.294 32.4404L304.415 34.2255L303.237 36.7176L302.807 39.2921L299.398 41.1125L295.7 43.3807V46.9921L295.082 48.1527L295.636 50.1263L295.624 50.1911C295.612 50.2854 295.277 52.4652 295.212 52.8128C295.165 53.0366 295.112 54.2267 295.082 54.969L295.577 56.2062L297.361 57.5258C297.655 57.8145 297.961 58.1798 297.961 58.4508C297.961 58.6806 297.961 59.2991 297.455 59.2991H296.484L295.176 58.5156L294.352 57.6083L293.81 56.9073L293.381 55.7408L293.251 54.645L292.521 53.5315L291.52 53.178L290.313 53.0013L289.53 53.4844L288.9 55.075V57.0722L289.347 58.2446L290.384 59.8588L292.397 60.772L292.444 60.8486C292.521 60.9782 293.21 62.1093 293.31 62.7927C293.404 63.4349 293.769 65.8268 293.769 65.8268L294.234 69.0611L293.981 70.7519L295.518 71.8301C295.836 71.7005 296.519 71.5002 296.978 71.9656C297.131 72.1187 297.326 72.213 297.49 72.2955C297.72 72.4074 297.932 72.5135 297.997 72.7491C298.032 72.8905 297.997 73.0319 297.903 73.1733C297.779 73.3559 297.885 73.7035 297.932 73.8155L298.032 74.0511L296.189 75.2412L296.077 75.2235C296.077 75.2235 296.06 75.2235 296.048 75.2235C296.06 75.2588 296.077 75.306 296.113 75.3767C296.372 75.8715 297.402 76.4077 297.773 76.5785L298.344 76.9438L299.322 77.2089L302.177 77.7037V78.6287L301.206 79.6008L300.228 79.8188L300.158 79.8011C300.122 79.8011 300.034 79.8659 299.969 80.0603L299.757 80.6966L298.503 81.6392H297.838L297.208 81.1148L296.76 80.5846L296.224 80.3549L294.541 80.1133C294.346 80.4315 294.234 80.6435 294.181 80.7673L294.458 81.1797L295.253 82.6702L294.87 84.6968L294.647 86.2403H295.577L296.136 85.0974L296.701 84.2432L300.187 84.2726L301.653 84.956C301.783 85.0326 302.271 85.3566 302.324 85.8103C302.342 85.9634 302.318 86.1873 302.101 86.3994C301.959 86.5408 301.906 86.5997 301.889 86.6292C301.847 86.7057 301.83 86.7234 301.612 86.8884C301.27 87.1417 299.339 88.4614 298.998 88.6911L298.521 89.4099L298.297 91.1066L298.98 91.1243L300.022 91.5249C300.258 91.3717 300.723 91.1007 301.064 91.1007C301.176 91.083 301.482 90.7767 301.724 90.435V89.4217L302.419 89.2685H302.466C302.872 89.3215 303.555 89.4629 303.555 89.9401V90.9357L304.197 91.7605V93.251L303.237 94.4293L301.571 94.7239H300.799L300.735 95.9139L302.407 96.9214L304.426 97.8934C304.585 97.8934 304.998 97.8993 305.357 97.8934C305.628 97.8934 305.987 97.699 306.152 97.5989L306.434 97.1806V96.179L307.023 95.2188H309.349L309.985 96.0377L308.454 97.2631L308.33 97.6872L308.666 98.2764L310.297 98.8361L311.268 98.241L312.128 97.9465L312.97 96.6268L314.2 96.4618L316.667 97.1983L321.378 100.12L321.442 100.079L321.802 99.8494L321.837 99.8317V98.7595L324.021 97.917L325.599 97.1393C325.605 97.0686 325.611 96.9508 325.611 96.7682V96.1496L325.705 95.2895L328.025 94.6002L328.314 93.905L328.744 92.385L328.844 92.3261C330.339 91.4365 330.592 91.5131 330.698 91.5425C330.94 91.6133 332.041 92.2731 332.547 92.5794L332.93 92.6737L335.12 91.3835L336.951 89.4865L337.375 87.289L338.017 86.1048L338.977 86.7705L339.725 87.4598L340.531 86.9002L340.855 85.8338L341.155 85.0679L341.485 84.2314L343.734 74.5931C343.764 74.493 344.358 72.4428 344.429 72.2307C344.464 72.0834 344.517 70.964 344.547 69.9272L343.516 68.6487L343.605 67.2584L345.53 66.1626H345.548L345.559 66.1508L346.572 65.709L346.231 63.8885L346.237 63.8826Z" fill="#E6E6E6"/>
<path d="M287.799 59.0978L287.163 54.9797C287.163 54.9797 287.257 53.607 287.163 52.6938C287.069 51.7807 285.061 49.3652 285.061 49.3652H283.23L281.31 50.7733L280.945 52.8765C280.945 52.8765 281.31 54.2492 281.675 55.1623C282.04 56.0755 282.588 57.1359 282.588 57.1359L281.858 59.1861L281.675 60.6531L285.061 62.3027L286.892 61.5721L287.805 59.1036L287.799 59.0978Z" fill="#E6E6E6"/>
<path d="M278.566 52.3283L279.026 51.0499L277.93 49.7715H276.653L275.74 50.4136C275.74 50.4136 274.827 51.2384 275.01 51.5094C275.193 51.7863 276.659 52.3342 276.659 52.3342H278.578L278.566 52.3283Z" fill="#E6E6E6"/>
<path d="M280.945 57.413C280.945 57.2658 280.304 54.703 280.304 54.703L279.026 53.2832L277.472 53.6485L277 55.2509L278.661 57.1362L279.574 58.2732C279.574 58.2732 280.945 57.5603 280.945 57.413Z" fill="#E6E6E6"/>
<path d="M286.981 65.0488L285.515 67.0637L286.427 69.0785C286.427 69.0785 286.704 70.6338 288.258 69.2612C289.813 67.8885 290.637 66.6041 290.637 66.6041V65.8854L289.359 65.0488H286.981Z" fill="#E6E6E6"/>
<path d="M280.392 63.6758V64.1236L280.945 65.0485H282.499L282.588 64.1236L281.493 63.3105L280.392 63.6758Z" fill="#E6E6E6"/>
<path d="M350.093 215.461L348.444 213.187L348.58 212.391L349.539 211.431V210.789L348.721 210.147L347.214 209.552C347.214 209.552 346.389 210.053 346.207 210.424C346.024 210.789 345.659 211.478 345.659 211.478C345.659 211.478 343.875 211.755 343.787 212.12C343.693 212.486 344.929 215.826 344.929 215.826L345.753 220.722L346.254 222.142L347.261 222.189L348.05 220.975L348.727 219.125L350.193 219.608L350.835 221.37L352.254 222.195L353.761 221.853L354.45 219.608L354.997 217.711L355.315 216.386L354.856 215.655L350.099 215.473L350.093 215.461Z" fill="#E6E6E6"/>
<path d="M353.29 210.93L352.79 210.335L351.371 210.565L351.283 213.493L351.83 213.952L354.574 214.223L355.304 213.186V211.755L353.614 211.295L353.29 210.93Z" fill="#E6E6E6"/>
<path d="M363.536 213.334H361.522L360.698 214.683L362.07 216.604L363.536 216.698C363.536 216.698 364.266 216.15 363.995 215.095C363.718 214.041 363.536 213.334 363.536 213.334Z" fill="#E6E6E6"/>
<path d="M368.84 214.683V215.873L369.576 218.382H370.76L372.132 217.611L372.32 216.697L370.854 214.683H368.84Z" fill="#E6E6E6"/>
<path d="M384.756 211.018C384.756 210.741 384.938 210.329 384.938 210.329L384.573 209.551L384.391 207.719V205.887C384.391 205.61 384.296 204.149 384.296 204.149L383.749 203.507H383.29L382.742 204.785C382.742 204.785 382.265 205.516 382.318 205.881C382.371 206.246 382.318 207.531 382.318 207.531L380.911 207.896L380.269 208.261V209.54L380.911 211.095L380.728 211.554L379.174 211.007L377.437 210.459L375.788 211.007L374.511 212.102L374.693 214.995L376.159 215.077L377.625 214.665L378.903 215.855L378.626 216.515C378.626 216.515 377.437 216.603 377.62 217.145C377.802 217.687 378.167 219.06 378.167 219.06L378.626 219.584L378.721 220.957L379.998 221.829L381.765 220.957L382.324 220.704V217.776L383.749 217.145C383.749 217.145 384.391 216.863 384.391 216.68C384.391 216.497 384.938 215.001 384.938 215.001L385.668 214.211L386.033 213.175L385.027 211.554C385.027 211.554 384.75 211.278 384.75 211.007L384.756 211.018Z" fill="#E6E6E6"/>
<path d="M389.33 201.916L388.141 203.518L388.418 204.614L389.972 205.074L390.608 204.337L390.885 203.518L389.513 202.376L389.33 201.916Z" fill="#E6E6E6"/>
<path d="M416.091 170.174L415.137 169.761L413.93 169.602L412.747 170.533L411.057 171.487L410.015 170.562L409.62 169.484L408.849 167.599L406.823 166.816H404.874L403.361 167.181L402.772 167.682L401.642 168.406L401.306 168.701L401.024 170.674L399.687 171.293L398.722 171.646L397.856 172.507H395.695L394.565 171.476L393.075 171.063L392.133 171.375L391.12 172.383L390.272 173.991L388.842 174.71L385.927 174.692L382.865 173.638H378.968L376.671 171.711V168.453H376.1L375.382 171.093L371.596 171.853L370.56 172.489L368.893 172.99L367.757 172.412L367.05 170.197H360.956L359.761 168.777L360.303 167.988L361.121 166.904C361.068 166.651 360.956 166.209 360.833 165.973C360.615 165.567 360.267 164.671 360.126 164.253C360.061 164.058 359.508 163.528 359.037 163.157L358.972 163.104L358.372 161.578L357.064 160.27H354.238L351.771 159.693L349.139 158.892V157.419C349.022 157.219 348.421 156.553 347.873 155.987L346.566 155.64C345.942 156.459 345.1 157.566 345.1 157.566L345.053 157.631L342.668 158.668L340.99 159.628L340.201 160.765L338.412 162.167L337.369 163.852L336.722 166.78L336.086 167.416L335.738 169.16V171.34L335.432 172.353L334.838 173.402L334.997 174.946L336.245 176.077L337.14 177.473L336.922 178.245C336.881 178.469 336.751 179.17 336.751 179.441C336.751 179.665 336.898 180.301 336.998 180.684L337.834 181.827L336.351 183.706L335.909 184.943C335.827 185.273 335.379 187.447 335.373 187.465L335.362 187.535L334.767 188.272C334.72 188.331 334.667 188.384 334.608 188.431C334.59 188.443 334.573 188.455 334.555 188.466C334.502 188.508 334.443 188.537 334.384 188.566C334.366 188.578 334.343 188.584 334.325 188.596C334.243 188.631 334.155 188.649 334.066 188.667C334.043 188.667 334.019 188.673 333.99 188.678C333.86 188.69 333.731 188.69 333.601 188.678L333.672 189.209L335.132 190.599V192.849L335.715 194.693L336.633 195.695L338.629 197.233L338.7 199.012L340.29 201.186L341.302 202.352L342.268 203.884V207.16L344.205 207.613L345.471 208.061C345.925 208.061 346.472 208.032 346.608 207.984C346.761 207.92 347.55 207.33 348.233 206.783V205.092L351.059 206.164H352.442V203.896L353.279 202.346L354.892 203.46L354.515 206.877L355.799 209.587C356.729 209.934 357.8 210.429 357.965 210.907C358.16 211.03 359.031 211.107 359.92 211.089L360.75 210.093C360.992 209.822 361.575 209.192 361.893 209.086C362.187 208.986 363.37 208.98 363.724 208.98H363.947L364.36 210.429C364.548 210.689 364.842 210.96 364.996 210.96C365.007 210.96 365.043 210.965 365.113 210.865C365.573 210.135 366.303 208.945 366.303 208.945L366.385 208.815L367.939 208.697L368.022 208.898C368.098 209.086 368.34 209.716 368.087 210.099C367.934 210.329 367.392 211.077 367.221 211.313C367.221 211.502 367.262 211.849 367.445 212.044C367.539 212.144 367.669 212.197 367.839 212.197C368.852 212.197 369.665 212.285 369.7 212.291L369.794 212.32L371.243 213.016V213.876L371.178 214.483L371.502 214.577C371.643 214.541 371.902 214.465 372.055 214.365C372.179 214.27 372.514 213.658 372.75 213.133L372.821 212.527L371.849 211.519C371.831 211.478 371.46 210.541 371.46 209.575C371.46 208.68 371.372 206.517 371.366 206.494V206.282L373.086 205.616L373.468 205.563V203.56H372.909L371.825 203.978L370.071 205.634L369.871 205.369C369.841 205.327 369.565 204.956 369.459 204.644C369.447 204.597 369.417 204.55 369.394 204.497C369.258 204.226 369.023 203.766 369.394 203.118C369.794 202.417 371.278 201.704 371.449 201.622L372.597 201.18L373.61 200.167L375.976 199.477L378.002 200.314L379.168 201.522C379.374 202.069 379.715 202.553 379.839 202.553C380.11 202.417 380.31 202.317 380.451 202.246C380.322 201.745 380.045 200.644 380.045 200.255C380.045 200.013 379.586 198.8 379.156 197.81L378.685 196.001C378.473 194.181 378.685 194.022 378.791 193.933C379.091 193.698 379.545 193.857 379.633 193.892L379.721 193.945L381.105 195.171V196.691L382.43 198.11L384.579 198.01V199.147C384.596 199.259 384.667 199.46 384.738 199.507C384.744 199.507 384.761 199.524 384.82 199.507C385.368 199.324 387.387 198.682 387.387 198.682L387.546 198.635L389.271 200.084L390.802 200.002L391.78 199.277L392.739 198.682L396.202 197.663L396.461 200.868L396.496 202.105H397.043L397.827 201.357L399.934 198.918L402.46 198.499L404.209 197.539L406.052 195.713L407.265 194.658L408.077 193.333L408.254 191.842L408.884 188.967L409.02 188.902C410.068 188.431 411.816 187.624 412.034 187.465C412.264 187.306 412.988 186.587 413.335 186.239L413.418 184.855L413.877 178.857V177.131L415.573 177.526L416.58 177.449L417.581 176.13V171.022L416.056 170.203L416.091 170.174Z" fill="#E6E6E6"/>
<path d="M240.215 295.388L233.998 293.544L236.603 278.641L242.821 280.476L240.215 295.388Z" fill="#FFB573"/>
<path d="M294.171 304.614H287.687L286.07 289.572H292.555L294.171 304.614Z" fill="#FFB573"/>
<path d="M287.154 303.864H295.058C295.324 303.864 295.548 304.045 295.608 304.304L296.889 310.076C297.018 310.67 296.554 311.239 295.943 311.23C293.398 311.187 291.549 311.04 288.341 311.04C286.372 311.04 280.429 311.247 277.711 311.247C274.994 311.247 274.633 308.551 275.751 308.31C280.747 307.215 284.505 305.708 286.105 304.269C286.397 304.011 286.767 303.873 287.154 303.873V303.864Z" fill="#263238"/>
<path d="M234.255 292.837L241.041 294.845C241.299 294.922 241.462 295.163 241.445 295.431L241.041 301.332C240.998 301.943 240.404 302.357 239.82 302.176C237.386 301.409 233.886 300.22 230.807 299.307C227.212 298.239 224.039 297.515 219.825 296.266C217.27 295.508 217.331 292.717 218.466 292.794C223.643 293.165 227.651 294.233 232.613 292.881C233.155 292.734 233.714 292.682 234.255 292.837Z" fill="#263238"/>
<path d="M279.414 106.385C276.086 108.745 272.749 110.925 269.309 113.036C265.869 115.129 262.36 117.145 258.731 119.014L257.363 119.712L256.985 119.902C256.779 120.005 256.572 120.108 256.357 120.195C255.927 120.376 255.489 120.522 255.05 120.634C253.261 121.099 251.533 120.961 250.105 120.617C247.233 119.902 245.229 118.532 243.414 117.162C239.862 114.311 237.248 111.106 234.917 107.496L238.684 104.404C241.514 106.824 244.618 109.245 247.628 110.882C249.107 111.7 250.664 112.278 251.696 112.346C252.212 112.381 252.522 112.278 252.651 112.191C252.685 112.166 252.711 112.14 252.737 112.122C252.754 112.114 252.762 112.088 252.78 112.079L253.055 111.907L254.285 111.14C257.553 109.081 260.821 106.936 264.071 104.765L273.832 98.2783L279.422 106.376L279.414 106.385Z" fill="#FFB573"/>
<path d="M260.812 104.447L267.864 119.695C299.073 109.357 289.459 85.3646 260.812 104.447Z" fill="#263238"/>
<path opacity="0.2" d="M277.385 105.222C273.067 109.503 270.367 114.259 268.845 119.35C275.183 117.136 279.75 114.353 282.742 111.519L277.385 105.222Z" fill="black"/>
<path d="M239.372 105.868L237.076 99.3467L231.589 104.498C231.589 104.498 232.664 107.35 235.778 108.341L239.364 105.868H239.372Z" fill="#FFB573"/>
<path d="M233.352 97.5889L229.078 102.336L231.589 104.489L237.076 99.3377L233.352 97.5889Z" fill="#FFB573"/>
<path opacity="0.2" d="M236.603 278.641L235.262 286.325L241.48 288.169L242.821 280.484L236.603 278.641Z" fill="black"/>
<path opacity="0.2" d="M292.555 289.582H286.07L286.904 297.335H293.389L292.555 289.582Z" fill="black"/>
<path d="M309.015 102.861C311.019 103.576 312.016 105.808 311.26 107.798C309.067 113.544 307.329 119.368 305.928 124.941C304.689 129.861 303.726 134.573 302.961 138.872C301.155 148.934 300.406 156.679 299.779 159.255C294.791 158.272 276.008 154.559 265.766 152.535C272.121 101.888 276.989 97.5374 276.989 97.5374C276.989 97.5374 280.884 97.2531 285.331 97.5546C285.915 97.5891 286.509 97.6408 287.111 97.7097C291.007 98.1146 297.267 99.5016 301.576 100.561C302.479 100.785 303.391 101.035 304.276 101.294C306.014 101.802 307.656 102.362 309.024 102.853L309.015 102.861Z" fill="#263238"/>
<path opacity="0.2" d="M302.841 112.441C302.101 118.196 303.073 123.27 305.214 127.871C305.438 126.906 305.67 125.924 305.919 124.942C306.848 121.246 307.923 117.438 309.205 113.613L302.841 112.441Z" fill="black"/>
<path d="M303.348 83.9775L292.976 89.8184C293.165 93.6176 292.537 97.5029 287.111 97.7183C285.915 99.0967 284.711 102.345 288.642 105.222L287.782 107.901C295.53 107.333 299.933 103.094 301.576 100.57C298.936 96.8137 301.524 88.4573 303.356 83.9775H303.348Z" fill="#FFB573"/>
<path d="M277.814 155.137C277.814 155.137 277.797 155.137 277.788 155.137C277.668 155.119 277.591 155.016 277.599 154.895C281.323 126.018 288.358 105.36 288.427 105.153C288.461 105.041 288.59 104.981 288.702 105.024C288.814 105.067 288.874 105.187 288.839 105.299C288.771 105.506 281.753 126.13 278.038 154.956C278.021 155.068 277.935 155.145 277.823 155.145L277.814 155.137Z" fill="white"/>
<path d="M283.585 107.729C283.585 107.729 285.795 106.247 288.633 105.222C287.704 104.232 287.128 99.5795 287.851 97.4258C286.991 97.4258 286.113 97.4258 286.113 97.4258C286.113 97.4258 282.192 98.83 283.585 107.729Z" fill="white"/>
<path d="M294.645 110.495C294.645 110.495 294.12 108.737 291.85 106.868C294.645 106.006 299.426 103.611 301.052 99.3555C301.722 99.8982 302.797 100.656 302.797 100.656C302.797 100.656 304.449 107.049 294.653 110.495H294.645Z" fill="white"/>
<path d="M289.622 109.961C289.51 110.495 289.166 110.926 288.84 110.926C288.513 110.926 288.341 110.486 288.444 109.952C288.547 109.418 288.9 108.987 289.227 108.987C289.553 108.987 289.725 109.427 289.622 109.961Z" fill="white"/>
<path opacity="0.2" d="M299.117 86.3555L292.976 89.81C293.028 90.706 293.019 91.6106 292.916 92.4721C294.954 92.5754 298.11 90.9386 298.73 88.8969C299.039 87.8803 299.194 86.8724 299.117 86.3555Z" fill="black"/>
<path d="M292.933 64.543C288.487 65.6199 286.38 74.7258 291.927 77.81C302.772 75.3633 305.438 61.5106 292.933 64.543Z" fill="#263238"/>
<path d="M306.814 76.6467C304.982 82.8236 304.225 86.5366 300.321 89.0177C294.455 92.7566 287.395 88.0959 287.343 81.4969C287.3 75.5526 290.302 66.4467 297.001 65.3698C303.597 64.3102 308.645 70.4612 306.814 76.6381V76.6467Z" fill="#FFB573"/>
<path d="M308.043 68.0746C301.748 66.5498 299.848 79.8253 305.403 82.9095C318.183 80.0321 314.691 69.6856 308.043 68.0746Z" fill="#263238"/>
<path d="M306.521 64.3617C299.598 63.0608 295.35 57.4697 295.35 57.4697C295.35 57.4697 289.562 61.9581 291.205 65.4385C292.847 68.9189 300.613 72.8387 304.337 72.9766C304.337 72.9766 302.6 81.1866 309.987 76.569C319.868 70.3921 313.031 65.585 306.513 64.3617H306.521Z" fill="#263238"/>
<path d="M312.361 72.8902C312.361 72.8902 315.035 74.1825 316.171 77.258C316.712 72.4164 313.358 72.761 312.361 72.8902Z" fill="#263238"/>
<path d="M296.184 68.9275C296.184 68.9275 291.437 67.7301 288.59 63.1211C289.296 71.1243 294.61 69.4703 296.184 68.9275Z" fill="#263238"/>
<path d="M293.105 82.5826C295.694 83.1598 297.268 81.6522 297.337 81.5919C297.405 81.5316 297.405 81.4196 297.337 81.3593C297.276 81.2904 297.165 81.2904 297.104 81.3593C297.087 81.3765 295.582 82.8066 293.174 82.2639C293.088 82.2466 292.994 82.2983 292.976 82.3931C292.959 82.4792 293.011 82.5654 293.097 82.5912L293.105 82.5826Z" fill="#263238"/>
<path d="M307.381 83.0475C306.315 84.2019 304.904 84.7705 303.726 84.8308C301.963 84.9255 301.679 83.125 302.668 81.5657C303.563 80.1529 305.558 78.4127 307.089 79.0588C308.594 79.6963 308.602 81.7294 307.381 83.0475Z" fill="#FFB573"/>
<path d="M233.353 284.197L243.879 287.307C243.879 287.307 254.414 251.391 260.959 229.122C262.696 223.221 265.353 214.916 268.509 206.111C272.491 195.015 277.238 183.075 281.065 173.737C285.107 163.898 288.109 156.963 288.109 156.963L265.749 152.544C265.749 152.544 246.958 203.984 242.813 223.358C238.495 243.509 233.353 284.206 233.353 284.206V284.197Z" fill="#407BFF"/>
<path opacity="0.2" d="M268.509 206.112C272.491 195.016 277.238 183.075 281.065 173.737L279.362 168.396C272.93 174.348 268.836 194.783 268.509 206.12V206.112Z" fill="black"/>
<path d="M277.814 154.922C277.814 154.922 273.308 210.565 273.299 229.587C273.282 250.427 283.912 295.827 283.912 295.827H295.788C295.788 295.827 291.153 255.656 291.058 235.213C290.955 212.073 299.77 159.255 299.77 159.255L277.823 154.913L277.814 154.922Z" fill="#407BFF"/>
<path d="M282.493 296.086H296.468V291.908L280.842 291.632L282.493 296.086Z" fill="#263238"/>
<path d="M232.622 284.249L244.507 287.763L246.304 283.671L232.759 279.64L232.622 284.249Z" fill="#263238"/>
<path d="M296.915 76.207C296.795 76.7153 296.434 77.0685 296.098 76.991C295.763 76.9135 295.591 76.4396 295.711 75.9313C295.832 75.4231 296.193 75.0699 296.528 75.1474C296.864 75.2249 297.036 75.6987 296.915 76.207Z" fill="#263238"/>
<path d="M291.162 74.8721C291.041 75.3804 290.68 75.7336 290.345 75.656C290.009 75.5785 289.837 75.1047 289.958 74.5964C290.078 74.0881 290.439 73.7349 290.775 73.8124C291.11 73.89 291.282 74.3638 291.162 74.8721Z" fill="#263238"/>
<path d="M292.933 75.5526C292.933 75.5526 291.093 78.2318 289.493 79.3517C290.198 80.4028 291.918 80.2563 291.918 80.2563L292.933 75.5439V75.5526Z" fill="#ED893E"/>
<path d="M299.134 74.7512C299.022 74.7512 298.919 74.6823 298.867 74.5703C298.308 73.3211 297.19 73.1316 297.182 73.123C297.018 73.0971 296.898 72.9421 296.924 72.7698C296.95 72.6061 297.105 72.4855 297.277 72.5113C297.337 72.5199 298.73 72.7611 299.427 74.3118C299.495 74.4669 299.426 74.6478 299.272 74.7167C299.229 74.734 299.177 74.7426 299.134 74.7426V74.7512Z" fill="#263238"/>
<path d="M289.149 72.3129C289.089 72.3129 289.02 72.287 288.969 72.244C288.84 72.1406 288.814 71.9425 288.926 71.8132C289.992 70.4865 291.402 70.6158 291.463 70.6244C291.635 70.6416 291.755 70.7967 291.738 70.9604C291.721 71.1327 291.566 71.2533 291.402 71.236C291.351 71.236 290.259 71.1413 289.399 72.2009C289.338 72.2784 289.235 72.3215 289.141 72.3129H289.149Z" fill="#263238"/>
<path d="M285.013 304.993C284.523 304.993 284.058 304.907 283.766 304.665C283.534 304.467 283.43 304.2 283.448 303.856C283.465 303.597 283.602 303.477 283.714 303.425C284.437 303.054 286.526 304.347 286.759 304.493C286.81 304.528 286.836 304.588 286.827 304.648C286.819 304.708 286.776 304.76 286.716 304.769C286.268 304.881 285.623 305.001 285.021 305.001L285.013 304.993ZM284.05 303.649C283.972 303.649 283.903 303.657 283.852 303.683C283.809 303.701 283.766 303.744 283.757 303.864C283.74 304.105 283.809 304.295 283.964 304.424C284.316 304.726 285.168 304.76 286.268 304.545C285.537 304.123 284.548 303.649 284.058 303.649H284.05Z" fill="#407BFF"/>
<path d="M286.672 304.77C286.672 304.77 286.621 304.77 286.595 304.752C285.924 304.391 284.625 302.96 284.763 302.237C284.789 302.108 284.883 301.875 285.253 301.832C285.494 301.806 285.709 301.866 285.907 302.03C286.664 302.65 286.818 304.52 286.818 304.597C286.818 304.658 286.793 304.709 286.75 304.735C286.724 304.752 286.698 304.761 286.664 304.761L286.672 304.77ZM285.365 302.133C285.365 302.133 285.322 302.133 285.296 302.133C285.098 302.159 285.081 302.245 285.073 302.289C284.995 302.719 285.821 303.788 286.483 304.296C286.406 303.744 286.199 302.659 285.718 302.263C285.606 302.168 285.494 302.125 285.365 302.125V302.133Z" fill="#407BFF"/>
<path d="M233.395 293.518C233.395 293.518 233.378 293.518 233.37 293.518C232.312 293.423 230.454 293.139 229.955 292.329C229.801 292.088 229.783 291.821 229.895 291.528C229.964 291.355 230.084 291.243 230.256 291.209C231.125 291.019 233.258 293.018 233.499 293.251C233.542 293.294 233.559 293.363 233.533 293.423C233.507 293.475 233.464 293.509 233.404 293.509L233.395 293.518ZM230.36 291.502C230.36 291.502 230.334 291.502 230.317 291.502C230.248 291.519 230.205 291.554 230.179 291.631C230.102 291.829 230.119 292.002 230.213 292.157C230.497 292.605 231.503 292.975 232.94 293.147C232.08 292.372 230.867 291.442 230.36 291.493V291.502Z" fill="#407BFF"/>
<path d="M233.396 293.518C233.396 293.518 233.31 293.509 233.284 293.483C232.63 292.924 231.547 291.14 231.865 290.468C231.942 290.313 232.123 290.141 232.536 290.218C232.845 290.279 233.095 290.442 233.275 290.709C233.877 291.597 233.542 293.32 233.533 293.397C233.525 293.449 233.482 293.492 233.43 293.509C233.421 293.509 233.404 293.509 233.396 293.509V293.518ZM232.303 290.503C232.183 290.511 232.157 290.572 232.149 290.597C231.959 291.002 232.656 292.355 233.284 293.044C233.353 292.527 233.421 291.459 233.026 290.882C232.888 290.684 232.708 290.563 232.484 290.52C232.407 290.503 232.355 290.503 232.303 290.511V290.503Z" fill="#407BFF"/>
<path d="M310.494 104.628C310.993 105.119 311.337 105.481 311.733 105.912C312.12 106.325 312.481 106.747 312.842 107.169C313.564 108.014 314.261 108.866 314.949 109.737C316.308 111.485 317.563 113.312 318.724 115.216C319.885 117.128 320.952 119.11 321.863 121.203C322.784 123.288 323.575 125.467 324.125 127.768L324.332 128.646L324.521 129.654C324.615 130.318 324.701 130.981 324.727 131.627C324.787 132.919 324.727 134.168 324.598 135.375C324.34 137.787 323.738 140.018 323.042 142.154C321.562 146.427 319.593 150.218 317.056 153.879L312.79 151.527L313.719 148.753C314.02 147.814 314.278 146.858 314.553 145.911C315.069 144.015 315.525 142.129 315.835 140.268C316.17 138.416 316.334 136.581 316.325 134.866C316.325 134.013 316.248 133.195 316.119 132.437C316.067 132.049 315.981 131.696 315.895 131.343L315.749 130.843L315.542 130.231C314.381 126.889 312.601 123.598 310.503 120.454C309.445 118.886 308.327 117.344 307.149 115.836C306.564 115.078 305.962 114.337 305.343 113.622L304.414 112.554L303.545 111.58L310.503 104.628H310.494Z" fill="#FFB573"/>
<path d="M300.837 114.027C302.858 119.738 305.214 124.08 308.534 127.276L320.978 115.405C309.574 93.1526 297.758 105.317 300.837 114.027Z" fill="#263238"/>
<path d="M313.513 150.493L308.654 154.938L316.273 158.178C316.273 158.178 319.576 153.474 317.28 151.441L313.513 150.493Z" fill="#FFB573"/>
<path d="M307.716 160.28L314.141 162.657L316.273 158.169L308.654 154.938L307.716 160.28Z" fill="#FFB573"/>
<path d="M192.571 34.3561L142.175 46.7615L138.873 39.7318C138.589 39.1201 137.91 38.7927 137.248 38.9564L106.038 46.6409C105.385 46.8046 104.929 47.4076 104.963 48.0796L105.29 55.8416L85.166 60.7952C83.9878 61.0881 83.274 62.277 83.5578 63.4486L100.173 131.17C100.465 132.351 101.652 133.066 102.822 132.781L210.236 106.334C211.414 106.041 212.128 104.852 211.844 103.68L195.229 35.9584C194.936 34.7782 193.75 34.0632 192.58 34.3474L192.571 34.3561Z" fill="#407BFF"/>
<path opacity="0.5" d="M192.571 34.3561L142.175 46.7615L138.873 39.7318C138.589 39.1201 137.91 38.7927 137.248 38.9564L106.038 46.6409C105.385 46.8046 104.929 47.4076 104.963 48.0796L105.29 55.8416L85.166 60.7952C83.9878 61.0881 83.274 62.277 83.5578 63.4486L100.173 131.17C100.465 132.351 101.652 133.066 102.822 132.781L210.236 106.334C211.414 106.041 212.128 104.852 211.844 103.68L195.229 35.9584C194.936 34.7782 193.75 34.0632 192.58 34.3474L192.571 34.3561Z" fill="white"/>
<path d="M135.238 42.1273L109.282 48.5186L110.13 51.9737L136.086 45.5824L135.238 42.1273Z" fill="white"/>
<path d="M194.077 56.858L139.897 70.1939L136.594 63.1641C136.31 62.5525 135.631 62.2251 134.969 62.3888L103.759 70.0733C103.106 70.237 102.65 70.84 102.684 71.512L103.011 79.274L86.6626 83.2972C85.4844 83.5901 84.7706 84.7789 85.0544 85.9506L101.67 153.672C101.962 154.853 103.149 155.568 104.318 155.283L211.732 128.836C212.911 128.543 213.624 127.354 213.341 126.182L196.725 58.4604C196.433 57.2801 195.246 56.5651 194.077 56.8494V56.858Z" fill="#407BFF"/>
<path opacity="0.4" d="M194.077 56.858L139.897 70.1939L136.594 63.1641C136.31 62.5525 135.631 62.2251 134.969 62.3888L103.759 70.0733C103.106 70.237 102.65 70.84 102.684 71.512L103.011 79.274L86.6626 83.2972C85.4844 83.5901 84.7706 84.7789 85.0544 85.9506L101.67 153.672C101.962 154.853 103.149 155.568 104.318 155.283L211.732 128.836C212.911 128.543 213.624 127.354 213.341 126.182L196.725 58.4604C196.433 57.2801 195.246 56.5651 194.077 56.8494V56.858Z" fill="white"/>
<path d="M132.967 65.5628L107.011 71.9541L107.859 75.4092L133.815 69.0179L132.967 65.5628Z" fill="white"/>
<path d="M195.59 79.36L137.626 93.6263L134.323 86.5965C134.04 85.9848 133.36 85.6575 132.698 85.8211L101.489 93.5056C100.835 93.6693 100.379 94.2724 100.414 94.9443L100.74 102.706L88.1757 105.799C86.9975 106.092 86.2838 107.281 86.5676 108.453L103.183 176.174C103.475 177.355 104.662 178.07 105.832 177.785L213.246 151.338C214.424 151.045 215.138 149.856 214.854 148.684L198.239 80.9623C197.946 79.7821 196.759 79.0671 195.59 79.3514V79.36Z" fill="#407BFF"/>
<path opacity="0.3" d="M195.59 79.36L137.626 93.6263L134.323 86.5965C134.04 85.9848 133.36 85.6575 132.698 85.8211L101.489 93.5056C100.835 93.6693 100.379 94.2724 100.414 94.9443L100.74 102.706L88.1757 105.799C86.9975 106.092 86.2838 107.281 86.5676 108.453L103.183 176.174C103.475 177.355 104.662 178.07 105.832 177.785L213.246 151.338C214.424 151.045 215.138 149.856 214.854 148.684L198.239 80.9623C197.946 79.7821 196.759 79.0671 195.59 79.3514V79.36Z" fill="white"/>
<path d="M130.695 88.9983L104.739 95.3896L105.587 98.8448L131.543 92.4534L130.695 88.9983Z" fill="white"/>
<path d="M238.728 103.637L175.234 106.876L173.316 99.3465C173.153 98.6917 172.542 98.2438 171.871 98.2782L139.767 99.9151C139.097 99.9495 138.538 100.458 138.434 101.121L137.291 108.806L128.252 109.262C127.048 109.323 126.111 110.356 126.179 111.562L129.714 181.205C129.774 182.411 130.806 183.35 132.01 183.282L242.477 177.647C243.69 177.587 244.619 176.553 244.55 175.347L241.015 105.704C240.955 104.49 239.923 103.559 238.719 103.628L238.728 103.637Z" fill="#407BFF"/>
<path opacity="0.2" d="M238.728 103.637L175.234 106.876L173.316 99.3465C173.153 98.6917 172.542 98.2438 171.871 98.2782L139.767 99.9151C139.097 99.9495 138.538 100.458 138.434 101.121L137.291 108.806L128.252 109.262C127.048 109.323 126.111 110.356 126.179 111.562L129.714 181.205C129.774 182.411 130.806 183.35 132.01 183.282L242.477 177.647C243.69 177.587 244.619 176.553 244.55 175.347L241.015 105.704C240.955 104.49 239.923 103.559 238.719 103.628L238.728 103.637Z" fill="white"/>
<path d="M169.29 101.016L142.595 102.375L142.776 105.928L169.47 104.569L169.29 101.016Z" fill="white"/>
<path d="M198.609 124.365L133.085 140.492L129.783 133.462C129.499 132.851 128.82 132.523 128.158 132.687L96.9482 140.371C96.2946 140.535 95.8388 141.138 95.8732 141.81L96.2 149.572L91.1948 150.804C90.0166 151.097 89.3028 152.286 89.5866 153.457L106.202 221.179C106.494 222.359 107.681 223.074 108.851 222.79L216.265 196.342C217.443 196.049 218.157 194.861 217.873 193.689L201.258 125.967C200.965 124.787 199.778 124.072 198.609 124.356V124.365Z" fill="#407BFF"/>
<path opacity="0.1" d="M198.609 124.365L133.085 140.492L129.783 133.462C129.499 132.851 128.82 132.523 128.158 132.687L96.9482 140.371C96.2946 140.535 95.8388 141.138 95.8732 141.81L96.2 149.572L91.1948 150.804C90.0166 151.097 89.3028 152.286 89.5866 153.457L106.202 221.179C106.494 222.359 107.681 223.074 108.851 222.79L216.265 196.342C217.443 196.049 218.157 194.861 217.873 193.689L201.258 125.967C200.965 124.787 199.778 124.072 198.609 124.356V124.365Z" fill="white"/>
<path d="M126.16 135.854L100.204 142.245L101.051 145.7L127.008 139.309L126.16 135.854Z" fill="white"/>
<path d="M200.124 146.853L92.717 173.301C91.5409 173.59 90.8218 174.78 91.1109 175.958L107.727 243.672C108.016 244.85 109.204 245.57 110.38 245.281L217.787 218.833C218.963 218.544 219.682 217.354 219.393 216.176L202.777 148.462C202.488 147.284 201.3 146.564 200.124 146.853Z" fill="#407BFF"/>
<path d="M129.963 166.104L95.6924 174.538C94.8238 174.753 93.9724 174.116 93.938 173.22L93.6026 165.251C93.5768 164.579 94.024 163.976 94.6776 163.812L125.887 156.128C126.541 155.964 127.22 156.292 127.512 156.903L130.901 164.123C131.279 164.932 130.823 165.897 129.955 166.104H129.963Z" fill="#407BFF"/>
<path d="M123.888 159.281L97.9321 165.672L98.78 169.127L124.736 162.736L123.888 159.281Z" fill="white"/>
</g>
<defs>
<clipPath id="clip0_1200_6016">
<rect width="430" height="321" fill="white"/>
</clipPath>
</defs>
</svg>
