<svg width="360" height="223" viewBox="0 0 360 223" fill="none" xmlns="http://www.w3.org/2000/svg">
<path d="M353.216 9H277.314C274.379 9 272 11.3794 272 14.3145V84.3156C272 87.2507 274.379 89.63 277.314 89.63H353.216C356.151 89.63 358.53 87.2507 358.53 84.3156V14.3145C358.53 11.3794 356.151 9 353.216 9Z" fill="#EDEDED"/>
<path d="M353.216 9H277.314C274.379 9 272 11.3794 272 14.3145V84.3156C272 87.2507 274.379 89.63 277.314 89.63H353.216C356.151 89.63 358.53 87.2507 358.53 84.3156V14.3145C358.53 11.3794 356.151 9 353.216 9Z" stroke="#DED8D5" stroke-width="1.97" stroke-miterlimit="10"/>
<path d="M296.301 68.6562H334.487C337.436 68.6562 339.828 66.265 339.828 63.3152V32.4934C339.828 29.5436 337.436 27.1523 334.487 27.1523L296.301 27.1523C293.351 27.1523 290.96 29.5436 290.96 32.4934V63.3152C290.96 66.265 293.351 68.6562 296.301 68.6562Z" fill="#C98BD2"/>
<path d="M326.546 54.8067H307.444H303.993V39.6797H326.546V43.4592V54.8067Z" stroke="white" stroke-width="1.65" stroke-linecap="round" stroke-linejoin="round"/>
<path d="M303.993 39.6797L315.27 48.5696L326.546 39.6797" stroke="white" stroke-width="1.65" stroke-linecap="round" stroke-linejoin="round"/>
<path d="M77.9665 1H6.03354C3.2536 1 1 3.25361 1 6.03356V68.4283C1 71.2082 3.2536 73.4618 6.03354 73.4618H77.9665C80.7464 73.4618 83 71.2082 83 68.4283V6.03356C83 3.25361 80.7464 1 77.9665 1Z" fill="#EDEDED"/>
<path d="M77.9665 1H6.03354C3.2536 1 1 3.25361 1 6.03356V68.4283C1 71.2082 3.2536 73.4618 6.03354 73.4618H77.9665C80.7464 73.4618 83 71.2082 83 68.4283V6.03356C83 3.25361 80.7464 1 77.9665 1Z" stroke="#DED8D5" stroke-width="1.97" stroke-miterlimit="10"/>
<path d="M59.657 13.4121H23.9461C20.7134 13.4121 18.0928 16.0328 18.0928 19.2655V53.654C18.0928 56.8867 20.7134 59.5073 23.9461 59.5073H59.657C62.8897 59.5073 65.5103 56.8867 65.5103 53.654V19.2655C65.5103 16.0328 62.8897 13.4121 59.657 13.4121Z" fill="#FFB1A5"/>
<path d="M32.612 27.4108C27.4021 32.6207 27.4021 41.1627 32.612 46.3725C37.8218 51.5824 46.3639 51.5824 51.5737 46.3725C56.7836 41.1627 56.7836 32.6207 51.5737 27.4108C46.3639 22.201 37.8218 22.201 32.612 27.4108ZM51.5384 29.3414H47.263C46.8311 28.0014 46.2845 26.6615 45.6057 25.3128C47.9682 26.0268 50.031 27.4549 51.5384 29.3414ZM37.1695 36.1027C37.1695 34.3661 37.3722 32.6382 37.8042 30.9016H46.3815C46.8134 32.6382 47.0162 34.3661 47.0162 36.1027H37.1695ZM46.9633 37.6718C46.8487 39.3996 46.5313 41.1362 46.0465 42.8728H38.148C37.6631 41.145 37.3458 39.4084 37.2312 37.6718H46.9721H46.9633ZM42.0972 24.7926C42.7408 24.7926 43.3755 24.8456 43.9925 24.9425C44.8124 26.4059 45.4559 27.878 45.9319 29.3414H38.2538C38.7298 27.878 39.3733 26.4059 40.1931 24.9425C40.8102 24.8456 41.4449 24.7926 42.0884 24.7926H42.0972ZM38.5799 25.3128C37.9012 26.6527 37.3458 27.9926 36.9227 29.3414H32.6472C34.1547 27.4549 36.2174 26.0356 38.5799 25.3128ZM31.5806 30.9105H36.4731C36.0411 32.6471 35.8207 34.3749 35.7855 36.1115H30.0203C30.1437 34.2338 30.6902 32.4619 31.5718 30.9105H31.5806ZM31.5806 42.8728C30.6991 41.3213 30.1437 39.5583 30.0291 37.6718H35.8119C35.9001 39.3996 36.1734 41.1362 36.6318 42.8728H31.5806ZM32.6472 44.442H37.0902C37.5309 45.7995 38.0863 47.1571 38.7386 48.5147C36.3056 47.8094 34.1811 46.3637 32.6384 44.442H32.6472ZM42.0972 48.9907C41.5595 48.9907 41.0306 48.9554 40.5105 48.8849C39.77 47.4039 39.1441 45.923 38.6328 44.442H45.5528C45.0504 45.923 44.4157 47.4039 43.6752 48.8849C43.1551 48.9554 42.6262 48.9907 42.0884 48.9907H42.0972ZM45.4471 48.5235C46.1082 47.1659 46.6548 45.8083 47.0955 44.4508H51.5384C49.9958 46.3813 47.8801 47.8271 45.4382 48.5235H45.4471ZM52.6139 42.8817H47.5627C48.0211 41.145 48.2944 39.4172 48.3826 37.6806H54.1654C54.042 39.5583 53.4954 41.3302 52.6139 42.8817ZM54.1654 36.1203H48.4002C48.3649 34.3837 48.1445 32.6559 47.7126 30.9193H52.6051C53.4866 32.4708 54.042 34.2339 54.1566 36.1203H54.1654Z" fill="white"/>
<path d="M292.32 148.72H215.86C214.28 148.72 213 147.44 213 145.86C213 144.28 214.28 143 215.86 143H292.32C293.9 143 295.18 144.28 295.18 145.86C295.18 147.44 293.9 148.72 292.32 148.72Z" fill="#C98BD2"/>
<path d="M179.97 86.72H142.86C141.28 86.72 140 85.44 140 83.86C140 82.28 141.28 81 142.86 81H179.97C181.55 81 182.83 82.28 182.83 83.86C182.83 85.44 181.55 86.72 179.97 86.72Z" fill="#56DFED"/>
<path d="M311.99 167H308.86C307.28 167 306 168.28 306 169.86V172.71C306 174.289 307.28 175.57 308.86 175.57H311.99C313.57 175.57 314.85 174.289 314.85 172.71V169.86C314.85 168.28 313.57 167 311.99 167Z" fill="#C98BD2"/>
<path d="M235.99 19H232.86C231.28 19 230 20.2805 230 21.86V24.71C230 26.2896 231.28 27.57 232.86 27.57H235.99C237.57 27.57 238.85 26.2896 238.85 24.71V21.86C238.85 20.2805 237.57 19 235.99 19Z" fill="#FFB1A5"/>
<path d="M311.06 193.5H237.07C235.408 193.5 234.06 194.848 234.06 196.51V213.46C234.06 215.122 235.408 216.47 237.07 216.47H311.06C312.722 216.47 314.07 215.122 314.07 213.46V196.51C314.07 194.848 312.722 193.5 311.06 193.5Z" fill="#FFB1A5"/>
<path d="M244.96 201.68H298.63" stroke="white" stroke-width="1.18" stroke-miterlimit="10"/>
<path d="M244.96 207.19H266.82" stroke="white" stroke-width="1.18" stroke-miterlimit="10"/>
<path d="M242.78 213.87V222.82L254.04 213.87H242.78Z" fill="#FFB1A5"/>
<path d="M78.46 139H113.37C116.94 139 119.83 141.89 119.83 145.46V177.8C119.83 181.37 116.94 184.26 113.37 184.26H80.52C75.82 184.26 72 180.44 72 175.74V145.46C72 141.89 74.89 139 78.46 139Z" fill="#56DFED"/>
<path d="M107.07 164.97L104.35 162.25C103.86 161.72 103.23 161.42 102.6 161.42C101.97 161.42 101.34 161.71 100.85 162.2L99.29 163.76C99.19 163.71 99.1 163.66 99 163.61C98.81 163.51 98.66 163.46 98.51 163.37C97.05 162.45 95.74 161.23 94.47 159.67C93.89 158.94 93.45 158.26 93.21 157.68C93.6 157.34 93.94 156.95 94.28 156.61C94.43 156.46 94.57 156.32 94.72 156.17C95.25 155.64 95.55 155 95.55 154.37C95.55 153.74 95.26 153.11 94.72 152.57L93.36 151.21C93.21 151.06 93.07 150.92 92.92 150.72L92 149.8C91.51 149.31 90.88 149.02 90.25 149.02C89.62 149.02 89.03 149.26 88.5 149.8L86.8 151.5C86.17 152.13 85.78 152.96 85.68 153.88C85.58 155.34 85.97 156.7 86.31 157.58C87.09 159.82 88.3 161.81 90.1 163.95C92.29 166.53 94.87 168.57 97.88 170.03C99 170.56 100.55 171.2 102.26 171.34H102.6C103.77 171.34 104.74 170.9 105.52 170.08L105.57 170.03C105.81 169.74 106.11 169.45 106.45 169.15L107.08 168.52C108.1 167.45 108.1 165.99 107.08 164.97H107.07ZM105.95 167.5C105.76 167.69 105.56 167.89 105.37 168.08C105.03 168.37 104.74 168.71 104.4 169.05C103.91 169.54 103.38 169.78 102.65 169.78H102.41C100.95 169.68 99.59 169.1 98.62 168.61C95.85 167.25 93.42 165.35 91.37 162.92C89.72 160.93 88.6 159.03 87.82 157.04C87.33 155.87 87.14 154.95 87.24 154.02C87.29 153.49 87.48 153 87.92 152.61L89.57 150.96C89.72 150.81 89.96 150.62 90.25 150.62C90.54 150.62 90.74 150.77 90.93 150.96C91.22 151.25 91.51 151.54 91.81 151.84C91.96 151.99 92.1 152.18 92.3 152.33L93.66 153.69C93.81 153.84 94 154.13 94 154.37C94 154.66 93.81 154.9 93.66 155.05L93.22 155.49L92 156.71L91.95 156.76C91.46 157.25 91.56 157.68 91.66 157.98V158.03C92 158.91 92.54 159.68 93.26 160.66C94.62 162.36 96.08 163.68 97.69 164.7C97.88 164.85 98.13 164.94 98.32 165.04C98.51 165.14 98.66 165.19 98.81 165.28L98.86 165.33C99.35 165.57 99.83 165.48 100.22 165.09L101.92 163.39C102.07 163.24 102.31 163.05 102.6 163.05C102.84 163.05 103.09 163.24 103.23 163.39L105.95 166.11C106.39 166.55 106.39 167.03 105.95 167.52V167.5Z" fill="white"/>
</svg>
