<svg width="430" height="321" viewBox="0 0 430 321" fill="none" xmlns="http://www.w3.org/2000/svg">
<g clip-path="url(#clip0_1200_7095)">
<path d="M430 282.095H0V282.31H430V282.095Z" fill="#EBEBEB"/>
<path d="M386.914 295.956H358.431V296.171H386.914V295.956Z" fill="#EBEBEB"/>
<path d="M284.849 298.3H277.376V298.515H284.849V298.3Z" fill="#EBEBEB"/>
<path d="M357.571 287.962H341.067V288.177H357.571V287.962Z" fill="#EBEBEB"/>
<path d="M82.2591 289.409H45.1157V289.625H82.2591V289.409Z" fill="#EBEBEB"/>
<path d="M95.3652 289.409H89.9214V289.625H95.3652V289.409Z" fill="#EBEBEB"/>
<path d="M193.629 293.045H113.064V293.26H193.629V293.045Z" fill="#EBEBEB"/>
<path d="M203.829 243.673H37.7627C35.0536 243.673 32.8521 241.467 32.8521 238.754V4.91911C32.8521 2.20542 35.0536 0 37.7627 0H203.829C206.538 0 208.739 2.20542 208.739 4.91911V238.754C208.739 241.467 206.538 243.673 203.829 243.673ZM37.7627 0.215373C35.1741 0.215373 33.0671 2.32602 33.0671 4.91911V238.754C33.0671 241.347 35.1741 243.457 37.7627 243.457H203.829C206.417 243.457 208.524 241.347 208.524 238.754V4.91911C208.524 2.32602 206.417 0.215373 203.829 0.215373H37.7627Z" fill="#EBEBEB"/>
<path d="M389.847 243.673H223.781C221.072 243.673 218.87 241.467 218.87 238.754V4.91911C218.87 2.20542 221.072 0 223.781 0H389.847C392.556 0 394.757 2.20542 394.757 4.91911V238.754C394.757 241.467 392.556 243.673 389.847 243.673ZM223.781 0.215373C221.192 0.215373 219.085 2.32602 219.085 4.91911V238.754C219.085 241.347 221.192 243.457 223.781 243.457H389.847C392.435 243.457 394.542 241.347 394.542 238.754V4.91911C394.542 2.32602 392.435 0.215373 389.847 0.215373H223.781Z" fill="#EBEBEB"/>
<path d="M179.706 122.883C179.603 116.215 179.164 109.538 177.263 102.87C175.93 107.669 175.363 112.459 175.122 117.257C175.002 108.323 174.529 99.3897 172.671 90.4561C171.183 97.8391 170.659 105.231 170.478 112.614C170.246 98.9332 169.67 85.2527 168.061 71.5808C166.427 86.2865 165.98 100.992 165.886 115.698C165.619 107.367 165 99.0365 163.572 90.7059C162.145 99.3381 161.603 107.97 161.405 116.602C161.19 100.079 160.622 83.5555 158.945 67.0322C157.415 83.0645 156.942 99.0882 156.813 115.121C156.563 103.034 155.97 90.9558 154.43 78.869C153.02 90.5078 152.487 102.138 152.298 113.777C152.057 90.301 151.481 66.834 149.769 43.3584C148.273 65.8433 147.817 88.3368 147.705 110.822C147.439 92.2824 146.828 73.7346 145.254 55.1953C143.663 75.4834 143.233 95.7629 143.139 116.051C142.881 107.6 142.261 99.1571 140.817 90.7059C139.398 99.3208 138.847 107.944 138.649 116.559C138.434 100.053 137.867 83.5383 136.19 67.0322C134.659 83.0645 134.186 99.0882 134.057 115.121C133.808 103.034 133.214 90.9558 131.675 78.869C130.049 92.3083 129.594 105.756 129.49 119.195C129.215 107.203 128.587 95.2115 127.134 83.2196C125.698 95.7456 125.182 108.263 125.001 120.789C124.786 106.979 124.227 93.1698 122.567 79.3515C121.088 92.3944 120.581 105.437 120.426 118.48C120.211 109.219 119.643 99.9583 118.052 90.7059C116.633 99.3208 116.083 107.944 115.885 116.559C115.67 100.053 115.103 83.5383 113.426 67.0322C111.903 83.0473 111.422 99.0538 111.293 115.069C111.043 102.999 110.45 90.9385 108.911 78.8777C107.371 91.5674 106.89 104.266 106.743 116.956C106.468 97.3394 105.858 77.7319 104.292 58.1157C102.77 78.8518 102.314 99.5879 102.203 120.324C101.936 104.309 101.334 88.3024 99.786 72.2873C98.3756 88.0267 97.8596 103.766 97.6876 119.506C97.4898 109.909 96.9394 100.312 95.2968 90.7231C93.6714 100.596 93.1984 110.46 93.078 120.333C92.8028 108.013 92.175 95.7026 90.7216 83.3919C89.3628 95.582 88.8124 107.763 88.606 119.954C88.434 110.71 87.9094 101.457 86.198 92.2135C84.607 101.113 84.1254 110.012 83.9878 118.903C83.7384 110.727 83.145 102.551 81.6572 94.3759C80.2124 102.646 79.6706 110.916 79.4814 119.187C79.2836 110.365 78.7332 101.535 77.0992 92.7132C75.5856 101.182 75.0696 109.659 74.9062 118.127C74.6826 108.987 74.115 99.855 72.5412 90.7145C71.062 99.6654 70.5374 108.616 70.3654 117.567C70.1332 102.215 69.557 86.8637 67.9316 71.5033C66.4524 86.4157 65.9536 101.328 65.8074 116.24C65.5752 103.783 64.999 91.3262 63.408 78.8777C61.9116 91.2573 61.4042 103.637 61.2494 116.017C61.0172 103.637 60.4324 91.2573 58.85 78.8777C57.345 91.3003 56.8462 103.723 56.6914 116.154C56.4592 105.05 55.883 93.9451 54.3092 82.8405C52.8214 93.8418 52.314 104.834 52.142 115.836C51.9098 103.327 51.3422 90.8265 49.7426 78.3177C48.1774 91.2056 47.7044 104.085 47.5668 116.973C47.3174 108.22 46.7326 99.4673 45.2276 90.7145C43.8 99.3467 43.2582 107.979 43.0604 116.611C42.8454 100.088 42.2778 83.5642 40.6008 67.0408C39.0786 83.0559 38.597 99.0624 38.468 115.077C38.2186 103.008 37.6252 90.9471 36.0858 78.8863C34.2626 93.9796 33.8842 109.064 33.8584 124.158C33.9788 139.251 34.4432 154.336 36.3782 169.429C37.8316 157.497 38.3562 145.557 38.5282 133.625C38.7604 149.503 39.3452 165.389 40.9706 181.266C42.5444 164.854 43.0088 148.443 43.112 132.04C43.3614 140.56 43.972 149.072 45.4426 157.592C46.9132 148.727 47.4464 139.863 47.627 130.998C47.8506 143.498 48.4268 156.007 50.035 168.507C51.54 156.162 52.0474 143.817 52.1936 131.472C52.4258 142.395 53.0192 153.319 54.5672 164.243C56.0378 153.44 56.5538 142.637 56.7258 131.842C56.9494 144.368 57.5256 156.903 59.1338 169.429C60.6302 157.17 61.1376 144.902 61.2924 132.643C61.5246 144.902 62.1094 157.17 63.6832 169.429C65.1022 157.773 65.6354 146.117 65.8246 134.47C66.0396 150.071 66.6158 165.673 68.2756 181.274C69.8924 165.061 70.3396 148.857 70.4342 132.643C70.7008 140.957 71.3114 149.279 72.7476 157.592C74.2784 148.348 74.7858 139.104 74.9406 129.852C75.1728 138.062 75.7576 146.281 77.2884 154.491C78.716 146.531 79.2664 138.57 79.4642 130.602C79.662 139.587 80.2124 148.572 81.8464 157.549C83.4374 148.486 83.9276 139.423 84.0566 130.36C84.306 138.234 84.9166 146.1 86.3786 153.974C87.6858 146.711 88.2448 139.449 88.4856 132.187C88.4856 132.23 88.4856 132.273 88.4856 132.325C88.606 148.633 89.079 164.949 91.0226 181.257C92.8028 165.397 93.1898 149.546 93.2328 133.686C93.5166 141.654 94.1272 149.615 95.4946 157.583C96.8104 149.649 97.3694 141.715 97.6016 133.789C97.7478 153.56 98.2466 173.331 100.156 193.103C101.618 176.907 102.117 160.719 102.271 144.523C102.521 164.665 103.131 184.807 104.748 204.94C106.434 182.093 106.829 159.255 106.864 136.408C107.148 147.418 107.767 158.419 109.177 169.429C110.631 157.497 111.155 145.557 111.327 133.625C111.559 149.503 112.144 165.389 113.77 181.266C115.343 164.863 115.808 148.46 115.911 132.057C116.169 140.569 116.771 149.081 118.242 157.583C119.618 149.305 120.177 141.034 120.392 132.755C120.581 147.177 121.114 161.598 122.851 176.011C124.279 163.459 124.812 150.915 124.984 138.364C125.199 151.88 125.767 165.397 127.409 178.914C129.06 164.562 129.499 150.2 129.594 135.848C129.869 147.039 130.497 158.23 131.933 169.42C133.386 157.471 133.911 145.531 134.083 133.582C134.315 149.477 134.9 165.363 136.525 181.257C138.099 164.854 138.563 148.452 138.667 132.049C138.925 140.56 139.527 149.072 140.997 157.575C142.382 149.227 142.949 140.879 143.156 132.54C143.371 152.725 143.938 172.909 145.658 193.094C147.103 174.744 147.602 156.386 147.748 138.036C148.006 160.332 148.617 182.636 150.242 204.931C151.799 181.619 152.237 158.298 152.323 134.987C152.59 146.462 153.209 157.937 154.68 169.42C156.133 157.463 156.658 145.514 156.83 133.556C157.062 149.46 157.647 165.354 159.272 181.257C160.846 164.846 161.31 148.434 161.414 132.023C161.672 140.543 162.274 149.063 163.744 157.583C165.258 148.469 165.774 139.363 165.937 130.248C166.178 143.489 166.771 156.731 168.337 169.98C170.005 155.051 170.444 140.121 170.521 125.183C170.788 131.937 171.398 138.682 172.809 145.436C174.185 138.622 174.752 131.816 174.976 125.002C175.131 130.972 175.647 136.942 177.349 142.912C179.216 136.244 179.611 129.568 179.663 122.9L179.706 122.883Z" fill="#F0F0F0"/>
<path d="M389.03 124.124C388.866 97.1934 388.359 70.2718 386.39 43.3416C384.893 65.8093 384.438 88.2856 384.326 110.762C384.059 92.2398 383.448 73.7092 381.875 55.1871C380.327 74.898 379.879 94.6003 379.768 114.311C379.51 102.492 378.908 90.6805 377.403 78.8609C375.855 91.654 375.373 104.447 375.235 117.24C374.995 108.393 374.41 99.5453 372.888 90.6978C371.46 99.3299 370.918 107.962 370.72 116.594C370.505 100.071 369.938 83.5474 368.261 67.024C366.687 83.5474 366.231 100.071 366.119 116.594C365.87 107.962 365.268 99.3299 363.789 90.6978C362.361 99.3299 361.819 107.962 361.622 116.594C361.407 100.071 360.839 83.5474 359.162 67.024C357.64 83.0391 357.158 99.0456 357.029 115.061C356.78 102.991 356.186 90.9304 354.647 78.8695C353.245 90.4824 352.703 102.095 352.514 113.717C352.273 90.267 351.697 66.8086 349.986 43.3589C348.489 65.8524 348.034 88.3545 347.922 110.848C347.655 92.3001 347.053 73.7436 345.479 55.1957C343.888 75.4925 343.45 95.7978 343.364 116.094C343.106 107.635 342.495 99.1662 341.042 90.7064C339.614 99.3385 339.072 107.971 338.875 116.603C338.66 100.079 338.092 83.556 336.415 67.0326C334.893 83.0563 334.411 99.0801 334.282 115.104C334.033 103.026 333.439 90.9476 331.9 78.8695C330.498 90.4824 329.956 102.095 329.767 113.717C329.526 90.267 328.95 66.8086 327.239 43.3589C325.742 65.8265 325.287 88.3028 325.175 110.779C324.908 92.257 324.298 73.7264 322.732 55.2043C321.141 75.5011 320.711 95.8064 320.617 116.103C320.359 107.643 319.748 99.1748 318.295 90.715C316.867 99.3471 316.325 107.979 316.128 116.611C315.913 100.088 315.345 83.5646 313.668 67.0412C312.137 83.0736 311.664 99.0973 311.535 115.13C311.286 103.043 310.692 90.9648 309.153 78.8781C307.743 90.4996 307.209 102.13 307.02 113.751C306.779 90.2842 306.203 66.8259 304.492 43.3589C302.995 65.8265 302.54 88.3028 302.428 110.779C302.161 92.257 301.551 73.7264 299.985 55.2043C298.394 75.4925 297.964 95.7719 297.87 116.06C297.612 107.609 296.993 99.1662 295.548 90.715C294.12 99.3471 293.578 107.979 293.381 116.611C293.166 100.088 292.598 83.5646 290.921 67.0412C289.382 83.1769 288.909 99.3127 288.788 115.448C288.539 103.577 287.945 91.7057 286.415 79.8344C284.849 92.6533 284.376 105.481 284.239 118.3C283.989 109.969 283.396 101.63 281.9 93.2995C280.334 102.362 279.836 111.417 279.698 120.479C279.457 113.252 278.872 106.024 277.367 98.7872C275.811 106.515 275.312 114.251 275.157 121.978C274.925 115.819 274.349 109.659 272.835 103.5C271.261 110.081 270.763 116.663 270.608 123.245C270.376 117.223 269.791 111.21 268.294 105.188C266.832 111.227 266.291 117.275 266.093 123.314C265.895 116.499 265.353 109.694 263.736 102.879C262.231 109.383 261.707 115.888 261.526 122.392C261.32 115.879 260.761 109.358 259.187 102.845C257.759 108.901 257.209 114.949 257.003 121.005C256.813 112.812 256.28 104.628 254.62 96.4353C253.15 103.922 252.617 111.417 252.427 118.903C252.212 109.504 251.662 100.105 250.045 90.6978C248.686 98.9508 248.127 107.204 247.904 115.448C247.715 99.304 247.19 83.1597 245.418 67.0154C243.819 82.4878 243.372 97.9601 243.26 113.432C242.993 101.906 242.374 90.379 240.903 78.8523C239.398 91.2491 238.9 103.637 238.745 116.034C238.513 103.637 237.928 91.2491 236.354 78.8523C234.944 90.491 234.41 102.121 234.221 113.76C233.98 90.2842 233.404 66.8172 231.693 43.3416C230.196 65.8351 229.741 88.3373 229.629 110.831C229.362 92.2829 228.752 73.7264 227.178 55.1785C225.587 75.4666 225.157 95.7461 225.062 116.034C224.804 107.583 224.185 99.1404 222.74 90.6891C221.321 99.304 220.771 107.928 220.573 116.542C220.358 100.036 219.79 83.5215 218.113 67.0154C216.591 83.0391 216.11 99.0542 215.981 115.078C215.731 103 215.138 90.9304 213.598 78.8523C212.274 89.7587 211.732 100.665 211.509 111.572C211.337 88.8283 210.812 66.085 208.937 43.333C207.355 64.0949 206.916 84.8655 206.83 105.627C206.546 88.8111 205.91 71.9862 204.422 55.1699C202.84 74.5793 202.401 93.9887 202.307 113.398C202.04 101.88 201.421 90.3618 199.95 78.8436C198.402 91.6282 197.921 104.413 197.783 117.206C197.542 108.367 196.957 99.528 195.435 90.6805C194.016 99.2954 193.466 107.919 193.268 116.534C193.053 100.028 192.485 83.5129 190.808 67.0068C189.037 85.6322 188.658 104.249 188.624 122.874C188.34 116.405 187.738 109.943 186.379 103.474C184.754 111.417 184.272 119.368 184.143 127.311C183.894 122.47 183.301 117.637 181.856 112.795C179.998 119.153 179.603 125.511 179.542 131.868C179.628 138.226 180.076 144.584 181.976 150.95C183.49 145.79 184.023 140.638 184.204 135.478C184.419 142.835 184.986 150.192 186.551 157.549C188.082 150.132 188.598 142.723 188.762 135.306C189.011 150.614 189.613 165.914 191.178 181.223C192.752 164.82 193.216 148.418 193.32 132.015C193.578 140.526 194.18 149.038 195.65 157.541C197.104 148.797 197.637 140.061 197.826 131.317C198.041 144.007 198.609 156.697 200.243 169.378C201.722 157.265 202.229 145.153 202.393 133.031C202.642 151.209 203.235 169.395 204.852 187.572C206.417 168.576 206.865 149.581 206.968 130.585C207.252 148.659 207.888 166.742 209.393 184.816C210.778 166.716 211.302 148.607 211.466 130.507C211.672 143.464 212.231 156.421 213.891 169.378C215.344 157.429 215.869 145.489 216.041 133.54C216.273 149.434 216.858 165.32 218.483 181.215C220.057 164.812 220.521 148.409 220.625 132.006C220.883 140.518 221.485 149.029 222.955 157.532C224.34 149.184 224.907 140.837 225.114 132.497C225.329 152.682 225.896 172.867 227.616 193.051C229.061 174.702 229.56 156.343 229.706 137.994C229.964 160.289 230.575 182.593 232.2 204.888C233.757 181.568 234.195 158.239 234.281 134.918C234.548 146.402 235.167 157.894 236.638 169.378C238.134 157.101 238.642 144.834 238.796 132.558C239.029 144.834 239.613 157.101 241.187 169.378C242.735 156.671 243.217 143.964 243.354 131.257C243.612 145.084 244.223 158.919 245.745 172.755C247.216 158.549 247.723 144.351 247.878 130.145C248.102 139.277 248.669 148.409 250.243 157.541C251.765 148.392 252.273 139.251 252.436 130.102C252.66 137.666 253.236 145.221 254.784 152.785C256.263 145.308 256.796 137.83 256.977 130.352C257.183 136.874 257.734 143.404 259.325 149.925C260.812 143.628 261.346 137.339 261.535 131.041C261.741 137.649 262.3 144.265 263.883 150.873C265.353 144.532 265.895 138.183 266.084 131.843C266.282 138.209 266.841 144.575 268.432 150.933C269.997 144.506 270.505 138.08 270.659 131.653C270.892 137.701 271.485 143.757 272.981 149.805C274.478 143.593 275.011 137.382 275.192 131.171C275.407 138.7 275.974 146.229 277.548 153.75C279.062 146.255 279.586 138.76 279.75 131.274C279.973 139.863 280.558 148.452 282.106 157.041C283.568 148.65 284.101 140.259 284.29 131.868C284.505 144.369 285.082 156.869 286.698 169.369C288.16 157.489 288.685 145.601 288.848 133.721C289.081 149.546 289.665 165.38 291.282 181.206C292.856 164.795 293.32 148.383 293.424 131.972C293.682 140.492 294.284 149.012 295.754 157.532C297.139 149.184 297.706 140.837 297.913 132.497C298.128 152.682 298.695 172.867 300.415 193.051C301.86 174.719 302.359 156.378 302.505 138.045C302.763 160.323 303.374 182.61 305.008 204.888C306.564 181.576 307.003 158.256 307.089 134.944C307.356 146.419 307.975 157.894 309.445 169.378C310.899 157.429 311.423 145.48 311.595 133.531C311.828 149.426 312.412 165.32 314.038 181.215C315.612 164.795 316.076 148.383 316.179 131.963C316.437 140.492 317.039 149.012 318.51 157.541C319.894 149.193 320.462 140.845 320.668 132.489C320.883 152.673 321.451 172.867 323.171 193.051C324.616 174.719 325.115 156.378 325.261 138.045C325.519 160.323 326.129 182.61 327.763 204.888C329.32 181.585 329.759 158.282 329.845 134.978C330.111 146.445 330.73 157.911 332.201 169.378C333.654 157.429 334.179 145.48 334.351 133.531C334.583 149.426 335.168 165.32 336.793 181.215C338.367 164.803 338.832 148.392 338.935 131.989C339.193 140.509 339.795 149.021 341.265 157.541C342.65 149.184 343.218 140.837 343.424 132.48C343.639 152.673 344.207 172.858 345.927 193.051C347.371 174.702 347.87 156.352 348.016 138.002C348.274 160.298 348.885 182.593 350.519 204.897C352.076 181.594 352.514 158.29 352.6 134.987C352.867 146.453 353.486 157.92 354.957 169.386C356.41 157.455 356.935 145.514 357.107 133.583C357.339 149.46 357.924 165.346 359.549 181.223C361.123 164.812 361.587 148.4 361.69 131.998C361.94 140.518 362.55 149.029 364.021 157.549C365.431 149.029 365.99 140.501 366.188 131.972C366.403 148.392 366.971 164.803 368.648 181.223C370.222 164.812 370.686 148.4 370.789 131.989C371.047 140.509 371.649 149.029 373.12 157.549C374.573 148.797 375.106 140.053 375.296 131.3C375.511 143.998 376.078 156.688 377.712 169.386C379.131 157.713 379.673 146.031 379.854 134.358C380.086 153.923 380.671 173.496 382.339 193.06C383.784 174.728 384.283 156.386 384.429 138.054C384.687 160.332 385.297 182.619 386.923 204.897C388.72 177.967 389.056 151.045 389.038 124.115L389.03 124.124Z" fill="#F0F0F0"/>
<path d="M383.139 153.01H357.253C354.174 153.01 351.671 150.503 351.671 147.419V139.519C351.671 136.435 354.174 133.928 357.253 133.928H383.139C386.218 133.928 388.72 136.435 388.72 139.519V147.419C388.72 150.503 386.218 153.01 383.139 153.01Z" fill="#E0E0E0"/>
<path d="M376.774 143.473C376.774 142.698 377.402 142.061 378.185 142.061C378.967 142.061 379.595 142.689 379.595 143.473C379.595 144.257 378.967 144.886 378.185 144.886C377.402 144.886 376.774 144.257 376.774 143.473Z" fill="#FAFAFA"/>
<path d="M368.794 143.473C368.794 142.698 369.422 142.061 370.204 142.061C370.987 142.061 371.615 142.689 371.615 143.473C371.615 144.257 370.987 144.886 370.204 144.886C369.422 144.886 368.794 144.257 368.794 143.473Z" fill="#FAFAFA"/>
<path d="M360.813 143.473C360.813 142.698 361.441 142.061 362.223 142.061C363.006 142.061 363.634 142.689 363.634 143.473C363.634 144.257 363.006 144.886 362.223 144.886C361.441 144.886 360.813 144.257 360.813 143.473Z" fill="#FAFAFA"/>
<path d="M372.096 152.088L366.764 158.73L368.312 152.088H372.096Z" fill="#E0E0E0"/>
<path d="M175.483 37.2422L206.392 37.2422C209.474 37.2422 211.973 34.739 211.973 31.6511V21.1668C211.973 18.0789 209.474 15.5757 206.392 15.5757L175.483 15.5757C172.401 15.5757 169.902 18.0789 169.902 21.1668V31.6511C169.902 34.739 172.401 37.2422 175.483 37.2422Z" fill="#E0E0E0"/>
<path d="M200.002 28.0075C200.885 28.0075 201.602 27.2901 201.602 26.4051C201.602 25.5201 200.885 24.8027 200.002 24.8027C199.119 24.8027 198.402 25.5201 198.402 26.4051C198.402 27.2901 199.119 28.0075 200.002 28.0075Z" fill="#FAFAFA"/>
<path d="M190.937 28.0075C191.821 28.0075 192.537 27.2901 192.537 26.4051C192.537 25.5201 191.821 24.8027 190.937 24.8027C190.054 24.8027 189.338 25.5201 189.338 26.4051C189.338 27.2901 190.054 28.0075 190.937 28.0075Z" fill="#FAFAFA"/>
<path d="M180.273 26.4051C180.273 25.5178 180.987 24.8027 181.873 24.8027C182.759 24.8027 183.473 25.5178 183.473 26.4051C183.473 27.2924 182.759 28.0075 181.873 28.0075C180.987 28.0075 180.273 27.2924 180.273 26.4051Z" fill="#FAFAFA"/>
<path d="M193.088 36.1914L190.938 43.7294L188.788 36.1914H193.088Z" fill="#E0E0E0"/>
<path d="M73.0572 203.631H42.1488C39.0663 203.631 36.5674 206.134 36.5674 209.222V219.706C36.5674 222.794 39.0663 225.297 42.1488 225.297H73.0572C76.1397 225.297 78.6386 222.794 78.6386 219.706V209.222C78.6386 206.134 76.1397 203.631 73.0572 203.631Z" fill="#E0E0E0"/>
<path d="M48.5474 216.071C49.4308 216.071 50.147 215.354 50.147 214.469C50.147 213.584 49.4308 212.866 48.5474 212.866C47.6639 212.866 46.9478 213.584 46.9478 214.469C46.9478 215.354 47.6639 216.071 48.5474 216.071Z" fill="#FAFAFA"/>
<path d="M59.2026 214.469C59.2026 215.356 58.4888 216.071 57.603 216.071C56.7172 216.071 56.0034 215.356 56.0034 214.469C56.0034 213.581 56.7172 212.866 57.603 212.866C58.4888 212.866 59.2026 213.581 59.2026 214.469Z" fill="#FAFAFA"/>
<path d="M68.2671 214.469C68.2671 215.356 67.5533 216.071 66.6675 216.071C65.7817 216.071 65.0679 215.356 65.0679 214.469C65.0679 213.581 65.7817 212.866 66.6675 212.866C67.5533 212.866 68.2671 213.581 68.2671 214.469Z" fill="#FAFAFA"/>
<path d="M55.4531 204.674L59.3231 197.997L59.7531 204.674H55.4531Z" fill="#E0E0E0"/>
<path d="M215 321C307.091 321 381.745 316.634 381.745 311.248C381.745 305.862 307.091 301.496 215 301.496C122.909 301.496 48.2544 305.862 48.2544 311.248C48.2544 316.634 122.909 321 215 321Z" fill="#F5F5F5"/>
<path d="M116.074 87.4756C121.088 87.5187 133.816 99.054 133.816 99.054L128.441 111.52L114.991 106.894L116.074 87.4756Z" fill="#407BFF"/>
<path opacity="0.2" d="M125.096 110.374L116.711 107.488L117.081 101.087C117.081 101.087 122.568 104.007 125.096 110.374Z" fill="black"/>
<path d="M147.258 303.676L140.146 304.425L137.205 289.022L144.325 288.272L147.258 303.676Z" fill="#E4897B"/>
<path d="M108.842 305.045L101.876 304.778L100.268 288.668L107.242 288.944L108.842 305.045Z" fill="#E4897B"/>
<path d="M147.894 303.805H139.423C139.139 303.805 138.89 304.003 138.83 304.287L137.454 310.507C137.333 311.067 137.695 311.61 138.245 311.73C138.322 311.748 138.391 311.756 138.469 311.756C141.212 311.713 143.207 311.541 146.647 311.541C148.771 311.541 155.161 311.765 158.094 311.765C161.026 311.765 161.405 308.87 160.201 308.603C154.826 307.432 150.784 305.803 149.064 304.261C148.746 303.968 148.324 303.805 147.894 303.813V303.805Z" fill="#263238"/>
<path d="M148.376 304.769C148.307 304.752 148.264 304.692 148.256 304.623C148.247 304.554 148.273 304.494 148.333 304.459C148.582 304.296 150.836 302.917 151.61 303.313C151.79 303.4 151.902 303.581 151.893 303.779C151.936 304.115 151.807 304.451 151.549 304.666C151.154 304.933 150.681 305.062 150.208 305.019C149.589 305.002 148.978 304.916 148.385 304.761L148.376 304.769ZM148.858 304.537C149.675 304.812 150.56 304.769 151.343 304.416C151.506 304.27 151.592 304.046 151.567 303.822C151.558 303.693 151.506 303.624 151.463 303.624C151.395 303.589 151.326 303.572 151.248 303.581C150.397 303.744 149.589 304.072 148.866 304.537H148.858Z" fill="#407BFF"/>
<path d="M148.324 304.804C148.272 304.77 148.247 304.718 148.247 304.649C148.255 304.554 148.427 302.547 149.227 301.884C149.416 301.711 149.674 301.634 149.924 301.668C150.182 301.668 150.405 301.849 150.457 302.108C150.594 302.848 149.21 304.382 148.487 304.77H148.41C148.41 304.77 148.35 304.795 148.324 304.795V304.804ZM149.442 302.082C148.952 302.711 148.668 303.469 148.616 304.27C149.339 303.727 150.225 302.564 150.13 302.108C150.121 302.064 150.104 301.935 149.889 301.935H149.812C149.674 301.935 149.545 301.987 149.442 302.073V302.082Z" fill="#407BFF"/>
<path d="M109.856 303.581H101.385C101.101 303.581 100.852 303.779 100.792 304.063L99.4158 310.283C99.2954 310.843 99.6566 311.386 100.207 311.507C100.284 311.524 100.353 311.533 100.431 311.533C103.174 311.49 105.169 311.317 108.609 311.317C110.733 311.317 117.123 311.541 120.056 311.541C122.988 311.541 123.367 308.647 122.163 308.38C116.788 307.208 112.746 305.58 111.026 304.038C110.708 303.745 110.286 303.581 109.856 303.59V303.581Z" fill="#263238"/>
<path d="M110.338 304.546C110.269 304.529 110.226 304.468 110.217 304.399C110.209 304.33 110.235 304.27 110.295 304.236C110.544 304.072 112.797 302.694 113.571 303.09C113.752 303.176 113.864 303.357 113.855 303.555C113.898 303.891 113.769 304.227 113.511 304.442C113.116 304.709 112.643 304.839 112.17 304.796C111.55 304.778 110.94 304.692 110.346 304.537L110.338 304.546ZM110.819 304.313C111.636 304.589 112.522 304.546 113.305 304.193C113.468 304.046 113.554 303.822 113.528 303.598C113.52 303.469 113.468 303.4 113.425 303.4C113.356 303.365 113.288 303.348 113.21 303.357C112.359 303.521 111.55 303.848 110.828 304.313H110.819Z" fill="#407BFF"/>
<path d="M110.295 304.58C110.244 304.546 110.218 304.494 110.218 304.425C110.226 304.331 110.398 302.323 111.198 301.66C111.387 301.488 111.645 301.41 111.895 301.445C112.153 301.445 112.376 301.625 112.428 301.884C112.566 302.625 111.181 304.158 110.459 304.546H110.381C110.381 304.546 110.321 304.572 110.295 304.572V304.58ZM111.413 301.858C110.923 302.487 110.639 303.245 110.588 304.046C111.31 303.503 112.196 302.34 112.101 301.884C112.093 301.841 112.075 301.712 111.86 301.712H111.783C111.645 301.712 111.516 301.763 111.413 301.858Z" fill="#407BFF"/>
<path opacity="0.2" d="M144.325 288.272L137.205 289.022L138.727 296.965L145.848 296.215L144.325 288.272Z" fill="black"/>
<path opacity="0.2" d="M107.242 288.952L100.268 288.677L101.102 296.982L108.076 297.257L107.242 288.952Z" fill="black"/>
<path d="M147.49 293.967H134.685C134.685 293.967 121.303 241.717 115.481 219.224C114.2 214.262 112.566 206.947 110.871 198.841C109.538 192.44 108.154 185.557 106.855 178.94C104.447 204.277 110.261 291.356 110.261 291.356L97.9628 293.097C86.5162 212.53 85.252 146.497 85.252 146.497L121.776 146.092C122.404 150.382 129.396 198.341 133.782 221.576C137.979 243.793 147.482 293.958 147.482 293.958L147.49 293.967Z" fill="#263238"/>
<path d="M96.466 294.216L111.912 294.13L111.619 289.779L95.563 289.59L96.466 294.216Z" fill="#407BFF"/>
<path d="M133.214 294.061H148.255L147.8 289.599L132.156 289.314L133.214 294.061Z" fill="#407BFF"/>
<path d="M123.273 147.488L84.7876 149.952C84.3748 137.701 83.5492 126.915 82.6204 117.999C82.2506 114.415 81.8636 111.133 81.4852 108.178C79.9974 96.6253 78.6128 90.0693 78.6128 90.0693C94.9098 86.5717 116.788 87.4762 116.788 87.4762C122.464 105.524 123.273 147.488 123.273 147.488Z" fill="#407BFF"/>
<path d="M91.8223 89.5003C95.2193 92.5931 103.544 91.4473 103.544 91.4473C103.544 91.4473 108.738 90.0258 107.646 88.3976C104.585 87.8893 103.105 86.4593 102.495 84.6329C102.142 83.5647 102.091 82.3672 102.185 81.1353C102.228 80.4891 102.323 79.8258 102.443 79.1797L92.1577 71.5469C93.5079 76.5866 95.1591 85.8562 91.8309 89.509L91.8223 89.5003Z" fill="#E4897B"/>
<path opacity="0.2" d="M94.5225 76.3975C94.9267 82.583 100.001 84.2887 102.486 84.6333C102.133 83.5651 102.082 82.3676 102.176 81.1357L94.5225 76.3975Z" fill="black"/>
<path d="M108.962 55.0926C108.962 55.0926 111.852 64.3881 107.362 68.8161C102.873 73.2442 100.19 55.5233 100.19 55.5233L108.962 55.084V55.0926Z" fill="#263238"/>
<path d="M93.8691 78.6026C96.8533 81.7557 100.981 82.0658 104.275 80.4462C106.399 79.4038 108.171 77.5516 109.082 75.1394C109.203 74.8207 109.306 74.4933 109.401 74.1573C111 67.9632 110.252 57.6684 103.535 54.791C98.7625 52.7062 93.1897 54.8944 91.1085 59.6843C90.5065 61.0455 90.2485 62.5272 90.3259 64.0176C90.6011 70.9354 90.4377 75.0102 93.8691 78.6026Z" fill="#E4897B"/>
<path d="M100.766 66.1456C100.715 66.7056 101.041 67.1708 101.411 67.1794C101.781 67.1794 102.082 66.7315 102.099 66.1715C102.116 65.6115 101.815 65.1463 101.454 65.1377C101.093 65.1377 100.783 65.5771 100.766 66.1456Z" fill="#263238"/>
<path d="M107.121 66.2658C107.07 66.8257 107.405 67.2909 107.766 67.2995C108.128 67.2995 108.437 66.8516 108.454 66.2916C108.472 65.7316 108.171 65.2664 107.809 65.2578C107.448 65.2578 107.139 65.7316 107.121 66.2658Z" fill="#263238"/>
<path d="M105.101 66.5068C105.737 68.2384 106.614 69.8839 107.698 71.3743C106.907 71.917 105.909 72.0893 104.989 71.8308L105.101 66.5068Z" fill="#DE5753"/>
<path d="M109.53 63.5864C109.418 63.6467 109.289 63.6381 109.186 63.5778C108.489 63.1039 107.62 62.9833 106.821 63.259C106.657 63.3365 106.459 63.259 106.391 63.0953C106.313 62.9316 106.391 62.7335 106.554 62.6646C107.552 62.2941 108.661 62.432 109.538 63.035C109.693 63.1298 109.745 63.3279 109.65 63.483C109.616 63.5261 109.581 63.5605 109.53 63.595V63.5864Z" fill="#263238"/>
<path d="M99.5536 63.5781C99.4848 63.5781 99.4246 63.5523 99.373 63.5092C99.2526 63.3714 99.2698 63.1646 99.4074 63.044C100.216 62.3462 101.308 62.0878 102.34 62.3462C102.512 62.3979 102.607 62.5874 102.555 62.7597C102.495 62.932 102.314 63.0268 102.142 62.9751C101.325 62.7942 100.465 63.0096 99.8288 63.5609C99.7428 63.604 99.6396 63.6126 99.545 63.5781H99.5536Z" fill="#263238"/>
<path d="M95.5462 55.4805L96.0106 58.5215C95.0302 59.0815 94.4626 60.2273 94.9528 61.4161C96.0106 63.9489 94.6776 67.9721 92.7598 69.6175C92.7598 69.6175 92.6652 68.5062 91.7364 68.7991C90.8076 69.092 91.2376 74.864 93.1382 77.5691C93.1382 77.5691 90.3088 75.1569 88.5716 69.1265C86.9634 63.5526 86.6538 58.8747 87.7374 56.6693L95.5462 55.4805Z" fill="#263238"/>
<path d="M87.2042 69.6344C87.9438 71.211 89.2768 72.4343 90.9108 73.0287C93.078 73.804 94.325 71.8915 93.8606 69.755C93.4306 67.8598 91.7966 65.103 89.5434 65.2753C87.2902 65.4476 86.3184 67.6788 87.1956 69.6258L87.2042 69.6344Z" fill="#E4897B"/>
<path d="M109.874 61.1659C109.874 61.1659 112.204 55.2044 108.042 53.042C108.042 53.042 108.042 50.3025 104.989 49.2945C100.749 47.8989 93.8605 52.4734 90.3087 53.154C86.7569 53.8346 85.6045 60.4508 87.4793 64.4137C87.4793 64.4137 93.1381 61.1056 98.5045 60.537C103.871 59.9684 103.295 57.6165 104.155 56.6861C105.015 55.7643 106.339 57.8061 106.339 57.8061C106.339 57.8061 107.122 56.4105 109.874 61.1573V61.1659Z" fill="#263238"/>
<path d="M104.516 73.6059C104.069 74.4588 103.587 76.0611 103.587 76.0611C103.432 76.0439 103.277 76.0267 103.131 76.0008C101.059 75.7165 100.19 74.8895 99.8547 74.0711C99.6741 73.6231 99.6569 73.1665 99.6999 72.7961C99.7343 72.374 99.8633 72.0811 99.8633 72.0811C100.869 72.8909 102.787 73.313 103.819 73.4939C104.249 73.5714 104.524 73.6059 104.524 73.6059H104.516Z" fill="#263238"/>
<path d="M103.811 73.4939L103.518 74.2089C101.566 73.9333 100.224 73.4767 99.6997 72.7961C99.7341 72.374 99.8631 72.0811 99.8631 72.0811C100.869 72.8909 102.787 73.313 103.819 73.4939H103.811Z" fill="white"/>
<path d="M103.131 76.001C101.058 75.7167 100.19 74.8897 99.8545 74.0713C100.56 74.2005 101.394 74.4245 102.099 74.8466C102.641 75.1654 102.95 75.5875 103.131 76.001Z" fill="#DE5753"/>
<path d="M95.0131 81.411C98.2467 83.7628 104.594 84.6243 107.793 80.515C110.992 76.4143 110.106 69.7378 110.106 69.7378C109.556 72.0638 108.034 73.7695 108.034 73.7695C106.322 71.6158 103.286 72.753 103.286 72.753C103.286 72.753 102.211 71.2712 100.758 71.0989C99.3045 70.9266 95.2367 71.0989 95.2367 71.0989C93.9295 70.2461 93.9467 66.5244 93.9467 66.5244L93.1383 67.1791C93.1383 67.1791 91.7795 79.0591 95.0131 81.411ZM99.1325 72.2361C101.549 71.8915 103.063 73.2096 103.063 73.2096C103.063 73.2096 106.984 72.8908 107.113 76.1042C107.242 79.2228 104.078 80.0843 102.882 79.1711C101.687 78.2665 102.882 76.8968 102.882 76.8968L101.532 76.3971C100.861 78.1115 98.8057 78.7662 97.3265 77.293C95.8559 75.8199 96.6987 72.5807 99.1239 72.2361H99.1325Z" fill="#263238"/>
<path opacity="0.3" d="M95.0131 81.411C98.2467 83.7628 104.594 84.6243 107.793 80.515C110.992 76.4143 110.106 69.7378 110.106 69.7378C109.556 72.0638 108.034 73.7695 108.034 73.7695C106.322 71.6158 103.286 72.753 103.286 72.753C103.286 72.753 102.211 71.2712 100.758 71.0989C99.3045 70.9266 95.2367 71.0989 95.2367 71.0989C93.9295 70.2461 93.9467 66.5244 93.9467 66.5244L93.1383 67.1791C93.1383 67.1791 91.7795 79.0591 95.0131 81.411ZM99.1325 72.2361C101.549 71.8915 103.063 73.2096 103.063 73.2096C103.063 73.2096 106.984 72.8908 107.113 76.1042C107.242 79.2228 104.078 80.0843 102.882 79.1711C101.687 78.2665 102.882 76.8968 102.882 76.8968L101.532 76.3971C100.861 78.1115 98.8057 78.7662 97.3265 77.293C95.8559 75.8199 96.6987 72.5807 99.1239 72.2361H99.1325Z" fill="white"/>
<path opacity="0.2" d="M112.987 203.191C111.688 196.549 110.33 189.329 109.04 182.308C109.04 182.308 108.911 176.571 112.824 169.248C112.824 169.248 114.423 188.149 112.987 203.191Z" fill="black"/>
<path d="M93.3274 86.4851C93.3274 86.4851 95.529 89.6726 101.764 91.6627C101.764 91.6627 103.278 89.6985 103.14 85.9424L108.463 87.4845C108.463 87.4845 109.891 91.723 108.61 95.8151L102.495 92.7482L98.5562 98.1325C98.5562 98.1325 89.6208 95.0225 88.0298 89.2333L93.3188 86.4937L93.3274 86.4851Z" fill="#407BFF"/>
<path opacity="0.3" d="M93.3274 86.4851C93.3274 86.4851 95.529 89.6726 101.764 91.6627C101.764 91.6627 103.278 89.6985 103.14 85.9424L108.463 87.4845C108.463 87.4845 109.891 91.723 108.61 95.8151L102.495 92.7482L98.5562 98.1325C98.5562 98.1325 89.6208 95.0225 88.0298 89.2333L93.3188 86.4937L93.3274 86.4851Z" fill="black"/>
<path opacity="0.3" d="M103.828 97.0646C104.213 97.0646 104.525 96.7521 104.525 96.3668C104.525 95.9814 104.213 95.6689 103.828 95.6689C103.443 95.6689 103.131 95.9814 103.131 96.3668C103.131 96.7521 103.443 97.0646 103.828 97.0646Z" fill="white"/>
<path opacity="0.3" d="M104.516 101.518C104.901 101.518 105.213 101.205 105.213 100.82C105.213 100.434 104.901 100.122 104.516 100.122C104.131 100.122 103.819 100.434 103.819 100.82C103.819 101.205 104.131 101.518 104.516 101.518Z" fill="white"/>
<path d="M116.995 85.2447C116.995 85.2447 121.346 74.433 123.238 75.036C125.139 75.6391 129.559 82.8411 129.731 84.6072C129.903 86.3733 126.274 88.2513 126.274 88.2513C126.274 88.2513 141.281 102.802 140.369 107.738C139.518 112.364 129.671 108.651 129.671 108.651L131.529 104.353C131.529 104.353 125.337 94.7039 120.916 89.2679C120.916 89.2679 115.902 86.9763 117.003 85.2361L116.995 85.2447Z" fill="#E4897B"/>
<path d="M119.299 74.0025C118.637 71.0562 116.246 69.092 113.95 69.6089C111.654 70.1258 110.329 72.9256 110.991 75.8719C111.654 78.8182 114.044 80.7824 116.341 80.2655C118.637 79.7487 119.961 76.9488 119.299 74.0025Z" fill="#407BFF"/>
<path d="M137.927 69.927L135.734 59.5547C135.734 59.5547 130.187 65.8177 124.511 67.0927L125.663 72.2531L125.844 73.0629L126.996 78.2318C132.672 76.9568 140.352 80.2477 140.352 80.2477L137.91 69.927H137.927Z" fill="#407BFF"/>
<path opacity="0.8" d="M119.299 74.0025C118.637 71.0562 116.246 69.092 113.95 69.6089C111.654 70.1258 110.329 72.9256 110.991 75.8719C111.654 78.8182 114.044 80.7824 116.341 80.2655C118.637 79.7487 119.961 76.9488 119.299 74.0025Z" fill="white"/>
<path opacity="0.8" d="M137.927 69.927L135.734 59.5547C135.734 59.5547 130.187 65.8177 124.511 67.0927L125.663 72.2531L125.844 73.0629L126.996 78.2318C132.672 76.9568 140.352 80.2477 140.352 80.2477L137.91 69.927H137.927Z" fill="white"/>
<path d="M117.416 79.1281C117.416 79.1281 119.411 85.2533 122.128 88.0877C122.318 88.2858 122.636 88.303 122.859 88.148L126.678 85.5118C126.987 85.2964 127.013 84.8484 126.729 84.6072C125.525 83.5907 122.782 81.0579 121.578 78.3097C120.013 74.7432 117.416 79.1281 117.416 79.1281Z" fill="#407BFF"/>
<path opacity="0.3" d="M117.416 79.1281C117.416 79.1281 119.411 85.2533 122.128 88.0877C122.318 88.2858 122.636 88.303 122.859 88.148L126.678 85.5118C126.987 85.2964 127.013 84.8484 126.729 84.6072C125.525 83.5907 122.782 81.0579 121.578 78.3097C120.013 74.7432 117.416 79.1281 117.416 79.1281Z" fill="black"/>
<path d="M140.24 80.4894C138.941 80.7823 136.826 76.2939 135.527 70.4703C134.22 64.6466 134.22 59.6844 135.527 59.3915C136.826 59.0986 138.941 63.5869 140.24 69.4106C141.547 75.2343 141.547 80.1965 140.24 80.4894Z" fill="white"/>
<path opacity="0.4" d="M140.223 78.8782C139.251 79.0936 137.608 75.5787 136.473 70.875C136.404 70.6079 136.344 70.3322 136.284 70.0565C136.207 69.7206 136.138 69.4018 136.078 69.0831C135.14 64.4052 135.123 60.606 136.086 60.3906C137.127 60.158 138.898 64.1123 140.042 69.2209C141.186 74.3209 141.272 78.6542 140.231 78.8868L140.223 78.8782Z" fill="black"/>
<path d="M115.609 81.0582C115.609 81.0582 114.663 79.8522 113.649 75.3121C112.548 70.4016 112.961 69.2472 112.961 69.2472L125.628 66.4043C125.628 66.4043 125.302 67.9722 126.334 72.5726C127.357 77.1385 128.269 78.2153 128.269 78.2153L115.601 81.0582H115.609Z" fill="#407BFF"/>
<path d="M136.473 70.8755C136.404 70.6085 136.344 70.3328 136.284 70.0571C136.207 69.7211 136.138 69.4024 136.078 69.0836L137.307 69.0664C137.591 69.0664 137.78 69.2645 137.841 69.5316L137.884 69.7211C137.944 69.9882 137.858 70.2553 137.6 70.3759L136.482 70.8842L136.473 70.8755Z" fill="white"/>
<path opacity="0.2" d="M136.473 70.8755C136.404 70.6085 136.344 70.3328 136.284 70.0571C136.207 69.7211 136.138 69.4024 136.078 69.0836L137.307 69.0664C137.591 69.0664 137.78 69.2645 137.841 69.5316L137.884 69.7211C137.944 69.9882 137.858 70.2553 137.6 70.3759L136.482 70.8842L136.473 70.8755Z" fill="black"/>
<path d="M117.738 103.815L111.257 104.518C111.007 104.545 110.826 104.771 110.853 105.021L111.742 113.244C111.769 113.494 111.994 113.675 112.244 113.648L118.725 112.945C118.975 112.918 119.156 112.693 119.129 112.442L118.24 104.22C118.213 103.969 117.989 103.788 117.738 103.815Z" fill="white"/>
<path opacity="0.4" d="M116.313 105.42L112.996 105.78L113.437 109.857L116.754 109.497L116.313 105.42Z" fill="#407BFF"/>
<path opacity="0.4" d="M118.018 110.678L112.444 111.282L112.506 111.856L118.08 111.251L118.018 110.678Z" fill="#407BFF"/>
<path opacity="0.4" d="M117.242 111.748L113.429 112.161L113.491 112.735L117.304 112.321L117.242 111.748Z" fill="#407BFF"/>
<path d="M114.843 102.334L113.766 102.451L114.033 104.926L115.11 104.81L114.843 102.334Z" fill="#407BFF"/>
<path opacity="0.3" d="M114.843 102.334L113.766 102.451L114.033 104.926L115.11 104.81L114.843 102.334Z" fill="black"/>
<path opacity="0.2" d="M82.6201 117.998C82.2503 114.414 81.8633 111.132 81.4849 108.177C82.2589 107.135 83.1189 106.273 84.0047 105.73C84.0047 105.73 87.6081 111.847 82.6201 117.998Z" fill="black"/>
<path d="M78.6126 115.216C78.6126 115.216 69.4364 129.999 62.8574 127.733C56.2784 125.468 48.3406 101.665 48.3406 101.665C48.3406 101.665 41.7616 105.765 40.1792 103.267C38.5882 100.769 34.7354 95.307 37.6852 94.859C40.635 94.411 49.4758 93.8769 50.8432 94.5575C52.202 95.2467 52.202 99.0631 52.202 99.0631C52.202 99.0631 60.3634 116.258 62.866 116.922C65.3686 117.585 68.9892 107.747 68.9892 107.747L78.6212 115.216H78.6126Z" fill="#E4897B"/>
<path d="M78.6125 90.0605C72.8333 90.922 64.8955 112.132 64.8955 112.132L77.3741 118.653L83.9531 109.634C83.9531 109.634 86.2235 101.82 83.9531 97.0559C81.6827 92.2832 78.6125 90.0605 78.6125 90.0605Z" fill="#407BFF"/>
<path d="M177.865 306.088C177.865 306.088 174.846 311.757 153.071 311.757H24.6904" stroke="#263238" stroke-linecap="round" stroke-linejoin="round"/>
<path d="M269.36 113.191V226.116C269.36 264.288 235.872 305.183 198.212 306.096" stroke="#263238" stroke-linecap="round" stroke-linejoin="round"/>
<path d="M230.695 175.685V248.834C230.695 274.282 214.286 299.825 190.937 302.729" stroke="#263238" stroke-linecap="round" stroke-linejoin="round"/>
<path d="M182.028 188.882C182.028 188.882 172.654 212.478 182.028 258.154C191.402 303.822 178.923 306.096 178.923 306.096" stroke="#263238" stroke-linecap="round" stroke-linejoin="round"/>
<path d="M263.022 113.191V178.38C263.022 189.761 235.021 200.633 205.841 186.22" stroke="#263238" stroke-linecap="round" stroke-linejoin="round"/>
<path d="M178.76 156.103C173.823 156.103 167.932 162.934 170.598 176.692C173.944 194 215.009 200.573 228.949 178.372" stroke="#263238" stroke-linecap="round" stroke-linejoin="round"/>
<path d="M300.897 112.055H297.354V192.389H300.897V112.055Z" fill="#263238"/>
<path opacity="0.3" d="M300.897 112.055H297.354V192.389H300.897V112.055Z" fill="white"/>
<path d="M350.527 88.3291H247.723C246.958 88.3291 246.338 88.9501 246.338 89.7161V115.707C246.338 116.473 246.958 117.094 247.723 117.094H350.527C351.292 117.094 351.912 116.473 351.912 115.707V89.7161C351.912 88.9501 351.292 88.3291 350.527 88.3291Z" fill="#263238"/>
<path d="M349.358 90.8271H248.893V114.604H349.358V90.8271Z" fill="#407BFF"/>
<g opacity="0.6">
<path d="M273.987 96.7207H271.218V98.9692H273.987V96.7207Z" fill="white"/>
<path d="M273.987 100.253H271.218V101.02H273.987V100.253Z" fill="white"/>
<path d="M263.022 102.717V105.103H265.783V103.794H271.218V105.103H273.987V102.717H263.022Z" fill="white"/>
<path d="M265.792 100.253H263.022V101.02H265.792V100.253Z" fill="white"/>
<path d="M265.792 105.956H263.022V107.067H265.792V105.956Z" fill="white"/>
<path d="M265.792 107.661H263.022V108.704H265.792V107.661Z" fill="white"/>
<path d="M273.987 107.661H271.218V108.704H273.987V107.661Z" fill="white"/>
<path d="M273.987 105.956H271.218V107.067H273.987V105.956Z" fill="white"/>
<path d="M265.792 96.7207H263.022V98.9692H265.792V96.7207Z" fill="white"/>
<path d="M281.28 98.9692V98.952H287.567V96.7207H278.528V98.9692H281.28Z" fill="white"/>
<path d="M287.791 107.661H278.528V108.704H287.791V107.661Z" fill="white"/>
<path d="M287.791 107.067V106.482H281.28V105.956H278.528V107.067H287.791Z" fill="white"/>
<path d="M281.28 100.253H278.528V101.02H281.28V100.253Z" fill="white"/>
<path d="M278.528 102.717V105.103H281.28V103.708H286.836V102.717H278.528Z" fill="white"/>
<path d="M294.473 96.7207H291.704V98.9692H294.473V96.7207Z" fill="white"/>
<path d="M294.473 100.253H291.704V101.02H294.473V100.253Z" fill="white"/>
<path d="M294.473 102.717H291.704V105.103H294.473V102.717Z" fill="white"/>
<path d="M300.467 107.067V106.447H294.473V105.956H291.704V107.067H300.467Z" fill="white"/>
<path d="M300.467 107.661H291.704V108.704H300.467V107.661Z" fill="white"/>
<path d="M306.495 96.7207H303.726V98.9692H306.495V96.7207Z" fill="white"/>
<path d="M306.495 102.717H303.726V105.103H306.495V102.717Z" fill="white"/>
<path d="M306.495 100.253H303.726V101.02H306.495V100.253Z" fill="white"/>
<path d="M312.489 107.661H303.726V108.704H312.489V107.661Z" fill="white"/>
<path d="M312.489 107.067V106.447H306.495V105.956H303.726V107.067H312.489Z" fill="white"/>
<path d="M320.505 98.9689C320.771 98.9086 321.055 98.8742 321.348 98.8742C321.64 98.8742 321.915 98.9086 322.19 98.9689H326.654C325.493 97.4527 323.601 96.5137 321.356 96.5137C319.112 96.5137 317.22 97.4527 316.059 98.9689H320.513H320.505Z" fill="white"/>
<path d="M317.968 101.02C318.097 100.744 318.243 100.486 318.424 100.253H315.285C315.182 100.503 315.096 100.753 315.027 101.02H317.968Z" fill="white"/>
<path d="M314.803 102.717C314.803 103.578 314.967 104.379 315.268 105.103H318.372C317.899 104.466 317.607 103.656 317.607 102.717H314.803Z" fill="white"/>
<path d="M327.66 101.02C327.591 100.753 327.505 100.503 327.402 100.253H324.263C324.444 100.486 324.59 100.744 324.719 101.02H327.66Z" fill="white"/>
<path d="M325.089 102.717C325.089 103.656 324.796 104.466 324.323 105.103H327.428C327.72 104.379 327.892 103.578 327.892 102.717H325.089Z" fill="white"/>
<path d="M326.095 107.067C326.43 106.731 326.74 106.37 326.989 105.956H323.42C322.835 106.335 322.121 106.542 321.339 106.542C320.556 106.542 319.851 106.326 319.258 105.956H315.697C315.947 106.361 316.248 106.731 316.592 107.067H326.095Z" fill="white"/>
<path d="M317.288 107.661C318.381 108.454 319.774 108.91 321.339 108.91C322.904 108.91 324.297 108.454 325.39 107.661H317.28H317.288Z" fill="white"/>
<path d="M334.17 98.9692L334.325 96.7207H331.152L331.298 98.9692H334.17Z" fill="white"/>
<path d="M334.033 101.02L334.084 100.253H331.384L331.435 101.02H334.033Z" fill="white"/>
<path d="M334.351 107.067C334.282 106.585 333.998 106.18 333.568 105.956H331.917C331.487 106.18 331.203 106.576 331.134 107.067H334.359H334.351Z" fill="white"/>
<path d="M331.152 107.661C331.324 108.333 331.926 108.841 332.743 108.841C333.56 108.841 334.162 108.333 334.334 107.661H331.16H331.152Z" fill="white"/>
</g>
<g opacity="0.6">
<path d="M266.652 99.0293H263.882V100.054H266.652V99.0293Z" fill="white"/>
<path d="M274.847 99.0293H272.078V100.054H274.847V99.0293Z" fill="white"/>
<path d="M274.847 105.275H272.078V105.956H274.847V105.275Z" fill="white"/>
<path d="M274.847 107.093H272.078V107.661H274.847V107.093Z" fill="white"/>
<path d="M274.847 102.665V101.071H272.078V101.45H266.643V101.071H263.882V102.665H274.847Z" fill="white"/>
<path d="M266.652 105.275H263.882V105.956H266.652V105.275Z" fill="white"/>
<path d="M266.652 107.093H263.882V107.661H266.652V107.093Z" fill="white"/>
<path d="M282.14 99.0293H279.388V100.054H282.14V99.0293Z" fill="white"/>
<path d="M282.14 105.275H279.388V105.956H282.14V105.275Z" fill="white"/>
<path d="M288.65 107.093H279.388V107.661H288.65V107.093Z" fill="white"/>
<path d="M287.696 102.665V101.554H282.14V101.071H279.388V102.665H287.696Z" fill="white"/>
<path d="M295.333 99.0293H292.563V100.054H295.333V99.0293Z" fill="white"/>
<path d="M295.333 105.275H292.563V105.956H295.333V105.275Z" fill="white"/>
<path d="M301.327 107.093H292.563V107.661H301.327V107.093Z" fill="white"/>
<path d="M295.333 101.071H292.563V102.665H295.333V101.071Z" fill="white"/>
<path d="M307.355 99.0293H304.586V100.054H307.355V99.0293Z" fill="white"/>
<path d="M307.355 101.071H304.586V102.665H307.355V101.071Z" fill="white"/>
<path d="M307.355 105.275H304.586V105.956H307.355V105.275Z" fill="white"/>
<path d="M313.349 107.093H304.586V107.661H313.349V107.093Z" fill="white"/>
<path d="M324.943 100.054H328.133C327.97 99.6926 327.781 99.348 327.548 99.0293H323.24C323.911 99.2102 324.487 99.5634 324.943 100.054Z" fill="white"/>
<path d="M319.464 100.054C319.92 99.572 320.496 99.2102 321.167 99.0293H316.858C316.626 99.3394 316.437 99.6926 316.273 100.054H319.464Z" fill="white"/>
<path d="M328.744 102.665C328.744 102.105 328.649 101.58 328.52 101.071H325.613C325.82 101.545 325.94 102.079 325.94 102.665H328.744Z" fill="white"/>
<path d="M326.224 107.661C326.465 107.489 326.705 107.3 326.912 107.093H317.478C317.693 107.3 317.925 107.489 318.166 107.661H326.215H326.224Z" fill="white"/>
<path d="M327.832 105.956C327.969 105.732 328.107 105.517 328.21 105.275H325.045C324.813 105.551 324.529 105.766 324.22 105.956H327.832Z" fill="white"/>
<path d="M320.187 105.956C319.877 105.766 319.593 105.551 319.361 105.275H316.196C316.299 105.517 316.437 105.741 316.575 105.956H320.187Z" fill="white"/>
<path d="M318.467 102.665C318.467 102.079 318.596 101.545 318.793 101.071H315.887C315.749 101.58 315.663 102.105 315.663 102.665H318.467Z" fill="white"/>
<path d="M332.304 101.071L332.536 104.543H334.652L334.892 101.071H332.304Z" fill="white"/>
<path d="M334.962 100.054L335.03 99.0293H332.167L332.235 100.054H334.962Z" fill="white"/>
<path d="M335.185 107.661C335.219 107.541 335.237 107.412 335.237 107.282C335.237 107.213 335.228 107.153 335.219 107.093H331.977C331.977 107.153 331.96 107.213 331.96 107.282C331.96 107.412 331.977 107.541 332.012 107.661H335.185Z" fill="white"/>
</g>
<path d="M284.866 188.882H313.384C314.614 188.882 315.611 189.881 315.611 191.113V192.388H282.63V191.113C282.63 189.881 283.628 188.882 284.858 188.882H284.866Z" fill="#263238"/>
<path d="M308.542 189.873H289.717L291.437 186.806H306.822L308.542 189.873Z" fill="#263238"/>
<path d="M235.855 160.832H245.401L242.864 188.21L257.957 190.485V192.388H226.163V190.485L232.673 188.21L235.855 160.832Z" fill="#263238"/>
<path d="M272.912 178.208C273.076 180.043 271.743 181.533 269.919 181.533H212.136C210.304 181.533 208.687 180.043 208.515 178.208L205.084 141.147C205.05 140.768 205.075 140.397 205.161 140.07C205.488 138.769 206.632 137.821 208.085 137.821H265.869C267.701 137.821 269.317 139.312 269.489 141.147L272.921 178.208H272.912Z" fill="#263238"/>
<path d="M212.136 179.672C211.259 179.672 210.45 178.923 210.373 178.035L206.941 140.974C206.924 140.802 206.941 140.655 206.967 140.517C207.096 140 207.526 139.682 208.085 139.682H265.869C266.746 139.682 267.554 140.431 267.632 141.318L271.063 178.38C271.097 178.742 270.994 179.078 270.779 179.319C270.633 179.482 270.366 179.672 269.919 179.672H212.136Z" fill="#407BFF"/>
<path opacity="0.6" d="M212.136 179.672C211.259 179.672 210.45 178.923 210.373 178.035L206.941 140.974C206.924 140.802 206.941 140.655 206.967 140.517C207.096 140 207.526 139.682 208.085 139.682H265.869C266.746 139.682 267.554 140.431 267.632 141.318L271.063 178.38C271.097 178.742 270.994 179.078 270.779 179.319C270.633 179.482 270.366 179.672 269.919 179.672H212.136Z" fill="white"/>
<path d="M270.272 179.104H211.302L207.724 140.828H266.694L270.272 179.104Z" fill="#407BFF"/>
<path opacity="0.5" d="M266.987 143.964H208.017L207.724 140.828H266.694L266.987 143.964Z" fill="black"/>
<path d="M261.732 142.396C261.767 142.724 261.526 142.991 261.191 142.991C260.855 142.991 260.571 142.724 260.537 142.396C260.503 142.069 260.743 141.802 261.079 141.802C261.414 141.802 261.698 142.069 261.732 142.396Z" fill="#407BFF"/>
<path d="M265.8 142.396C265.835 142.724 265.594 142.991 265.258 142.991C264.923 142.991 264.639 142.724 264.605 142.396C264.57 142.069 264.811 141.802 265.147 141.802C265.482 141.802 265.766 142.069 265.8 142.396Z" fill="#407BFF"/>
<path d="M263.77 142.396C263.805 142.724 263.564 142.991 263.229 142.991C262.893 142.991 262.609 142.724 262.575 142.396C262.541 142.069 262.781 141.802 263.117 141.802C263.452 141.802 263.736 142.069 263.77 142.396Z" fill="#407BFF"/>
<path opacity="0.4" d="M215 174.513H211.869L209.109 144.903H212.239L215 174.513Z" fill="white"/>
<path opacity="0.4" d="M270.134 177.648H211.164L211.302 179.104H270.272L270.134 177.648Z" fill="white"/>
<path d="M266.892 159.97H214.785L213.529 145.988H265.637L266.892 159.97Z" fill="#263238"/>
<path d="M268.302 175.684H216.195L214.939 161.693H267.047L268.302 175.684Z" fill="#263238"/>
<path d="M235.597 152.897C235.545 152.449 235.442 151.992 235.133 151.544C234.969 151.872 234.909 152.191 234.9 152.518C234.832 151.915 234.711 151.312 234.393 150.709C234.221 151.208 234.187 151.708 234.195 152.208C234.083 151.286 233.929 150.356 233.619 149.434C233.464 150.425 233.481 151.424 233.55 152.415C233.464 151.855 233.327 151.286 233.077 150.726C232.922 151.312 232.888 151.898 232.905 152.475C232.785 151.355 232.604 150.244 232.269 149.124C232.14 150.209 232.157 151.295 232.226 152.372C232.123 151.553 231.968 150.735 231.675 149.916C231.538 150.7 231.521 151.493 231.564 152.277C231.4 150.692 231.185 149.106 230.798 147.513C230.704 149.038 230.764 150.554 230.876 152.079C230.729 150.821 230.54 149.572 230.213 148.314C230.093 149.684 230.145 151.053 230.248 152.432C230.162 151.863 230.024 151.286 229.766 150.717C229.611 151.303 229.577 151.88 229.594 152.466C229.474 151.346 229.293 150.235 228.958 149.115C228.829 150.201 228.846 151.286 228.915 152.363C228.812 151.544 228.657 150.726 228.364 149.908C228.201 150.821 228.21 151.725 228.27 152.639C228.167 151.829 228.003 151.019 227.728 150.209C227.59 151.053 227.582 151.906 227.633 152.751C227.522 151.82 227.367 150.881 227.049 149.951C226.911 150.829 226.911 151.717 226.954 152.595C226.868 151.967 226.739 151.346 226.455 150.717C226.3 151.303 226.266 151.88 226.283 152.466C226.163 151.346 225.982 150.235 225.647 149.115C225.518 150.201 225.535 151.277 225.604 152.363C225.501 151.544 225.346 150.735 225.053 149.916C224.899 150.778 224.899 151.631 224.95 152.492C224.804 151.165 224.606 149.839 224.262 148.512C224.159 149.916 224.211 151.32 224.305 152.716C224.176 151.631 223.996 150.554 223.686 149.468C223.566 150.537 223.583 151.596 223.643 152.664C223.557 152.018 223.428 151.364 223.136 150.717C222.955 151.381 222.946 152.053 222.981 152.716C222.869 151.88 222.714 151.053 222.43 150.218C222.301 151.045 222.293 151.863 222.327 152.69C222.25 152.061 222.121 151.441 221.82 150.812C221.639 151.415 221.622 152.018 221.648 152.621C221.562 152.07 221.433 151.519 221.175 150.959C221.011 151.519 220.977 152.079 221.003 152.639C220.925 152.044 220.796 151.441 220.513 150.847C220.341 151.415 220.315 151.992 220.341 152.561C220.255 151.941 220.126 151.329 219.842 150.709C219.678 151.312 219.653 151.924 219.678 152.527C219.558 151.484 219.386 150.45 219.068 149.408C218.939 150.416 218.947 151.424 219.008 152.432C218.904 151.588 218.75 150.743 218.449 149.908C218.302 150.743 218.294 151.579 218.345 152.415C218.242 151.579 218.087 150.743 217.786 149.908C217.64 150.752 217.632 151.588 217.683 152.432C217.589 151.682 217.442 150.933 217.15 150.183C216.995 150.924 216.987 151.674 217.021 152.415C216.918 151.57 216.763 150.726 216.462 149.882C216.307 150.752 216.307 151.622 216.367 152.492C216.281 151.898 216.144 151.312 215.877 150.717C215.722 151.303 215.688 151.889 215.705 152.466C215.585 151.346 215.404 150.235 215.069 149.115C214.94 150.201 214.957 151.277 215.026 152.363C214.923 151.544 214.768 150.735 214.475 149.916C214.295 150.933 214.329 151.958 214.407 152.975C214.51 153.991 214.665 155.016 215.026 156.033C215.172 155.223 215.181 154.422 215.138 153.612C215.258 154.689 215.43 155.757 215.757 156.834C215.894 155.723 215.869 154.611 215.791 153.509C215.877 154.086 216.015 154.663 216.273 155.24C216.436 154.637 216.462 154.043 216.436 153.44C216.539 154.284 216.694 155.128 216.995 155.973C217.141 155.137 217.15 154.301 217.098 153.466C217.193 154.206 217.339 154.939 217.623 155.68C217.778 154.947 217.786 154.215 217.752 153.491C217.855 154.336 218.01 155.189 218.311 156.033C218.457 155.206 218.466 154.379 218.414 153.543C218.517 154.37 218.672 155.206 218.965 156.033C219.102 155.249 219.119 154.456 219.076 153.672C219.197 154.723 219.369 155.783 219.696 156.834C219.842 155.74 219.816 154.646 219.739 153.543C219.825 154.103 219.962 154.672 220.212 155.232C220.384 154.603 220.401 153.982 220.375 153.354C220.452 153.905 220.581 154.465 220.857 155.016C221.02 154.482 221.054 153.939 221.037 153.405C221.115 154.017 221.244 154.62 221.536 155.232C221.717 154.62 221.734 154.008 221.708 153.397C221.785 153.931 221.923 154.465 222.181 154.99C222.327 154.499 222.37 154.008 222.362 153.517C222.362 153.517 222.362 153.517 222.362 153.526C222.473 154.629 222.628 155.731 223.007 156.834C223.179 155.766 223.144 154.689 223.058 153.621C223.144 154.163 223.273 154.698 223.523 155.24C223.669 154.706 223.703 154.163 223.695 153.629C223.824 154.965 224.013 156.3 224.4 157.644C224.52 156.55 224.503 155.456 224.434 154.362C224.58 155.723 224.787 157.084 225.131 158.445C225.251 156.903 225.174 155.352 225.053 153.81C225.157 154.551 225.311 155.301 225.578 156.041C225.724 155.232 225.733 154.43 225.69 153.621C225.81 154.698 225.982 155.766 226.309 156.843C226.447 155.731 226.421 154.629 226.343 153.517C226.429 154.094 226.567 154.672 226.825 155.24C226.98 154.68 227.014 154.12 226.997 153.56C227.109 154.534 227.264 155.507 227.599 156.489C227.737 155.645 227.745 154.792 227.694 153.939C227.797 154.853 227.96 155.766 228.27 156.679C228.425 155.705 228.416 154.741 228.347 153.767C228.45 154.525 228.605 155.283 228.872 156.041C229.018 155.232 229.027 154.422 228.984 153.621C229.104 154.698 229.276 155.766 229.603 156.843C229.74 155.731 229.715 154.629 229.637 153.517C229.723 154.094 229.861 154.672 230.119 155.24C230.274 154.672 230.308 154.112 230.291 153.543C230.437 154.904 230.635 156.274 230.996 157.635C231.099 156.395 231.073 155.154 230.996 153.914C231.159 155.421 231.374 156.929 231.736 158.436C231.83 156.86 231.761 155.283 231.65 153.707C231.753 154.482 231.908 155.257 232.183 156.033C232.329 155.223 232.338 154.413 232.295 153.612C232.415 154.689 232.587 155.766 232.914 156.834C233.051 155.723 233.026 154.611 232.948 153.509C233.034 154.086 233.172 154.663 233.43 155.24C233.602 154.62 233.619 154.008 233.593 153.388C233.705 154.284 233.86 155.18 234.161 156.076C234.316 155.068 234.298 154.06 234.23 153.043C234.307 153.5 234.436 153.957 234.677 154.413C234.84 153.957 234.883 153.491 234.875 153.035C234.935 153.44 235.038 153.845 235.322 154.25C235.554 153.802 235.571 153.345 235.545 152.897H235.597Z" fill="#407BFF"/>
<path d="M265.946 152.975C265.774 151.157 265.551 149.33 265.112 147.513C265.018 149.029 265.078 150.554 265.19 152.07C265.043 150.821 264.854 149.563 264.527 148.314C264.416 149.649 264.459 150.976 264.553 152.311C264.45 151.51 264.295 150.709 264.011 149.916C263.857 150.778 263.857 151.648 263.908 152.509C263.822 151.915 263.693 151.312 263.418 150.717C263.263 151.303 263.229 151.889 263.246 152.466C263.126 151.346 262.945 150.235 262.61 149.115C262.472 150.235 262.498 151.346 262.575 152.466C262.489 151.88 262.352 151.295 262.094 150.717C261.939 151.303 261.904 151.889 261.922 152.466C261.801 151.346 261.621 150.235 261.285 149.115C261.156 150.201 261.173 151.277 261.242 152.363C261.139 151.544 260.984 150.735 260.692 149.916C260.554 150.7 260.537 151.484 260.58 152.268C260.417 150.683 260.202 149.098 259.823 147.513C259.729 149.038 259.789 150.554 259.901 152.079C259.754 150.821 259.565 149.572 259.238 148.314C259.118 149.684 259.17 151.062 259.273 152.432C259.187 151.863 259.049 151.286 258.791 150.717C258.636 151.303 258.602 151.889 258.619 152.466C258.499 151.346 258.318 150.235 257.983 149.115C257.854 150.201 257.871 151.286 257.94 152.363C257.837 151.544 257.682 150.726 257.389 149.916C257.252 150.7 257.235 151.484 257.278 152.268C257.114 150.683 256.899 149.098 256.521 147.513C256.426 149.029 256.486 150.554 256.598 152.07C256.452 150.821 256.263 149.563 255.936 148.314C255.816 149.684 255.867 151.062 255.97 152.432C255.884 151.863 255.747 151.286 255.489 150.717C255.334 151.303 255.3 151.889 255.317 152.466C255.196 151.346 255.016 150.235 254.68 149.115C254.551 150.201 254.569 151.286 254.637 152.363C254.534 151.544 254.379 150.726 254.087 149.908C253.949 150.692 253.932 151.476 253.975 152.268C253.812 150.683 253.597 149.098 253.218 147.513C253.124 149.029 253.184 150.554 253.296 152.07C253.15 150.821 252.96 149.563 252.634 148.314C252.513 149.684 252.565 151.053 252.668 152.432C252.582 151.863 252.444 151.286 252.186 150.717C252.032 151.303 251.997 151.889 252.014 152.466C251.894 151.346 251.713 150.235 251.378 149.115C251.249 150.209 251.266 151.295 251.344 152.389C251.24 151.588 251.086 150.786 250.802 149.977C250.647 150.847 250.647 151.708 250.699 152.578C250.613 152.018 250.484 151.45 250.217 150.89C250.036 151.501 250.019 152.113 250.054 152.725C249.976 152.234 249.856 151.751 249.598 151.26C249.417 151.786 249.383 152.303 249.409 152.828C249.34 152.415 249.219 151.992 248.97 151.579C248.781 152.027 248.746 152.466 248.755 152.914C248.686 152.509 248.566 152.104 248.316 151.691C248.136 152.096 248.093 152.509 248.101 152.914C248.033 152.458 247.921 151.992 247.646 151.536C247.465 151.975 247.422 152.415 247.431 152.854C247.362 152.415 247.25 151.975 246.983 151.536C246.811 151.949 246.768 152.354 246.768 152.768C246.691 152.216 246.571 151.656 246.287 151.105C246.115 151.613 246.08 152.122 246.098 152.621C246.012 151.984 245.883 151.346 245.599 150.717C245.444 151.277 245.41 151.837 245.427 152.389C245.306 151.295 245.143 150.209 244.799 149.115C244.653 150.157 244.679 151.208 244.747 152.251C244.644 151.476 244.489 150.692 244.214 149.916C244.068 150.752 244.059 151.596 244.111 152.432C244.008 151.596 243.853 150.752 243.552 149.916C243.414 150.7 243.397 151.493 243.44 152.277C243.277 150.692 243.062 149.106 242.683 147.513C242.589 149.038 242.649 150.554 242.761 152.079C242.615 150.821 242.425 149.572 242.099 148.314C241.978 149.684 242.03 151.053 242.133 152.432C242.047 151.863 241.909 151.286 241.651 150.717C241.497 151.303 241.462 151.88 241.479 152.466C241.359 151.346 241.178 150.235 240.843 149.115C240.714 150.201 240.731 151.286 240.8 152.363C240.697 151.544 240.542 150.726 240.25 149.916C240.121 150.657 240.103 151.389 240.129 152.13C239.974 150.588 239.777 149.055 239.372 147.513C239.261 148.917 239.312 150.321 239.415 151.725C239.278 150.588 239.097 149.451 238.788 148.314C238.667 149.623 238.71 150.941 238.805 152.251C238.702 151.476 238.547 150.692 238.272 149.916C238.117 150.778 238.117 151.648 238.168 152.509C238.082 151.915 237.953 151.312 237.678 150.717C237.523 151.303 237.489 151.88 237.506 152.466C237.386 151.346 237.205 150.235 236.87 149.115C236.715 150.373 236.767 151.631 236.87 152.897C236.792 152.458 236.672 152.018 236.431 151.588C236.242 152.122 236.216 152.664 236.242 153.199C236.182 152.871 236.061 152.544 235.829 152.216C235.597 152.647 235.571 153.078 235.597 153.509C235.649 153.939 235.743 154.37 236.061 154.801C236.251 154.456 236.302 154.103 236.294 153.759C236.362 154.258 236.491 154.749 236.758 155.249C236.939 154.749 236.973 154.25 236.956 153.741C237.076 154.775 237.248 155.809 237.566 156.843C237.704 155.731 237.678 154.629 237.601 153.517C237.687 154.094 237.824 154.672 238.082 155.24C238.246 154.646 238.272 154.06 238.254 153.466C238.358 154.327 238.512 155.18 238.813 156.041C238.96 155.223 238.968 154.405 238.925 153.586C239.063 154.818 239.252 156.041 239.587 157.273C239.708 155.99 239.665 154.706 239.579 153.423C239.725 154.646 239.914 155.869 240.232 157.092C240.336 155.869 240.31 154.646 240.232 153.423C240.336 154.301 240.49 155.171 240.8 156.05C240.946 155.24 240.955 154.43 240.912 153.629C241.032 154.706 241.204 155.774 241.531 156.851C241.669 155.74 241.643 154.637 241.565 153.526C241.651 154.103 241.789 154.68 242.047 155.249C242.202 154.68 242.236 154.12 242.219 153.552C242.365 154.913 242.563 156.283 242.924 157.644C243.027 156.403 243.002 155.163 242.924 153.922C243.088 155.43 243.303 156.937 243.664 158.445C243.758 156.868 243.69 155.292 243.569 153.715C243.672 154.491 243.827 155.266 244.102 156.041C244.249 155.214 244.257 154.379 244.206 153.552C244.309 154.379 244.464 155.214 244.756 156.041C244.911 155.18 244.911 154.327 244.859 153.466C244.971 154.405 245.143 155.335 245.435 156.274C245.573 155.318 245.564 154.353 245.504 153.397C245.59 154.017 245.719 154.629 246.003 155.249C246.175 154.629 246.192 154.008 246.166 153.397C246.244 153.905 246.364 154.422 246.631 154.93C246.803 154.422 246.837 153.922 246.82 153.414C246.889 153.853 247.001 154.293 247.267 154.741C247.448 154.318 247.491 153.888 247.482 153.466C247.551 153.914 247.671 154.362 247.929 154.81C248.11 154.379 248.153 153.948 248.144 153.526C248.213 153.957 248.325 154.387 248.592 154.818C248.781 154.387 248.824 153.948 248.807 153.517C248.875 153.922 248.996 154.336 249.245 154.741C249.426 154.318 249.469 153.896 249.46 153.483C249.538 153.991 249.658 154.499 249.925 155.008C250.105 154.499 250.14 153.991 250.122 153.491C250.2 154.069 250.337 154.654 250.604 155.232C250.767 154.663 250.802 154.094 250.776 153.526C250.879 154.37 251.034 155.214 251.335 156.059C251.481 155.257 251.49 154.448 251.447 153.647C251.567 154.715 251.739 155.783 252.066 156.86C252.204 155.749 252.178 154.637 252.1 153.535C252.186 154.112 252.324 154.689 252.582 155.266C252.737 154.698 252.771 154.138 252.754 153.569C252.9 154.93 253.098 156.3 253.459 157.661C253.562 156.421 253.537 155.18 253.459 153.939C253.623 155.447 253.838 156.955 254.199 158.462C254.293 156.886 254.225 155.309 254.104 153.733C254.207 154.508 254.362 155.283 254.637 156.059C254.784 155.249 254.792 154.439 254.749 153.638C254.87 154.715 255.042 155.792 255.368 156.86C255.506 155.749 255.48 154.637 255.403 153.526C255.489 154.103 255.626 154.68 255.884 155.258C256.039 154.689 256.074 154.129 256.056 153.56C256.203 154.922 256.4 156.291 256.762 157.652C256.865 156.412 256.839 155.171 256.762 153.931C256.925 155.438 257.14 156.946 257.501 158.454C257.596 156.877 257.527 155.301 257.415 153.724C257.518 154.499 257.673 155.275 257.948 156.05C258.095 155.24 258.103 154.43 258.06 153.629C258.181 154.706 258.353 155.783 258.679 156.851C258.817 155.74 258.791 154.629 258.714 153.526C258.8 154.103 258.937 154.68 259.195 155.258C259.35 154.689 259.385 154.129 259.367 153.56C259.514 154.922 259.711 156.291 260.073 157.652C260.176 156.412 260.15 155.171 260.073 153.931C260.236 155.438 260.451 156.946 260.812 158.454C260.907 156.877 260.838 155.301 260.726 153.724C260.829 154.499 260.984 155.275 261.259 156.05C261.406 155.24 261.414 154.439 261.371 153.629C261.492 154.706 261.664 155.774 261.99 156.851C262.128 155.74 262.102 154.629 262.025 153.526C262.111 154.103 262.248 154.68 262.506 155.258C262.661 154.68 262.696 154.103 262.678 153.526C262.799 154.637 262.979 155.749 263.315 156.86C263.452 155.749 263.427 154.637 263.349 153.535C263.435 154.112 263.573 154.689 263.831 155.266C263.994 154.672 264.02 154.086 264.003 153.491C264.106 154.353 264.261 155.206 264.562 156.067C264.699 155.275 264.717 154.491 264.674 153.698C264.82 155.025 265.009 156.343 265.362 157.67C265.465 156.429 265.439 155.189 265.362 153.948C265.525 155.456 265.74 156.963 266.101 158.471C266.213 156.653 266.101 154.827 265.955 153.009L265.946 152.975Z" fill="#407BFF"/>
<path opacity="0.5" d="M225.965 159.97H225.526L224.279 145.988H224.709L225.965 159.97Z" fill="white"/>
<path opacity="0.5" d="M238.529 168.422H235.915L235.597 164.838H238.202L238.529 168.422Z" fill="white"/>
<path d="M225.431 167.198H224.012L223.772 167.887H223.488L224.425 165.303H224.692L226.094 167.887H225.81L225.44 167.198H225.431ZM225.311 166.974L224.571 165.587L224.081 166.974H225.311Z" fill="#407BFF"/>
<path d="M228.941 167.198C228.984 167.637 228.683 167.887 228.046 167.887H226.868L226.636 165.303H227.737C228.304 165.303 228.657 165.544 228.691 165.966C228.717 166.259 228.579 166.457 228.356 166.552C228.691 166.629 228.906 166.845 228.941 167.198ZM226.928 165.527L227.014 166.466H227.831C228.244 166.466 228.459 166.311 228.433 166.001C228.407 165.69 228.158 165.535 227.745 165.535H226.928V165.527ZM228.674 167.172C228.64 166.836 228.382 166.69 227.934 166.69H227.031L227.117 167.663H228.02C228.468 167.663 228.7 167.517 228.674 167.172Z" fill="#407BFF"/>
<path d="M229.645 166.595C229.576 165.837 230.093 165.277 230.867 165.277C231.236 165.277 231.589 165.407 231.838 165.656L231.683 165.829C231.46 165.613 231.193 165.519 230.901 165.519C230.282 165.519 229.86 165.975 229.921 166.587C229.972 167.198 230.48 167.655 231.099 167.655C231.391 167.655 231.641 167.56 231.83 167.345L232.019 167.517C231.813 167.767 231.494 167.896 231.116 167.896C230.35 167.896 229.731 167.336 229.662 166.578L229.645 166.595Z" fill="#407BFF"/>
<path d="M232.742 165.303H233.782C234.599 165.303 235.201 165.837 235.27 166.595C235.339 167.353 234.831 167.887 234.014 167.887H232.974L232.742 165.303ZM233.98 167.655C234.66 167.655 235.055 167.215 235.004 166.595C234.952 165.975 234.47 165.535 233.791 165.535H233.034L233.223 167.646H233.98V167.655Z" fill="#407BFF"/>
<path d="M238.142 167.655L238.159 167.887H236.353L236.121 165.303H237.876L237.893 165.535H236.413L236.499 166.457H237.824L237.841 166.69H236.517L236.603 167.655H238.142Z" fill="#407BFF"/>
<path d="M239.217 165.544L239.312 166.561H240.636L240.653 166.793H239.329L239.424 167.887H239.157L238.925 165.303H240.679L240.696 165.535H239.217V165.544Z" fill="#407BFF"/>
<path d="M243.483 166.595H243.741L243.827 167.577C243.603 167.793 243.277 167.905 242.915 167.905C242.141 167.905 241.522 167.345 241.453 166.587C241.385 165.829 241.901 165.269 242.683 165.269C243.07 165.269 243.414 165.398 243.664 165.639L243.509 165.811C243.277 165.596 243.01 165.51 242.709 165.51C242.081 165.51 241.651 165.966 241.711 166.578C241.763 167.19 242.27 167.646 242.898 167.646C243.139 167.646 243.363 167.595 243.552 167.448L243.474 166.578L243.483 166.595Z" fill="#407BFF"/>
<path d="M246.897 165.303L247.129 167.887H246.863L246.759 166.698H245.16L245.263 167.887H244.996L244.764 165.303H245.031L245.134 166.457H246.734L246.63 165.303H246.897Z" fill="#407BFF"/>
<path d="M248.093 165.303H248.359L248.592 167.887H248.325L248.093 165.303Z" fill="#407BFF"/>
<path d="M249.322 167.543L249.468 167.362C249.623 167.569 249.821 167.681 250.045 167.681C250.354 167.681 250.5 167.491 250.466 167.112L250.328 165.544H249.391L249.374 165.312H250.578L250.741 167.103C250.793 167.646 250.561 167.922 250.07 167.922C249.778 167.922 249.511 167.793 249.331 167.551L249.322 167.543Z" fill="#407BFF"/>
<path d="M252.668 166.673L252.195 167.207L252.255 167.887H251.989L251.756 165.303H252.023L252.161 166.862L253.519 165.303H253.829L252.831 166.474L254.139 167.887H253.82L252.668 166.673Z" fill="#407BFF"/>
<path d="M254.715 165.303H254.981L255.196 167.655H256.624L256.641 167.887H254.938L254.706 165.303H254.715Z" fill="#407BFF"/>
<path d="M259.875 165.303L260.107 167.887H259.849L259.66 165.82L258.817 167.56H258.688L257.527 165.837L257.707 167.896H257.449L257.217 165.311H257.441L258.722 167.224L259.651 165.311H259.875V165.303Z" fill="#407BFF"/>
<path d="M225.027 169.731L225.26 172.316H225.036L223.204 170.222L223.393 172.316H223.127L222.895 169.731H223.118L224.95 171.825L224.761 169.731H225.027Z" fill="#407BFF"/>
<path d="M226.119 171.023C226.051 170.265 226.567 169.705 227.341 169.705C228.115 169.705 228.725 170.265 228.794 171.023C228.863 171.781 228.338 172.333 227.573 172.333C226.807 172.333 226.18 171.773 226.111 171.023H226.119ZM228.527 171.023C228.476 170.403 227.977 169.955 227.366 169.955C226.756 169.955 226.334 170.411 226.386 171.023C226.438 171.643 226.945 172.091 227.556 172.091C228.166 172.091 228.588 171.635 228.527 171.023Z" fill="#407BFF"/>
<path d="M231.735 170.619C231.787 171.17 231.417 171.498 230.772 171.498H230.084L230.153 172.316H229.886L229.654 169.731H230.609C231.254 169.731 231.684 170.059 231.735 170.619ZM231.469 170.619C231.434 170.205 231.142 169.973 230.626 169.973H229.947L230.058 171.265H230.738C231.245 171.265 231.495 171.032 231.46 170.619H231.469Z" fill="#407BFF"/>
<path d="M235.459 172.531C235.322 172.72 235.115 172.824 234.866 172.824C234.565 172.824 234.307 172.686 233.937 172.333C233.189 172.307 232.587 171.755 232.527 171.023C232.458 170.265 232.974 169.705 233.748 169.705C234.522 169.705 235.132 170.265 235.201 171.023C235.261 171.687 234.874 172.186 234.264 172.315C234.479 172.522 234.659 172.617 234.849 172.617C235.038 172.617 235.193 172.539 235.313 172.384L235.459 172.539V172.531ZM233.963 172.091C234.573 172.091 234.986 171.635 234.935 171.023C234.883 170.411 234.384 169.955 233.774 169.955C233.163 169.955 232.742 170.411 232.793 171.023C232.845 171.635 233.352 172.091 233.963 172.091Z" fill="#407BFF"/>
<path d="M238.039 172.316L237.377 171.489C237.308 171.489 237.248 171.498 237.17 171.498H236.482L236.56 172.316H236.293L236.061 169.731H237.016C237.661 169.731 238.091 170.059 238.142 170.619C238.177 171.024 237.996 171.308 237.635 171.429L238.34 172.316H238.048H238.039ZM237.876 170.619C237.841 170.205 237.549 169.973 237.033 169.973H236.353L236.474 171.265H237.153C237.661 171.265 237.91 171.024 237.876 170.619Z" fill="#407BFF"/>
<path d="M239.028 171.997L239.114 171.79C239.312 171.971 239.647 172.1 239.982 172.1C240.464 172.1 240.653 171.893 240.627 171.643C240.567 170.937 239.028 171.368 238.942 170.411C238.907 170.032 239.174 169.705 239.819 169.705C240.103 169.705 240.412 169.791 240.627 169.938L240.559 170.153C240.327 170.007 240.069 169.938 239.836 169.938C239.372 169.938 239.183 170.144 239.2 170.403C239.26 171.109 240.8 170.687 240.886 171.626C240.92 172.005 240.653 172.333 240 172.333C239.613 172.333 239.226 172.195 239.019 171.997H239.028Z" fill="#407BFF"/>
<path d="M242.159 169.964H241.264L241.247 169.731H243.311L243.328 169.964H242.434L242.64 172.307H242.374L242.159 169.964Z" fill="#407BFF"/>
<path d="M244.162 171.213L244.033 169.731H244.3L244.429 171.205C244.48 171.816 244.79 172.101 245.289 172.101C245.788 172.101 246.046 171.816 245.994 171.205L245.865 169.731H246.132L246.261 171.213C246.329 171.954 245.968 172.342 245.315 172.342C244.661 172.342 244.231 171.954 244.162 171.213Z" fill="#407BFF"/>
<path d="M249.434 169.731L248.531 172.316H248.264L246.897 169.731H247.189L248.368 171.98L249.15 169.731H249.425H249.434Z" fill="#407BFF"/>
<path d="M253.725 169.731L253.098 172.316H252.814L251.868 170.111L251.317 172.316H251.034L249.941 169.731H250.217L251.154 171.954L251.713 169.731H251.962L252.917 171.963L253.467 169.731H253.725Z" fill="#407BFF"/>
<path d="M256.392 172.316L255.463 171.179L254.74 172.316H254.431L255.282 170.989L254.259 169.731H254.568L255.437 170.791L256.108 169.731H256.4L255.609 170.981L256.701 172.316H256.383H256.392Z" fill="#407BFF"/>
<path d="M258.232 171.42L258.309 172.316H258.043L257.965 171.42L256.796 169.731H257.088L258.094 171.179L258.843 169.731H259.109L258.241 171.42H258.232Z" fill="#407BFF"/>
<path d="M261.947 172.075L261.964 172.307H259.874L259.857 172.118L261.354 169.955H259.685L259.668 169.723H261.689L261.706 169.912L260.21 172.075H261.947Z" fill="#407BFF"/>
<path d="M177.736 144.49C177.736 144.49 178.648 144.49 176.429 144.49C171.269 144.49 168.947 178.381 154.336 178.381C136.74 178.381 136.68 96.565 124.399 86.4941" stroke="#263238" stroke-linecap="round" stroke-linejoin="round"/>
<path d="M212.213 140.69H175.302V192.388H212.213V140.69Z" fill="#263238"/>
<path opacity="0.3" d="M212.205 140.69H195.031V192.388H212.205V140.69Z" fill="white"/>
<path opacity="0.3" d="M182.329 140.69L195.031 175.555H212.205V176.692H195.031L180.058 140.69H182.329Z" fill="white"/>
<path opacity="0.3" d="M205.118 153.69V154.664C205.772 154.81 206.271 155.405 206.271 156.102C206.271 156.8 205.772 157.395 205.118 157.55V175.331H204.456V157.55C203.803 157.395 203.312 156.809 203.312 156.102C203.312 155.396 203.803 154.81 204.456 154.664V153.69C203.226 153.527 202.263 152.476 202.263 151.192C202.263 149.908 203.226 148.857 204.456 148.694V140.69H205.118V148.694C206.357 148.857 207.32 149.908 207.32 151.192C207.32 152.476 206.357 153.527 205.118 153.69Z" fill="black"/>
<path opacity="0.3" d="M206.89 151.192C206.89 152.355 205.953 153.294 204.792 153.294C203.631 153.294 202.693 152.355 202.693 151.192C202.693 150.029 203.631 149.09 204.792 149.09C205.953 149.09 206.89 150.029 206.89 151.192Z" fill="white"/>
<path opacity="0.3" d="M205.841 156.103C205.841 156.68 205.368 157.154 204.792 157.154C204.216 157.154 203.743 156.68 203.743 156.103C203.743 155.526 204.216 155.052 204.792 155.052C205.368 155.052 205.841 155.526 205.841 156.103Z" fill="white"/>
<path d="M175.044 294.217H197.189C198.428 294.217 199.434 295.225 199.434 296.465V309C199.434 310.241 198.428 311.248 197.189 311.248H175.044C173.806 311.248 172.8 310.241 172.8 309V296.465C172.8 295.225 173.806 294.217 175.044 294.217Z" fill="#263238"/>
<path opacity="0.2" d="M184.685 294.217H197.198C198.436 294.217 199.443 295.225 199.443 296.465V309C199.443 310.241 198.436 311.248 197.198 311.248H184.685C183.447 311.248 182.44 310.241 182.44 309V296.465C182.44 295.225 183.447 294.217 184.685 294.217Z" fill="white"/>
<path d="M210.95 311.757H206.392L198.222 197.722H204.259L210.95 311.757Z" fill="#263238"/>
<path opacity="0.4" d="M210.949 311.757H206.391L198.617 203.381L198.213 197.902H204.259L204.585 203.381L210.949 311.757Z" fill="white"/>
<path opacity="0.2" d="M204.585 203.114H198.617L198.213 197.902H204.259L204.585 203.114Z" fill="black"/>
<path d="M318.63 311.757H314.081L313.333 197.722H319.37L318.63 311.757Z" fill="#263238"/>
<path opacity="0.5" d="M319.378 197.902L319.258 216.304L318.63 311.757H314.081L313.453 216.304L313.333 197.902H319.378Z" fill="white"/>
<path opacity="0.2" d="M319.378 197.902L319.258 216.502H313.453L313.333 197.902H319.378Z" fill="black"/>
<path d="M366.945 311.757H362.395L354.217 197.722H360.254L366.945 311.757Z" fill="#263238"/>
<path opacity="0.5" d="M366.945 311.757H362.395L354.612 203.381L354.217 197.902H360.254L360.581 203.381L366.945 311.757Z" fill="white"/>
<path opacity="0.2" d="M360.581 203.114H354.612L354.217 197.902H360.254L360.581 203.114Z" fill="black"/>
<path d="M158.885 311.757H154.335L161.026 197.722H167.063L158.885 311.757Z" fill="#263238"/>
<path opacity="0.5" d="M167.063 197.902L166.659 203.381L158.885 311.757H154.335L160.691 203.381L161.018 197.902H167.063Z" fill="white"/>
<path opacity="0.2" d="M161.018 197.902H167.064L166.659 203.114H160.691L161.018 197.902Z" fill="black"/>
<path d="M156.236 194.861H365.036V198.712C365.036 199.737 364.202 200.573 363.178 200.573H158.094C157.071 200.573 156.236 199.737 156.236 198.712V194.861Z" fill="#407BFF"/>
<path opacity="0.6" d="M156.236 194.861H365.036V198.712C365.036 199.737 364.202 200.573 363.178 200.573H158.094C157.071 200.573 156.236 199.737 156.236 198.712V194.861Z" fill="white"/>
<path opacity="0.2" d="M365.036 194.861H156.236V197.721H365.036V194.861Z" fill="black"/>
<path d="M367.856 195.611H153.415C152.53 195.611 151.807 194.887 151.807 194C151.807 193.112 152.53 192.389 153.415 192.389H367.856C368.742 192.389 369.465 193.112 369.465 194C369.465 194.887 368.742 195.611 367.856 195.611Z" fill="#407BFF"/>
<path opacity="0.6" d="M367.856 195.611H153.415C152.53 195.611 151.807 194.887 151.807 194C151.807 193.112 152.53 192.389 153.415 192.389H367.856C368.742 192.389 369.465 193.112 369.465 194C369.465 194.887 368.742 195.611 367.856 195.611Z" fill="white"/>
</g>
<defs>
<clipPath id="clip0_1200_7095">
<rect width="430" height="321" fill="white"/>
</clipPath>
</defs>
</svg>
