<svg width="383" height="412" viewBox="0 0 383 412" fill="none" xmlns="http://www.w3.org/2000/svg">
<path d="M1.97998 201.8H378.54" stroke="#DED8D5" stroke-width="1.97" stroke-miterlimit="10"/>
<path d="M372.01 177.11H8.49998C4.89908 177.11 1.97998 180.029 1.97998 183.63V403.57C1.97998 407.171 4.89908 410.09 8.49998 410.09H372.01C375.611 410.09 378.53 407.171 378.53 403.57V183.63C378.53 180.029 375.611 177.11 372.01 177.11Z" stroke="#DED8D5" stroke-width="1.97" stroke-miterlimit="10"/>
<path d="M26.7999 189.71C26.7999 191.61 25.2599 193.15 23.3599 193.15C21.4599 193.15 19.9199 191.61 19.9199 189.71C19.9199 187.81 21.4599 186.27 23.3599 186.27C25.2599 186.27 26.7999 187.81 26.7999 189.71Z" fill="#FFB1A5"/>
<path d="M40.1901 189.71C40.1901 191.61 38.6501 193.15 36.7501 193.15C34.8501 193.15 33.3101 191.61 33.3101 189.71C33.3101 187.81 34.8501 186.27 36.7501 186.27C38.6501 186.27 40.1901 187.81 40.1901 189.71Z" fill="#EAD254"/>
<path d="M53.5699 189.71C53.5699 191.61 52.0299 193.15 50.1299 193.15C48.2299 193.15 46.6899 191.61 46.6899 189.71C46.6899 187.81 48.2299 186.27 50.1299 186.27C52.0299 186.27 53.5699 187.81 53.5699 189.71Z" fill="#00857B"/>
<path d="M363.216 28H287.314C284.379 28 282 30.3794 282 33.3145V103.316C282 106.251 284.379 108.63 287.314 108.63H363.216C366.151 108.63 368.53 106.251 368.53 103.316V33.3145C368.53 30.3794 366.151 28 363.216 28Z" fill="#EDEDED"/>
<path d="M363.216 28H287.314C284.379 28 282 30.3794 282 33.3145V103.316C282 106.251 284.379 108.63 287.314 108.63H363.216C366.151 108.63 368.53 106.251 368.53 103.316V33.3145C368.53 30.3794 366.151 28 363.216 28Z" stroke="#DED8D5" stroke-width="1.97" stroke-miterlimit="10"/>
<path d="M306.301 87.6562H344.487C347.436 87.6562 349.828 85.265 349.828 82.3152V51.4934C349.828 48.5436 347.436 46.1523 344.487 46.1523L306.301 46.1523C303.351 46.1523 300.96 48.5436 300.96 51.4934V82.3152C300.96 85.265 303.351 87.6562 306.301 87.6562Z" fill="#C98BD2"/>
<path d="M336.546 73.8067H317.444H313.993V58.6797H336.546V62.4592V73.8067Z" stroke="white" stroke-width="1.65" stroke-linecap="round" stroke-linejoin="round"/>
<path d="M313.993 58.6797L325.27 67.5696L336.546 58.6797" stroke="white" stroke-width="1.65" stroke-linecap="round" stroke-linejoin="round"/>
<path d="M87.9665 20H16.0335C13.2536 20 11 22.2536 11 25.0336V87.4283C11 90.2082 13.2536 92.4618 16.0335 92.4618H87.9665C90.7464 92.4618 93 90.2082 93 87.4283V25.0336C93 22.2536 90.7464 20 87.9665 20Z" fill="#EDEDED"/>
<path d="M87.9665 20H16.0335C13.2536 20 11 22.2536 11 25.0336V87.4283C11 90.2082 13.2536 92.4618 16.0335 92.4618H87.9665C90.7464 92.4618 93 90.2082 93 87.4283V25.0336C93 22.2536 90.7464 20 87.9665 20Z" stroke="#DED8D5" stroke-width="1.97" stroke-miterlimit="10"/>
<path d="M69.657 32.4121H33.9461C30.7134 32.4121 28.0928 35.0328 28.0928 38.2655V72.654C28.0928 75.8867 30.7134 78.5073 33.9461 78.5073H69.657C72.8897 78.5073 75.5103 75.8867 75.5103 72.654V38.2655C75.5103 35.0328 72.8897 32.4121 69.657 32.4121Z" fill="#FFB1A5"/>
<path d="M42.612 46.4108C37.4021 51.6207 37.4021 60.1627 42.612 65.3725C47.8218 70.5824 56.3639 70.5824 61.5737 65.3725C66.7836 60.1627 66.7836 51.6207 61.5737 46.4108C56.3639 41.201 47.8218 41.201 42.612 46.4108ZM61.5384 48.3414H57.263C56.8311 47.0014 56.2845 45.6615 55.6057 44.3128C57.9682 45.0268 60.031 46.4549 61.5384 48.3414ZM47.1695 55.1027C47.1695 53.3661 47.3722 51.6382 47.8042 49.9016H56.3815C56.8134 51.6382 57.0162 53.3661 57.0162 55.1027H47.1695ZM56.9633 56.6718C56.8487 58.3996 56.5313 60.1362 56.0465 61.8728H48.148C47.6631 60.145 47.3458 58.4084 47.2312 56.6718H56.9721H56.9633ZM52.0972 43.7926C52.7408 43.7926 53.3755 43.8456 53.9925 43.9425C54.8124 45.4059 55.4559 46.878 55.9319 48.3414H48.2538C48.7298 46.878 49.3733 45.4059 50.1931 43.9425C50.8102 43.8456 51.4449 43.7926 52.0884 43.7926H52.0972ZM48.5799 44.3128C47.9012 45.6527 47.3458 46.9926 46.9227 48.3414H42.6472C44.1547 46.4549 46.2174 45.0356 48.5799 44.3128ZM41.5806 49.9105H46.4731C46.0411 51.6471 45.8207 53.3749 45.7855 55.1115H40.0203C40.1437 53.2338 40.6902 51.4619 41.5718 49.9105H41.5806ZM41.5806 61.8728C40.6991 60.3213 40.1437 58.5583 40.0291 56.6718H45.8119C45.9001 58.3996 46.1734 60.1362 46.6318 61.8728H41.5806ZM42.6472 63.442H47.0902C47.5309 64.7995 48.0863 66.1571 48.7386 67.5147C46.3056 66.8094 44.1811 65.3637 42.6384 63.442H42.6472ZM52.0972 67.9907C51.5595 67.9907 51.0306 67.9554 50.5105 67.8849C49.77 66.4039 49.1441 64.923 48.6328 63.442H55.5528C55.0504 64.923 54.4157 66.4039 53.6752 67.8849C53.1551 67.9554 52.6262 67.9907 52.0884 67.9907H52.0972ZM55.4471 67.5235C56.1082 66.1659 56.6548 64.8083 57.0955 63.4508H61.5384C59.9958 65.3813 57.8801 66.8271 55.4382 67.5235H55.4471ZM62.6139 61.8817H57.5627C58.0211 60.145 58.2944 58.4172 58.3826 56.6806H64.1654C64.042 58.5583 63.4954 60.3302 62.6139 61.8817ZM64.1654 55.1203H58.4002C58.3649 53.3837 58.1445 51.6559 57.7126 49.9193H62.6051C63.4866 51.4708 64.042 53.2339 64.1566 55.1203H64.1654Z" fill="white"/>
<path d="M262.32 120.72H185.86C184.28 120.72 183 119.44 183 117.86C183 116.28 184.28 115 185.86 115H262.32C263.9 115 265.18 116.28 265.18 117.86C265.18 119.44 263.9 120.72 262.32 120.72Z" fill="#C98BD2"/>
<path d="M189.97 62.72H152.86C151.28 62.72 150 61.44 150 59.86C150 58.28 151.28 57 152.86 57H189.97C191.55 57 192.83 58.28 192.83 59.86C192.83 61.44 191.55 62.72 189.97 62.72Z" fill="#56DFED"/>
<path d="M227.99 143H224.86C223.28 143 222 144.28 222 145.86V148.71C222 150.289 223.28 151.57 224.86 151.57H227.99C229.57 151.57 230.85 150.289 230.85 148.71V145.86C230.85 144.28 229.57 143 227.99 143Z" fill="#C98BD2"/>
<path d="M223.14 0.189941H220.01C218.431 0.189941 217.15 1.47045 217.15 3.04999V5.89996C217.15 7.4795 218.431 8.75995 220.01 8.75995H223.14C224.72 8.75995 226 7.4795 226 5.89996V3.04999C226 1.47045 224.72 0.189941 223.14 0.189941Z" fill="#FFB1A5"/>
<path d="M321.06 129.69H247.07C245.408 129.69 244.06 131.038 244.06 132.7V149.65C244.06 151.312 245.408 152.66 247.07 152.66H321.06C322.722 152.66 324.07 151.312 324.07 149.65V132.7C324.07 131.038 322.722 129.69 321.06 129.69Z" fill="#FFB1A5"/>
<path d="M254.96 137.87H308.63" stroke="white" stroke-width="1.18" stroke-miterlimit="10"/>
<path d="M254.96 143.38H276.82" stroke="white" stroke-width="1.18" stroke-miterlimit="10"/>
<path d="M252.78 150.06V159.01L264.04 150.06H252.78Z" fill="#FFB1A5"/>
<path d="M99.8902 108.77H134.8C138.37 108.77 141.26 111.66 141.26 115.23V147.57C141.26 151.14 138.37 154.03 134.8 154.03H101.95C97.2502 154.03 93.4302 150.21 93.4302 145.51V115.23C93.4302 111.66 96.3202 108.77 99.8902 108.77Z" fill="#56DFED"/>
<path d="M128.5 134.74L125.78 132.02C125.29 131.49 124.66 131.19 124.03 131.19C123.4 131.19 122.77 131.48 122.28 131.97L120.72 133.53C120.62 133.48 120.53 133.43 120.43 133.38C120.24 133.28 120.09 133.23 119.94 133.14C118.48 132.22 117.17 131 115.9 129.44C115.32 128.71 114.88 128.03 114.64 127.45C115.03 127.11 115.37 126.72 115.71 126.38C115.86 126.23 116 126.09 116.15 125.94C116.68 125.41 116.98 124.77 116.98 124.14C116.98 123.51 116.69 122.88 116.15 122.34L114.79 120.98C114.64 120.83 114.5 120.69 114.35 120.49L113.43 119.57C112.94 119.08 112.31 118.79 111.68 118.79C111.05 118.79 110.46 119.03 109.93 119.57L108.23 121.27C107.6 121.9 107.21 122.73 107.11 123.65C107.01 125.11 107.4 126.47 107.74 127.35C108.52 129.59 109.73 131.58 111.53 133.72C113.72 136.3 116.3 138.34 119.31 139.8C120.43 140.33 121.98 140.97 123.69 141.11H124.03C125.2 141.11 126.17 140.67 126.95 139.85L127 139.8C127.24 139.51 127.54 139.22 127.88 138.92L128.51 138.29C129.53 137.22 129.53 135.76 128.51 134.74H128.5ZM127.38 137.27C127.19 137.46 126.99 137.66 126.8 137.85C126.46 138.14 126.17 138.48 125.83 138.82C125.34 139.31 124.81 139.55 124.08 139.55H123.84C122.38 139.45 121.02 138.87 120.05 138.38C117.28 137.02 114.85 135.12 112.8 132.69C111.15 130.7 110.03 128.8 109.25 126.81C108.76 125.64 108.57 124.72 108.67 123.79C108.72 123.26 108.91 122.77 109.35 122.38L111 120.73C111.15 120.58 111.39 120.39 111.68 120.39C111.97 120.39 112.17 120.54 112.36 120.73C112.65 121.02 112.94 121.31 113.24 121.61C113.39 121.76 113.53 121.95 113.73 122.1L115.09 123.46C115.24 123.61 115.43 123.9 115.43 124.14C115.43 124.43 115.24 124.67 115.09 124.82L114.65 125.26L113.43 126.48L113.38 126.53C112.89 127.02 112.99 127.45 113.09 127.75V127.8C113.43 128.68 113.97 129.45 114.69 130.43C116.05 132.13 117.51 133.45 119.12 134.47C119.31 134.62 119.56 134.71 119.75 134.81C119.94 134.91 120.09 134.96 120.24 135.05L120.29 135.1C120.78 135.34 121.26 135.25 121.65 134.86L123.35 133.16C123.5 133.01 123.74 132.82 124.03 132.82C124.27 132.82 124.52 133.01 124.66 133.16L127.38 135.88C127.82 136.32 127.82 136.8 127.38 137.29V137.27Z" fill="white"/>
<mask id="mask0_580_30098" style="mask-type:luminance" maskUnits="userSpaceOnUse" x="36" y="158" width="347" height="252">
<path d="M382.99 158.62H36.6699V409.48H382.99V158.62Z" fill="white"/>
</mask>
<g mask="url(#mask0_580_30098)">
<path d="M295.3 325.391L267.78 321.721L267.99 324.451L244.46 327.581C244.46 327.581 229.29 365.641 242.66 449.331H261.8L268.69 364.461H271.14L277.81 449.331H296.95C310.32 365.631 295.3 325.371 295.3 325.371V325.391Z" fill="#8E716C"/>
<path d="M259.94 364.48H279.91" stroke="#282828" stroke-width="1.23" stroke-linecap="round" stroke-linejoin="round"/>
<path d="M311.38 285.24C309.02 281.48 295.8 281.61 295.1 281.53C291.52 281.11 297.39 309.57 304.83 334.44C306.26 339.21 311.5 341.69 316.09 339.75C316.14 339.73 316.19 339.71 316.24 339.69C319.87 338.15 321.93 334.31 321.2 330.44C317.66 311.67 314.11 289.59 311.39 285.24H311.38Z" fill="#FFB1A5"/>
<path d="M314.53 295.53L297.64 302.09L296.06 294.07L313.54 289.71L314.53 295.53Z" fill="#F3978E"/>
<path d="M317.72 311.56C317.72 311.56 309.72 322.3 310.1 321.81C310.48 321.32 316.37 304.45 316.37 304.45L317.72 311.56Z" fill="#F3978E"/>
<path d="M329.16 297.12L306.23 326.83C303.22 330.73 304.18 336.37 308.31 339.05C312.44 341.73 317.97 340.32 320.31 336L339.4 300.78L329.16 297.12Z" fill="#FFB1A5"/>
<path d="M335.089 304.75C330.119 303.14 327.389 297.81 328.999 292.84C330.609 287.87 335.939 285.14 340.909 286.75C345.879 288.36 348.609 293.69 346.999 298.66C345.389 303.63 340.059 306.36 335.089 304.75Z" fill="#FFB1A5"/>
<path d="M344.9 290.06C344.9 290.06 347.49 287.37 342.9 285.49C338.31 283.61 332.63 284.04 329 292.84L344.9 290.06Z" fill="#FFB1A5"/>
<path d="M349.66 271.29L359.26 275.45C359.79 275.68 359.99 276.31 359.69 276.86L347.06 300.45C346.77 301 346.09 301.26 345.56 301.03L335.96 296.87C335.43 296.64 335.23 296.01 335.53 295.46L348.16 271.87C348.45 271.32 349.13 271.06 349.66 271.29Z" fill="#372F5F"/>
<path d="M348.74 270.87L358.34 275.03C358.87 275.26 359.07 275.89 358.77 276.44L346.14 300.03C345.85 300.58 345.17 300.84 344.64 300.61L335.04 296.45C334.51 296.22 334.31 295.59 334.61 295.04L347.24 271.45C347.53 270.9 348.21 270.64 348.74 270.87Z" fill="#261B43"/>
<path d="M347.66 273.27L356.09 276.93L345.8 296.16L337.36 292.5L347.66 273.27Z" fill="#E6E6E6"/>
<path d="M356.09 276.93L337.36 292.5L347.66 273.27L356.09 276.93Z" fill="white"/>
<path d="M340.139 284.71C340.139 284.71 342.279 285.13 344.209 286.22C345.059 286.7 345.499 287.68 345.259 288.63C345.049 289.49 344.319 290.14 343.439 290.25L338.449 290.88C338.449 290.88 335.849 295.37 332.439 295.87L335.559 287.99L340.139 284.71Z" fill="#FFB1A5"/>
<path d="M276.39 247.83C275.84 247.83 311.79 252.8 317.72 293.79L299.06 296.65L295.3 327.59H243.26L232.93 270.42C232.93 270.42 244.46 253.9 265.87 247.83H276.39Z" fill="#56DFED"/>
<path d="M299.06 296.65L300.68 278.75" stroke="#282828" stroke-width="1.23" stroke-linecap="round" stroke-linejoin="round"/>
<path d="M279.8 248.41V234.17H263.12V248.57C262.27 248.82 260.84 249.34 258.64 250.39L271.65 258.14L284.95 250.39C284.95 250.39 282.84 249.16 279.8 248.41Z" fill="#FFB1A5"/>
<path d="M262.959 235.911C262.959 235.911 265.959 243.871 273.959 243.181C281.309 242.551 280.139 231.521 280.139 231.521L262.959 235.911Z" fill="#282828"/>
<path d="M255.69 225.331C253.07 227.701 247.23 218.701 249.75 216.181C252.28 213.651 254.2 217.621 254.2 217.621L255.33 220.311L256.18 223.951L256.38 224.901L255.68 225.341L255.69 225.331Z" fill="#F3978E"/>
<path d="M250.97 219.371C250.97 219.371 252.95 218.481 254.71 221.351" stroke="#282828" stroke-width="0.99" stroke-linecap="round" stroke-linejoin="round"/>
<path d="M286.61 225.06C289.02 227.64 295.6 219.17 293.3 216.44C291 213.71 288.74 217.5 288.74 217.5L287.39 220.08L286.23 223.63L285.95 224.56L286.61 225.06Z" fill="#F3978E"/>
<path d="M291.82 219.52C291.82 219.52 289.92 218.47 287.93 221.18" stroke="#282828" stroke-width="0.99" stroke-linecap="round" stroke-linejoin="round"/>
<path d="M251.1 207.6C251.1 219.51 260.18 225.16 271.38 225.16C282.58 225.16 291.66 219.51 291.66 207.6C291.66 195.69 282.58 187.59 271.38 187.59C260.18 187.59 251.1 195.69 251.1 207.6Z" fill="#282828"/>
<path d="M253.86 208.43C253.86 215.74 254.89 222.05 255.92 226.53C256.93 230.91 259.77 233.98 263.79 236.44L264.52 236.89C268.77 239.5 274.26 239.56 278.57 237.05C282.92 234.51 285.97 231.17 286.9 226.47C288.6 217.91 288.79 208.44 288.79 208.44C288.79 208.44 290.41 189.98 271.57 190.34C252.73 190.7 253.85 208.44 253.85 208.44L253.86 208.43Z" fill="#FFB1A5"/>
<path d="M270.18 218.96V221.51C270.18 221.66 270.21 221.81 270.26 221.94C270.47 222.46 271.07 222.71 271.62 222.57L272.79 222.26" stroke="#282828" stroke-width="1.23" stroke-linecap="round" stroke-linejoin="round"/>
<path d="M267.19 209.06L257.83 211.25C257.83 211.25 258.26 208.87 262.09 208C265.92 207.13 267.2 209.05 267.2 209.05L267.19 209.06Z" fill="#282828"/>
<path d="M275.5 209.06L284.54 211.25C284.54 211.25 284.13 208.87 280.43 208C276.73 207.13 275.5 209.05 275.5 209.05V209.06Z" fill="#282828"/>
<path d="M263.63 217.5C264.502 217.5 265.21 216.797 265.21 215.93C265.21 215.063 264.502 214.36 263.63 214.36C262.757 214.36 262.05 215.063 262.05 215.93C262.05 216.797 262.757 217.5 263.63 217.5Z" fill="#282828"/>
<path d="M280.18 215.93C280.18 216.8 279.47 217.5 278.6 217.5C277.73 217.5 277.02 216.79 277.02 215.93C277.02 215.07 277.73 214.36 278.6 214.36C279.47 214.36 280.18 215.07 280.18 215.93Z" fill="#282828"/>
<path d="M265.209 225.54H277.389C277.389 225.54 271.989 232.11 265.209 225.54Z" fill="white"/>
<path d="M267.71 221.297C270.33 218.677 270.33 214.428 267.71 211.808C265.089 209.188 260.841 209.188 258.22 211.808C255.6 214.428 255.6 218.677 258.22 221.297C260.841 223.918 265.089 223.918 267.71 221.297Z" stroke="#C98BD2" stroke-width="1.34" stroke-miterlimit="10"/>
<path d="M284.207 221.29C286.827 218.67 286.827 214.421 284.207 211.801C281.586 209.18 277.338 209.18 274.717 211.801C272.097 214.421 272.097 218.67 274.717 221.29C277.338 223.911 281.586 223.911 284.207 221.29Z" stroke="#C98BD2" stroke-width="1.34" stroke-miterlimit="10"/>
<path d="M269.68 216.55C269.68 216.55 271.27 215.07 272.75 216.55" stroke="#C98BD2" stroke-width="1.34" stroke-miterlimit="10"/>
<path d="M256.25 216.55L254.13 216.49" stroke="#C98BD2" stroke-width="1.34" stroke-miterlimit="10"/>
<path d="M286.17 216.55L288.3 216.49" stroke="#C98BD2" stroke-width="1.34" stroke-miterlimit="10"/>
<path d="M288.549 214.55C288.549 214.55 281.019 204.37 282.749 194.05C282.749 194.05 288.339 196.86 289.799 204.13C291.259 211.39 288.549 214.55 288.549 214.55Z" fill="#282828"/>
<path d="M253.84 215.24C253.84 215.24 262.59 203.67 260.85 193.36C260.85 193.36 254.78 196.87 253.32 204.13C251.86 211.39 253.829 215.24 253.829 215.24H253.84Z" fill="#282828"/>
<path d="M287.92 198.11C287.92 198.11 278.25 208.7 251.79 206.89C251.79 206.89 255.84 191.35 268.67 189.7C268.67 189.7 283.48 187.93 287.93 198.12L287.92 198.11Z" fill="#282828"/>
<path d="M299.709 187.755C300.821 180.868 296.14 174.385 289.253 173.273C282.367 172.162 275.884 176.843 274.772 183.729C273.66 190.615 278.342 197.099 285.228 198.211C292.114 199.322 298.598 194.641 299.709 187.755Z" fill="#282828"/>
<path d="M133 325.36L109.47 322.23L109.68 319.5L82.16 323.17C82.16 323.17 67.14 363.43 80.51 447.13H99.65L106.32 362.26H108.77L115.66 447.13H134.8C148.17 363.43 133 325.38 133 325.38V325.36Z" fill="#282828"/>
<path d="M131.12 210.86C127.93 207.11 125.38 202.74 123.22 196.61C120.89 190.03 113.27 192.7 113.27 192.7C113.27 192.7 106.92 184.53 97.3699 187.38C87.8199 190.22 84.4999 197.02 84.2999 205.1C84.1099 213.18 77.7499 214.45 72.8499 223.8C64.2099 240.31 78.7599 254.21 105.24 250.35L105.28 250.09C107.89 250.88 111.08 251.23 114.99 251C146.81 249.11 143.74 225.71 131.12 210.86Z" fill="#282828"/>
<path d="M120.71 223.1C123.33 225.47 129.17 216.47 126.65 213.95C124.13 211.43 122.2 215.39 122.2 215.39L121.07 218.08L120.22 221.72L120.02 222.67L120.72 223.11L120.71 223.1Z" fill="#F3978E"/>
<path d="M125.42 217.14C125.42 217.14 123.44 216.25 121.68 219.12" stroke="#282828" stroke-width="0.99" stroke-linecap="round" stroke-linejoin="round"/>
<path d="M89.78 222.83C87.37 225.41 80.79 216.94 83.09 214.21C85.39 211.48 87.65 215.27 87.65 215.27L89 217.85L90.16 221.4L90.44 222.33L89.78 222.83Z" fill="#F3978E"/>
<path d="M84.5801 217.29C84.5801 217.29 86.4801 216.24 88.4701 218.95" stroke="#282828" stroke-width="0.99" stroke-linecap="round" stroke-linejoin="round"/>
<path d="M125.29 205.37C125.29 217.28 116.21 222.93 105.01 222.93C93.81 222.93 84.73 217.28 84.73 205.37C84.73 193.46 93.81 185.36 105.01 185.36C116.21 185.36 125.29 193.46 125.29 205.37Z" fill="#282828"/>
<path d="M113.27 231.94H96.5898V253.54H113.27V231.94Z" fill="#FFB1A5"/>
<path d="M94.1602 230.6C94.1602 230.6 98.8002 239.87 104.52 241.32C106.05 241.71 107.68 241.57 109.15 241.05C111.3 240.29 114.03 237.08 114.49 233.53L114.71 231.5C114.71 231.5 104.54 237.04 94.1702 230.59L94.1602 230.6Z" fill="#282828"/>
<path d="M122.54 206.2C122.54 213.51 121.51 219.82 120.48 224.3C119.47 228.68 116.63 231.75 112.61 234.21L111.88 234.66C107.63 237.27 102.14 237.33 97.8301 234.82C93.4801 232.28 90.4301 228.94 89.5001 224.24C87.8001 215.68 87.6101 206.21 87.6101 206.21C87.6101 206.21 85.9901 187.75 104.83 188.11C123.67 188.47 122.55 206.21 122.55 206.21L122.54 206.2Z" fill="#FFB1A5"/>
<path d="M103.75 217.73V219.25C103.75 219.4 103.78 219.55 103.83 219.68C104.04 220.2 104.64 220.45 105.19 220.31L106.36 220" stroke="#282828" stroke-width="1.23" stroke-linecap="round" stroke-linejoin="round"/>
<path d="M107.68 207.72L117.7 210.09C117.7 210.09 117.24 207.51 113.14 206.58C109.04 205.65 107.67 207.72 107.67 207.72H107.68Z" fill="#282828"/>
<path d="M102.42 207.72L92.27 210.09C92.27 210.09 92.73 207.51 96.88 206.58C101.03 205.64 102.42 207.72 102.42 207.72Z" fill="#282828"/>
<path d="M98.7801 213.95C98.7801 214.82 98.0701 215.52 97.2001 215.52C96.3301 215.52 95.6201 214.82 95.6201 213.95C95.6201 213.08 96.3301 212.38 97.2001 212.38C98.0701 212.38 98.7801 213.08 98.7801 213.95Z" fill="#282828"/>
<path d="M113.75 213.95C113.75 214.82 113.04 215.52 112.17 215.52C111.3 215.52 110.59 214.82 110.59 213.95C110.59 213.08 111.3 212.38 112.17 212.38C113.04 212.38 113.75 213.08 113.75 213.95Z" fill="#282828"/>
<path d="M97.7402 222.93H111.6C111.6 222.93 110.62 226.74 104.34 226.74C99.5502 226.74 97.7402 222.93 97.7402 222.93Z" fill="white"/>
<path d="M87.8401 212.32C87.8401 212.32 95.3701 202.14 93.6401 191.82C93.6401 191.82 88.0501 194.63 86.5901 201.9C85.1301 209.16 87.8401 212.32 87.8401 212.32Z" fill="#282828"/>
<path d="M122.55 211.98C122.55 211.98 113.8 201.44 115.54 191.13C115.54 191.13 121.61 194.64 123.07 201.9C124.53 209.16 122.56 211.98 122.56 211.98H122.55Z" fill="#282828"/>
<path d="M88.48 195.88C88.48 195.88 97.12 207.5 123.59 205.68C123.59 205.68 120.57 189.11 107.74 187.46C107.74 187.46 92.93 185.69 88.48 195.88Z" fill="#282828"/>
<path d="M64.3499 376.46C63.9699 377.07 86.3699 278.96 79.7199 280.44C79.1099 280.58 67.4599 281.66 65.7299 285.18C60.7099 295.39 57.1099 375.72 57.1099 375.72L64.3499 376.46Z" fill="#FFB1A5"/>
<path d="M57.1098 375.72C57.1098 375.72 53.4998 392.48 67.1498 394.31C68.0498 394.43 68.9198 393.9 69.2198 393.04L69.2598 392.93C69.5898 391.98 69.1098 390.97 68.1998 390.56C65.9698 389.56 62.5198 387.05 64.2298 381.34C64.2298 381.34 66.1998 381.1 67.2898 384.78C67.5698 385.73 68.6298 386.2 69.5198 385.76C70.1198 385.46 70.4598 384.81 70.3798 384.14C70.0498 381.56 68.7598 375.35 63.7798 373.69L57.1198 375.73L57.1098 375.72Z" fill="#FFB1A5"/>
<path d="M61.71 308.751C61.71 308.751 74.62 326.931 74.69 326.581C74.76 326.231 79.21 301.051 79.21 301.051L63.54 294.261L61.71 308.741V308.751Z" fill="#F3978E"/>
<path d="M97.5798 249.99C98.1297 249.99 65.6697 250.57 59.7397 291.56L78.3997 294.42L82.1598 325.36H134.2L144.53 268.19C144.53 268.19 137.18 255.8 115.78 249.73L97.5897 249.99H97.5798Z" fill="#00857B"/>
<path d="M81.72 254.951C81.72 254.951 86.31 261.041 105.1 261.041C123.89 261.041 128.48 254.631 128.48 254.631C128.48 254.631 117.5 248.501 104.76 246.511C104.76 246.511 93.39 248.541 81.71 254.951H81.72Z" fill="#FFB1A5"/>
<path d="M145.58 384.8L145.63 466.54H186.07L189.18 384.8H145.58Z" fill="#005683"/>
<path d="M233.39 384.8L233.34 466.54H192.9L189.8 384.8H233.39Z" fill="#005683"/>
<path d="M211.3 384.8H169.49V413.2H211.3V384.8Z" fill="#005683"/>
<path d="M258.94 313.46C261.45 341.16 258.8 361.34 259.53 412.31L235.39 413.32L231.79 317.91L258.93 313.45L258.94 313.46Z" fill="#FFB1A5"/>
<path d="M234.77 335.08C234.77 335.08 249.72 333.71 259.94 326.97L259.67 321.04L234.77 324.43V335.08Z" fill="#F3978E"/>
<path d="M210.8 249.69C210.8 249.69 258.28 261.63 266.88 321.89C266.88 321.89 243.64 331.96 220.36 327.63L225.6 307.47L210.81 249.69H210.8Z" fill="#C98BD2"/>
<path d="M68.9896 274.74L104.34 316.49L93.5196 346.95C93.5196 346.95 66.6496 309.6 54.5796 280.72L68.9896 274.74Z" fill="#FFB1A5"/>
<path d="M70.1495 276.25C70.1495 276.25 57.7395 283.26 54.5795 280.73C49.0595 276.3 44.4995 260.07 44.4995 260.07C44.4995 260.07 67.7095 251.32 67.4895 251.66C67.2695 252 70.1395 276.25 70.1395 276.25H70.1495Z" fill="#FFB1A5"/>
<path d="M70.1497 276.25C69.9297 275 74.7497 261.52 76.4097 256.46C76.8097 255.24 75.9697 253.9 74.6397 253.65C73.7797 253.48 72.4097 253.59 71.7697 254.83L65.9497 264.78L70.1497 276.25Z" fill="#FFB1A5"/>
<path d="M69.7196 261.681L65.7196 241.791C65.4796 240.471 64.1496 239.551 62.8296 239.811C61.6796 240.031 60.9196 241.051 61.0596 242.201L62.7996 257.011L69.7196 261.681Z" fill="#FFB1A5"/>
<path d="M61.7696 254.34L56.3396 240.14C55.8896 238.9 54.4896 238.21 53.2596 238.62C52.1896 238.98 51.5896 240.06 51.8396 241.17L55.8696 257.58L61.7696 254.34Z" fill="#FFB1A5"/>
<path d="M55.9395 258.531L49.0695 244.581C48.4395 243.291 46.8695 242.681 45.5795 243.241C44.3695 243.771 43.8395 245.14 44.3495 246.38L49.8295 259.551L55.9395 258.531Z" fill="#FFB1A5"/>
<path d="M44.4997 260.071L39.1097 251.521C38.6597 250.511 39.0797 249.391 40.0497 248.941C40.9797 248.511 42.1397 248.851 42.7397 249.721L49.8297 259.551L44.4997 260.061V260.071Z" fill="#FFB1A5"/>
<path d="M68.6397 260.181C68.6397 260.181 60.5497 259.331 59.7197 270.121" stroke="#282828" stroke-width="1.53" stroke-linecap="round" stroke-linejoin="round"/>
<path d="M86.3496 332.701C86.3496 332.701 92.9996 355.711 106.25 352.651C119.5 349.591 140.15 321.291 140.15 321.291L135.53 272.971L98.3396 318.741L86.3496 332.691V332.701Z" fill="#FFB1A5"/>
<path d="M109.87 304.531C109.87 304.531 122.42 323.471 133.13 330.141L140.14 321.291L113.1 300.371L109.87 304.521V304.531Z" fill="#F3978E"/>
<path d="M164.8 248.641C164.8 248.641 127.94 256.951 108.3 299.781C108.3 299.781 120.17 317.661 139.19 325.611L151.93 310.011L164.8 248.641Z" fill="#C98BD2"/>
<path d="M164.8 248.51C150.4 255.9 141.35 265.69 141.35 265.69L144.19 390.91H234.92L234.63 266.34C234.63 266.34 223.19 255.15 210.8 249.69C200.27 245.06 175.04 243.26 164.8 248.51Z" fill="#C98BD2"/>
<path d="M195.11 284.29H220.35V296.91C220.35 303.88 214.7 309.53 207.73 309.53C200.76 309.53 195.11 303.88 195.11 296.91V284.29Z" stroke="#282828" stroke-width="1.4" stroke-linecap="round" stroke-linejoin="round"/>
<path d="M234.77 328.09L235.95 287.13" stroke="#282828" stroke-width="1.4" stroke-linecap="round" stroke-linejoin="round"/>
<path d="M142.74 321.27L140.78 285.76" stroke="#282828" stroke-width="1.4" stroke-linecap="round" stroke-linejoin="round"/>
<path d="M165.859 202.77L162.079 184.06C161.869 182.54 161.279 180.18 161.999 177.97C163.199 174.31 167.599 167.29 175.129 170.51L176.759 177.92C176.759 177.92 168.949 179.5 165.809 189.72L165.869 202.77H165.859Z" fill="#282828"/>
<path d="M174.57 174.37C174.43 176.83 172.26 187.59 164.63 191.51C164.63 191.51 157.95 177.18 174.57 174.37Z" fill="#282828"/>
<path d="M201.33 245.06V213.29H172.04V245.06L163.32 249.03C163.32 249.03 165.37 262.2 186.99 262.49C208.62 262.78 210.79 249.68 210.79 249.68L201.33 245.06Z" fill="#FFB1A5"/>
<path d="M175.12 170.51C175.12 170.51 180.5 156.33 197.07 163.87C207.1 168.43 209.91 174.55 211.11 178.89C211.51 180.33 211.67 182.6 211.56 183.95L207.55 202.78L191.9 176.73L176.75 177.93L175.12 170.52V170.51Z" fill="#282828"/>
<path d="M207.55 202.77C207.55 202.77 209.52 199.63 213.6 201.17C217.67 202.71 215.83 212.61 209.72 213.87C209.72 213.87 207.53 214.35 205.81 212.85C205.81 212.85 207.31 205.54 207.55 202.77Z" fill="#F3978E"/>
<path d="M212.789 204.67C212.789 204.67 209.379 203.53 206.959 208.56" stroke="#282828" stroke-width="1.4" stroke-linecap="round" stroke-linejoin="round"/>
<path d="M165.86 202.77C165.86 202.77 163.89 199.63 159.81 201.17C155.74 202.71 157.58 212.61 163.69 213.87C163.69 213.87 165.88 214.35 167.6 212.85C167.6 212.85 166.1 205.54 165.86 202.77Z" fill="#F3978E"/>
<path d="M160.62 204.67C160.62 204.67 164.03 203.53 166.45 208.56" stroke="#282828" stroke-width="1.4" stroke-linecap="round" stroke-linejoin="round"/>
<path d="M207.959 193.39C207.959 199.35 207.379 211.83 203.709 219.23C200.269 226.18 194.579 229.92 187.109 230.15C179.649 230.37 174.089 227.5 169.629 218.47C165.169 209.45 165.389 193.5 165.389 193.5C165.389 193.5 165.389 172.2 186.439 172.2C208.609 172.2 207.959 193.39 207.959 193.39Z" fill="#FFB1A5"/>
<path d="M172.26 222.92C172.26 222.92 174.71 235.37 185.54 236.8C198.01 238.45 201.33 223.24 201.33 223.24C201.33 223.24 195.82 230.14 187.11 230.15C177.39 230.16 172.26 222.92 172.26 222.92Z" fill="#282828"/>
<path d="M185.179 202.23V207.16C185.179 207.37 185.219 207.57 185.299 207.76C185.589 208.49 186.429 208.84 187.189 208.64L188.819 208.21" stroke="#282828" stroke-width="1.4" stroke-linecap="round" stroke-linejoin="round"/>
<path d="M178.96 199.88C178.96 200.94 178.1 201.8 177.04 201.8C175.98 201.8 175.12 200.94 175.12 199.88C175.12 198.82 175.98 197.96 177.04 197.96C178.1 197.96 178.96 198.82 178.96 199.88Z" fill="#282828"/>
<path d="M196.929 199.88C196.929 200.94 196.069 201.8 195.009 201.8C193.949 201.8 193.089 200.94 193.089 199.88C193.089 198.82 193.949 197.96 195.009 197.96C196.069 197.96 196.929 198.82 196.929 199.88Z" fill="#282828"/>
<path d="M190.1 190.34L202.99 193.67C202.99 193.67 202.4 190.06 197.13 188.74C191.86 187.43 190.1 190.34 190.1 190.34Z" fill="#282828"/>
<path d="M182.099 190.34L169.209 193.67C169.209 193.67 169.799 190.06 175.069 188.74C180.339 187.43 182.099 190.34 182.099 190.34Z" fill="#282828"/>
<path d="M179.529 212.13C179.529 212.13 181.429 213.59 186.429 213.59C190.979 213.59 193.819 212.13 193.819 212.13" stroke="#282828" stroke-width="1.4" stroke-linecap="round" stroke-linejoin="round"/>
<path d="M176.53 208.58C181.025 208.58 184.67 204.936 184.67 200.44C184.67 195.945 181.025 192.3 176.53 192.3C172.034 192.3 168.39 195.945 168.39 200.44C168.39 204.936 172.034 208.58 176.53 208.58Z" stroke="white" stroke-width="1.95" stroke-miterlimit="10"/>
<path d="M196.53 208.58C201.025 208.58 204.67 204.936 204.67 200.44C204.67 195.945 201.025 192.3 196.53 192.3C192.034 192.3 188.39 195.945 188.39 200.44C188.39 204.936 192.034 208.58 196.53 208.58Z" stroke="white" stroke-width="1.95" stroke-miterlimit="10"/>
<path d="M184.669 200.44C184.669 200.44 186.599 198.64 188.389 200.44" stroke="white" stroke-width="1.95" stroke-miterlimit="10"/>
<path d="M168.379 200.44L165.649 200.37" stroke="white" stroke-width="1.95" stroke-miterlimit="10"/>
<path d="M204.679 200.44L207.719 200.39" stroke="white" stroke-width="1.95" stroke-miterlimit="10"/>
<path d="M172.26 174.86C172.26 174.86 176.17 185.97 193.82 185.63C205.81 185.4 208.68 194.08 208.68 194.08C208.68 194.08 206.59 174.68 206.04 174.86C205.49 175.04 187.79 170.14 187.79 170.14L172.26 174.86Z" fill="#282828"/>
</g>
</svg>
