<svg width="42" height="38" viewBox="0 0 42 38" fill="none" xmlns="http://www.w3.org/2000/svg">
<path d="M29.8461 0.857178C26.3205 0.857178 23.1914 2.30154 21.0715 4.78408C18.9515 2.30154 15.8225 0.857178 12.2969 0.857178C9.22614 0.861034 6.28224 2.12878 4.1109 4.38235C1.93956 6.63591 0.718071 9.6913 0.714355 12.8783C0.714355 26.0542 19.2832 36.5818 20.0729 37.0244C20.3798 37.196 20.7229 37.2857 21.0715 37.2857C21.4201 37.2857 21.7632 37.196 22.0701 37.0244C22.8598 36.5818 41.4286 26.0542 41.4286 12.8783C41.4249 9.6913 40.2034 6.63591 38.0321 4.38235C35.8608 2.12878 32.9169 0.861034 29.8461 0.857178ZM28.8827 26.7864C26.4385 28.939 23.8258 30.8764 21.0715 32.5784C18.3172 30.8764 15.7045 28.939 13.2603 26.7864C9.4574 23.4005 4.92618 18.2368 4.92618 12.8783C4.92618 10.8495 5.70273 8.9037 7.085 7.46908C8.46728 6.03446 10.342 5.2285 12.2969 5.2285C15.4206 5.2285 18.0355 6.9406 19.1218 9.69818C19.2799 10.1002 19.5498 10.4442 19.897 10.6863C20.2443 10.9285 20.6531 11.0578 21.0715 11.0578C21.4899 11.0578 21.8987 10.9285 22.246 10.6863C22.5932 10.4442 22.8631 10.1002 23.0212 9.69818C24.1075 6.9406 26.7224 5.2285 29.8461 5.2285C31.801 5.2285 33.6757 6.03446 35.058 7.46908C36.4403 8.9037 37.2168 10.8495 37.2168 12.8783C37.2168 18.2368 32.6856 23.4005 28.8827 26.7864Z" fill="#1E1E1E"/>
</svg>
