<svg width="28" height="28" viewBox="0 0 28 28" fill="none" xmlns="http://www.w3.org/2000/svg">
<path d="M18.5948 6C16.9495 6 15.4893 6.67403 14.5 7.83256C13.5107 6.67403 12.0505 6 10.4052 6C8.97216 6.0018 7.59834 6.59342 6.58505 7.64508C5.57176 8.69674 5.00173 10.1226 5 11.6099C5 17.7586 13.6655 22.6715 14.034 22.878C14.1772 22.9581 14.3373 23 14.5 23C14.6627 23 14.8228 22.9581 14.966 22.878C15.3345 22.6715 24 17.7586 24 11.6099C23.9983 10.1226 23.4282 8.69674 22.4149 7.64508C21.4017 6.59342 20.0278 6.0018 18.5948 6ZM18.1452 18.1003C17.0046 19.1048 15.7853 20.009 14.5 20.8032C13.2147 20.009 11.9954 19.1048 10.8548 18.1003C9.08009 16.5202 6.96552 14.1105 6.96552 11.6099C6.96552 10.6631 7.32791 9.75504 7.97297 9.08556C8.61803 8.41607 9.49292 8.03995 10.4052 8.03995C11.8629 8.03995 13.0832 8.83893 13.5901 10.1258C13.6639 10.3134 13.7899 10.4739 13.9519 10.5869C14.114 10.6999 14.3048 10.7603 14.5 10.7603C14.6952 10.7603 14.886 10.6999 15.0481 10.5869C15.2101 10.4739 15.3361 10.3134 15.4099 10.1258C15.9168 8.83893 17.1371 8.03995 18.5948 8.03995C19.5071 8.03995 20.382 8.41607 21.027 9.08556C21.6721 9.75504 22.0345 10.6631 22.0345 11.6099C22.0345 14.1105 19.9199 16.5202 18.1452 18.1003Z" fill="#1E1E1E"/>
</svg>
