<svg width="31" height="27" viewBox="0 0 31 27" fill="none" xmlns="http://www.w3.org/2000/svg">
<path d="M22.181 0C19.4966 0 17.1141 1.07052 15.5 2.91053C13.8859 1.07052 11.5034 0 8.81896 0C6.4809 0.00285801 4.2394 0.942483 2.58614 2.61277C0.932876 4.28306 0.00282888 6.54764 0 8.90979C0 18.6755 14.1384 26.4783 14.7397 26.8063C14.9734 26.9334 15.2346 27 15.5 27C15.7654 27 16.0266 26.9334 16.2603 26.8063C16.8616 26.4783 31 18.6755 31 8.90979C30.9972 6.54764 30.0671 4.28306 28.4139 2.61277C26.7606 0.942483 24.5191 0.00285801 22.181 0ZM21.4475 19.2181C19.5865 20.8136 17.5971 22.2495 15.5 23.511C13.4029 22.2495 11.4135 20.8136 9.55254 19.2181C6.65698 16.7086 3.2069 12.8814 3.2069 8.90979C3.2069 7.40605 3.79817 5.96389 4.85063 4.90059C5.9031 3.83728 7.33055 3.23992 8.81896 3.23992C11.1974 3.23992 13.1884 4.50889 14.0155 6.55274C14.1359 6.85069 14.3414 7.10566 14.6057 7.28514C14.8701 7.46462 15.1815 7.56047 15.5 7.56047C15.8185 7.56047 16.1299 7.46462 16.3942 7.28514C16.6586 7.10566 16.8641 6.85069 16.9845 6.55274C17.8116 4.50889 19.8026 3.23992 22.181 3.23992C23.6694 3.23992 25.0969 3.83728 26.1494 4.90059C27.2018 5.96389 27.7931 7.40605 27.7931 8.90979C27.7931 12.8814 24.343 16.7086 21.4475 19.2181Z" fill="#A900F7"/>
</svg>
