<svg width="31" height="26" viewBox="0 0 31 26" fill="none" xmlns="http://www.w3.org/2000/svg">
<path d="M31 8.39781C31 17.8792 16.6362 25.5537 16.0245 25.8707C15.8633 25.9556 15.6831 26 15.5 26C15.3169 26 15.1367 25.9556 14.9755 25.8707C14.3638 25.5537 0 17.8792 0 8.39781C0.00256406 6.17135 0.907387 4.03679 2.51596 2.46243C4.12453 0.888083 6.30549 0.00250951 8.58036 0C11.4382 0 13.9403 1.20278 15.5 3.23587C17.0597 1.20278 19.5618 0 22.4196 0C24.6945 0.00250951 26.8755 0.888083 28.484 2.46243C30.0926 4.03679 30.9974 6.17135 31 8.39781Z" fill="#A900F7"/>
</svg>
