<svg width="228" height="119" viewBox="0 0 228 119" fill="none" xmlns="http://www.w3.org/2000/svg">
<rect x="0.5" y="0.5" width="40" height="26" rx="2.5" fill="white"/>
<path d="M15.084 11.924H18.012V13.208H15.084V11.924ZM12.06 9.308H13.356V10.916C13.356 13.712 12.408 16.292 10.32 17.336L9.324 16.052C11.22 15.176 12.06 13.028 12.06 10.916V9.308ZM12.396 9.308H13.668V10.916C13.668 13.028 14.472 15.056 16.308 15.872L15.36 17.144C13.272 16.136 12.396 13.688 12.396 10.916V9.308ZM17.22 8.444H18.804V19.592H17.22V8.444ZM24.7311 13.748H26.3271V15.296H24.7311V13.748ZM25.5471 8.564C28.0791 8.564 29.5671 9.224 29.5671 10.448C29.5671 11.672 28.0791 12.344 25.5471 12.344C23.0031 12.344 21.5271 11.672 21.5271 10.448C21.5271 9.224 23.0031 8.564 25.5471 8.564ZM25.5471 9.728C23.9391 9.728 23.1831 9.956 23.1831 10.448C23.1831 10.964 23.9391 11.18 25.5471 11.18C27.1551 11.18 27.9111 10.964 27.9111 10.448C27.9111 9.956 27.1551 9.728 25.5471 9.728ZM20.5191 12.824H30.5631V14.084H20.5191V12.824ZM21.6711 14.804H29.3511V17.66H23.2551V18.644H21.6831V16.556H27.7791V15.992H21.6711V14.804ZM21.6831 18.296H29.6391V19.496H21.6831V18.296Z" fill="#7C00DE"/>
<rect x="0.5" y="0.5" width="40" height="26" rx="2.5" stroke="#7C00DE"/>
<rect x="46.5" y="0.5" width="41" height="26" rx="2.5" fill="white"/>
<path d="M61.284 10.58H64.188V11.396H61.284V10.58ZM61.188 12.836H64.116V13.652H61.188V12.836ZM64.02 8.588H65.016V15.092H64.02V8.588ZM60.624 9.404H61.692C61.692 12.2 59.76 14.156 56.64 15.092L56.232 14.288C59.004 13.484 60.624 11.888 60.624 9.836V9.404ZM56.796 9.404H61.308V10.22H56.796V9.404ZM61.488 15.212C63.684 15.212 65.076 15.992 65.076 17.3C65.076 18.608 63.684 19.388 61.488 19.388C59.292 19.388 57.9 18.608 57.9 17.3C57.9 15.992 59.292 15.212 61.488 15.212ZM61.488 15.992C59.904 15.992 58.884 16.484 58.884 17.3C58.884 18.116 59.904 18.596 61.488 18.596C63.084 18.596 64.104 18.116 64.104 17.3C64.104 16.484 63.084 15.992 61.488 15.992ZM75.0351 8.588H76.0311V19.436H75.0351V8.588ZM71.8551 9.752H72.8391C72.8391 12.896 71.4231 15.644 67.7991 17.42L67.2711 16.616C70.4031 15.104 71.8551 12.8 71.8551 9.92V9.752ZM67.7631 9.752H72.2871V10.568H67.7631V9.752Z" fill="#B3B3B3"/>
<rect x="46.5" y="0.5" width="41" height="26" rx="2.5" stroke="#D8D8D8"/>
<rect x="92.5" y="0.5" width="41" height="26" rx="2.5" fill="white"/>
<path d="M109.984 8.6H110.992V16.52H109.984V8.6ZM104.02 18.38H111.316V19.196H104.02V18.38ZM104.02 15.704H105.004V18.656H104.02V15.704ZM105.172 9.344C106.792 9.344 107.992 10.448 107.992 12.02C107.992 13.58 106.792 14.696 105.172 14.696C103.552 14.696 102.34 13.58 102.34 12.02C102.34 10.448 103.552 9.344 105.172 9.344ZM105.172 10.208C104.116 10.208 103.312 10.952 103.312 12.02C103.312 13.076 104.116 13.82 105.172 13.82C106.228 13.82 107.032 13.076 107.032 12.02C107.032 10.952 106.228 10.208 105.172 10.208ZM115.839 10.628H116.655V11.168C116.655 13.124 115.467 14.732 113.655 15.368L113.163 14.588C114.771 14.036 115.839 12.692 115.839 11.168V10.628ZM116.007 10.628H116.835V11.168C116.835 12.608 117.939 13.88 119.547 14.384L119.055 15.176C117.243 14.576 116.007 13.04 116.007 11.168V10.628ZM113.439 10.04H119.223V10.844H113.439V10.04ZM115.839 8.66H116.835V10.34H115.839V8.66ZM118.863 11.924H121.599V12.752H118.863V11.924ZM121.059 8.6H122.055V16.688H121.059V8.6ZM115.131 18.38H122.355V19.196H115.131V18.38ZM115.131 15.968H116.127V18.824H115.131V15.968Z" fill="#B3B3B3"/>
<rect x="92.5" y="0.5" width="41" height="26" rx="2.5" stroke="#D8D8D8"/>
<rect x="140.5" y="0.5" width="40" height="26" rx="2.5" fill="white"/>
<path d="M157.016 8.588H158.012V15.08H157.016V8.588ZM157.736 11.384H159.62V12.224H157.736V11.384ZM154.016 9.38H155.084C155.084 12.164 153.152 14.192 150.02 15.116L149.6 14.312C152.36 13.496 154.016 11.864 154.016 9.836V9.38ZM150.08 9.38H154.58V10.208H150.08V9.38ZM154.616 15.212C156.764 15.212 158.132 16.004 158.132 17.312C158.132 18.62 156.764 19.412 154.616 19.412C152.456 19.412 151.076 18.62 151.076 17.312C151.076 16.004 152.456 15.212 154.616 15.212ZM154.616 16.004C153.056 16.004 152.06 16.496 152.06 17.312C152.06 18.128 153.056 18.62 154.616 18.62C156.176 18.62 157.172 18.128 157.172 17.312C157.172 16.496 156.176 16.004 154.616 16.004ZM163.711 14.048H164.707V16.46H163.711V14.048ZM168.523 8.588H169.519V16.844H168.523V8.588ZM162.115 18.38H169.783V19.196H162.115V18.38ZM162.115 16.04H163.111V18.608H162.115V16.04ZM160.711 14.42L160.579 13.604C162.583 13.604 165.271 13.58 167.575 13.28L167.647 14.012C165.307 14.384 162.679 14.42 160.711 14.42ZM166.315 14.996H168.775V15.728H166.315V14.996ZM164.107 9.032C165.691 9.032 166.771 9.776 166.771 10.916C166.771 12.068 165.691 12.812 164.107 12.812C162.511 12.812 161.431 12.068 161.431 10.916C161.431 9.776 162.511 9.032 164.107 9.032ZM164.107 9.776C163.087 9.776 162.379 10.22 162.379 10.916C162.379 11.612 163.087 12.056 164.107 12.056C165.115 12.056 165.823 11.612 165.823 10.916C165.823 10.22 165.115 9.776 164.107 9.776Z" fill="#B3B3B3"/>
<rect x="140.5" y="0.5" width="40" height="26" rx="2.5" stroke="#D8D8D8"/>
<rect x="186.5" y="0.5" width="41" height="26" rx="2.5" fill="white"/>
<path d="M200.504 14.468H201.476V16.1H200.504V14.468ZM196.088 13.94H205.892V14.744H196.088V13.94ZM200.504 8.552H201.488V10.016H200.504V8.552ZM200.456 10.136H201.332V10.316C201.332 12.092 199.34 13.124 196.964 13.364L196.664 12.596C198.764 12.416 200.456 11.552 200.456 10.316V10.136ZM200.66 10.136H201.536V10.316C201.536 11.552 203.228 12.416 205.328 12.596L205.028 13.364C202.652 13.124 200.66 12.092 200.66 10.316V10.136ZM197.096 9.644H204.896V10.436H197.096V9.644ZM200.984 15.824C203.324 15.824 204.704 16.46 204.704 17.624C204.704 18.788 203.324 19.412 200.984 19.412C198.644 19.412 197.264 18.788 197.264 17.624C197.264 16.46 198.644 15.824 200.984 15.824ZM200.984 16.58C199.268 16.58 198.272 16.94 198.272 17.624C198.272 18.284 199.268 18.656 200.984 18.656C202.7 18.656 203.696 18.284 203.696 17.624C203.696 16.94 202.7 16.58 200.984 16.58ZM214.555 8.588H215.551V14.72H214.555V8.588ZM215.287 11.072H217.159V11.9H215.287V11.072ZM208.711 15.308H215.551V19.292H208.711V15.308ZM214.579 16.112H209.695V18.476H214.579V16.112ZM207.655 9.128H208.651V13.472H207.655V9.128ZM207.655 13.064H208.507C210.067 13.064 211.687 12.956 213.463 12.596L213.583 13.412C211.747 13.796 210.127 13.904 208.507 13.904H207.655V13.064Z" fill="#B3B3B3"/>
<rect x="186.5" y="0.5" width="41" height="26" rx="2.5" stroke="#D8D8D8"/>
<rect x="0.5" y="31.5" width="40" height="24" rx="2.5" fill="white"/>
<path d="M17.844 38.588H18.804V49.436H17.844V38.588ZM16.008 42.932H18.096V43.76H16.008V42.932ZM15.384 38.828H16.32V48.884H15.384V38.828ZM9.984 45.932H10.692C12.276 45.932 13.356 45.872 14.616 45.608L14.712 46.436C13.416 46.712 12.324 46.76 10.692 46.76H9.984V45.932ZM9.984 39.908H14.016V40.724H10.968V46.304H9.984V39.908ZM26.3871 41.576H29.1231V42.392H26.3871V41.576ZM28.5591 38.6H29.5551V46.544H28.5591V38.6ZM22.6311 48.38H29.8551V49.196H22.6311V48.38ZM22.6311 45.848H23.6271V48.8H22.6311V45.848ZM23.3991 39.944H24.2151V40.82C24.2151 42.788 22.9911 44.492 21.1791 45.164L20.6631 44.372C22.2831 43.796 23.3991 42.356 23.3991 40.82V39.944ZM23.5911 39.944H24.3951V40.808C24.3951 42.212 25.4511 43.58 27.0231 44.132L26.5191 44.912C24.7551 44.276 23.5911 42.644 23.5911 40.808V39.944ZM20.9751 39.476H26.7711V40.28H20.9751V39.476Z" fill="#B3B3B3"/>
<rect x="0.5" y="31.5" width="40" height="24" rx="2.5" stroke="#D8D8D8"/>
<rect x="46.5" y="31.5" width="41" height="24" rx="2.5" fill="white"/>
<path d="M60.504 44.468H61.476V46.1H60.504V44.468ZM56.088 43.94H65.892V44.744H56.088V43.94ZM60.504 38.552H61.488V40.016H60.504V38.552ZM60.456 40.136H61.332V40.316C61.332 42.092 59.34 43.124 56.964 43.364L56.664 42.596C58.764 42.416 60.456 41.552 60.456 40.316V40.136ZM60.66 40.136H61.536V40.316C61.536 41.552 63.228 42.416 65.328 42.596L65.028 43.364C62.652 43.124 60.66 42.092 60.66 40.316V40.136ZM57.096 39.644H64.896V40.436H57.096V39.644ZM60.984 45.824C63.324 45.824 64.704 46.46 64.704 47.624C64.704 48.788 63.324 49.412 60.984 49.412C58.644 49.412 57.264 48.788 57.264 47.624C57.264 46.46 58.644 45.824 60.984 45.824ZM60.984 46.58C59.268 46.58 58.272 46.94 58.272 47.624C58.272 48.284 59.268 48.656 60.984 48.656C62.7 48.656 63.696 48.284 63.696 47.624C63.696 46.94 62.7 46.58 60.984 46.58ZM71.5311 44.432H72.5151V46.304H71.5311V44.432ZM67.1271 43.892H76.9311V44.708H67.1271V43.892ZM68.2191 45.968H75.7191V49.436H74.7231V46.772H68.2191V45.968ZM68.4351 38.84H69.4191V40.064H74.6631V38.84H75.6591V42.896H68.4351V38.84ZM69.4191 40.844V42.104H74.6631V40.844H69.4191Z" fill="#B3B3B3"/>
<rect x="46.5" y="31.5" width="41" height="24" rx="2.5" stroke="#D8D8D8"/>
<rect x="92.5" y="31.5" width="41" height="24" rx="2.5" fill="white"/>
<path d="M106.372 42.464H108.448V43.292H106.372V42.464ZM104.344 39.608H105.124V41.672C105.124 43.94 104.176 46.136 102.592 47.108L101.968 46.352C103.456 45.476 104.344 43.532 104.344 41.672V39.608ZM104.536 39.608H105.304V41.636C105.304 43.376 106.12 45.224 107.548 46.088L106.972 46.868C105.412 45.908 104.536 43.748 104.536 41.636V39.608ZM110.356 38.588H111.316V49.436H110.356V38.588ZM108.16 38.816H109.096V48.896H108.16V38.816ZM117.531 42.44H118.515V44.456H117.531V42.44ZM113.127 43.988H122.931V44.792H113.127V43.988ZM118.023 45.68C120.351 45.68 121.743 46.352 121.743 47.552C121.743 48.752 120.351 49.412 118.023 49.412C115.695 49.412 114.303 48.752 114.303 47.552C114.303 46.352 115.695 45.68 118.023 45.68ZM118.023 46.448C116.319 46.448 115.311 46.844 115.311 47.552C115.311 48.26 116.319 48.644 118.023 48.644C119.739 48.644 120.735 48.26 120.735 47.552C120.735 46.844 119.739 46.448 118.023 46.448ZM117.387 39.476H118.275V39.8C118.275 41.54 116.283 42.716 114.027 42.992L113.667 42.188C115.623 41.996 117.387 41.024 117.387 39.8V39.476ZM117.807 39.476H118.683V39.8C118.683 41.024 120.447 41.996 122.403 42.188L122.043 42.992C119.799 42.716 117.807 41.54 117.807 39.8V39.476ZM114.027 39.08H122.055V39.884H114.027V39.08Z" fill="#B3B3B3"/>
<rect x="92.5" y="31.5" width="41" height="24" rx="2.5" stroke="#D8D8D8"/>
<rect x="140.5" y="31.5" width="40" height="24" rx="2.5" fill="white"/>
<path d="M149.588 45.008H159.428V45.824H149.588V45.008ZM153.98 45.392H154.964V49.436H153.98V45.392ZM150.824 39.02H151.82V40.508H157.184V39.02H158.168V43.712H150.824V39.02ZM151.82 41.312V42.908H157.184V41.312H151.82ZM163.303 39.248H164.119V40.58C164.119 42.704 162.943 44.396 161.119 45.104L160.591 44.312C162.247 43.724 163.303 42.26 163.303 40.58V39.248ZM163.471 39.248H164.287V40.616C164.287 42.092 165.367 43.484 166.951 44.048L166.459 44.828C164.671 44.18 163.471 42.524 163.471 40.616V39.248ZM168.055 38.576H169.051V46.592H168.055V38.576ZM168.739 41.912H170.659V42.74H168.739V41.912ZM162.319 48.38H169.531V49.196H162.319V48.38ZM162.319 45.836H163.315V48.776H162.319V45.836Z" fill="#B3B3B3"/>
<rect x="140.5" y="31.5" width="40" height="24" rx="2.5" stroke="#D8D8D8"/>
<rect x="186.5" y="31.5" width="41" height="24" rx="2.5" fill="white"/>
<path d="M200.492 43.688H201.476V45.356H200.492V43.688ZM200.996 38.72C203.384 38.72 204.812 39.38 204.812 40.592C204.812 41.804 203.384 42.476 200.996 42.476C198.596 42.476 197.18 41.804 197.18 40.592C197.18 39.38 198.596 38.72 200.996 38.72ZM200.996 39.476C199.22 39.476 198.2 39.884 198.2 40.592C198.2 41.312 199.22 41.72 200.996 41.72C202.76 41.72 203.78 41.312 203.78 40.592C203.78 39.884 202.76 39.476 200.996 39.476ZM196.088 43.172H205.892V43.988H196.088V43.172ZM197.276 44.984H204.644V47.432H198.284V48.752H197.3V46.712H203.66V45.752H197.276V44.984ZM197.3 48.536H204.968V49.316H197.3V48.536ZM209.803 39.248H210.619V40.58C210.619 42.704 209.443 44.396 207.619 45.104L207.091 44.312C208.747 43.724 209.803 42.26 209.803 40.58V39.248ZM209.971 39.248H210.787V40.616C210.787 42.092 211.867 43.484 213.451 44.048L212.959 44.828C211.171 44.18 209.971 42.524 209.971 40.616V39.248ZM214.555 38.576H215.551V46.592H214.555V38.576ZM215.239 41.912H217.159V42.74H215.239V41.912ZM208.819 48.38H216.031V49.196H208.819V48.38ZM208.819 45.836H209.815V48.776H208.819V45.836Z" fill="#B3B3B3"/>
<rect x="186.5" y="31.5" width="41" height="24" rx="2.5" stroke="#D8D8D8"/>
<rect x="0.5" y="62.5" width="40" height="26" rx="2.5" fill="white"/>
<path d="M17.844 70.588H18.804V81.436H17.844V70.588ZM16.008 74.932H18.096V75.76H16.008V74.932ZM15.384 70.828H16.32V80.884H15.384V70.828ZM9.984 77.932H10.692C12.276 77.932 13.356 77.872 14.616 77.608L14.712 78.436C13.416 78.712 12.324 78.76 10.692 78.76H9.984V77.932ZM9.984 71.908H14.016V72.724H10.968V78.304H9.984V71.908ZM21.8631 71.296H28.6431V72.1H21.8631V71.296ZM20.6391 75.952H30.4431V76.768H20.6391V75.952ZM25.0191 76.492H26.0151V81.448H25.0191V76.492ZM28.1751 71.296H29.1471V72.232C29.1471 73.36 29.1471 74.632 28.7391 76.468L27.7551 76.336C28.1751 74.584 28.1751 73.324 28.1751 72.232V71.296Z" fill="#B3B3B3"/>
<rect x="0.5" y="62.5" width="40" height="26" rx="2.5" stroke="#D8D8D8"/>
<rect x="0.5" y="92.5" width="40" height="26" rx="2.5" fill="white"/>
<path d="M15.348 103.576H18.084V104.392H15.348V103.576ZM17.52 100.6H18.516V108.544H17.52V100.6ZM11.592 110.38H18.816V111.196H11.592V110.38ZM11.592 107.848H12.588V110.8H11.592V107.848ZM12.36 101.944H13.176V102.82C13.176 104.788 11.952 106.492 10.14 107.164L9.624 106.372C11.244 105.796 12.36 104.356 12.36 102.82V101.944ZM12.552 101.944H13.356V102.808C13.356 104.212 14.412 105.58 15.984 106.132L15.48 106.912C13.716 106.276 12.552 104.644 12.552 102.808V101.944ZM9.936 101.476H15.732V102.28H9.936V101.476ZM25.0311 106.432H26.0151V108.304H25.0311V106.432ZM20.6271 105.892H30.4311V106.708H20.6271V105.892ZM21.7191 107.968H29.2191V111.436H28.2231V108.772H21.7191V107.968ZM21.9351 100.84H22.9191V102.064H28.1631V100.84H29.1591V104.896H21.9351V100.84ZM22.9191 102.844V104.104H28.1631V102.844H22.9191Z" fill="#B3B3B3"/>
<rect x="0.5" y="92.5" width="40" height="26" rx="2.5" stroke="#D8D8D8"/>
<rect x="46.5" y="62.5" width="41" height="26" rx="2.5" fill="white"/>
<path d="M61.284 72.58H64.188V73.396H61.284V72.58ZM61.188 74.836H64.116V75.652H61.188V74.836ZM64.02 70.588H65.016V77.092H64.02V70.588ZM60.624 71.404H61.692C61.692 74.2 59.76 76.156 56.64 77.092L56.232 76.288C59.004 75.484 60.624 73.888 60.624 71.836V71.404ZM56.796 71.404H61.308V72.22H56.796V71.404ZM61.488 77.212C63.684 77.212 65.076 77.992 65.076 79.3C65.076 80.608 63.684 81.388 61.488 81.388C59.292 81.388 57.9 80.608 57.9 79.3C57.9 77.992 59.292 77.212 61.488 77.212ZM61.488 77.992C59.904 77.992 58.884 78.484 58.884 79.3C58.884 80.116 59.904 80.596 61.488 80.596C63.084 80.596 64.104 80.116 64.104 79.3C64.104 78.484 63.084 77.992 61.488 77.992ZM71.5311 76.432H72.5151V78.304H71.5311V76.432ZM67.1271 75.892H76.9311V76.708H67.1271V75.892ZM68.2191 77.968H75.7191V81.436H74.7231V78.772H68.2191V77.968ZM68.4351 70.84H69.4191V72.064H74.6631V70.84H75.6591V74.896H68.4351V70.84ZM69.4191 72.844V74.104H74.6631V72.844H69.4191Z" fill="#B3B3B3"/>
<rect x="46.5" y="62.5" width="41" height="26" rx="2.5" stroke="#D8D8D8"/>
<rect x="46.5" y="92.5" width="41" height="26" rx="2.5" fill="white"/>
<path d="M64.344 100.588H65.304V111.436H64.344V100.588ZM60.396 104.476H62.472V105.304H60.396V104.476ZM62.172 100.84H63.108V110.884H62.172V100.84ZM58.308 102.268H59.076V103.648C59.076 106.024 58.164 108.268 56.568 109.276L55.956 108.532C57.468 107.62 58.308 105.64 58.308 103.648V102.268ZM58.512 102.268H59.28V103.648C59.28 105.532 60.096 107.416 61.584 108.28L60.972 109.012C59.388 108.052 58.512 105.916 58.512 103.648V102.268ZM56.256 101.848H61.212V102.676H56.256V101.848ZM71.4831 101.656H72.3471V102.112C72.3471 104.056 70.2831 105.484 68.0991 105.856L67.7151 105.064C69.6231 104.788 71.4831 103.54 71.4831 102.112V101.656ZM71.7351 101.656H72.5871V102.112C72.5871 103.54 74.4591 104.788 76.3551 105.064L75.9831 105.856C73.7871 105.484 71.7351 104.056 71.7351 102.112V101.656ZM71.5191 107.296H72.5031V111.436H71.5191V107.296ZM67.1391 106.768H76.9431V107.584H67.1391V106.768ZM68.0511 101.26H75.9951V102.064H68.0511V101.26Z" fill="#B3B3B3"/>
<rect x="46.5" y="92.5" width="41" height="26" rx="2.5" stroke="#D8D8D8"/>
<rect x="92.5" y="62.5" width="41" height="26" rx="2.5" fill="white"/>
<path d="M107.284 72.58H110.188V73.396H107.284V72.58ZM107.188 74.836H110.116V75.652H107.188V74.836ZM110.02 70.588H111.016V77.092H110.02V70.588ZM106.624 71.404H107.692C107.692 74.2 105.76 76.156 102.64 77.092L102.232 76.288C105.004 75.484 106.624 73.888 106.624 71.836V71.404ZM102.796 71.404H107.308V72.22H102.796V71.404ZM107.488 77.212C109.684 77.212 111.076 77.992 111.076 79.3C111.076 80.608 109.684 81.388 107.488 81.388C105.292 81.388 103.9 80.608 103.9 79.3C103.9 77.992 105.292 77.212 107.488 77.212ZM107.488 77.992C105.904 77.992 104.884 78.484 104.884 79.3C104.884 80.116 105.904 80.596 107.488 80.596C109.084 80.596 110.104 80.116 110.104 79.3C110.104 78.484 109.084 77.992 107.488 77.992ZM120.555 70.588H121.551V76.72H120.555V70.588ZM121.287 73.072H123.159V73.9H121.287V73.072ZM114.711 77.308H121.551V81.292H114.711V77.308ZM120.579 78.112H115.695V80.476H120.579V78.112ZM113.655 71.128H114.651V75.472H113.655V71.128ZM113.655 75.064H114.507C116.067 75.064 117.687 74.956 119.463 74.596L119.583 75.412C117.747 75.796 116.127 75.904 114.507 75.904H113.655V75.064Z" fill="#B3B3B3"/>
<rect x="92.5" y="62.5" width="41" height="26" rx="2.5" stroke="#D8D8D8"/>
<rect x="92.5" y="92.5" width="41" height="26" rx="2.5" fill="white"/>
<path d="M107.848 103.576H110.584V104.392H107.848V103.576ZM110.02 100.6H111.016V108.544H110.02V100.6ZM104.092 110.38H111.316V111.196H104.092V110.38ZM104.092 107.848H105.088V110.8H104.092V107.848ZM104.86 101.944H105.676V102.82C105.676 104.788 104.452 106.492 102.64 107.164L102.124 106.372C103.744 105.796 104.86 104.356 104.86 102.82V101.944ZM105.052 101.944H105.856V102.808C105.856 104.212 106.912 105.58 108.484 106.132L107.98 106.912C106.216 106.276 105.052 104.644 105.052 102.808V101.944ZM102.436 101.476H108.232V102.28H102.436V101.476ZM114.387 101.092H121.371V101.908H114.387V101.092ZM113.139 104.98H122.967V105.796H113.139V104.98ZM117.543 105.532H118.527V108.088H117.543V105.532ZM120.723 101.092H121.695V101.896C121.695 102.796 121.695 103.888 121.335 105.376L120.363 105.256C120.723 103.804 120.723 102.772 120.723 101.896V101.092ZM114.159 107.764H121.767V111.436H120.771V108.58H114.159V107.764Z" fill="#B3B3B3"/>
<rect x="92.5" y="92.5" width="41" height="26" rx="2.5" stroke="#D8D8D8"/>
<rect x="140.5" y="62.5" width="40" height="26" rx="2.5" fill="white"/>
<path d="M155.348 73.576H158.084V74.392H155.348V73.576ZM157.52 70.6H158.516V78.544H157.52V70.6ZM151.592 80.38H158.816V81.196H151.592V80.38ZM151.592 77.848H152.588V80.8H151.592V77.848ZM152.36 71.944H153.176V72.82C153.176 74.788 151.952 76.492 150.14 77.164L149.624 76.372C151.244 75.796 152.36 74.356 152.36 72.82V71.944ZM152.552 71.944H153.356V72.808C153.356 74.212 154.412 75.58 155.984 76.132L155.48 76.912C153.716 76.276 152.552 74.644 152.552 72.808V71.944ZM149.936 71.476H155.732V72.28H149.936V71.476ZM168.055 70.588H169.051V76.72H168.055V70.588ZM168.787 73.072H170.659V73.9H168.787V73.072ZM162.211 77.308H169.051V81.292H162.211V77.308ZM168.079 78.112H163.195V80.476H168.079V78.112ZM161.155 71.128H162.151V75.472H161.155V71.128ZM161.155 75.064H162.007C163.567 75.064 165.187 74.956 166.963 74.596L167.083 75.412C165.247 75.796 163.627 75.904 162.007 75.904H161.155V75.064Z" fill="#B3B3B3"/>
<rect x="140.5" y="62.5" width="40" height="26" rx="2.5" stroke="#D8D8D8"/>
<rect x="186.5" y="62.5" width="41" height="26" rx="2.5" fill="white"/>
<path d="M196.676 71.26H201.476V72.076H196.676V71.26ZM198.308 73.612H199.292V76.204H198.308V73.612ZM201.08 71.26H202.052V71.848C202.052 72.532 202.052 73.504 201.776 74.788L200.804 74.704C201.08 73.432 201.08 72.532 201.08 71.848V71.26ZM203.54 70.588H204.536V77.356H203.54V70.588ZM204.08 73.54H206.084V74.38H204.08V73.54ZM196.136 76.612L196.016 75.784C197.984 75.784 200.612 75.748 202.808 75.46L202.88 76.192C200.636 76.564 198.068 76.612 196.136 76.612ZM201.032 77.488C203.264 77.488 204.644 78.208 204.644 79.444C204.644 80.692 203.264 81.412 201.032 81.412C198.8 81.412 197.444 80.692 197.444 79.444C197.444 78.208 198.8 77.488 201.032 77.488ZM201.032 78.268C199.424 78.268 198.44 78.7 198.44 79.444C198.44 80.188 199.424 80.62 201.032 80.62C202.652 80.62 203.624 80.188 203.624 79.444C203.624 78.7 202.652 78.268 201.032 78.268ZM211.483 71.656H212.347V72.112C212.347 74.056 210.283 75.484 208.099 75.856L207.715 75.064C209.623 74.788 211.483 73.54 211.483 72.112V71.656ZM211.735 71.656H212.587V72.112C212.587 73.54 214.459 74.788 216.355 75.064L215.983 75.856C213.787 75.484 211.735 74.056 211.735 72.112V71.656ZM211.519 77.296H212.503V81.436H211.519V77.296ZM207.139 76.768H216.943V77.584H207.139V76.768ZM208.051 71.26H215.995V72.064H208.051V71.26Z" fill="#B3B3B3"/>
<rect x="186.5" y="62.5" width="41" height="26" rx="2.5" stroke="#D8D8D8"/>
</svg>
