<svg width="123" height="33" viewBox="0 0 123 33" fill="none" xmlns="http://www.w3.org/2000/svg">
<path d="M14.459 3.98512C6.48439 3.98512 0 10.434 0 18.3551C0 26.2762 6.48439 32.725 14.459 32.725C22.4337 32.725 28.9181 26.2806 28.9181 18.3551C28.9181 10.4296 22.4337 3.98512 14.459 3.98512ZM14.459 26.5539C9.90844 26.5539 6.20941 22.8776 6.20941 18.3551C6.20941 13.8325 9.90844 10.1563 14.459 10.1563C19.0097 10.1563 22.7087 13.8325 22.7087 18.3551C22.7087 22.8776 19.0097 26.5539 14.459 26.5539Z" fill="white"/>
<path d="M47.8391 3.98512C46.1226 3.98512 44.7343 5.36481 44.7343 7.0707V14.9874H37.079V7.0707C37.079 5.36481 35.6908 3.98512 33.9743 3.98512C32.2579 3.98512 30.8696 5.36481 30.8696 7.0707V29.4102C30.8696 31.1161 32.2579 32.4958 33.9743 32.4958C35.6908 32.4958 37.079 31.1161 37.079 29.4102V21.1541H44.7343V29.4102C44.7343 31.1161 46.1226 32.4958 47.8391 32.4958C49.5555 32.4958 50.9438 31.1161 50.9438 29.4102V7.0707C50.9438 5.36481 49.5555 3.98512 47.8391 3.98512Z" fill="white"/>
<path d="M62.9546 3.98512H57.0556C55.3392 3.98512 53.9509 5.36481 53.9509 7.07069V29.6395C53.9509 31.3453 55.3392 32.725 57.0556 32.725C58.7721 32.725 60.1603 31.3453 60.1603 29.6395V21.7404H62.9546C67.8822 21.7404 71.8872 17.7556 71.8872 12.8628C71.8872 7.96992 67.8777 3.98512 62.9546 3.98512ZM62.9546 15.5692H60.1603V10.1563H62.9546C64.4581 10.1563 65.6778 11.3685 65.6778 12.8628C65.6778 14.3571 64.4581 15.5692 62.9546 15.5692Z" fill="white"/>
<path d="M78.3715 15.5693C76.6551 15.5693 75.2668 16.9489 75.2668 18.6548V29.6395C75.2668 31.3453 76.6551 32.725 78.3715 32.725C80.088 32.725 81.4763 31.3453 81.4763 29.6395V18.6548C81.4763 16.9489 80.088 15.5693 78.3715 15.5693Z" fill="white"/>
<path d="M99.1864 9.79042C100.903 9.79042 102.291 8.41073 102.291 6.70485C102.291 4.99897 100.903 3.61928 99.1864 3.61928C91.0742 3.61928 84.4701 10.1783 84.4701 18.2449C84.4701 26.3115 91.0698 32.8705 99.1864 32.8705C100.903 32.8705 102.291 31.4908 102.291 29.7849C102.291 28.0791 100.903 26.6994 99.1864 26.6994C94.4983 26.6994 90.6795 22.9085 90.6795 18.2449C90.6795 13.5813 94.4939 9.79042 99.1864 9.79042Z" fill="white"/>
<path d="M122.015 27.1622L112.142 17.9672L121.993 8.97936C123.257 7.82447 123.341 5.87615 122.179 4.61988C121.017 3.36362 119.057 3.27987 117.792 4.43475L110.683 10.9233V6.70485C110.683 4.99897 109.294 3.61928 107.578 3.61928C105.862 3.61928 104.473 4.99897 104.473 6.70485V29.6439C104.473 31.3498 105.862 32.7295 107.578 32.7295C109.294 32.7295 110.683 31.3498 110.683 29.6439V25.064L117.77 31.6671C118.369 32.2269 119.132 32.5002 119.895 32.5002C120.724 32.5002 121.549 32.174 122.161 31.5261C123.332 30.283 123.27 28.3303 122.019 27.1666L122.015 27.1622Z" fill="white"/>
<path d="M16.7965 19.2719C16.9384 18.9589 17.0183 18.6107 17.0183 18.2449C17.0183 17.1517 16.3219 16.2216 15.3506 15.8646V12.4572C15.3506 11.9723 14.9514 11.5756 14.4635 11.5756C13.9757 11.5756 13.5765 11.9723 13.5765 12.4572V15.8646C12.6007 16.2216 11.9088 17.1517 11.9088 18.2449C11.9088 19.6466 13.0531 20.7838 14.4635 20.7838C14.8583 20.7838 15.2264 20.6913 15.5591 20.537L16.9118 21.758C17.0804 21.9123 17.2933 21.9872 17.5062 21.9872C17.7457 21.9872 17.9896 21.8902 18.1626 21.6963C18.4908 21.3348 18.4642 20.7794 18.1005 20.4488L16.7921 19.2719H16.7965Z" fill="white"/>
<path d="M78.3715 13.2771C78.3715 13.2771 78.3893 13.2771 78.3982 13.2771C78.7663 13.2683 79.1122 13.1096 79.3606 12.8363L88.8477 2.33215C89.3223 1.8076 89.3001 1.00535 88.7945 0.51166C88.2933 0.0179682 87.4861 0.000336319 86.9627 0.471988L78.2252 8.37546L74.1181 5.7968C73.546 5.43535 72.7964 5.56318 72.3706 6.08332C71.9448 6.60346 71.9803 7.36163 72.4549 7.83769L77.4224 12.876C77.6708 13.1317 78.0167 13.2727 78.3715 13.2727V13.2771Z" fill="white"/>
</svg>
