<svg width="140" height="38" viewBox="0 0 140 38" fill="none" xmlns="http://www.w3.org/2000/svg">
<path d="M15.2113 5.98988C16.6207 5.98988 17.7632 4.84739 17.7632 3.43805C17.7632 2.02871 16.6207 0.886223 15.2113 0.886223C13.802 0.886223 12.6595 2.02871 12.6595 3.43805C12.6595 4.84739 13.802 5.98988 15.2113 5.98988Z" fill="white"/>
<path d="M16.3777 4.39431C7.34482 4.39431 0 11.7442 0 20.772C0 29.7998 7.34482 37.1496 16.3777 37.1496C25.4105 37.1496 32.7553 29.8048 32.7553 20.772C32.7553 11.7391 25.4105 4.39431 16.3777 4.39431ZM16.3777 30.1163C11.2232 30.1163 7.03335 25.9264 7.03335 20.772C7.03335 15.6175 11.2232 11.4277 16.3777 11.4277C21.5321 11.4277 25.722 15.6175 25.722 20.772C25.722 25.9264 21.5321 30.1163 16.3777 30.1163Z" fill="white"/>
<path d="M54.187 4.39431C52.2427 4.39431 50.6703 5.96677 50.6703 7.91098V16.9338H41.9992V7.91098C41.9992 5.96677 40.4267 4.39431 38.4825 4.39431C36.5383 4.39431 34.9658 5.96677 34.9658 7.91098V33.3717C34.9658 35.3159 36.5383 36.8884 38.4825 36.8884C40.4267 36.8884 41.9992 35.3159 41.9992 33.3717V23.9621H50.6703V33.3717C50.6703 35.3159 52.2427 36.8884 54.187 36.8884C56.1312 36.8884 57.7036 35.3159 57.7036 33.3717V7.91098C57.7036 5.96677 56.1312 4.39431 54.187 4.39431Z" fill="white"/>
<path d="M71.308 4.39431H64.6264C62.6821 4.39431 61.1097 5.96677 61.1097 7.91098V33.6329C61.1097 35.5772 62.6821 37.1496 64.6264 37.1496C66.5706 37.1496 68.143 35.5772 68.143 33.6329V24.6303H71.308C76.8895 24.6303 81.426 20.0887 81.426 14.5123C81.426 8.93584 76.8845 4.39431 71.308 4.39431ZM71.308 17.5969H68.143V11.4277H71.308C73.0111 11.4277 74.3927 12.8092 74.3927 14.5123C74.3927 16.2154 73.0111 17.5969 71.308 17.5969Z" fill="white"/>
<path d="M88.7709 17.5969C86.8267 17.5969 85.2542 19.1694 85.2542 21.1136V33.633C85.2542 35.5772 86.8267 37.1496 88.7709 37.1496C90.7151 37.1496 92.2876 35.5772 92.2876 33.633V21.1136C92.2876 19.1694 90.7151 17.5969 88.7709 17.5969Z" fill="white"/>
<path d="M112.348 11.0107C114.292 11.0107 115.864 9.43825 115.864 7.49403C115.864 5.54981 114.292 3.97736 112.348 3.97736C103.159 3.97736 95.6786 11.4528 95.6786 20.6464C95.6786 29.84 103.154 37.3154 112.348 37.3154C114.292 37.3154 115.864 35.743 115.864 33.7988C115.864 31.8545 114.292 30.2821 112.348 30.2821C107.038 30.2821 102.712 25.9616 102.712 20.6464C102.712 15.3312 107.032 11.0107 112.348 11.0107Z" fill="white"/>
<path d="M138.205 30.8096L127.022 20.3299L138.18 10.0863C139.612 8.77008 139.707 6.54955 138.391 5.11776C137.075 3.68597 134.854 3.59052 133.423 4.90676L125.369 12.3018V7.49403C125.369 5.54981 123.797 3.97736 121.853 3.97736C119.909 3.97736 118.336 5.54981 118.336 7.49403V33.638C118.336 35.5822 119.909 37.1547 121.853 37.1547C123.797 37.1547 125.369 35.5822 125.369 33.638V28.4182L133.398 35.9439C134.076 36.582 134.94 36.8934 135.804 36.8934C136.743 36.8934 137.678 36.5217 138.371 35.7832C139.697 34.3664 139.627 32.1409 138.21 30.8146L138.205 30.8096Z" fill="white"/>
<path d="M19.0253 21.8169C19.186 21.4602 19.2765 21.0633 19.2765 20.6463C19.2765 19.4004 18.4877 18.3404 17.3875 17.9335V14.0501C17.3875 13.4975 16.9354 13.0453 16.3827 13.0453C15.8301 13.0453 15.378 13.4975 15.378 14.0501V17.9335C14.2727 18.3404 13.489 19.4004 13.489 20.6463C13.489 22.2439 14.7852 23.5401 16.3827 23.5401C16.8299 23.5401 17.2468 23.4346 17.6236 23.2587L19.1559 24.6503C19.3468 24.8262 19.5879 24.9116 19.8291 24.9116C20.1004 24.9116 20.3767 24.801 20.5726 24.58C20.9444 24.168 20.9142 23.535 20.5023 23.1583L19.0202 21.8169H19.0253Z" fill="white"/>
<path d="M88.771 14.9845C88.771 14.9845 88.7911 14.9845 88.8011 14.9845C89.2181 14.9745 89.6099 14.7936 89.8913 14.4822L100.637 2.51039C101.175 1.91256 101.15 0.99822 100.577 0.435552C100.009 -0.127116 99.0949 -0.147211 98.5021 0.390337L88.6052 9.39805L83.9531 6.45911C83.305 6.04716 82.456 6.19285 81.9737 6.78566C81.4914 7.37847 81.5316 8.24257 82.0692 8.78514L87.6959 14.5274C87.9772 14.8187 88.3691 14.9795 88.771 14.9795V14.9845Z" fill="white"/>
</svg>
