<svg width="202" height="55" viewBox="0 0 202 55" fill="none" xmlns="http://www.w3.org/2000/svg">
<path d="M23.7458 6.37109C10.6492 6.37109 0 17.0276 0 30.1169C0 43.2062 10.6492 53.8627 23.7458 53.8627C36.8424 53.8627 47.4916 43.2135 47.4916 30.1169C47.4916 17.0203 36.8424 6.37109 23.7458 6.37109ZM23.7458 43.6651C16.2724 43.6651 10.1976 37.5903 10.1976 30.1169C10.1976 22.6435 16.2724 16.5687 23.7458 16.5687C31.2192 16.5687 37.294 22.6435 37.294 30.1169C37.294 37.5903 31.2192 43.6651 23.7458 43.6651Z" fill="#7C00DE"/>
<path d="M78.5653 6.37109C75.7464 6.37109 73.4665 8.65098 73.4665 11.4699V24.5519H60.8944V11.4699C60.8944 8.65098 58.6145 6.37109 55.7956 6.37109C52.9767 6.37109 50.6968 8.65098 50.6968 11.4699V48.3851C50.6968 51.204 52.9767 53.4839 55.7956 53.4839C58.6145 53.4839 60.8944 51.204 60.8944 48.3851V34.7422H73.4665V48.3851C73.4665 51.204 75.7464 53.4839 78.5653 53.4839C81.3842 53.4839 83.6641 51.204 83.6641 48.3851V11.4699C83.6641 8.65098 81.3842 6.37109 78.5653 6.37109Z" fill="#7C00DE"/>
<path d="M103.389 6.37109H93.7008C90.8819 6.37109 88.6021 8.65098 88.6021 11.4699V48.7639C88.6021 51.5828 90.8819 53.8627 93.7008 53.8627C96.5197 53.8627 98.7996 51.5828 98.7996 48.7639V35.711H103.389C111.481 35.711 118.058 29.1263 118.058 21.041C118.058 12.9558 111.474 6.37109 103.389 6.37109ZM103.389 25.5134H98.7996V16.5687H103.389C105.858 16.5687 107.861 18.5718 107.861 21.041C107.861 23.5103 105.858 25.5134 103.389 25.5134Z" fill="#7C00DE"/>
<path d="M128.708 25.5137C125.889 25.5137 123.609 27.7936 123.609 30.6125V48.7642C123.609 51.5831 125.889 53.863 128.708 53.863C131.527 53.863 133.807 51.5831 133.807 48.7642V30.6125C133.807 27.7936 131.527 25.5137 128.708 25.5137Z" fill="#7C00DE"/>
<path d="M162.892 15.9642C165.711 15.9642 167.991 13.6843 167.991 10.8654C167.991 8.04649 165.711 5.7666 162.892 5.7666C149.569 5.7666 138.724 16.6052 138.724 29.9349C138.724 43.2646 149.562 54.1031 162.892 54.1031C165.711 54.1031 167.991 51.8233 167.991 49.0044C167.991 46.1854 165.711 43.9056 162.892 43.9056C155.193 43.9056 148.921 37.6413 148.921 29.9349C148.921 22.2284 155.185 15.9642 162.892 15.9642Z" fill="#7C00DE"/>
<path d="M200.382 44.6704L184.168 29.476L200.346 14.6239C202.422 12.7155 202.56 9.496 200.652 7.42007C198.743 5.34413 195.524 5.20573 193.448 7.11414L181.772 17.8362V10.8654C181.772 8.04649 179.492 5.7666 176.673 5.7666C173.854 5.7666 171.574 8.04649 171.574 10.8654V48.7713C171.574 51.5902 173.854 53.8701 176.673 53.8701C179.492 53.8701 181.772 51.5902 181.772 48.7713V41.2032L193.412 52.1146C194.395 53.0397 195.648 53.4913 196.901 53.4913C198.263 53.4913 199.618 52.9523 200.623 51.8815C202.546 49.8274 202.444 46.6006 200.39 44.6777L200.382 44.6704Z" fill="#7C00DE"/>
<path d="M27.5846 31.6319C27.8177 31.1147 27.9488 30.5393 27.9488 29.9347C27.9488 28.1283 26.8052 26.5914 25.21 26.0014V20.3709C25.21 19.5696 24.5544 18.9141 23.7532 18.9141C22.952 18.9141 22.2964 19.5696 22.2964 20.3709V26.0014C20.6939 26.5914 19.5576 28.1283 19.5576 29.9347C19.5576 32.251 21.4369 34.1303 23.7532 34.1303C24.4015 34.1303 25.006 33.9773 25.5523 33.7224L27.774 35.7401C28.0507 35.995 28.4004 36.1188 28.75 36.1188C29.1433 36.1188 29.544 35.9586 29.828 35.6381C30.3671 35.0408 30.3234 34.123 29.7261 33.5767L27.5773 31.6319H27.5846Z" fill="#7C00DE"/>
<path d="M128.708 21.7259C128.708 21.7259 128.737 21.7259 128.752 21.7259C129.356 21.7114 129.925 21.4491 130.333 20.9975L145.913 3.63979C146.692 2.77299 146.656 1.44731 145.826 0.631502C145.002 -0.184304 143.677 -0.21344 142.817 0.565946L128.468 13.6261L121.723 9.365C120.783 8.76772 119.552 8.97895 118.853 9.83846C118.154 10.698 118.212 11.9508 118.991 12.7375L127.149 21.0631C127.557 21.4856 128.125 21.7186 128.708 21.7186V21.7259Z" fill="#7C00DE"/>
</svg>
