<svg width="28" height="28" viewBox="0 0 28 28" fill="none" xmlns="http://www.w3.org/2000/svg">
<path d="M11 12.9997C11 13.7953 11.3161 14.5584 11.8787 15.121C12.4413 15.6836 13.2044 15.9997 14 15.9997C14.7956 15.9997 15.5587 15.6836 16.1213 15.121C16.6839 14.5584 17 13.7953 17 12.9997C17 12.204 16.6839 11.441 16.1213 10.8784C15.5587 10.3158 14.7956 9.99969 14 9.99969C13.2044 9.99969 12.4413 10.3158 11.8787 10.8784C11.3161 11.441 11 12.204 11 12.9997Z" stroke="#1E1E1E" stroke-width="2" stroke-linecap="round" stroke-linejoin="round"/>
<path d="M19.657 18.6567L15.414 22.8997C15.039 23.2743 14.5306 23.4848 14.0005 23.4848C13.4704 23.4848 12.962 23.2743 12.587 22.8997L8.343 18.6567C7.22422 17.5379 6.46234 16.1124 6.15369 14.5606C5.84504 13.0087 6.00349 11.4002 6.60901 9.93844C7.21452 8.47665 8.2399 7.22725 9.55548 6.34821C10.8711 5.46918 12.4178 5 14 5C15.5822 5 17.1289 5.46918 18.4445 6.34821C19.7601 7.22725 20.7855 8.47665 21.391 9.93844C21.9965 11.4002 22.155 13.0087 21.8463 14.5606C21.5377 16.1124 20.7758 17.5379 19.657 18.6567Z" stroke="#1E1E1E" stroke-width="2" stroke-linecap="round" stroke-linejoin="round"/>
</svg>
