<svg width="60" height="60" viewBox="0 0 60 60" fill="none" xmlns="http://www.w3.org/2000/svg">
<path d="M13 42.75C13 40.4957 13.8955 38.3337 15.4896 36.7396C17.0837 35.1455 19.2457 34.25 21.5 34.25H38.5C40.7543 34.25 42.9163 35.1455 44.5104 36.7396C46.1045 38.3337 47 40.4957 47 42.75C47 43.8772 46.5522 44.9582 45.7552 45.7552C44.9582 46.5522 43.8772 47 42.75 47H17.25C16.1228 47 15.0418 46.5522 14.2448 45.7552C13.4478 44.9582 13 43.8772 13 42.75Z" stroke="#1E1E1E" stroke-width="4" stroke-linejoin="round"/>
<path d="M30 25.75C33.5208 25.75 36.375 22.8958 36.375 19.375C36.375 15.8542 33.5208 13 30 13C26.4792 13 23.625 15.8542 23.625 19.375C23.625 22.8958 26.4792 25.75 30 25.75Z" stroke="#1E1E1E" stroke-width="4"/>
</svg>
