<svg width="28" height="28" viewBox="0 0 28 28" fill="none" xmlns="http://www.w3.org/2000/svg">
<path d="M13.9998 -1.07693C14.273 -1.07692 14.537 -0.977965 14.743 -0.79836C14.9489 -0.618755 15.0829 -0.370654 15.12 -0.099939L15.1306 0.0538474V2.74963C17.7264 3.01037 20.1523 4.16069 21.997 6.0056C23.8416 7.85051 24.9916 10.2765 25.2519 12.8724L25.3077 12.8694H27.9462C28.2327 12.8695 28.5085 12.9783 28.7179 13.1739C28.9272 13.3695 29.0545 13.6373 29.0741 13.9231C29.0936 14.2089 29.0039 14.4915 28.8231 14.7138C28.6423 14.936 28.3839 15.0813 28.1 15.1204L27.9462 15.1309L25.2504 15.1294C24.99 17.7255 23.8398 20.1517 21.9949 21.9967C20.1499 23.8416 17.7237 24.9918 15.1276 25.2522L15.1306 25.308V27.9465C15.1305 28.233 15.0216 28.5088 14.826 28.7181C14.6305 28.9275 14.3627 29.0548 14.0768 29.0743C13.791 29.0938 13.5084 29.0041 13.2862 28.8233C13.0639 28.6425 12.9186 28.3841 12.8795 28.1003L12.869 27.9465L12.8705 25.2507C10.2743 24.9903 7.84813 23.8401 6.00317 21.9952C4.15821 20.1502 3.00802 17.724 2.74761 15.1279L2.69182 15.1309H0.0533018C-0.233202 15.1309 -0.508991 15.022 -0.71834 14.8264C-0.927689 14.6308 -1.05499 14.3631 -1.07452 14.0772C-1.09404 13.7914 -1.00435 13.5088 -0.823543 13.2866C-0.642741 13.0643 -0.384316 12.919 -0.100486 12.8799L0.0533018 12.8694H2.74912C3.00986 10.2735 4.16019 7.8477 6.00512 6.00307C7.85005 4.15843 10.2761 3.00848 12.872 2.74812L12.869 2.69234V0.0538474C12.869 -0.246055 12.9881 -0.533674 13.2002 -0.745737C13.4122 -0.957799 13.6999 -1.07693 13.9998 -1.07693ZM13.9998 4.9539C11.6005 4.9539 9.29955 5.90699 7.60303 7.60349C5.90651 9.29999 4.95341 11.6009 4.95341 14.0002C4.95341 16.3994 5.90651 18.7003 7.60303 20.3968C9.29955 22.0933 11.6005 23.0464 13.9998 23.0464C16.399 23.0464 18.7 22.0933 20.3965 20.3968C22.093 18.7003 23.0461 16.3994 23.0461 14.0002C23.0461 11.6009 22.093 9.29999 20.3965 7.60349C18.7 5.90699 16.399 4.9539 13.9998 4.9539ZM13.9998 7.96932C15.5993 7.96932 17.1333 8.60471 18.2643 9.73571C19.3953 10.8667 20.0307 12.4007 20.0307 14.0002C20.0307 15.5996 19.3953 17.1336 18.2643 18.2646C17.1333 19.3956 15.5993 20.031 13.9998 20.031C12.4003 20.031 10.8663 19.3956 9.73528 18.2646C8.60426 17.1336 7.96887 15.5996 7.96887 14.0002C7.96887 12.4007 8.60426 10.8667 9.73528 9.73571C10.8663 8.60471 12.4003 7.96932 13.9998 7.96932Z" fill="#7C00DE"/>
</svg>
