<svg width="44" height="44" viewBox="0 0 44 44" fill="none" xmlns="http://www.w3.org/2000/svg">
<path d="M36.1905 15.3854C36.1915 15.1999 36.156 15.016 36.0858 14.8443C36.0157 14.6726 35.9123 14.5164 35.7817 14.3847L29.8053 8.40875C29.6736 8.27813 29.5174 8.17478 29.3457 8.10464C29.1739 8.0345 28.9901 7.99895 28.8046 8.00002C28.6191 7.99895 28.4352 8.0345 28.2634 8.10464C28.0917 8.17478 27.9355 8.27813 27.8038 8.40875L23.8149 12.3974L8.40878 27.8024C8.27815 27.9341 8.17479 28.0902 8.10465 28.262C8.03451 28.4337 7.99895 28.6176 8.00002 28.803V34.779C8.00002 35.1528 8.14853 35.5113 8.41286 35.7756C8.6772 36.0399 9.03572 36.1884 9.40954 36.1884H15.3859C15.5831 36.1991 15.7804 36.1683 15.965 36.0979C16.1495 36.0275 16.3172 35.919 16.4572 35.7797L31.7787 20.3747L35.7817 16.4565C35.9103 16.3199 36.0152 16.1627 36.0918 15.9914C36.1054 15.8791 36.1054 15.7655 36.0918 15.6532C36.0984 15.5876 36.0984 15.5215 36.0918 15.4558L36.1905 15.3854ZM14.808 33.3696H10.8191V29.3809L24.8156 15.3854L28.8046 19.374L14.808 33.3696ZM30.792 17.3868L26.803 13.3981L28.8046 11.4108L32.7794 15.3854L30.792 17.3868Z" fill="#1E1E1E"/>
</svg>
