<svg width="60" height="60" viewBox="0 0 60 60" fill="none" xmlns="http://www.w3.org/2000/svg">
<path d="M48 20.6933C48.0014 20.4499 47.9547 20.2085 47.8626 19.9831C47.7706 19.7578 47.6349 19.5528 47.4635 19.3799L39.6195 11.5365C39.4466 11.365 39.2416 11.2294 39.0162 11.1373C38.7908 11.0453 38.5495 10.9986 38.306 11C38.0625 10.9986 37.8212 11.0453 37.5958 11.1373C37.3704 11.2294 37.1653 11.365 36.9925 11.5365L31.757 16.7716L11.5365 36.9906C11.3651 37.1634 11.2294 37.3684 11.1374 37.5938C11.0453 37.8192 10.9986 38.0605 11 38.304V46.1474C11 46.638 11.1949 47.1085 11.5419 47.4555C11.8888 47.8024 12.3594 47.9973 12.85 47.9973H20.694C20.9529 48.0113 21.2118 47.9709 21.454 47.8784C21.6962 47.786 21.9163 47.6437 22.1 47.4608L42.2095 27.2418L47.4635 22.0992C47.6323 21.9199 47.7699 21.7136 47.8705 21.4887C47.8883 21.3413 47.8883 21.1922 47.8705 21.0448C47.8791 20.9587 47.8791 20.8719 47.8705 20.7858L48 20.6933ZM19.9355 44.2975H14.7V39.0624L33.0705 20.6933L38.306 25.9284L19.9355 44.2975ZM40.9145 23.3201L35.679 18.085L38.306 15.4767L43.523 20.6933L40.9145 23.3201Z" fill="black"/>
<path d="M48 20.6933C48.0014 20.4499 47.9547 20.2085 47.8626 19.9831C47.7706 19.7578 47.6349 19.5528 47.4635 19.3799L39.6195 11.5365C39.4466 11.365 39.2416 11.2294 39.0162 11.1373C38.7908 11.0453 38.5495 10.9986 38.306 11C38.0625 10.9986 37.8212 11.0453 37.5958 11.1373C37.3704 11.2294 37.1653 11.365 36.9925 11.5365L31.757 16.7716L11.5365 36.9906C11.3651 37.1634 11.2294 37.3684 11.1374 37.5938C11.0453 37.8192 10.9986 38.0605 11 38.304V46.1474C11 46.638 11.1949 47.1085 11.5419 47.4555C11.8888 47.8024 12.3594 47.9973 12.85 47.9973H20.694C20.9529 48.0113 21.2118 47.9709 21.454 47.8784C21.6962 47.786 21.9163 47.6437 22.1 47.4608L42.2095 27.2418L47.4635 22.0992C47.6323 21.9199 47.7699 21.7136 47.8705 21.4887C47.8883 21.3413 47.8883 21.1922 47.8705 21.0448C47.8791 20.9587 47.8791 20.8719 47.8705 20.7858L48 20.6933ZM19.9355 44.2975H14.7V39.0624L33.0705 20.6933L38.306 25.9284L19.9355 44.2975ZM40.9145 23.3201L35.679 18.085L38.306 15.4767L43.523 20.6933L40.9145 23.3201Z" fill="black"/>
</svg>
