<svg width="40" height="40" viewBox="0 0 40 40" fill="none" xmlns="http://www.w3.org/2000/svg">
<path d="M2.85742 20C2.85742 22.2513 3.30084 24.4805 4.16234 26.5603C5.02385 28.6402 6.28659 30.53 7.87845 32.1219C9.47031 33.7137 11.3601 34.9765 13.44 35.838C15.5199 36.6995 17.749 37.1429 20.0003 37.1429C22.2515 37.1429 24.4807 36.6995 26.5606 35.838C28.6404 34.9765 30.5303 33.7137 32.1221 32.1219C33.714 30.53 34.9767 28.6402 35.8382 26.5603C36.6997 24.4805 37.1431 22.2513 37.1431 20C37.1431 17.7488 36.6997 15.5196 35.8382 13.4397C34.9767 11.3599 33.714 9.47007 32.1221 7.8782C30.5303 6.28634 28.6404 5.02361 26.5606 4.1621C24.4807 3.30059 22.2515 2.85718 20.0003 2.85718C17.749 2.85718 15.5199 3.30059 13.44 4.1621C11.3601 5.02361 9.47031 6.28634 7.87845 7.8782C6.28659 9.47007 5.02385 11.3599 4.16234 13.4397C3.30084 15.5196 2.85742 17.7488 2.85742 20Z" stroke="#1E1E1E" stroke-width="4" stroke-linecap="round" stroke-linejoin="round"/>
<path d="M24.8985 12.6531H18.776C17.8017 12.6531 16.8674 13.0401 16.1785 13.729C15.4896 14.4179 15.1025 15.3523 15.1025 16.3266C15.1025 17.3008 15.4896 18.2352 16.1785 18.9241C16.8674 19.613 17.8017 20 18.776 20H21.225C22.1993 20 23.1336 20.387 23.8225 21.076C24.5114 21.7649 24.8985 22.6992 24.8985 23.6735C24.8985 24.6478 24.5114 25.5821 23.8225 26.271C23.1336 26.9599 22.1993 27.347 21.225 27.347H15.1025M20.0005 27.347V29.7959M20.0005 10.2041V12.6531" stroke="#1E1E1E" stroke-width="4" stroke-linecap="round" stroke-linejoin="round"/>
</svg>
