<svg width="28" height="28" viewBox="0 0 28 28" fill="none" xmlns="http://www.w3.org/2000/svg">
<path d="M6 14C6 15.0506 6.20693 16.0909 6.60896 17.0615C7.011 18.0321 7.60028 18.914 8.34315 19.6569C9.08601 20.3997 9.96793 20.989 10.9385 21.391C11.9091 21.7931 12.9494 22 14 22C15.0506 22 16.0909 21.7931 17.0615 21.391C18.0321 20.989 18.914 20.3997 19.6569 19.6569C20.3997 18.914 20.989 18.0321 21.391 17.0615C21.7931 16.0909 22 15.0506 22 14C22 12.9494 21.7931 11.9091 21.391 10.9385C20.989 9.96793 20.3997 9.08601 19.6569 8.34315C18.914 7.60028 18.0321 7.011 17.0615 6.60896C16.0909 6.20693 15.0506 6 14 6C12.9494 6 11.9091 6.20693 10.9385 6.60896C9.96793 7.011 9.08601 7.60028 8.34315 8.34315C7.60028 9.08601 7.011 9.96793 6.60896 10.9385C6.20693 11.9091 6 12.9494 6 14Z" stroke="#1E1E1E" stroke-width="2" stroke-linecap="round" stroke-linejoin="round"/>
<path d="M16.2858 10.5714H13.4286C12.974 10.5714 12.5379 10.7521 12.2165 11.0735C11.895 11.395 11.7144 11.8311 11.7144 12.2857C11.7144 12.7404 11.895 13.1764 12.2165 13.4979C12.5379 13.8194 12.974 14 13.4286 14H14.5715C15.0262 14 15.4622 14.1806 15.7837 14.5021C16.1052 14.8236 16.2858 15.2596 16.2858 15.7143C16.2858 16.169 16.1052 16.605 15.7837 16.9265C15.4622 17.248 15.0262 17.4286 14.5715 17.4286H11.7144M14.0001 17.4286V18.5714M14.0001 9.42859V10.5714" stroke="#1E1E1E" stroke-width="2" stroke-linecap="round" stroke-linejoin="round"/>
</svg>
