<svg width="26" height="26" viewBox="0 0 26 26" fill="none" xmlns="http://www.w3.org/2000/svg">
<path d="M12.9887 0C5.82798 0 0 5.82798 0 12.9887C0 20.1494 5.82798 25.9774 12.9887 25.9774C20.1494 25.9774 25.9774 20.1494 25.9774 12.9887C25.9774 5.82798 20.172 0 12.9887 0ZM12.9887 20.4205C8.90009 20.4205 5.5795 17.0999 5.5795 13.0113C5.5795 8.92268 8.90009 5.60209 12.9887 5.60209C17.0773 5.60209 20.3979 8.92268 20.3979 13.0113C20.3979 17.0999 17.0773 20.4205 12.9887 20.4205Z" fill="#7C00DE"/>
<path d="M15.0892 13.8245C15.2247 13.5308 15.2925 13.2146 15.2925 12.8983C15.2925 11.9044 14.66 11.0686 13.8016 10.7524V7.65768C13.8016 7.22849 13.4402 6.86707 13.011 6.86707C12.5818 6.86707 12.2204 7.22849 12.2204 7.65768V10.7524C11.3394 11.0686 10.7295 11.927 10.7295 12.8983C10.7295 14.1633 11.7686 15.2024 13.0336 15.2024C13.395 15.2024 13.7112 15.1121 14.0275 14.9765L15.2473 16.0834C15.4054 16.2189 15.5861 16.2867 15.7894 16.2867C16.0153 16.2867 16.2186 16.1963 16.3768 16.0156C16.6704 15.6994 16.6478 15.1798 16.3316 14.8862L15.1569 13.8245H15.0892Z" fill="#7C00DE"/>
</svg>
