<svg width="32" height="38" viewBox="0 0 32 38" fill="none" xmlns="http://www.w3.org/2000/svg">
<path d="M5.90431 33H3.85631V23.304H0.576313V21.576H9.18431V23.304H5.90431V33ZM20.8288 27.272C20.8288 28.1573 20.7168 28.9627 20.4928 29.688C20.2795 30.4027 19.9488 31.0213 19.5008 31.544C19.0635 32.0667 18.5035 32.4667 17.8208 32.744C17.1488 33.0213 16.3595 33.16 15.4528 33.16C14.5355 33.16 13.7355 33.0213 13.0528 32.744C12.3808 32.456 11.8261 32.056 11.3888 31.544C10.9515 31.0213 10.6208 30.3973 10.3968 29.672C10.1835 28.9467 10.0768 28.1413 10.0768 27.256C10.0768 26.072 10.2688 25.0427 10.6528 24.168C11.0475 23.2933 11.6395 22.616 12.4288 22.136C13.2288 21.6453 14.2421 21.4 15.4688 21.4C16.6741 21.4 17.6715 21.6453 18.4608 22.136C19.2501 22.616 19.8421 23.2987 20.2368 24.184C20.6315 25.0587 20.8288 26.088 20.8288 27.272ZM12.2368 27.272C12.2368 28.136 12.3488 28.8773 12.5728 29.496C12.8075 30.1147 13.1595 30.5893 13.6288 30.92C14.1088 31.2507 14.7168 31.416 15.4528 31.416C16.2101 31.416 16.8235 31.2507 17.2928 30.92C17.7621 30.5893 18.1088 30.1147 18.3328 29.496C18.5568 28.8773 18.6688 28.136 18.6688 27.272C18.6688 25.9813 18.4181 24.968 17.9168 24.232C17.4155 23.496 16.5995 23.128 15.4688 23.128C14.7221 23.128 14.1088 23.2933 13.6288 23.624C13.1595 23.9547 12.8075 24.4293 12.5728 25.048C12.3488 25.6667 12.2368 26.408 12.2368 27.272ZM26.6694 21.576C28.1521 21.576 29.2294 21.8853 29.9014 22.504C30.5841 23.1227 30.9254 23.976 30.9254 25.064C30.9254 25.5547 30.8508 26.024 30.7014 26.472C30.5521 26.9093 30.3014 27.304 29.9494 27.656C29.5974 28.008 29.1334 28.2853 28.5574 28.488C27.9921 28.6907 27.2881 28.792 26.4454 28.792H25.3094V33H23.2614V21.576H26.6694ZM26.5414 23.272H25.3094V27.096H26.2374C26.7921 27.096 27.2614 27.032 27.6454 26.904C28.0401 26.7653 28.3388 26.552 28.5414 26.264C28.7441 25.976 28.8454 25.6027 28.8454 25.144C28.8454 24.5147 28.6588 24.0453 28.2854 23.736C27.9121 23.4267 27.3308 23.272 26.5414 23.272Z" fill="#1E1E1E"/>
<path d="M5.67505 13.0625L16 2L26.325 13.0625" stroke="#1E1E1E" stroke-width="2.5" stroke-linecap="round" stroke-linejoin="round"/>
</svg>
